<svg xmlns="http://www.w3.org/2000/svg" xmlns:xlink="http://www.w3.org/1999/xlink" width="96" height="96" viewBox="0 0 96 96">
  <defs>
    <clipPath id="clip-path">
      <rect id="Rectángulo_454800" data-name="Rectángulo 454800" width="95.999" height="95.612" fill="none"/>
    </clipPath>
    <linearGradient id="linear-gradient" x1="0.5" y1="-0.646" x2="0.5" y2="1.118" gradientUnits="objectBoundingBox">
      <stop offset="0" stop-color="#67ccf1"/>
      <stop offset="0.625" stop-color="#004b84"/>
      <stop offset="1" stop-color="#002d4f"/>
    </linearGradient>
    <clipPath id="clip-path-2">
      <rect id="Rectángulo_456492" data-name="Rectángulo 456492" width="47.066" height="47.161" fill="#fff"/>
    </clipPath>
  </defs>
  <g id="Grupo_1192020" data-name="Grupo 1192020" transform="translate(-1136.727 -7764.48)">
    <path id="Trazado_997475" data-name="Trazado 997475" d="M47.979,0A47.786,47.786,0,1,1,0,47.786,47.883,47.883,0,0,1,47.979,0Z" transform="translate(1136.768 7764.48)" fill="#fff"/>
    <g id="Grupo_1177602" data-name="Grupo 1177602" transform="translate(1136.727 7764.868)">
      <g id="Grupo_1177525" data-name="Grupo 1177525">
        <g id="Grupo_1177524" data-name="Grupo 1177524" clip-path="url(#clip-path)">
          <path id="Trazado_997408" data-name="Trazado 997408" d="M48,95.612A47.807,47.807,0,1,1,96,47.806,47.957,47.957,0,0,1,48,95.612M48,1.247A46.559,46.559,0,1,0,94.747,47.806,46.705,46.705,0,0,0,48,1.247" fill="#002d4f"/>
          <path id="Trazado_997409" data-name="Trazado 997409" d="M46.631,87.5a41.038,41.038,0,1,1,41.2-41.038A41.167,41.167,0,0,1,46.631,87.5m0-80.828a39.791,39.791,0,1,0,39.95,39.79,39.915,39.915,0,0,0-39.95-39.79" transform="translate(1.369 1.341)" fill="#002d4f"/>
          <path id="Trazado_997410" data-name="Trazado 997410" d="M45.262,79.392A34.269,34.269,0,1,1,79.669,45.124,34.377,34.377,0,0,1,45.262,79.392m0-67.29A33.022,33.022,0,1,0,78.417,45.124,33.127,33.127,0,0,0,45.262,12.1" transform="translate(2.737 2.683)" fill="#fff"/>
          <path id="Trazado_997411" data-name="Trazado 997411" d="M43.893,71.281a27.5,27.5,0,1,1,27.61-27.5,27.587,27.587,0,0,1-27.61,27.5m0-53.751A26.252,26.252,0,1,0,70.252,43.782,26.336,26.336,0,0,0,43.893,17.53" transform="translate(4.106 4.024)" fill="#fff"/>
          <path id="Trazado_997412" data-name="Trazado 997412" d="M42.525,63.171a20.73,20.73,0,1,1,20.814-20.73,20.8,20.8,0,0,1-20.814,20.73m0-40.212A19.483,19.483,0,1,0,62.086,42.441,19.544,19.544,0,0,0,42.525,22.958" transform="translate(5.475 5.365)" fill="#fff"/>
          <path id="Trazado_997413" data-name="Trazado 997413" d="M41.156,55.061A13.961,13.961,0,1,1,55.173,41.1,14,14,0,0,1,41.156,55.061m0-26.675A12.714,12.714,0,1,0,53.92,41.1,12.753,12.753,0,0,0,41.156,28.386" transform="translate(6.844 6.707)" fill="#fff"/>
          <path id="Trazado_997414" data-name="Trazado 997414" d="M39.787,46.949a7.192,7.192,0,1,1,7.221-7.191,7.215,7.215,0,0,1-7.221,7.191m0-13.136a5.944,5.944,0,1,0,5.969,5.945,5.965,5.965,0,0,0-5.969-5.945" transform="translate(8.212 8.048)" fill="#fff"/>
        </g>
      </g>
      <g id="Elipse_13614" data-name="Elipse 13614" transform="translate(7.859 7.858)" stroke="#002d4f" stroke-width="1" fill="url(#linear-gradient)">
        <ellipse cx="40.141" cy="39.948" rx="40.141" ry="39.948" stroke="none"/>
        <ellipse cx="40.141" cy="39.948" rx="39.641" ry="39.448" fill="none"/>
      </g>
    </g>
    <g id="Grupo_1192262" data-name="Grupo 1192262" transform="translate(1158.98 7788.686)">
      <g id="Grupo_1192261" data-name="Grupo 1192261" clip-path="url(#clip-path-2)">
        <path id="Trazado_1001539" data-name="Trazado 1001539" d="M77.219,181.44c1.211-.7,3.594-1.755,4.838-.717.752.627,1.009,2.383-.008,3.011L65.292,194.081a5.018,5.018,0,0,1-4.055.536l-12.27-3.282a23.168,23.168,0,0,0-2.214,1.163l-4.5-7.93,7.656-4.421a5.2,5.2,0,0,1,4.757-.321,73.648,73.648,0,0,0,8.894,2.772,1.728,1.728,0,0,1-1.109,3.265c-1.975-.373-3.84-1.011-5.792-1.524a.887.887,0,0,0-1.054.365.8.8,0,0,0,.394,1.1c2.176.656,4.317,1.224,6.541,1.718a7.274,7.274,0,0,0,5.454-.717Z" transform="translate(-35.653 -151.389)" fill="#fff"/>
        <path id="Trazado_1001540" data-name="Trazado 1001540" d="M3.5,198.3l8.053,14.22-3.5,1.98L0,200.278Zm.274,2.966a.9.9,0,1,0-.9.9.9.9,0,0,0,.9-.9" transform="translate(0 -167.336)" fill="#fff"/>
        <path id="Trazado_1001541" data-name="Trazado 1001541" d="M104.394,22.082a13.431,13.431,0,0,1-3.153.071l-.026-10.377c-.6-.166-1.542.2-1.79-.333a.553.553,0,0,1,.058-.529l2.905-4.4a.506.506,0,0,1,.841,0l2.918,4.412c.192.29.079.764-.272.78l-1.473.068Z" transform="translate(-83.865 -5.309)" fill="#fff"/>
        <path id="Trazado_1001542" data-name="Trazado 1001542" d="M165.036,81.88a8.385,8.385,0,1,1-8.385-8.385,8.385,8.385,0,0,1,8.385,8.385m-7.024,4.671A2.611,2.611,0,0,0,160.1,84.3a2.676,2.676,0,0,0-1.586-2.7c-1.326-.663-3.361-.451-3.482-1.664a1.187,1.187,0,0,1,.8-1.226,1.972,1.972,0,0,1,2.609.972.762.762,0,0,0,.9.386.781.781,0,0,0,.488-.983,3.085,3.085,0,0,0-1.975-1.892c-.746-.241-.167-1.424-1.232-1.388-1.163.039-.2,1.079-1.294,1.447a2.654,2.654,0,0,0,.269,5.142c1,.3,3.225.393,2.916,1.888-.095.459-.56.7-1.085.836a2.132,2.132,0,0,1-2.68-1.068c-.166-.469-.5-.753-.922-.675a.785.785,0,0,0-.586,1.034,3.512,3.512,0,0,0,2.595,2.354c.085.458.066,1.124.662,1.2a.783.783,0,0,0,.894-.658c.036-.419.121-.636.614-.751" transform="translate(-125.116 -62.02)" fill="#fff"/>
        <path id="Trazado_1001543" data-name="Trazado 1001543" d="M210.661,3.437a2.016,2.016,0,0,1-2.032,2.091l-12.794-.01A1.994,1.994,0,0,1,193.887,3.5V2.073A2.033,2.033,0,0,1,195.989,0l12.635.009a2.017,2.017,0,0,1,2.034,2.054Z" transform="translate(-163.614 0)" fill="#fff"/>
        <path id="Trazado_1001544" data-name="Trazado 1001544" d="M208.61,45.316l-7.759.028a10.022,10.022,0,0,0-7-1.777,7.39,7.39,0,0,1,0-2.143,1.986,1.986,0,0,1,1.947-1.627l12.7-.006a2.053,2.053,0,0,1,2.07,2.1l0,1.433a1.985,1.985,0,0,1-1.947,1.995" transform="translate(-163.515 -33.578)" fill="#fff"/>
        <path id="Trazado_1001545" data-name="Trazado 1001545" d="M253.662,81.395c.057,1.687.25,3.351-1.861,3.706l-3.873,0a10.108,10.108,0,0,0-3.063-5.491l6.628-.057a2.089,2.089,0,0,1,2.169,1.837" transform="translate(-206.633 -67.136)" fill="#fff"/>
        <path id="Trazado_1001546" data-name="Trazado 1001546" d="M266.2,122.964a1.982,1.982,0,0,1-1.924,2l-4.565.01a10.889,10.889,0,0,0,.856-5.532l3.613,0a2.023,2.023,0,0,1,2.019,2c.013.488.017.931,0,1.52" transform="translate(-219.164 -100.793)" fill="#fff"/>
      </g>
    </g>
  </g>
</svg>
