<svg xmlns="http://www.w3.org/2000/svg" xmlns:xlink="http://www.w3.org/1999/xlink" width="96" height="96" viewBox="0 0 96 96">
  <defs>
    <clipPath id="clip-path">
      <rect id="Rectángulo_454800" data-name="Rectángulo 454800" width="95.999" height="95.612" fill="none"/>
    </clipPath>
    <linearGradient id="linear-gradient" x1="0.5" y1="-0.646" x2="0.5" y2="1.118" gradientUnits="objectBoundingBox">
      <stop offset="0" stop-color="#67ccf1"/>
      <stop offset="0.625" stop-color="#004b84"/>
      <stop offset="1" stop-color="#002d4f"/>
    </linearGradient>
    <clipPath id="clip-path-2">
      <rect id="Rectángulo_456493" data-name="Rectángulo 456493" width="50.622" height="50.234" fill="#fff"/>
    </clipPath>
  </defs>
  <g id="Grupo_1192021" data-name="Grupo 1192021" transform="translate(-1136.727 -7764.48)">
    <path id="Trazado_997475" data-name="Trazado 997475" d="M47.979,0A47.786,47.786,0,1,1,0,47.786,47.883,47.883,0,0,1,47.979,0Z" transform="translate(1136.768 7764.48)" fill="#fff"/>
    <g id="Grupo_1177602" data-name="Grupo 1177602" transform="translate(1136.727 7764.868)">
      <g id="Grupo_1177525" data-name="Grupo 1177525">
        <g id="Grupo_1177524" data-name="Grupo 1177524" clip-path="url(#clip-path)">
          <path id="Trazado_997408" data-name="Trazado 997408" d="M48,95.612A47.807,47.807,0,1,1,96,47.806,47.957,47.957,0,0,1,48,95.612M48,1.247A46.559,46.559,0,1,0,94.747,47.806,46.705,46.705,0,0,0,48,1.247" fill="#002d4f"/>
          <path id="Trazado_997409" data-name="Trazado 997409" d="M46.631,87.5a41.038,41.038,0,1,1,41.2-41.038A41.167,41.167,0,0,1,46.631,87.5m0-80.828a39.791,39.791,0,1,0,39.95,39.79,39.915,39.915,0,0,0-39.95-39.79" transform="translate(1.369 1.341)" fill="#002d4f"/>
          <path id="Trazado_997410" data-name="Trazado 997410" d="M45.262,79.392A34.269,34.269,0,1,1,79.669,45.124,34.377,34.377,0,0,1,45.262,79.392m0-67.29A33.022,33.022,0,1,0,78.417,45.124,33.127,33.127,0,0,0,45.262,12.1" transform="translate(2.737 2.683)" fill="#fff"/>
          <path id="Trazado_997411" data-name="Trazado 997411" d="M43.893,71.281a27.5,27.5,0,1,1,27.61-27.5,27.587,27.587,0,0,1-27.61,27.5m0-53.751A26.252,26.252,0,1,0,70.252,43.782,26.336,26.336,0,0,0,43.893,17.53" transform="translate(4.106 4.024)" fill="#fff"/>
          <path id="Trazado_997412" data-name="Trazado 997412" d="M42.525,63.171a20.73,20.73,0,1,1,20.814-20.73,20.8,20.8,0,0,1-20.814,20.73m0-40.212A19.483,19.483,0,1,0,62.086,42.441,19.544,19.544,0,0,0,42.525,22.958" transform="translate(5.475 5.365)" fill="#fff"/>
          <path id="Trazado_997413" data-name="Trazado 997413" d="M41.156,55.061A13.961,13.961,0,1,1,55.173,41.1,14,14,0,0,1,41.156,55.061m0-26.675A12.714,12.714,0,1,0,53.92,41.1,12.753,12.753,0,0,0,41.156,28.386" transform="translate(6.844 6.707)" fill="#fff"/>
          <path id="Trazado_997414" data-name="Trazado 997414" d="M39.787,46.949a7.192,7.192,0,1,1,7.221-7.191,7.215,7.215,0,0,1-7.221,7.191m0-13.136a5.944,5.944,0,1,0,5.969,5.945,5.965,5.965,0,0,0-5.969-5.945" transform="translate(8.212 8.048)" fill="#fff"/>
        </g>
      </g>
      <g id="Elipse_13614" data-name="Elipse 13614" transform="translate(7.859 7.858)" stroke="#002d4f" stroke-width="1" fill="url(#linear-gradient)">
        <ellipse cx="40.141" cy="39.948" rx="40.141" ry="39.948" stroke="none"/>
        <ellipse cx="40.141" cy="39.948" rx="39.641" ry="39.448" fill="none"/>
      </g>
    </g>
    <g id="Grupo_1192264" data-name="Grupo 1192264" transform="translate(1159.416 7786.15)">
      <g id="Grupo_1192263" data-name="Grupo 1192263" clip-path="url(#clip-path-2)">
        <path id="Trazado_1001547" data-name="Trazado 1001547" d="M220,76.269,217.51,72.6l-4.445-.09a1.167,1.167,0,0,1-.971-.751,1.379,1.379,0,0,1,.268-1.334l2.572-3.248-1.273-4.28a1.122,1.122,0,0,1,.4-1.152,1.262,1.262,0,0,1,1.271-.18l3.99,1.459,3.5-2.445a1.228,1.228,0,0,1,1.386-.07,1.35,1.35,0,0,1,.573,1.25l-.169,4.152,3.415,2.579a1.213,1.213,0,0,1,.5,1.216,1.188,1.188,0,0,1-.815.919l-4.2,1.21-1.433,4.086a1.194,1.194,0,0,1-2.07.353" transform="translate(-177.913 -50.619)" fill="#fff"/>
        <path id="Trazado_1001548" data-name="Trazado 1001548" d="M114,13.8l-4,2.039a1.153,1.153,0,0,1-1.176-.145,1.171,1.171,0,0,1-.455-1.142l.712-4.273-3.1-3.059a1.215,1.215,0,0,1-.254-1.345,1.306,1.306,0,0,1,1.1-.732l4.092-.6L112.86.683A1.177,1.177,0,0,1,113.884,0a1.147,1.147,0,0,1,1.107.584L116.933,4.5c1.383.3,2.737.428,4.138.634a1.327,1.327,0,0,1,1.1.739,1.223,1.223,0,0,1-.251,1.347l-3.085,3.019.7,4.312a1.169,1.169,0,0,1-.451,1.141,1.2,1.2,0,0,1-1.265.12Z" transform="translate(-88.643 0)" fill="#fff"/>
        <path id="Trazado_1001549" data-name="Trazado 1001549" d="M11.045,72.5,8.639,76.07a1.218,1.218,0,0,1-1.1.58,1.112,1.112,0,0,1-1.029-.7l-1.481-4.2L.96,70.6a1.311,1.311,0,0,1-.909-.839,1.212,1.212,0,0,1,.464-1.348l3.416-2.577-.169-4.157a1.354,1.354,0,0,1,.489-1.19,1.129,1.129,0,0,1,1.272-.1l3.7,2.551,4.109-1.492a1.217,1.217,0,0,1,1.146.218,1.178,1.178,0,0,1,.369,1.3L13.6,67.1l2.7,3.446a1.2,1.2,0,0,1,.084,1.258,1.238,1.238,0,0,1-1.051.652Z" transform="translate(0 -50.548)" fill="#fff"/>
        <path id="Trazado_1001550" data-name="Trazado 1001550" d="M148.441,147.647c.924.043,2.116.741,2.136,1.791.019,1.013-1.173,1.806-2.078,1.819l-3.3.05c-.1.281-.2.965.04,1.076a11.647,11.647,0,0,0,2.4.083c.906.065,2.123.728,2.127,1.807,0,1-1.223,1.827-2.234,1.828l-15.826.02a3.243,3.243,0,0,1-1.88-.521l.013-15.422c4.409-2.863,2.765-1.781,5.614-6.062l.008-5.73a.867.867,0,0,1,.359-.679.989.989,0,0,1,.76-.089,3.794,3.794,0,0,1,3.691,3.942l.043,6.429,8.758,0c1,0,2.274.679,2.3,1.8.025,1.056-1.258,1.824-2.2,1.831l-3.975.028a1.353,1.353,0,0,0,.039,1.133l4,.042c.921.01,2.133.748,2.136,1.785,0,1.127-1.334,1.846-2.336,1.85l-3.843.014c-.106.324-.182.92.034,1.113,1.08.155,2.081.007,3.209.06" transform="translate(-108.945 -107.061)" fill="#fff"/>
        <path id="Trazado_1001551" data-name="Trazado 1001551" d="M66.6,211.569l-7.946.013a1.241,1.241,0,0,1-1.3-1.3v-16.71a1.222,1.222,0,0,1,1.285-1.292h7.886a1.223,1.223,0,0,1,1.285,1.292v16.71a1.206,1.206,0,0,1-1.213,1.29m-2.819-3.112a1.2,1.2,0,1,0-1.2,1.2,1.2,1.2,0,0,0,1.2-1.2" transform="translate(-48.13 -161.348)" fill="#fff"/>
      </g>
    </g>
  </g>
</svg>
