<svg xmlns="http://www.w3.org/2000/svg" xmlns:xlink="http://www.w3.org/1999/xlink" width="128" height="128" viewBox="0 0 128 128">
  <defs>
    <clipPath id="clip-path">
      <rect id="Rectángulo_454800" data-name="Rectángulo 454800" width="127.998" height="127.488" fill="none"/>
    </clipPath>
    <linearGradient id="linear-gradient" x1="0.5" y1="-0.646" x2="0.5" y2="1.118" gradientUnits="objectBoundingBox">
      <stop offset="0" stop-color="#67ccf1"/>
      <stop offset="0.625" stop-color="#004b84"/>
      <stop offset="1" stop-color="#002d4f"/>
    </linearGradient>
    <clipPath id="clip-path-2">
      <rect id="Rectángulo_456507" data-name="Rectángulo 456507" width="62.567" height="62.533" fill="#fff"/>
    </clipPath>
  </defs>
  <g id="Grupo_1192058" data-name="Grupo 1192058" transform="translate(-1136.727 -7764.48)">
    <path id="Trazado_997475" data-name="Trazado 997475" d="M63.973,0A63.718,63.718,0,1,1,0,63.717,63.845,63.845,0,0,1,63.973,0Z" transform="translate(1136.781 7764.48)" fill="#fff"/>
    <g id="Grupo_1177602" data-name="Grupo 1177602" transform="translate(1136.727 7764.993)">
      <g id="Grupo_1177525" data-name="Grupo 1177525">
        <g id="Grupo_1177524" data-name="Grupo 1177524" clip-path="url(#clip-path)">
          <path id="Trazado_997408" data-name="Trazado 997408" d="M64,127.488a63.744,63.744,0,1,1,64-63.744,63.944,63.944,0,0,1-64,63.744M64,1.663a62.081,62.081,0,1,0,62.33,62.081A62.275,62.275,0,0,0,64,1.663" fill="#002d4f"/>
          <path id="Trazado_997409" data-name="Trazado 997409" d="M60.365,114.865A54.719,54.719,0,1,1,115.3,60.146a54.891,54.891,0,0,1-54.937,54.719m0-107.774a53.056,53.056,0,1,0,53.267,53.055A53.222,53.222,0,0,0,60.365,7.091" transform="translate(3.634 3.598)" fill="#002d4f"/>
          <path id="Trazado_997410" data-name="Trazado 997410" d="M56.731,102.241a45.693,45.693,0,1,1,45.876-45.693,45.837,45.837,0,0,1-45.876,45.693m0-89.723a44.031,44.031,0,1,0,44.207,44.03,44.17,44.17,0,0,0-44.207-44.03" transform="translate(7.268 7.196)" fill="#fff"/>
          <path id="Trazado_997411" data-name="Trazado 997411" d="M53.1,89.617A36.667,36.667,0,1,1,89.911,52.95,36.783,36.783,0,0,1,53.1,89.617m0-71.671a35,35,0,1,0,35.144,35,35.115,35.115,0,0,0-35.144-35" transform="translate(10.902 10.794)" fill="#fff"/>
          <path id="Trazado_997412" data-name="Trazado 997412" d="M49.462,76.992A27.641,27.641,0,1,1,77.214,49.352,27.728,27.728,0,0,1,49.462,76.992m0-53.618A25.978,25.978,0,1,0,75.544,49.352,26.059,26.059,0,0,0,49.462,23.374" transform="translate(14.537 14.392)" fill="#fff"/>
          <path id="Trazado_997413" data-name="Trazado 997413" d="M45.828,64.37A18.615,18.615,0,1,1,64.517,45.753,18.673,18.673,0,0,1,45.828,64.37m0-35.568a16.953,16.953,0,1,0,17.02,16.952A17,17,0,0,0,45.828,28.8" transform="translate(18.171 17.99)" fill="#fff"/>
          <path id="Trazado_997414" data-name="Trazado 997414" d="M42.194,51.744a9.589,9.589,0,1,1,9.628-9.588,9.62,9.62,0,0,1-9.628,9.588m0-17.515a7.926,7.926,0,1,0,7.959,7.927,7.953,7.953,0,0,0-7.959-7.927" transform="translate(21.805 21.588)" fill="#fff"/>
        </g>
      </g>
      <g id="Elipse_13614" data-name="Elipse 13614" transform="translate(10.388 10.387)" stroke="#002d4f" stroke-width="1" fill="url(#linear-gradient)">
        <ellipse cx="53.612" cy="53.356" rx="53.612" ry="53.356" stroke="none"/>
        <ellipse cx="53.612" cy="53.356" rx="53.112" ry="52.856" fill="none"/>
      </g>
    </g>
    <g id="Grupo_1192287" data-name="Grupo 1192287" transform="translate(1169.47 7796.931)">
      <g id="Grupo_1192286" data-name="Grupo 1192286" clip-path="url(#clip-path-2)">
        <path id="Trazado_1001607" data-name="Trazado 1001607" d="M10.665,123.811l-7.552.012A3.118,3.118,0,0,1,0,120.655l.008-7.438a3.146,3.146,0,0,1,3.3-3.1l7.242.017a3.084,3.084,0,0,1,3.138,3.084l.007,7.436a3.076,3.076,0,0,1-3.032,3.159M5.155,119.6a1.025,1.025,0,0,0,1.436,0l4.873-4.892a.961.961,0,0,0-.11-1.414.95.95,0,0,0-1.253.059l-4.222,4.159-2.295-2.223a.948.948,0,0,0-1.36.063.975.975,0,0,0-.006,1.3Z" transform="translate(0 -88.603)" fill="#fff"/>
        <path id="Trazado_1001608" data-name="Trazado 1001608" d="M10.681,33.773l-7.553.011A3.105,3.105,0,0,1,.011,30.646l0-7.443a3.08,3.08,0,0,1,3.107-3.1l7.448,0A3.09,3.09,0,0,1,13.7,23.2l0,7.446a3.066,3.066,0,0,1-3.022,3.123m-5.558-4.24A1.067,1.067,0,0,0,6.676,29.5l4.788-4.807a.968.968,0,0,0-1.379-1.359L5.9,27.481,3.534,25.2a.949.949,0,0,0-1.315.123.971.971,0,0,0-.039,1.226Z" transform="translate(-0.009 -16.176)" fill="#fff"/>
        <path id="Trazado_1001609" data-name="Trazado 1001609" d="M108.744,72.057l-17.562,0a.944.944,0,0,1-.946-1.068,1.012,1.012,0,0,1,1.132-.88l17.357.006a.973.973,0,1,1,.019,1.944" transform="translate(-72.604 -56.41)" fill="#fff"/>
        <path id="Trazado_1001610" data-name="Trazado 1001610" d="M103.948,52.107l-12.781-.013a.965.965,0,0,1,0-1.93l12.679-.006a.976.976,0,0,1,.106,1.948" transform="translate(-72.597 -40.36)" fill="#fff"/>
        <path id="Trazado_1001611" data-name="Trazado 1001611" d="M98.956,32.067l-7.8-.007a.963.963,0,0,1,0-1.925l7.8-.007a.97.97,0,1,1-.006,1.939" transform="translate(-72.596 -24.242)" fill="#fff"/>
        <path id="Trazado_1001612" data-name="Trazado 1001612" d="M89.524,259.963l-21.658.006a.832.832,0,0,1-.939-.827l-.023-7.779a.979.979,0,0,0-.728-1.031c-.484-.11-1.152.106-1.174.7l-.116,3.083-4.746-3.235c-.159-1.508-.045-2.909-.078-4.412a1.017,1.017,0,0,1,1.016-1.093l35.046,0c1.783,0,.955,2.842,1.06,4.452l-4.767,4.256c-.347-1.246.54-3.73-1.021-3.766a.962.962,0,0,0-1.007,1.079l-.029,7.766a.819.819,0,0,1-.838.8" transform="translate(-48.321 -197.436)" fill="#fff"/>
        <path id="Trazado_1001613" data-name="Trazado 1001613" d="M124.26,174.365c-1.221,1.038.98,2.2,1.552,3.148.233.386.057.953-.036,1.488l-10.607.015-.091-3.985a.931.931,0,0,0-.928-.887c-.364-.023-.947.251-.957.763l-.078,4.054a21.958,21.958,0,0,1-2.872.038l-.023-6.9a6.738,6.738,0,0,1,6.78-6.766l5.465.012a4.244,4.244,0,0,1,3.373,1.671l4.888,6.09c1.81.355,5.977-.912,5.884,2.048a2.034,2.034,0,0,1-2.2,1.921l-6.219-.051-2.673-2.64a.952.952,0,0,0-1.257-.013" transform="translate(-88.688 -133.029)" fill="#fff"/>
        <path id="Trazado_1001614" data-name="Trazado 1001614" d="M140.967,105.579a5.375,5.375,0,1,1-5.375-5.375,5.375,5.375,0,0,1,5.375,5.375" transform="translate(-104.776 -80.628)" fill="#fff"/>
        <path id="Trazado_1001615" data-name="Trazado 1001615" d="M226.843,23.486l-11.707-.014c-.6,0-.81-.539-.912-.922-.124-.464.515-.759.716-1.116a7.863,7.863,0,0,0-1.792-2.837A11.821,11.821,0,0,1,210.634,8.2a10.722,10.722,0,0,1,21.117,1.732,11.7,11.7,0,0,1-2.6,8.428,10.709,10.709,0,0,0-2,3.067c.332.339.848.652.747,1.148a1.023,1.023,0,0,1-1.056.907M221.216,3.814c-.146-1.739-4.853-.831-6.827,2.491a.993.993,0,0,0,.245,1.323.97.97,0,0,0,1.378-.27c2.153-3.6,5.375-1.515,5.2-3.544m-6.033,5.971a.961.961,0,1,0-.961.961.961.961,0,0,0,.961-.961m4.212,6.546a1.026,1.026,0,0,0,1.46-.056l4.855-4.886a.975.975,0,0,0-.148-1.4,1.032,1.032,0,0,0-1.3.121l-4.171,4.124-2.314-2.244a.946.946,0,0,0-1.373.129.987.987,0,0,0,.11,1.337Z" transform="translate(-169.215 0)" fill="#fff"/>
        <path id="Trazado_1001616" data-name="Trazado 1001616" d="M242.222,139.09l-1.887.012a2,2,0,0,1-2.053-2.238,1.037,1.037,0,0,0-.09-.6c-.12-.182-2.749.233-2.828-1.94-.049-1.346-.03-2.62,0-4.018l11.7,0,.02,3.812c.012,2.319-2.658,2.01-2.831,2.133s.179,2.821-2.034,2.835" transform="translate(-189.359 -104.85)" fill="#fff"/>
      </g>
    </g>
  </g>
</svg>
