<svg xmlns="http://www.w3.org/2000/svg" xmlns:xlink="http://www.w3.org/1999/xlink" width="84" height="84" viewBox="0 0 84 84">
  <defs>
    <clipPath id="clip-path">
      <rect id="Rectángulo_456489" data-name="Rectángulo 456489" width="59.492" height="59.53" fill="#12263f"/>
    </clipPath>
  </defs>
  <g id="Grupo_1192016" data-name="Grupo 1192016" transform="translate(-179.668 -5521)">
    <rect id="Rectángulo_402006" data-name="Rectángulo 402006" width="84" height="84" rx="5" transform="translate(179.668 5521)" fill="#fe93c4"/>
    <g id="Grupo_1192256" data-name="Grupo 1192256" transform="translate(191.922 5533.235)">
      <g id="Grupo_1192255" data-name="Grupo 1192255" clip-path="url(#clip-path)">
        <path id="Trazado_1001525" data-name="Trazado 1001525" d="M135.6,146.742a9.3,9.3,0,1,0,6.813,6.78c3.114.787,4.522,1.943,7.593-.377a16.844,16.844,0,1,1-14-14c-2.33,3.144-1.151,4.335-.407,7.594" transform="translate(-94.856 -113.101)" fill="#12263f"/>
        <path id="Trazado_1001526" data-name="Trazado 1001526" d="M242.337,132.489a1.789,1.789,0,0,1-1.831.493l-4.874-1.631a1.878,1.878,0,0,1-1.2-1.2l-1.629-4.9a1.7,1.7,0,0,1,.438-1.748l6.026-6.045a1.788,1.788,0,0,1,1.595-.57,1.5,1.5,0,0,1,1.29.866l1.505,4.354,4.1,1.391a1.743,1.743,0,0,1,.724,2.837Z" transform="translate(-189.445 -95.14)" fill="#12263f"/>
        <path id="Trazado_1001527" data-name="Trazado 1001527" d="M180.558,202.763a1.74,1.74,0,0,0,.021,2.6,1.828,1.828,0,0,0,2.592-.274l3.7-3.684a5.81,5.81,0,1,1-2.487-2.483Z" transform="translate(-143.2 -161.386)" fill="#12263f"/>
        <path id="Trazado_1001528" data-name="Trazado 1001528" d="M18.167,33.4c.809.139,1.475-.081,2.273.106A22.94,22.94,0,0,0,18.3,40.234c-.788.341-1.686.755-1.686,1.736a1.82,1.82,0,0,0,1.575,1.846,20.741,20.741,0,0,0,4.956,12.339l-21.273.021A1.738,1.738,0,0,1,0,54.433L0,4.654A4.407,4.407,0,0,1,4.37.177,4.372,4.372,0,0,1,8.826,4.513L8.818,8.722a1.917,1.917,0,0,0,2.17,2.046l27.492,0,0,11.714a20.359,20.359,0,0,0-15.645,7.4l-4.617.059a1.7,1.7,0,0,0-1.595,1.595,1.774,1.774,0,0,0,1.54,1.855m-9.76-9.358a1.781,1.781,0,0,0,2.576-.071L14.3,20.633a1.748,1.748,0,0,0,.062-2.393c-1.778-1.965-3.5,1.308-4.783,2.084a1.935,1.935,0,0,0-2.522-.75,1.7,1.7,0,0,0-.613,2.41,16.537,16.537,0,0,0,1.964,2.054m21.07-1.111a1.689,1.689,0,0,0,1.658-1.66c.028-.669-.482-1.739-1.4-1.74l-11.685,0c-.977,0-1.525,1.161-1.416,1.885a1.76,1.76,0,0,0,1.769,1.536ZM8.633,34.791a1.756,1.756,0,0,0,2.324-.229L14.3,31.206a1.745,1.745,0,0,0-.033-2.487c-1.855-1.712-3.33,1.354-4.694,2.2a1.879,1.879,0,0,0-2.663-.669,1.718,1.718,0,0,0-.292,2.565,19.064,19.064,0,0,0,2.017,1.976m2.221,10.265,3.443-3.44a1.73,1.73,0,0,0-2.352-2.535c-.843.721-1.46,1.588-2.374,2.245a1.867,1.867,0,0,0-2.639-.683,1.715,1.715,0,0,0-.32,2.575c1.143,1.247,2.757,3.32,4.241,1.838" transform="translate(0 -0.143)" fill="#12263f"/>
        <path id="Trazado_1001529" data-name="Trazado 1001529" d="M91.823,7.1l-31.309,0c-.225-3.03.392-4.174-1.349-7.045L85.33,0a6.276,6.276,0,0,1,6.493,7.1" transform="translate(-48.163 0)" fill="#12263f"/>
      </g>
    </g>
  </g>
</svg>
