<svg xmlns="http://www.w3.org/2000/svg" xmlns:xlink="http://www.w3.org/1999/xlink" width="84" height="84" viewBox="0 0 84 84">
  <defs>
    <clipPath id="clip-path">
      <rect id="Rectángulo_456427" data-name="Rectángulo 456427" width="65.686" height="60.683" fill="#fff"/>
    </clipPath>
  </defs>
  <g id="Grupo_1191874" data-name="Grupo 1191874" transform="translate(-710 -1680.92)">
    <g id="Grupo_1119665" data-name="Grupo 1119665" transform="translate(710 1680.92)">
      <rect id="Rectángulo_402006" data-name="Rectángulo 402006" width="84" height="84" rx="5" fill="#004b84"/>
    </g>
    <g id="Grupo_1192203" data-name="Grupo 1192203" transform="translate(719.157 1692.579)">
      <g id="Grupo_1192202" data-name="Grupo 1192202" clip-path="url(#clip-path)">
        <path id="Trazado_1001369" data-name="Trazado 1001369" d="M140.627,10.585A10.585,10.585,0,1,1,130.043,0a10.585,10.585,0,0,1,10.585,10.585m-3.133.058a7.39,7.39,0,1,0-7.39,7.39,7.39,7.39,0,0,0,7.39-7.39" transform="translate(-87.306)" fill="#fff"/>
        <path id="Trazado_1001370" data-name="Trazado 1001370" d="M217.38,118.164c.911,1.251-1.724,2.719-3.111,3.6a1.251,1.251,0,0,1-1.67-.443l-4.784-6.808,4.554-3.229Z" transform="translate(-151.882 -81.333)" fill="#fff"/>
        <path id="Trazado_1001371" data-name="Trazado 1001371" d="M185.058,82.345c-.692-.987-2.9-3.143-1.761-4.018,1-.767,1.952-1.444,2.982-2.142,1.328-.9,2.572,1.856,3.3,2.914Z" transform="translate(-133.729 -55.55)" fill="#fff"/>
        <rect id="Rectángulo_456426" data-name="Rectángulo 456426" width="5.725" height="3.768" transform="matrix(0.814, -0.581, 0.581, 0.814, 52.482, 28.496)" fill="#fff"/>
        <path id="Trazado_1001372" data-name="Trazado 1001372" d="M151.17,28.55c-.292.755-.6,1.04-1.229,1.031s-.676-.568-1-1.13c-.348-.612-1.268-.642-1.753-1.161s-.7-1.109-.244-1.6c.483-.524,1.118-.458,1.737.118s2.134.866,2.477-.121c.473-1.365-3.724-.26-4.241-3.108-.268-1.474.65-2.442,1.915-3.235.289-.181.215-1.032.545-1.2s1.168-.368,1.382.168c.94,2.359,2.176,1.241,2.314,2.7a1.081,1.081,0,0,1-.57,1.046c-.845.5-2.773-1.968-3.649.187,1.212.809,3.743.524,4.349,2.426.777,2.443-1.821,3.326-2.036,3.884" transform="translate(-107.213 -13.123)" fill="#fff"/>
        <path id="Trazado_1001373" data-name="Trazado 1001373" d="M68.113,52.274a2.867,2.867,0,0,1-3.033,2.9l-22.853-.033A2.552,2.552,0,0,0,39.482,57.8a5.005,5.005,0,1,1-9.993.223l.023-46.751A8.847,8.847,0,0,0,28.192,5.9l22.893-.035a1.713,1.713,0,0,1,1.252.5,1.4,1.4,0,0,1,.24,1.576A12.832,12.832,0,0,0,66.421,27.316a1.39,1.39,0,0,1,1.71,1.426ZM48.872,24.556c.509-5.033-6.633-8.008-6.638-5.749l-.01,5.073c0,1.479,5.17.669,6.648.676M39.78,18.707c0-1.622-7.716.814-7.575,7.724.132,6.469,7.587,9.234,7.586,7.131Zm9.478,9.506a.832.832,0,0,0-.851-1.04l-6.31.078a49.764,49.764,0,0,0-.168,6.327c-.083,2.266,6.529.165,7.329-5.366m7.482,3.108H52.964V50H56.74Zm6.741,18.328L63.451,36.5a5.484,5.484,0,0,0-3.688.032l0,13.115a4.416,4.416,0,0,0,3.717,0m-13.6-.1.032-9.954a4.85,4.85,0,0,0-3.706.025L46.251,49.7c1.07.372,2.749.632,3.625-.154" transform="translate(-20.604 -4.285)" fill="#fff"/>
        <path id="Trazado_1001374" data-name="Trazado 1001374" d="M98.078,203.741l-31.7.014c5.3-3.57,1.182-7.972,4.569-7.974l31.719-.019a6.339,6.339,0,0,1-.526,5.688,5.2,5.2,0,0,1-4.06,2.291" transform="translate(-48.511 -143.073)" fill="#fff"/>
        <path id="Trazado_1001375" data-name="Trazado 1001375" d="M7.142,14.147c-.052,1.664-3.464,1.164-5.753,1.141-1.737-.017-1.4-2.737-1.285-4.64a3.564,3.564,0,0,1,3.4-3.381,3.469,3.469,0,0,1,3.61,3.075,30.376,30.376,0,0,1,.024,3.8" transform="translate(0 -5.31)" fill="#fff"/>
      </g>
    </g>
  </g>
</svg>
