<svg xmlns="http://www.w3.org/2000/svg" xmlns:xlink="http://www.w3.org/1999/xlink" width="128" height="128" viewBox="0 0 128 128">
  <defs>
    <clipPath id="clip-path">
      <rect id="Rectángulo_454800" data-name="Rectángulo 454800" width="127.998" height="127.488" fill="none"/>
    </clipPath>
    <linearGradient id="linear-gradient" x1="0.5" y1="-0.646" x2="0.5" y2="1.118" gradientUnits="objectBoundingBox">
      <stop offset="0" stop-color="#67ccf1"/>
      <stop offset="0.625" stop-color="#004b84"/>
      <stop offset="1" stop-color="#002d4f"/>
    </linearGradient>
    <clipPath id="clip-path-2">
      <rect id="Rectángulo_456435" data-name="Rectángulo 456435" width="50.536" height="66.271" fill="#fff"/>
    </clipPath>
  </defs>
  <g id="Grupo_1191905" data-name="Grupo 1191905" transform="translate(-1136.727 -7764.48)">
    <path id="Trazado_997475" data-name="Trazado 997475" d="M63.973,0A63.718,63.718,0,1,1,0,63.717,63.845,63.845,0,0,1,63.973,0Z" transform="translate(1136.781 7764.48)" fill="#fff"/>
    <g id="Grupo_1177602" data-name="Grupo 1177602" transform="translate(1136.727 7764.993)">
      <g id="Grupo_1177525" data-name="Grupo 1177525">
        <g id="Grupo_1177524" data-name="Grupo 1177524" clip-path="url(#clip-path)">
          <path id="Trazado_997408" data-name="Trazado 997408" d="M64,127.488a63.744,63.744,0,1,1,64-63.744,63.944,63.944,0,0,1-64,63.744M64,1.663a62.081,62.081,0,1,0,62.33,62.081A62.275,62.275,0,0,0,64,1.663" fill="#002d4f"/>
          <path id="Trazado_997409" data-name="Trazado 997409" d="M60.365,114.865A54.719,54.719,0,1,1,115.3,60.146a54.891,54.891,0,0,1-54.937,54.719m0-107.774a53.056,53.056,0,1,0,53.267,53.055A53.222,53.222,0,0,0,60.365,7.091" transform="translate(3.634 3.598)" fill="#002d4f"/>
          <path id="Trazado_997410" data-name="Trazado 997410" d="M56.731,102.241a45.693,45.693,0,1,1,45.876-45.693,45.837,45.837,0,0,1-45.876,45.693m0-89.723a44.031,44.031,0,1,0,44.207,44.03,44.17,44.17,0,0,0-44.207-44.03" transform="translate(7.268 7.196)" fill="#fff"/>
          <path id="Trazado_997411" data-name="Trazado 997411" d="M53.1,89.617A36.667,36.667,0,1,1,89.911,52.95,36.783,36.783,0,0,1,53.1,89.617m0-71.671a35,35,0,1,0,35.144,35,35.115,35.115,0,0,0-35.144-35" transform="translate(10.902 10.794)" fill="#fff"/>
          <path id="Trazado_997412" data-name="Trazado 997412" d="M49.462,76.992A27.641,27.641,0,1,1,77.214,49.352,27.728,27.728,0,0,1,49.462,76.992m0-53.618A25.978,25.978,0,1,0,75.544,49.352,26.059,26.059,0,0,0,49.462,23.374" transform="translate(14.537 14.392)" fill="#fff"/>
          <path id="Trazado_997413" data-name="Trazado 997413" d="M45.828,64.37A18.615,18.615,0,1,1,64.517,45.753,18.673,18.673,0,0,1,45.828,64.37m0-35.568a16.953,16.953,0,1,0,17.02,16.952A17,17,0,0,0,45.828,28.8" transform="translate(18.171 17.99)" fill="#fff"/>
          <path id="Trazado_997414" data-name="Trazado 997414" d="M42.194,51.744a9.589,9.589,0,1,1,9.628-9.588,9.62,9.62,0,0,1-9.628,9.588m0-17.515a7.926,7.926,0,1,0,7.959,7.927,7.953,7.953,0,0,0-7.959-7.927" transform="translate(21.805 21.588)" fill="#fff"/>
        </g>
      </g>
      <g id="Elipse_13614" data-name="Elipse 13614" transform="translate(10.388 10.387)" stroke="#002d4f" stroke-width="1" fill="url(#linear-gradient)">
        <ellipse cx="53.612" cy="53.356" rx="53.612" ry="53.356" stroke="none"/>
        <ellipse cx="53.612" cy="53.356" rx="53.112" ry="52.856" fill="none"/>
      </g>
    </g>
    <g id="Grupo_1192209" data-name="Grupo 1192209" transform="translate(1175.486 7795.063)">
      <path id="Trazado_1001384" data-name="Trazado 1001384" d="M183.291,19.991l-14.321.047L169,5.676Z" transform="translate(-133.975 -4.5)" fill="#fff"/>
      <g id="Grupo_1192208" data-name="Grupo 1192208">
        <g id="Grupo_1192207" data-name="Grupo 1192207" clip-path="url(#clip-path-2)">
          <path id="Trazado_1001385" data-name="Trazado 1001385" d="M50.52,64.248A1.972,1.972,0,0,1,48.43,66.27H2.1a2.006,2.006,0,0,1-2.1-2.121L0,2.306A2,2,0,0,1,1.894.011L31.068,0l0,17.376a2.087,2.087,0,0,0,2.081,2.065l17.383.007ZM38.19,55.691a2.064,2.064,0,0,0,1.977-2.08l0-23.141a1.934,1.934,0,0,0-2.281-1.952l-25.866.023a1.857,1.857,0,0,0-1.648,1.921V53.619a2.036,2.036,0,0,0,2.08,2.058Z" transform="translate(0.001)" fill="#fff"/>
          <rect id="Rectángulo_456430" data-name="Rectángulo 456430" width="9.049" height="3.924" transform="translate(14.29 32.323)" fill="#fff"/>
          <rect id="Rectángulo_456431" data-name="Rectángulo 456431" width="9.049" height="3.922" transform="translate(27.197 32.325)" fill="#fff"/>
          <rect id="Rectángulo_456432" data-name="Rectángulo 456432" width="9.049" height="3.924" transform="translate(14.29 47.856)" fill="#fff"/>
          <rect id="Rectángulo_456433" data-name="Rectángulo 456433" width="9.049" height="3.922" transform="translate(27.197 47.858)" fill="#fff"/>
          <path id="Trazado_1001386" data-name="Trazado 1001386" d="M78.124,197.686l-8.987.081-.032-3.874,9.009-.007Z" transform="translate(-54.793 -153.731)" fill="#fff"/>
          <rect id="Rectángulo_456434" data-name="Rectángulo 456434" width="9.049" height="3.916" transform="translate(27.197 40.141)" fill="#fff"/>
        </g>
      </g>
    </g>
  </g>
</svg>
