<svg xmlns="http://www.w3.org/2000/svg" xmlns:xlink="http://www.w3.org/1999/xlink" width="396" height="302" viewBox="0 0 396 302">
  <defs>
    <clipPath id="clip-path">
      <rect id="Rectángulo_456348" data-name="Rectángulo 456348" width="390.418" height="291.053" fill="none"/>
    </clipPath>
  </defs>
  <g id="Grupo_1192131" data-name="Grupo 1192131" transform="translate(-186 -5292)">
    <rect id="Rectángulo_456163" data-name="Rectángulo 456163" width="396" height="302" transform="translate(186 5292)" fill="none"/>
    <g id="Grupo_1192130" data-name="Grupo 1192130" transform="translate(188 5297)">
      <g id="Grupo_1192129" data-name="Grupo 1192129" clip-path="url(#clip-path)">
        <path id="Trazado_1000832" data-name="Trazado 1000832" d="M371.585,81.366C356.341,67.664,331.96,70.9,311.758,62.7c-27.9-11.375-46.547-40.032-75.289-53.044C213.4-.986,184.419-2.257,157.911,3.043c-26.535,5.55-50.17,17.436-64.671,34.489C78.465,54.878,73.192,77.83,63.974,97.043,55.78,114.092,44.483,127.3,39.149,144.608c-5.313,17.307-3.9,41.552,11.269,66.951,11.177,18.6,28.293,34.3,45.531,45.615a198.122,198.122,0,0,0,28.857,15.854H318.552q.46-.7.913-1.4,18.267-28.236,36.083-60.02c12.762-22.662,25.653-48.524,29.318-74.811,3.3-23.722-1.661-44.934-13.281-55.429" transform="translate(-6.541 0)" fill="#e5ecf2"/>
        <path id="Trazado_1000833" data-name="Trazado 1000833" d="M396.806,336.437c0,12.013-361.318,12.013-361.318,0,.107-.074.213-.148.32-.213,29.036-19.967,98.835-34.03,180.335-34.03s151.3,14.063,180.343,34.03c.107.066.213.139.32.213" transform="translate(-6.388 -54.394)" fill="#004b84"/>
        <path id="Trazado_1000834" data-name="Trazado 1000834" d="M396.806,338.97c0,12.013-361.318,12.013-361.318,0,.107-.074.213-.148.32-.213,40.574-13.637,106.231-22.493,180.335-22.493s139.769,8.856,180.343,22.493c.107.066.213.139.32.213" transform="translate(-6.388 -56.927)" fill="#004b84"/>
        <path id="Trazado_1000835" data-name="Trazado 1000835" d="M273.836,62.284h0a5.1,5.1,0,0,1-6.9-2.112l-3.72-7,9.009-4.786,3.72,7a5.1,5.1,0,0,1-2.112,6.9" transform="translate(-47.379 -8.709)" fill="#343053"/>
        <path id="Trazado_1000836" data-name="Trazado 1000836" d="M275.874,54.987l-9.383,4.985a.7.7,0,0,1-.94-.287l-.014-.027a.694.694,0,0,1,.288-.94l9.382-4.986a.7.7,0,0,1,.941.288l.014.027a.7.7,0,0,1-.288.94" transform="translate(-47.781 -9.657)" fill="#343053"/>
        <path id="Trazado_1000837" data-name="Trazado 1000837" d="M277.353,57.77l-9.383,4.985a.694.694,0,0,1-.94-.287l-.014-.027a.694.694,0,0,1,.288-.94l9.382-4.986a.7.7,0,0,1,.94.288l.015.027a.7.7,0,0,1-.288.94" transform="translate(-48.048 -10.158)" fill="#343053"/>
        <path id="Trazado_1000838" data-name="Trazado 1000838" d="M277.778,61.426l-6.687,3.552a.71.71,0,1,1-.666-1.254l6.686-3.553a.71.71,0,0,1,.667,1.255" transform="translate(-48.608 -10.816)" fill="#343053"/>
        <path id="Trazado_1000839" data-name="Trazado 1000839" d="M272.765,26.638a16.665,16.665,0,0,1-26.2,19.892,16.482,16.482,0,0,1-3.227-4.257,16.662,16.662,0,0,1,29.429-15.635" transform="translate(-43.448 -3.202)" fill="#fea901"/>
        <path id="Trazado_1000840" data-name="Trazado 1000840" d="M263.605,22.209a16.668,16.668,0,0,1-17.043,24.32,16.485,16.485,0,0,1-3.228-4.257A16.659,16.659,0,0,1,260.382,17.96a16.483,16.483,0,0,1,3.223,4.249" transform="translate(-43.448 -3.202)" fill="#ffc010"/>
        <path id="Trazado_1000841" data-name="Trazado 1000841" d="M39.077,206.737c-3.552-3.523-8.267-6.41-13.25-5.963-6.62.594-11.513,7.109-12.329,13.706s1.537,13.159,4.286,19.21a137.951,137.951,0,0,0,27.485,39.887c3.644-11.222,6.611-22.856,6.325-34.652s-4.14-23.878-12.517-32.188" transform="translate(-2.4 -36.131)" fill="#67ccf1"/>
        <path id="Trazado_1000842" data-name="Trazado 1000842" d="M22.436,215.231l7.87,2.717c-.95-2-1.924-3.981-2.95-5.943-.449-.857.95-1.4,1.393-.552,1.093,2.089,2.129,4.2,3.135,6.331a26.276,26.276,0,0,1,4.058-6.273c.316-.362.9.1.584.47a25.71,25.71,0,0,0-4.218,6.7q2.084,4.472,3.9,9.052a36.362,36.362,0,0,1,4.535-9.65c.266-.4.849.07.584.47a35.247,35.247,0,0,0-4.667,10.317q1.482,3.793,2.778,7.651a38.508,38.508,0,0,1,6.836-12.257c.308-.371.892.1.584.47a37.978,37.978,0,0,0-7.02,12.973c.8,2.421,1.526,4.866,2.219,7.319a37.629,37.629,0,0,1,5.952-10.887c.3-.38.882.089.584.47a37.035,37.035,0,0,0-6.178,11.7c.665,2.427,1.269,4.87,1.83,7.323l4.367-8.789c.214-.43.9-.135.688.3l-4.789,9.634a173.056,173.056,0,0,1,3.715,25.7c.066.962-1.423,1.144-1.488.18a172.055,172.055,0,0,0-2.954-22.024,33.743,33.743,0,0,0-11.8-4.823c-.472-.1-.369-.837.1-.742a34.749,34.749,0,0,1,11.5,4.56q-.893-4.335-2-8.619a33.557,33.557,0,0,0-12.626-5.178c-.474-.089-.371-.831.1-.742a34.515,34.515,0,0,1,12.223,4.827c-.769-2.885-1.6-5.754-2.512-8.6a31.354,31.354,0,0,0-14.14-4.974c-.482-.048-.375-.79.1-.742a32.106,32.106,0,0,1,13.68,4.624q-1.144-3.47-2.427-6.892a31.813,31.813,0,0,0-12.1-5.479c-.47-.1-.367-.845.1-.742A32.775,32.775,0,0,1,35.529,230.1q-2.188-5.676-4.775-11.205l-8.616-2.975c-.457-.157-.156-.844.3-.687" transform="translate(-3.944 -37.985)" fill="#fff"/>
        <path id="Trazado_1000843" data-name="Trazado 1000843" d="M19.091,256.759c-4.889-1.06-10.417-.959-14.378,2.1-5.263,4.061-5.884,12.185-3.025,18.186s8.371,10.268,13.944,13.892a137.985,137.985,0,0,0,44.621,18.85c-2.962-11.422-6.717-22.826-13.3-32.618s-16.331-17.906-27.862-20.407" transform="translate(0 -46.106)" fill="#67ccf1"/>
        <path id="Trazado_1000844" data-name="Trazado 1000844" d="M8.873,273.292l8.1-1.94c-1.873-1.173-3.762-2.322-5.683-3.424-.839-.481.048-1.69.878-1.214,2.044,1.173,4.055,2.4,6.047,3.651a26.273,26.273,0,0,1,.049-7.47c.071-.476.817-.4.745.082a25.667,25.667,0,0,0,.044,7.915q4.161,2.649,8.152,5.536a36.38,36.38,0,0,1-1.364-10.575c.009-.483.754-.4.745.082A35.239,35.239,0,0,0,28.2,277.143q3.29,2.4,6.457,4.958a38.518,38.518,0,0,1-.827-14.01.375.375,0,0,1,.745.082,37.981,37.981,0,0,0,1.058,14.712c1.976,1.612,3.9,3.282,5.806,4.978a37.612,37.612,0,0,1-.836-12.38.375.375,0,0,1,.745.083,37.033,37.033,0,0,0,1.083,13.186q2.8,2.533,5.481,5.191l-1.043-9.759c-.052-.478.688-.6.74-.118q.572,5.348,1.143,10.7A173.069,173.069,0,0,1,65.7,314.434c.573.777-.584,1.729-1.157.952A172.136,172.136,0,0,0,50.2,298.4a33.744,33.744,0,0,0-12.546,2.281c-.45.174-.762-.508-.312-.682A34.756,34.756,0,0,1,49.5,297.665q-3.084-3.175-6.319-6.193a33.56,33.56,0,0,0-13.429,2.423c-.448.18-.759-.5-.311-.681a34.5,34.5,0,0,1,12.9-2.5c-2.2-2.019-4.439-3.993-6.74-5.9a31.346,31.346,0,0,0-14.6,3.41c-.433.218-.74-.465-.312-.682a32.122,32.122,0,0,1,14.02-3.457q-2.829-2.31-5.752-4.506a31.827,31.827,0,0,0-13.144,1.884c-.451.166-.764-.515-.311-.681a32.775,32.775,0,0,1,12.4-2q-4.9-3.609-10.051-6.88l-8.863,2.125c-.471.113-.585-.627-.119-.74" transform="translate(-1.544 -47.263)" fill="#fff"/>
        <path id="Trazado_1000845" data-name="Trazado 1000845" d="M109.721,13.983c-3.483-3.591-8.143-6.567-13.133-6.216C89.958,8.233,84.94,14.654,84,21.234s1.283,13.186,3.916,19.29A137.943,137.943,0,0,0,114.629,80.93c3.859-11.15,7.049-22.725,6.99-34.525s-3.682-23.953-11.9-32.422" transform="translate(-15.08 -1.393)" fill="#67ccf1"/>
        <path id="Trazado_1000846" data-name="Trazado 1000846" d="M92.972,22.124l7.815,2.868c-.91-2.013-1.847-4.016-2.836-6-.431-.864.977-1.38,1.4-.524,1.053,2.11,2.048,4.244,3.013,6.389a26.276,26.276,0,0,1,4.178-6.193c.323-.358.9.121.575.481a25.7,25.7,0,0,0-4.346,6.615c1.332,3.007,2.565,6.052,3.723,9.125a36.377,36.377,0,0,1,4.72-9.561c.275-.4.848.086.575.481a35.206,35.206,0,0,0-4.864,10.225q1.408,3.822,2.63,7.7a38.513,38.513,0,0,1,7.07-12.124c.314-.366.891.114.575.481a37.974,37.974,0,0,0-7.268,12.836c.753,2.437,1.433,4.895,2.078,7.361a37.613,37.613,0,0,1,6.16-10.771c.305-.374.881.107.575.481a37.039,37.039,0,0,0-6.4,11.579c.618,2.439,1.175,4.893,1.689,7.357l4.536-8.7c.222-.427.9-.118.681.311l-4.973,9.54a172.965,172.965,0,0,1,3.22,25.765c.048.964-1.443,1.117-1.491.151a172.039,172.039,0,0,0-2.531-22.077,33.743,33.743,0,0,0-11.71-5.049c-.471-.1-.353-.845.119-.74a34.774,34.774,0,0,1,11.41,4.781q-.809-4.352-1.832-8.657a33.549,33.549,0,0,0-12.523-5.419c-.472-.1-.355-.839.118-.74a34.517,34.517,0,0,1,12.128,5.061c-.713-2.9-1.485-5.783-2.347-8.643A31.349,31.349,0,0,0,94.8,41.274c-.481-.057-.359-.8.118-.74a32.108,32.108,0,0,1,13.589,4.886q-1.077-3.491-2.294-6.937a31.812,31.812,0,0,0-11.988-5.71c-.467-.112-.351-.853.118-.74a32.78,32.78,0,0,1,11.433,5.208q-2.08-5.717-4.559-11.295l-8.557-3.14c-.454-.166-.139-.847.311-.681" transform="translate(-16.639 -3.245)" fill="#fff"/>
        <path id="Trazado_1000847" data-name="Trazado 1000847" d="M60.009,34.809c-.425-.4.216-1.044.64-.642A120.337,120.337,0,0,1,80.081,58.075a39.017,39.017,0,0,1,1.543-18.922c.186-.551,1.062-.316.874.24a38.147,38.147,0,0,0-1.041,20.939A120.656,120.656,0,0,1,96.043,98.669c.111.572-.763.816-.874.242a119.852,119.852,0,0,0-14.32-37.794.4.4,0,0,1-.213-.282c-.01-.04-.015-.082-.025-.122-.66-1.116-1.333-2.225-2.028-3.319A37.98,37.98,0,0,0,61.176,51.31c-.576-.053-.583-.96,0-.907a38.937,38.937,0,0,1,16.283,5.241A119.323,119.323,0,0,0,60.009,34.809" transform="translate(-10.776 -6.127)" fill="#ffc010"/>
        <path id="Trazado_1000848" data-name="Trazado 1000848" d="M72.569,57.017a12.553,12.553,0,0,0-15.362-2.836,12.227,12.227,0,0,0,7.035,4.776c2.841.551,5.825-.484,8.327-1.94" transform="translate(-10.297 -9.489)" fill="#ffc010"/>
        <path id="Trazado_1000849" data-name="Trazado 1000849" d="M64.7,39.253A12.467,12.467,0,0,0,52.319,27.416a13.668,13.668,0,0,0,3.92,8.352A13.45,13.45,0,0,0,64.7,39.253" transform="translate(-9.417 -4.935)" fill="#ffc010"/>
        <path id="Trazado_1000850" data-name="Trazado 1000850" d="M84.489,46.516c-.645-3.045-1.072-6.248-.211-9.24s3.306-5.715,6.4-6.029a16.661,16.661,0,0,1-6.193,15.268" transform="translate(-15.083 -5.625)" fill="#ffc010"/>
        <path id="Trazado_1000851" data-name="Trazado 1000851" d="M163.7,14.085c.424-.4-.219-1.044-.642-.64a120.337,120.337,0,0,0-19.382,23.949,39.015,39.015,0,0,0-1.582-18.92c-.188-.55-1.064-.313-.875.242A38.145,38.145,0,0,1,142.3,39.653,120.643,120.643,0,0,0,127.8,78.021c-.11.572.764.814.874.24a119.862,119.862,0,0,1,14.241-37.824.4.4,0,0,0,.212-.282c.01-.041.016-.082.025-.123.658-1.117,1.328-2.227,2.021-3.323a37.984,37.984,0,0,1,17.394-6.12c.576-.055.581-.962,0-.907a38.946,38.946,0,0,0-16.271,5.274A119.358,119.358,0,0,1,163.7,14.085" transform="translate(-23.002 -2.397)" fill="#ffc010"/>
        <path id="Trazado_1000852" data-name="Trazado 1000852" d="M155.727,36.322a12.554,12.554,0,0,1,15.356-2.868,12.233,12.233,0,0,1-7.025,4.79c-2.84.557-5.827-.472-8.331-1.923" transform="translate(-28.03 -5.76)" fill="#ffc010"/>
        <path id="Trazado_1000853" data-name="Trazado 1000853" d="M164.221,18.538A12.468,12.468,0,0,1,176.574,6.675a13.67,13.67,0,0,1-3.9,8.361,13.446,13.446,0,0,1-8.45,3.5" transform="translate(-29.559 -1.201)" fill="#ffc010"/>
        <path id="Trazado_1000854" data-name="Trazado 1000854" d="M145.617,25.846c.639-3.046,1.059-6.251.191-9.241s-3.318-5.708-6.416-6.015a16.659,16.659,0,0,0,6.225,15.255" transform="translate(-25.069 -1.906)" fill="#ffc010"/>
        <path id="Trazado_1000855" data-name="Trazado 1000855" d="M325.115,132.118l-10.293,4.459a1.462,1.462,0,0,1-1.642-.333l-9.922-10.416a5.819,5.819,0,0,0-8.484,7.967l13.141,14.2a7.261,7.261,0,0,0,7.792,1.9l9.408-3.394Z" transform="translate(-52.78 -22.324)" fill="#2e5c6c"/>
        <path id="Trazado_1000856" data-name="Trazado 1000856" d="M271.837,193.854h-3.843a26.868,26.868,0,0,0-2.774-6.681l2.722-2.722a4.663,4.663,0,0,0,0-6.594l-3.17-3.17a4.663,4.663,0,0,0-6.594,0l-2.722,2.722a26.837,26.837,0,0,0-6.681-2.773V170.79a4.663,4.663,0,0,0-4.663-4.663h-4.482a4.663,4.663,0,0,0-4.663,4.663v3.844a26.836,26.836,0,0,0-6.681,2.773l-2.722-2.722a4.663,4.663,0,0,0-6.594,0l-3.17,3.17a4.663,4.663,0,0,0,0,6.594l2.722,2.722a26.836,26.836,0,0,0-2.773,6.681H211.9a4.663,4.663,0,0,0-4.663,4.663V203a4.663,4.663,0,0,0,4.663,4.663h3.844a26.836,26.836,0,0,0,2.773,6.681l-2.722,2.722a4.664,4.664,0,0,0,0,6.6l3.17,3.169a4.663,4.663,0,0,0,6.594,0l2.722-2.722a26.87,26.87,0,0,0,6.681,2.774v3.843a4.663,4.663,0,0,0,4.663,4.663h4.482a4.663,4.663,0,0,0,4.663-4.663v-3.843a26.87,26.87,0,0,0,6.681-2.774l2.722,2.722a4.663,4.663,0,0,0,6.594,0l3.17-3.169a4.664,4.664,0,0,0,0-6.6l-2.722-2.722a26.868,26.868,0,0,0,2.774-6.681h3.843A4.663,4.663,0,0,0,276.5,203v-4.482a4.663,4.663,0,0,0-4.663-4.663m-29.968,22.215a15.31,15.31,0,1,1,15.31-15.31,15.31,15.31,0,0,1-15.31,15.31" transform="translate(-37.302 -29.902)" fill="#343053"/>
        <path id="Trazado_1000857" data-name="Trazado 1000857" d="M298.136,254.264h-2.212a15.4,15.4,0,0,0-1.6-3.843l1.566-1.566a2.681,2.681,0,0,0,0-3.793l-1.823-1.824a2.684,2.684,0,0,0-3.794,0l-1.566,1.566a15.462,15.462,0,0,0-3.843-1.6V241a2.683,2.683,0,0,0-2.683-2.683h-2.578A2.683,2.683,0,0,0,276.925,241v2.211a15.481,15.481,0,0,0-3.843,1.6l-1.566-1.566a2.683,2.683,0,0,0-3.793,0l-1.824,1.824a2.683,2.683,0,0,0,0,3.793l1.566,1.566a15.433,15.433,0,0,0-1.595,3.843h-2.212a2.682,2.682,0,0,0-2.682,2.682v2.579a2.682,2.682,0,0,0,2.682,2.682h2.212a15.421,15.421,0,0,0,1.595,3.843l-1.566,1.566a2.683,2.683,0,0,0,0,3.793l1.824,1.824a2.681,2.681,0,0,0,3.793,0l1.566-1.566a15.448,15.448,0,0,0,3.843,1.6v2.212a2.683,2.683,0,0,0,2.683,2.682h2.578a2.683,2.683,0,0,0,2.683-2.682v-2.212a15.448,15.448,0,0,0,3.843-1.6l1.565,1.566a2.682,2.682,0,0,0,3.794,0l1.823-1.824a2.681,2.681,0,0,0,0-3.793l-1.566-1.566a15.392,15.392,0,0,0,1.6-3.843h2.212a2.682,2.682,0,0,0,2.682-2.682v-2.579a2.682,2.682,0,0,0-2.682-2.682M280.9,267.043a8.807,8.807,0,1,1,8.807-8.807,8.807,8.807,0,0,1-8.807,8.807" transform="translate(-46.975 -42.896)" fill="#fe93c4"/>
        <path id="Trazado_1000858" data-name="Trazado 1000858" d="M203.807,290.216H54.308a8.928,8.928,0,0,1-8.928-8.928V79.4a8.928,8.928,0,0,1,8.928-8.928h149.5a8.928,8.928,0,0,1,8.927,8.928V281.288a8.928,8.928,0,0,1-8.927,8.928" transform="translate(-8.168 -12.685)" fill="#0981f2"/>
        <path id="Trazado_1000859" data-name="Trazado 1000859" d="M209.387,72.434q-2.325,3.149-4.863,6.568C164.9,132.45,89.06,233.933,53.512,281.477q-2.645,3.518-4.961,6.634a.218.218,0,0,1-.049-.041,8.913,8.913,0,0,1-3.124-6.781V79.4a8.927,8.927,0,0,1,8.93-8.922H203.8a8.927,8.927,0,0,1,5.338,1.763l.246.2" transform="translate(-8.168 -12.685)" fill="#0177d9"/>
        <path id="Rectángulo_456328" data-name="Rectángulo 456328" d="M1,0H150.141a1,1,0,0,1,1,1V202.53a1,1,0,0,1-1,1H1a1,1,0,0,1-1-1V1A1,1,0,0,1,1,0Z" transform="translate(45.317 65.891)" fill="#fff"/>
        <path id="Trazado_1000860" data-name="Trazado 1000860" d="M206.3,80.78C166.682,134.228,90.84,235.712,55.293,283.255a.484.484,0,0,1-.016-.115.227.227,0,0,1-.008-.074V81.174a.822.822,0,0,1,.82-.82H205.583a.79.79,0,0,1,.492.164.645.645,0,0,1,.23.262" transform="translate(-9.948 -14.464)" fill="#e8e8e8"/>
        <path id="Trazado_1000861" data-name="Trazado 1000861" d="M214.651,122.813h0a8.9,8.9,0,1,1,8.9-8.9,8.9,8.9,0,0,1-8.9,8.9" transform="translate(-37.035 -18.902)" fill="#fe93c4"/>
        <path id="Trazado_1000862" data-name="Trazado 1000862" d="M211.523,111.024l3.665,3.141,12.138-7.751-12.138,13.162-6.457-4.713Z" transform="translate(-37.571 -19.154)" fill="#343053"/>
        <rect id="Rectángulo_456329" data-name="Rectángulo 456329" width="110.071" height="3.763" transform="translate(55.641 87.356)" fill="#343053"/>
        <rect id="Rectángulo_456330" data-name="Rectángulo 456330" width="110.071" height="3.763" transform="translate(55.641 93.579)" fill="#343053"/>
        <rect id="Rectángulo_456331" data-name="Rectángulo 456331" width="110.071" height="3.763" transform="translate(55.641 99.802)" fill="#343053"/>
        <path id="Trazado_1000863" data-name="Trazado 1000863" d="M214.651,157.858h0a8.9,8.9,0,1,1,8.9-8.9,8.9,8.9,0,0,1-8.9,8.9" transform="translate(-37.035 -25.21)" fill="#fe93c4"/>
        <path id="Trazado_1000864" data-name="Trazado 1000864" d="M211.523,146.069l3.665,3.141,12.138-7.751-12.138,13.162-6.457-4.713Z" transform="translate(-37.571 -25.462)" fill="#343053"/>
        <rect id="Rectángulo_456332" data-name="Rectángulo 456332" width="110.071" height="3.763" transform="translate(55.641 116.093)" fill="#343053"/>
        <rect id="Rectángulo_456333" data-name="Rectángulo 456333" width="110.071" height="3.763" transform="translate(55.641 122.316)" fill="#343053"/>
        <rect id="Rectángulo_456334" data-name="Rectángulo 456334" width="110.071" height="3.763" transform="translate(55.641 128.539)" fill="#343053"/>
        <path id="Trazado_1000865" data-name="Trazado 1000865" d="M214.651,192.9h0a8.9,8.9,0,1,1,8.9-8.9,8.9,8.9,0,0,1-8.9,8.9" transform="translate(-37.035 -31.518)" fill="#fe93c4"/>
        <path id="Trazado_1000866" data-name="Trazado 1000866" d="M211.523,181.115l3.665,3.141,12.138-7.751-12.138,13.162-6.457-4.713Z" transform="translate(-37.571 -31.77)" fill="#343053"/>
        <rect id="Rectángulo_456335" data-name="Rectángulo 456335" width="110.071" height="3.763" transform="translate(55.641 144.83)" fill="#343053"/>
        <rect id="Rectángulo_456336" data-name="Rectángulo 456336" width="110.071" height="3.763" transform="translate(55.641 151.053)" fill="#343053"/>
        <rect id="Rectángulo_456337" data-name="Rectángulo 456337" width="110.071" height="3.763" transform="translate(55.641 157.277)" fill="#343053"/>
        <path id="Trazado_1000867" data-name="Trazado 1000867" d="M214.651,227.95h0a8.9,8.9,0,1,1,8.9-8.9,8.9,8.9,0,0,1-8.9,8.9" transform="translate(-37.035 -37.826)" fill="#fe93c4"/>
        <path id="Trazado_1000868" data-name="Trazado 1000868" d="M211.523,216.16l3.665,3.141,12.138-7.751-12.138,13.162L208.731,220Z" transform="translate(-37.571 -38.079)" fill="#343053"/>
        <rect id="Rectángulo_456338" data-name="Rectángulo 456338" width="110.071" height="3.763" transform="translate(55.641 173.567)" fill="#343053"/>
        <rect id="Rectángulo_456339" data-name="Rectángulo 456339" width="110.071" height="3.763" transform="translate(55.641 179.791)" fill="#343053"/>
        <rect id="Rectángulo_456340" data-name="Rectángulo 456340" width="110.071" height="3.763" transform="translate(55.641 186.014)" fill="#343053"/>
        <path id="Trazado_1000869" data-name="Trazado 1000869" d="M214.651,263h0a8.9,8.9,0,1,1,8.9-8.9,8.9,8.9,0,0,1-8.9,8.9" transform="translate(-37.035 -44.134)" fill="#fe93c4"/>
        <path id="Trazado_1000870" data-name="Trazado 1000870" d="M211.523,251.206l3.665,3.141,12.138-7.751-12.138,13.162-6.457-4.713Z" transform="translate(-37.571 -44.387)" fill="#343053"/>
        <rect id="Rectángulo_456341" data-name="Rectángulo 456341" width="110.071" height="3.763" transform="translate(55.641 202.305)" fill="#343053"/>
        <rect id="Rectángulo_456342" data-name="Rectángulo 456342" width="110.071" height="3.763" transform="translate(55.641 208.529)" fill="#343053"/>
        <rect id="Rectángulo_456343" data-name="Rectángulo 456343" width="110.071" height="3.763" transform="translate(55.641 214.752)" fill="#343053"/>
        <path id="Trazado_1000871" data-name="Trazado 1000871" d="M214.651,298.041h0a8.9,8.9,0,1,1,8.9-8.9,8.9,8.9,0,0,1-8.9,8.9" transform="translate(-37.035 -50.442)" fill="#fe93c4"/>
        <path id="Trazado_1000872" data-name="Trazado 1000872" d="M211.523,286.252l3.665,3.141,12.138-7.751L215.188,294.8l-6.457-4.713Z" transform="translate(-37.571 -50.695)" fill="#343053"/>
        <rect id="Rectángulo_456344" data-name="Rectángulo 456344" width="110.071" height="3.763" transform="translate(55.641 231.043)" fill="#343053"/>
        <rect id="Rectángulo_456345" data-name="Rectángulo 456345" width="110.071" height="3.763" transform="translate(55.641 237.266)" fill="#343053"/>
        <rect id="Rectángulo_456346" data-name="Rectángulo 456346" width="110.071" height="3.763" transform="translate(55.641 243.49)" fill="#343053"/>
        <path id="Trazado_1000873" data-name="Trazado 1000873" d="M175.364,79.252l-.865-3.719a4.292,4.292,0,0,0-4.18-3.319,4.293,4.293,0,0,1-4.141-3.164l-1.795-6.582a4.292,4.292,0,0,0-4.141-3.163h-34.5a4.293,4.293,0,0,0-4.141,3.163l-1.794,6.582a4.292,4.292,0,0,1-4.141,3.164,4.294,4.294,0,0,0-4.181,3.319l-.864,3.719a4.786,4.786,0,0,0,4.661,5.87H170.7a4.786,4.786,0,0,0,4.662-5.87m-59.3.467.5-2.143a9.722,9.722,0,0,0,8.462-7.1l1.572-5.764h32.8l1.571,5.763a9.72,9.72,0,0,0,8.462,7.1l.5,2.143Z" transform="translate(-19.889 -10.675)" fill="#fea901"/>
        <path id="Trazado_1000874" data-name="Trazado 1000874" d="M372.879,71.907a7.269,7.269,0,0,0,0-6.653,8.044,8.044,0,0,0-6.526-3.607A22.888,22.888,0,0,0,359,62.73a22.868,22.868,0,0,0-.871-7.384,8.047,8.047,0,0,0-5.183-5.361,7.269,7.269,0,0,0-6.423,1.734,12.212,12.212,0,0,0-3.5,5.865,19.234,19.234,0,0,0,5.345,19.025,19.236,19.236,0,0,0,19.76.2,12.211,12.211,0,0,0,4.751-4.9" transform="translate(-61.617 -8.963)" fill="#fe93c4"/>
        <path id="Trazado_1000875" data-name="Trazado 1000875" d="M386.523,127.068a14.4,14.4,0,0,1-16.53,11.916l-153.206-24.85L199.5,96.431l21.9-10.744,153.206,24.85a14.411,14.411,0,0,1,11.916,16.53" transform="translate(-35.91 -15.423)" fill="#ffc010"/>
        <path id="Trazado_1000876" data-name="Trazado 1000876" d="M422.893,129.995a14.149,14.149,0,0,1-.189,2.329,14.409,14.409,0,0,1-16.531,11.915l-5.625-.918,1.353-8.331,3.255-20.115,5.633.918a14.39,14.39,0,0,1,12.1,14.2" transform="translate(-72.098 -20.677)" fill="#cf2e4d"/>
        <path id="Trazado_1000877" data-name="Trazado 1000877" d="M422.542,125.731a14.415,14.415,0,0,1-16.072,9.956l-4.272-.7,3.255-20.115,5.633.918a14.407,14.407,0,0,1,11.455,9.938" transform="translate(-72.395 -20.677)" fill="#ff2e56"/>
        <path id="Trazado_1000878" data-name="Trazado 1000878" d="M371.993,115.56l-3.028,18.668-145-23.519a35,35,0,0,0,1.977-5.382,35.449,35.449,0,0,0,1.226-7.556,35.127,35.127,0,0,0-.175-5.731Z" transform="translate(-40.313 -16.567)" fill="#fea901"/>
        <path id="Trazado_1000879" data-name="Trazado 1000879" d="M371.526,122.375l-1.227,7.556L226.375,106.586A35.445,35.445,0,0,0,227.6,99.03Z" transform="translate(-40.747 -17.825)" fill="#ffc010"/>
        <path id="Trazado_1000880" data-name="Trazado 1000880" d="M222.351,100.436a34.265,34.265,0,0,1-1.542,6.052,34.633,34.633,0,0,1-3.838,7.675l-.189-.033-12.62-12.923L199.5,96.434l6-2.944,1.771-.868L221.4,85.685l.189.032a34.57,34.57,0,0,1,.763,14.719" transform="translate(-35.909 -15.423)" fill="#f9c89d"/>
        <path id="Trazado_1000881" data-name="Trazado 1000881" d="M224.058,100.436a34.265,34.265,0,0,1-1.542,6.052l-12.989-13.3-.549-.566,14.129-6.937.189.032a34.57,34.57,0,0,1,.763,14.719" transform="translate(-37.615 -15.423)" fill="#ffe3bb"/>
        <path id="Trazado_1000882" data-name="Trazado 1000882" d="M206.108,99.216a6.558,6.558,0,0,1-1.943,3.708L199.5,98.145l6-2.941a6.531,6.531,0,0,1,.608,4.012" transform="translate(-35.91 -17.136)" fill="#241f3f"/>
        <path id="Trazado_1000883" data-name="Trazado 1000883" d="M370.014,246.17l6.18,57.714.253,2.38-11.419,3.709,5.683-4.838s-16.8-62.41-16.607-62.328Z" transform="translate(-63.737 -43.704)" fill="#ff9192"/>
        <path id="Trazado_1000884" data-name="Trazado 1000884" d="M327.565,246.425l-11.951,56.8-.5,2.341h-12l6.9-2.845s3.3-64.546,3.458-64.41Z" transform="translate(-54.56 -42.895)" fill="#fdacab"/>
        <path id="Trazado_1000885" data-name="Trazado 1000885" d="M378.592,317.291l.253,2.38-11.419,3.709,5.683-4.838s2.3,1.345,5.483-1.251" transform="translate(-66.136 -57.112)" fill="#241f3f"/>
        <path id="Trazado_1000886" data-name="Trazado 1000886" d="M365.268,193.753l7.542,50.809-22.047,4.677-4.82-22.73Z" transform="translate(-62.269 -34.875)" fill="#fea901"/>
        <path id="Trazado_1000887" data-name="Trazado 1000887" d="M351.07,257.678l21.512-4.662A2.3,2.3,0,0,1,375.355,255l.2,1.72a2.3,2.3,0,0,1-1.856,2.531l-21.532,4.087a2.3,2.3,0,0,1-2.7-1.9l-.183-1.144a2.3,2.3,0,0,1,1.785-2.613" transform="translate(-62.865 -45.533)" fill="#fea901"/>
        <path id="Trazado_1000888" data-name="Trazado 1000888" d="M360.606,195.506s4.481,11.4-2.836,21.077-20.275,24.21-20.663,24.094-20.313-14.188-20.313-14.188L331.2,206.046Z" transform="translate(-57.022 -35.191)" fill="#ffc010"/>
        <path id="Trazado_1000889" data-name="Trazado 1000889" d="M318.479,231.637l19.446,12.811a2.381,2.381,0,0,1,.687,3.287l-.915,1.408a2.381,2.381,0,0,1-3.192.762l-20-11.6a2.58,2.58,0,0,1-.964-3.478l1.259-2.28a2.579,2.579,0,0,1,3.677-.908" transform="translate(-56.379 -41.617)" fill="#ffc010"/>
        <path id="Trazado_1000890" data-name="Trazado 1000890" d="M315.614,317.363l-.5,2.342h-12l6.9-2.846s1.774,1.99,5.6.5" transform="translate(-54.56 -57.034)" fill="#241f3f"/>
        <path id="Trazado_1000891" data-name="Trazado 1000891" d="M282.1,129.831a2.251,2.251,0,0,0,.449-2.041,2.623,2.623,0,0,0-.964-1.755s2.175-3.548,1.107-4.347-2.565,3.178-2.565,3.178-1.482-7.081-2.709-6.537.339,6.383.339,6.383-3.3-5.321-4.245-4.789,2.307,5.845,2.307,5.845-3.79-3.684-4.735-2.815c-.738.679,3.122,3.98,3.122,3.98s-4.406-.481-4.44.311,4.681,1.382,4.681,1.382a10.059,10.059,0,0,0,3.856,4.726l1.945.313,1.764-2.453Z" transform="translate(-48.557 -21.294)" fill="#fdacab"/>
        <path id="Trazado_1000892" data-name="Trazado 1000892" d="M362.9,192.836l.658,1.437c1.3,2.836-.329,6.061-3.574,7.086l-22.418,7.083c-3.33,1.053-6.961-.652-7.863-3.691l-.529-1.784Z" transform="translate(-59.251 -34.71)" fill="#2e5c6c"/>
        <path id="Trazado_1000893" data-name="Trazado 1000893" d="M346.9,105.514a8.746,8.746,0,0,1-1.9-2.86,3.477,3.477,0,0,1,.866-3.07,6.1,6.1,0,0,1,2.818-1.675,10.225,10.225,0,0,1,11.519,4.549c1.6,2.8,1.747,6.154,2.035,9.363s.857,6.617,3.046,8.98c2,2.16,5.1,3.139,6.866,5.491,2.1,2.786,1.663,6.989-.536,9.7a11.817,11.817,0,0,1-9.305,3.962,15.269,15.269,0,0,1-15.092-14.735c-.117-3.368.876-6.663,1.356-10s.362-7.012-1.67-9.7" transform="translate(-62.083 -17.551)" fill="#241f3f"/>
        <path id="Trazado_1000894" data-name="Trazado 1000894" d="M312.108,114.126a10,10,0,0,0,11.678,14.457c.814,1.843,1.912,3.579,2.727,5.423a27.239,27.239,0,0,1,6.1-2.385,17.485,17.485,0,0,1-2.047-10.23c.212-2.294.879-4.6.426-6.862-.768-3.835-4.827-6.45-8.736-6.342a12.676,12.676,0,0,0-10.143,5.938" transform="translate(-55.956 -19.473)" fill="#fdacab"/>
        <path id="Trazado_1000895" data-name="Trazado 1000895" d="M307.464,113.785c1.947,1.866,5.359,2.079,8.071,1.332.608-1.423,1.134-2.8,1.743-4.222a5.783,5.783,0,0,0,2.366,2.5c.963.663,2.015,1.2,2.915,1.949a4.511,4.511,0,0,1,1.765,2.926,6.314,6.314,0,0,1,.866-3.561,2.055,2.055,0,0,1,1.886-1.005c1.4.14,1.77,1.569,1.521,2.7a23.6,23.6,0,0,1-.984,2.559,6.3,6.3,0,0,0,.33,4.842c.75,1.483.75,1.483,2.816,3.133,0,0,10.5-5.783,8.471-18.074a12.241,12.241,0,0,0-7.477-9.491c-9.379-3.73-24.9-2.63-24.289,14.413" transform="translate(-55.34 -17.571)" fill="#241f3f"/>
        <path id="Trazado_1000896" data-name="Trazado 1000896" d="M346.295,103.618a2.533,2.533,0,1,1-2.533-2.533,2.533,2.533,0,0,1,2.533,2.533" transform="translate(-61.42 -18.195)" fill="#ff2e56"/>
        <path id="Trazado_1000897" data-name="Trazado 1000897" d="M324.126,138.766v48.1a8.836,8.836,0,0,0,11.71,8.355l22.32-7.681a7.588,7.588,0,0,0,3.289-12.133c-6.1-7.036-14.467-18.955-21.24-36.98a5.826,5.826,0,0,0-7.794-3.3Z" transform="translate(-58.342 -24.233)" fill="#67ccf1"/>
        <path id="Trazado_1000898" data-name="Trazado 1000898" d="M339.147,198.386c-5.187-.453-4.71-6.92-4.15-10.559.175-1.136-1.56-1.624-1.737-.479-.764,4.962-.677,12.266,5.887,12.84,1.158.1,1.148-1.7,0-1.8" transform="translate(-59.927 -33.605)" fill="#2e5c6c"/>
        <path id="Trazado_1000899" data-name="Trazado 1000899" d="M324.227,134.758l-23.983,10.39a1.464,1.464,0,0,1-1.642-.334L288.681,134.4a5.819,5.819,0,0,0-8.484,7.967l13.141,14.2a7.261,7.261,0,0,0,7.792,1.9l28.2-10.172Z" transform="translate(-50.156 -23.866)" fill="#67ccf1"/>
        <path id="Trazado_1000900" data-name="Trazado 1000900" d="M337.13,142.744c-.2-.482-.992-.271-.79.218,2.563,6.226-7.529,9.151-11.561,10.991-.481.219-.063.926.414.708,4.344-1.983,14.745-5.1,11.938-11.918" transform="translate(-58.421 -25.645)" fill="#2e5c6c"/>
        <path id="Trazado_1000901" data-name="Trazado 1000901" d="M305.246,152.976a4.153,4.153,0,0,1-.733-3.774.411.411,0,0,0-.791-.218,4.923,4.923,0,0,0,.816,4.406c.317.413,1.031.006.708-.414" transform="translate(-54.633 -26.765)" fill="#2e5c6c"/>
        <path id="Trazado_1000902" data-name="Trazado 1000902" d="M334.829,240.494l-14.052-8.96c-.447-.285-.859.425-.414.708l14.052,8.961c.448.285.859-.425.414-.708" transform="translate(-57.63 -41.663)" fill="#fea901"/>
        <path id="Trazado_1000903" data-name="Trazado 1000903" d="M348.8,208.644a9.888,9.888,0,0,1-7.674,5.212c-.52.057-.526.878,0,.82a10.73,10.73,0,0,0,8.382-5.618c.251-.466-.457-.88-.708-.414" transform="translate(-61.331 -37.519)" fill="#fea901"/>
        <path id="Trazado_1000904" data-name="Trazado 1000904" d="M372.29,252.707l-18.315,3.986c-.517.113-.3.9.218.791l18.315-3.987c.517-.112.3-.9-.218-.79" transform="translate(-63.662 -45.485)" fill="#f8971d"/>
        <rect id="Rectángulo_456347" data-name="Rectángulo 456347" width="28.819" height="9.006" transform="matrix(0.16, -0.987, 0.987, 0.16, 324.3, 121.974)" fill="#241f3f"/>
      </g>
    </g>
  </g>
</svg>
