<svg xmlns="http://www.w3.org/2000/svg" xmlns:xlink="http://www.w3.org/1999/xlink" width="188" height="79.722" viewBox="0 0 188 79.722">
  <defs>
    <clipPath id="clip-path">
      <rect id="Rectángulo_456462" data-name="Rectángulo 456462" width="87.651" height="79.722" fill="#12263f"/>
    </clipPath>
  </defs>
  <g id="Grupo_1192218" data-name="Grupo 1192218" transform="translate(-290 -1125)">
    <g id="Grupo_1192217" data-name="Grupo 1192217" transform="translate(340 1125)">
      <g id="Grupo_1192216" data-name="Grupo 1192216" clip-path="url(#clip-path)">
        <path id="Trazado_1001410" data-name="Trazado 1001410" d="M24.7,70.615a18.335,18.335,0,0,0,16.122-5.176,18.109,18.109,0,0,0,4.645-16.952l36.477-.024.006-41.722a.992.992,0,0,0-.842-1.089L6.5,5.657a.916.916,0,0,0-.837.824l0,41.958,4.728.113a18.979,18.979,0,0,0,.876,11.206,32.393,32.393,0,0,1-5.2.008A6.686,6.686,0,0,1,0,53.182V6.745A6.732,6.732,0,0,1,6.891,0H80.719a6.66,6.66,0,0,1,6.856,6.495l.077,46.136c.007,3.9-2.7,7.155-6.656,7.168L57.6,59.874l.031,10.616,10.729.087c2.214.018,4.547,1.4,5.043,3.627a19.577,19.577,0,0,1,.056,5.515l-59.324,0a23.406,23.406,0,0,1,.013-5.276,4.974,4.974,0,0,1,4.6-3.795,25.745,25.745,0,0,1,5.956-.036" fill="#12263f"/>
        <path id="Trazado_1001411" data-name="Trazado 1001411" d="M65.476,47.707l-.024,16.977a18.138,18.138,0,0,0-23.421,5.892.923.923,0,0,1-.446.36c-.169.054-.638-.136-.638-.48l.035-31.181L56,39.239l.091,5.109c.562,4.832,5.365,2.872,9.386,3.359M53.185,50.733a1.45,1.45,0,1,0-.113-2.893l-8.463.024a1.376,1.376,0,0,0-1.452,1.629,1.557,1.557,0,0,0,1.515,1.249c2.8.063,5.539.08,8.513-.009m4.667,5.3a1.379,1.379,0,0,0,1.381-1.595,1.4,1.4,0,0,0-1.532-1.3l-13.071.013a1.453,1.453,0,0,0-1.5,1.556,1.507,1.507,0,0,0,1.5,1.352Zm-.126,5.332a1.414,1.414,0,0,0,1.522-1.408,1.391,1.391,0,0,0-1.357-1.486l-13.451.016a1.439,1.439,0,0,0,.172,2.87Z" transform="translate(-29.035 -27.824)" fill="#12263f"/>
        <path id="Trazado_1001412" data-name="Trazado 1001412" d="M153.288,44.163a4.172,4.172,0,0,1-1.656,4.709,3.938,3.938,0,0,1-5.221-5.734A4.106,4.106,0,0,1,151.34,42l3.3-2.882a4.024,4.024,0,0,1,3.264-5.206,4.078,4.078,0,0,1,4.526,4.064,4.157,4.157,0,0,0,2.343,1.168c1.085-1,2.743-.826,3.987-.754a36.022,36.022,0,0,0,3.814-3.852A4.032,4.032,0,0,1,174,29.651a3.948,3.948,0,0,1,4.916.439,3.887,3.887,0,0,1,.676,4.795,4.057,4.057,0,0,1-4.89,1.73l-3.779,3.958a4.007,4.007,0,0,1-2.854,5.486,4.08,4.08,0,0,1-4.772-3.956c-3.278-2.973-2.445.84-6.684-.744Zm23.9-11.238a.993.993,0,1,0-.993.993.993.993,0,0,0,.993-.993M159.4,37.808a.994.994,0,1,0-.995.994.995.995,0,0,0,.995-.994m8.878,4.383a.992.992,0,1,0-.992.992.992.992,0,0,0,.992-.992m-17.766,3.362a.994.994,0,1,0-.994.994.994.994,0,0,0,.994-.994" transform="translate(-103.235 -20.557)" fill="#12263f"/>
        <rect id="Rectángulo_456460" data-name="Rectángulo 456460" width="4.769" height="23.578" transform="translate(70.577 20.665)" fill="#12263f"/>
        <rect id="Rectángulo_456461" data-name="Rectángulo 456461" width="4.774" height="17.263" transform="translate(52.804 26.98)" fill="#12263f"/>
        <path id="Trazado_1001413" data-name="Trazado 1001413" d="M216.764,117.762a14.6,14.6,0,0,1-4.746.009l0-13.656a15.642,15.642,0,0,1,4.71-.024Z" transform="translate(-150.339 -73.692)" fill="#12263f"/>
        <path id="Trazado_1001414" data-name="Trazado 1001414" d="M155.756,135.629a15.6,15.6,0,0,1-4.7.1l-.06-8.892a13.623,13.623,0,0,1,4.71,0Z" transform="translate(-107.072 -89.793)" fill="#12263f"/>
        <path id="Trazado_1001415" data-name="Trazado 1001415" d="M109.318,44.358c-1.982.621-4,.143-6.258.239a27.52,27.52,0,0,1,.013-5.536Z" transform="translate(-72.984 -27.698)" fill="#12263f"/>
        <path id="Trazado_1001416" data-name="Trazado 1001416" d="M3.422,170.927l-2.942-3a1.423,1.423,0,0,1,.015-2.074l8.229-7.994c.671-.653,1.479-.179,2.2.034l4.629-4.442a15.068,15.068,0,1,1,2.59,2.874l-4.455,4.383c.077.656.692,1.494.026,2.141l-8.233,8a1.414,1.414,0,0,1-2.06.077M37.544,144.8a9.574,9.574,0,1,0-9.574,9.574,9.574,9.574,0,0,0,9.574-9.574" transform="translate(-0.027 -91.971)" fill="#12263f"/>
        <path id="Trazado_1001417" data-name="Trazado 1001417" d="M80.825,174.852c-1.505,1.369-3.075-.766-4.824-2.648a1.47,1.47,0,0,1,.076-1.984c1.534-1.306,2.552.806,3.7,1.564l5.556-4.9a1.431,1.431,0,0,1,1.891.284,1.5,1.5,0,0,1-.157,2Z" transform="translate(-53.644 -118.159)" fill="#12263f"/>
      </g>
    </g>
    <rect id="Rectángulo_456463" data-name="Rectángulo 456463" width="188" height="48" transform="translate(290 1141)" fill="none"/>
  </g>
</svg>
