<svg xmlns="http://www.w3.org/2000/svg" xmlns:xlink="http://www.w3.org/1999/xlink" width="84" height="84" viewBox="0 0 84 84">
  <defs>
    <clipPath id="clip-path">
      <rect id="Rectángulo_456539" data-name="Rectángulo 456539" width="59.934" height="59.926" fill="#12263f"/>
    </clipPath>
  </defs>
  <g id="Grupo_1192331" data-name="Grupo 1192331" transform="translate(-179.668 -5521)">
    <rect id="Rectángulo_402006" data-name="Rectángulo 402006" width="84" height="84" rx="5" transform="translate(179.668 5521)" fill="#67ccf1"/>
    <g id="Grupo_1192333" data-name="Grupo 1192333" transform="translate(191.701 5533.037)">
      <g id="Grupo_1192332" data-name="Grupo 1192332" clip-path="url(#clip-path)">
        <path id="Trazado_1001741" data-name="Trazado 1001741" d="M28.814,208.554a6.984,6.984,0,1,1-6.984-6.984,6.984,6.984,0,0,1,6.984,6.984M20.4,211.482c.645-.943,1.786-1.656,2.149-2.689.423-1.2-.014-2.634.117-3.9a.909.909,0,0,0-.824-.912c-1.538-.056-.6,3.018-.913,4.3l-1.893,2.206a.84.84,0,0,0,.127,1.156.863.863,0,0,0,1.236-.162" transform="translate(-11.964 -162.427)" fill="#12263f"/>
        <path id="Trazado_1001742" data-name="Trazado 1001742" d="M221.3,224.526a6.983,6.983,0,1,1-6.983-6.983,6.983,6.983,0,0,1,6.983,6.983m-5.645,3.6a2.27,2.27,0,0,0,1.385-2.5c-.476-2.465-3.565-1.519-3.726-2.531-.125-.787,1.126-.927,1.668-.587a.872.872,0,1,0,.891-1.453c-1.473-.612-.28-1.971-1.8-1.774-1.076.14-.175,1.259-1.125,1.673a2.259,2.259,0,0,0-1.4,2.11,2.352,2.352,0,0,0,1.454,2.037c.892.4,2.289.127,2.353.895a.641.641,0,0,1-.474.633,1.987,1.987,0,0,1-1.634-.23.756.756,0,0,0-1.029.569c-.205,1.381,1.349.738,1.342,2.008a.8.8,0,0,0,.894.8c1.116-.021.328-1.257,1.2-1.648" transform="translate(-167.074 -175.298)" fill="#12263f"/>
        <path id="Trazado_1001743" data-name="Trazado 1001743" d="M16.068,114.094a7.746,7.746,0,0,1-9.389.059,9.334,9.334,0,0,1-3.38-5.547c-1.058-.022-2.336.557-3.06-.71A1.736,1.736,0,0,1,.327,106l3.6-4.74a1.719,1.719,0,0,1,2.441-.364l4.734,3.593a1.764,1.764,0,0,1,.563,2.055c-.463,1.312-2.16.976-2.428,1.315a4.4,4.4,0,0,0,5.451,3.608,1.76,1.76,0,0,1,1.672.659,1.5,1.5,0,0,1-.3,1.967" transform="translate(0 -81.017)" fill="#12263f"/>
        <path id="Trazado_1001744" data-name="Trazado 1001744" d="M137.844,9.3c-.217-.229-4.529.884-3.668,5.374a1.7,1.7,0,0,1-.822,1.784,1.562,1.562,0,0,1-1.887-.487,7.858,7.858,0,0,1,2.554-11.518A11.983,11.983,0,0,1,136.98,3.3c.224-.879-.617-2.2.719-3.033a1.813,1.813,0,0,1,2.122.155l4.729,3.64a1.707,1.707,0,0,1,.237,2.246l-3.582,4.732a1.775,1.775,0,0,1-2.054.631c-1.332-.435-1.056-2.11-1.308-2.375" transform="translate(-104.716 0)" fill="#12263f"/>
        <path id="Trazado_1001745" data-name="Trazado 1001745" d="M101.405,235.871a1.774,1.774,0,0,1-.428-2.576l3.7-4.818a1.667,1.667,0,0,1,1.976-.394c1.333.587.95,2.287,1.22,2.453.07.043,4.571-1.007,3.658-5.444a1.78,1.78,0,0,1,.6-1.709,1.537,1.537,0,0,1,1.995.255,7.773,7.773,0,0,1-1.215,10.758,10.366,10.366,0,0,1-4.291,2.046c.128,1.111.449,2.532-.769,3.094a1.707,1.707,0,0,1-1.768-.116Z" transform="translate(-81.063 -179.8)" fill="#12263f"/>
        <path id="Trazado_1001746" data-name="Trazado 1001746" d="M233.362,144.722l-4.7-3.578a1.716,1.716,0,0,1-.613-1.922c.525-1.528,2.133-1.06,2.457-1.4a4.313,4.313,0,0,0-5.317-3.665,1.789,1.789,0,0,1-1.805-.677,1.579,1.579,0,0,1,.372-1.979,7.808,7.808,0,0,1,9.106-.178,9.327,9.327,0,0,1,3.591,5.559c.152.575,2.09-.675,3.023.765a1.747,1.747,0,0,1-.112,2.12l-3.528,4.615a1.717,1.717,0,0,1-2.474.337" transform="translate(-179.848 -104.713)" fill="#12263f"/>
        <path id="Trazado_1001747" data-name="Trazado 1001747" d="M236.052,41.965a6.983,6.983,0,1,1-6.983-6.984,6.984,6.984,0,0,1,6.983,6.984m-10.691-.732-.128,1.749c-.574.055-.965.284-.973.75-.006.358.124.9.637.919,2.669.113,5.27.15,7.929.086.558-.013.739-.613.735-.97-.006-.518-.6-.6-.98-.82l-.062-4.345a.749.749,0,0,0-.929-.664.737.737,0,0,0-.678.673l-.088,4.34a1.542,1.542,0,0,1-1.029.034l-.018-3.051a.847.847,0,1,0-1.688-.123l-.1,3.037c-.008.254-.666.221-.865.117-.371-.194.273-1.888-.619-2.211-.382-.138-1.1-.1-1.146.479" transform="translate(-178.958 -28.188)" fill="#12263f"/>
        <path id="Trazado_1001748" data-name="Trazado 1001748" d="M90.674,106.6c-1.108,1.574-2.5,1.014-4.641.321-1.87-.6-1.115-3.01-1.249-4.356-.521-.214-.931-.935-1.513-.991-.971-.094-3.463,1.575-4.539-.3l-1.221-2.123c-1.081-1.879,1.678-3.164,2.041-4.066a2.539,2.539,0,0,0-.281-1.763c-.678-.843-3.589-1.191-2.927-3.6l.584-2.124c.578-2.1,3.2-1.088,4.348-1.48.506-.222.713-.965,1.151-1.32-.215-1.417-1.641-3.539.238-4.639.7-.411,1.384-.845,2.117-1.212,1.889-.945,3.069,1.561,3.922,2.022a2.378,2.378,0,0,0,1.838-.174c.774-.606,1.223-3.635,3.519-3.015l2.126.574a1.9,1.9,0,0,1,1.5,1.821l-.018,2.56c.453.3.914.909,1.464,1.049.881.136,3.474-1.553,4.493.17L104.829,86c1.109,1.876-.871,3.005-2.042,4.171.144.55,0,1.369.329,1.85,1,.927,3.784,1.371,2.936,3.765-.261.738-.349,1.529-.664,2.254-.758,1.743-3.078.856-4.175,1.158a3.243,3.243,0,0,0-1.121,1.391c0,1.39,1.7,3.461-.44,4.682l-1.97,1.122c-1.786,1.018-2.973-1.409-3.993-2.042a3.5,3.5,0,0,0-1.778.2c-.614.512-.781,1.4-1.239,2.055m6.268-13.923a5.727,5.727,0,1,0-5.727,5.727,5.727,5.727,0,0,0,5.727-5.727" transform="translate(-61.44 -62.612)" fill="#12263f"/>
        <path id="Trazado_1001749" data-name="Trazado 1001749" d="M140.646,138.132a4.028,4.028,0,1,1-4.028-4.028,4.028,4.028,0,0,1,4.028,4.028" transform="translate(-106.842 -108.062)" fill="#12263f"/>
        <path id="Trazado_1001750" data-name="Trazado 1001750" d="M43.639,26.746a3.6,3.6,0,0,0-.117-5.05,3.507,3.507,0,0,0-4.871,0,3.611,3.611,0,0,0-.095,5.08,5.615,5.615,0,0,0-2.612,4.094,6.918,6.918,0,0,1,.356-9.743A6.973,6.973,0,0,1,46.313,30.81a5.5,5.5,0,0,0-2.675-4.064" transform="translate(-27.484 -15.489)" fill="#12263f"/>
        <path id="Trazado_1001751" data-name="Trazado 1001751" d="M59.2,67.909A7.033,7.033,0,0,1,52.6,67.9,3.685,3.685,0,0,1,53.84,64.05a3.4,3.4,0,0,1,4.018-.114A3.56,3.56,0,0,1,59.2,67.909" transform="translate(-42.277 -51.036)" fill="#12263f"/>
        <path id="Trazado_1001752" data-name="Trazado 1001752" d="M64.258,37.55a1.828,1.828,0,1,1-1.828-1.828,1.827,1.827,0,0,1,1.828,1.828" transform="translate(-48.835 -28.785)" fill="#12263f"/>
      </g>
    </g>
  </g>
</svg>
