<svg xmlns="http://www.w3.org/2000/svg" xmlns:xlink="http://www.w3.org/1999/xlink" width="80" height="80" viewBox="0 0 80 80">
  <defs>
    <clipPath id="clip-path">
      <rect id="Rectángulo_456466" data-name="Rectángulo 456466" width="59.028" height="59.059" fill="#fff"/>
    </clipPath>
  </defs>
  <g id="Grupo_1191940" data-name="Grupo 1191940" transform="translate(-710 -1680.92)">
    <g id="Grupo_1119665" data-name="Grupo 1119665" transform="translate(534.111 -3840.08)">
      <rect id="Rectángulo_402006" data-name="Rectángulo 402006" width="80" height="80" rx="5" transform="translate(175.889 5521)" fill="#004b84"/>
    </g>
    <g id="Grupo_1192220" data-name="Grupo 1192220" transform="translate(720.486 1691.39)">
      <g id="Grupo_1192219" data-name="Grupo 1192219" clip-path="url(#clip-path)">
        <path id="Trazado_1001418" data-name="Trazado 1001418" d="M18.254,146.289c.166.582.018.95-.324,1.125A.845.845,0,0,1,16.8,147.1a26.615,26.615,0,0,1-3.224-18.188c.1-.542.4-.828.85-.834a.816.816,0,0,1,.813.994,24.962,24.962,0,0,0,3.016,17.212" transform="translate(-10.652 -103.74)" fill="#fff"/>
        <path id="Trazado_1001419" data-name="Trazado 1001419" d="M134.494,19.658a24.33,24.33,0,0,0-8.642.013.884.884,0,0,1-1.038-.725.852.852,0,0,1,.693-.919,27.857,27.857,0,0,1,9.388.01.805.805,0,0,1,.629.966.836.836,0,0,1-1.029.656" transform="translate(-101.085 -14.282)" fill="#fff"/>
        <path id="Trazado_1001420" data-name="Trazado 1001420" d="M221.047,10.505A10.5,10.5,0,1,1,210.542,0a10.5,10.5,0,0,1,10.5,10.505M217.4,16.063a8.83,8.83,0,1,0-13.688.007,7.068,7.068,0,0,1,13.688-.007" transform="translate(-162.019)" fill="#fff"/>
        <path id="Trazado_1001421" data-name="Trazado 1001421" d="M244.454,22.057a3.33,3.33,0,1,1-3.33-3.33,3.33,3.33,0,0,1,3.33,3.33" transform="translate(-192.6 -15.168)" fill="#fff"/>
        <path id="Trazado_1001422" data-name="Trazado 1001422" d="M21.009,10.5A10.5,10.5,0,1,1,10.5,0a10.5,10.5,0,0,1,10.5,10.5m-3.655,5.562a8.83,8.83,0,1,0-13.692,0,7.127,7.127,0,0,1,6.936-5.3,7.151,7.151,0,0,1,6.756,5.3" fill="#fff"/>
        <path id="Trazado_1001423" data-name="Trazado 1001423" d="M44.419,22.056a3.33,3.33,0,1,1-3.33-3.33,3.33,3.33,0,0,1,3.33,3.33" transform="translate(-30.584 -15.167)" fill="#fff"/>
        <path id="Trazado_1001424" data-name="Trazado 1001424" d="M19.716,116.385a3.382,3.382,0,0,1-4.8.142,3.345,3.345,0,0,1-.07-4.757l9.045-9.088c.75-.754,1.4-.173,2.145-.3,1.319-.222,1.544-2.32.9-3.4a15.585,15.585,0,1,1,5.319,5.376c-.982-.59-3.072-.307-3.281.892-.142.813.434,1.471-.389,2.291ZM52.168,91a11.82,11.82,0,1,0-11.819,11.819A11.819,11.819,0,0,0,52.168,91" transform="translate(-11.25 -61.074)" fill="#fff"/>
        <path id="Trazado_1001425" data-name="Trazado 1001425" d="M98.595,273.3a.794.794,0,0,1,.967.661.813.813,0,0,1-.71.972,26.488,26.488,0,0,1-18.166-3.208.834.834,0,0,1,.728-1.5A24.969,24.969,0,0,0,98.595,273.3" transform="translate(-65.01 -218.837)" fill="#fff"/>
        <path id="Trazado_1001426" data-name="Trazado 1001426" d="M283.9,139.335a.83.83,0,1,1-1.63-.312,24.641,24.641,0,0,0,.012-8.545.918.918,0,0,1,.489-1.11.845.845,0,0,1,1.12.61,26.934,26.934,0,0,1,.009,9.357" transform="translate(-228.611 -104.748)" fill="#fff"/>
        <rect id="Rectángulo_456464" data-name="Rectángulo 456464" width="3.225" height="13.79" transform="translate(27.475 22.139)" fill="#fff"/>
        <path id="Trazado_1001427" data-name="Trazado 1001427" d="M177.64,145.545a15.6,15.6,0,0,1-3.229.068l-.021-10.133,3.236-.019Z" transform="translate(-141.247 -109.716)" fill="#fff"/>
        <rect id="Rectángulo_456465" data-name="Rectángulo 456465" width="3.232" height="6.974" transform="translate(21.781 28.955)" fill="#fff"/>
        <path id="Trazado_1001428" data-name="Trazado 1001428" d="M221.048,210.712a10.5,10.5,0,1,1-10.5-10.5,10.5,10.5,0,0,1,10.5,10.5m-3.64,5.555a8.833,8.833,0,1,0-13.691-.025,7.079,7.079,0,0,1,6.888-5.264,7.164,7.164,0,0,1,6.8,5.289" transform="translate(-162.021 -162.158)" fill="#fff"/>
        <path id="Trazado_1001429" data-name="Trazado 1001429" d="M244.452,222.252a3.33,3.33,0,1,1-3.33-3.33,3.33,3.33,0,0,1,3.33,3.33" transform="translate(-192.6 -177.315)" fill="#fff"/>
      </g>
    </g>
  </g>
</svg>
