<svg xmlns="http://www.w3.org/2000/svg" xmlns:xlink="http://www.w3.org/1999/xlink" width="128" height="128" viewBox="0 0 128 128">
  <defs>
    <clipPath id="clip-path">
      <rect id="Rectángulo_454800" data-name="Rectángulo 454800" width="127.998" height="127.488" fill="none"/>
    </clipPath>
    <linearGradient id="linear-gradient" x1="0.5" y1="-0.646" x2="0.5" y2="1.118" gradientUnits="objectBoundingBox">
      <stop offset="0" stop-color="#67ccf1"/>
      <stop offset="0.625" stop-color="#004b84"/>
      <stop offset="1" stop-color="#002d4f"/>
    </linearGradient>
    <clipPath id="clip-path-2">
      <rect id="Rectángulo_456518" data-name="Rectángulo 456518" width="57.798" height="60.612" fill="#fff"/>
    </clipPath>
  </defs>
  <g id="Grupo_1192114" data-name="Grupo 1192114" transform="translate(-1136.727 -7764.48)">
    <path id="Trazado_997475" data-name="Trazado 997475" d="M63.973,0A63.718,63.718,0,1,1,0,63.717,63.845,63.845,0,0,1,63.973,0Z" transform="translate(1136.781 7764.48)" fill="#fff"/>
    <g id="Grupo_1177602" data-name="Grupo 1177602" transform="translate(1136.727 7764.993)">
      <g id="Grupo_1177525" data-name="Grupo 1177525">
        <g id="Grupo_1177524" data-name="Grupo 1177524" clip-path="url(#clip-path)">
          <path id="Trazado_997408" data-name="Trazado 997408" d="M64,127.488a63.744,63.744,0,1,1,64-63.744,63.944,63.944,0,0,1-64,63.744M64,1.663a62.081,62.081,0,1,0,62.33,62.081A62.275,62.275,0,0,0,64,1.663" fill="#002d4f"/>
          <path id="Trazado_997409" data-name="Trazado 997409" d="M60.365,114.865A54.719,54.719,0,1,1,115.3,60.146a54.891,54.891,0,0,1-54.937,54.719m0-107.774a53.056,53.056,0,1,0,53.267,53.055A53.222,53.222,0,0,0,60.365,7.091" transform="translate(3.634 3.598)" fill="#002d4f"/>
          <path id="Trazado_997410" data-name="Trazado 997410" d="M56.731,102.241a45.693,45.693,0,1,1,45.876-45.693,45.837,45.837,0,0,1-45.876,45.693m0-89.723a44.031,44.031,0,1,0,44.207,44.03,44.17,44.17,0,0,0-44.207-44.03" transform="translate(7.268 7.196)" fill="#fff"/>
          <path id="Trazado_997411" data-name="Trazado 997411" d="M53.1,89.617A36.667,36.667,0,1,1,89.911,52.95,36.783,36.783,0,0,1,53.1,89.617m0-71.671a35,35,0,1,0,35.144,35,35.115,35.115,0,0,0-35.144-35" transform="translate(10.902 10.794)" fill="#fff"/>
          <path id="Trazado_997412" data-name="Trazado 997412" d="M49.462,76.992A27.641,27.641,0,1,1,77.214,49.352,27.728,27.728,0,0,1,49.462,76.992m0-53.618A25.978,25.978,0,1,0,75.544,49.352,26.059,26.059,0,0,0,49.462,23.374" transform="translate(14.537 14.392)" fill="#fff"/>
          <path id="Trazado_997413" data-name="Trazado 997413" d="M45.828,64.37A18.615,18.615,0,1,1,64.517,45.753,18.673,18.673,0,0,1,45.828,64.37m0-35.568a16.953,16.953,0,1,0,17.02,16.952A17,17,0,0,0,45.828,28.8" transform="translate(18.171 17.99)" fill="#fff"/>
          <path id="Trazado_997414" data-name="Trazado 997414" d="M42.194,51.744a9.589,9.589,0,1,1,9.628-9.588,9.62,9.62,0,0,1-9.628,9.588m0-17.515a7.926,7.926,0,1,0,7.959,7.927,7.953,7.953,0,0,0-7.959-7.927" transform="translate(21.805 21.588)" fill="#fff"/>
        </g>
      </g>
      <g id="Elipse_13614" data-name="Elipse 13614" transform="translate(10.388 10.387)" stroke="#002d4f" stroke-width="1" fill="url(#linear-gradient)">
        <ellipse cx="53.612" cy="53.356" rx="53.612" ry="53.356" stroke="none"/>
        <ellipse cx="53.612" cy="53.356" rx="53.112" ry="52.856" fill="none"/>
      </g>
    </g>
    <g id="Grupo_1192301" data-name="Grupo 1192301" transform="translate(1171.855 7797.892)">
      <g id="Grupo_1192300" data-name="Grupo 1192300" clip-path="url(#clip-path-2)">
        <path id="Trazado_1001654" data-name="Trazado 1001654" d="M51.683,27.861a11.5,11.5,0,1,0-22.6.051,7.871,7.871,0,0,0-8.881-1.2,8.991,8.991,0,0,0-4.218,4.533,3.164,3.164,0,0,1-1.252-2.433c-.02-2.114-.08-4.18.014-6.3.1-2.35,2.3-3.644,4.57-3.235.49-1.342,1.01-2.5,1.548-3.74.117-.268-.377-.646-.556-.815a3.489,3.489,0,0,1-.227-5.03c1.476-1.505,2.88-3,4.448-4.418a3.619,3.619,0,0,1,5.446.948L34,4.55a4.059,4.059,0,0,1,.785-3.324,3.632,3.632,0,0,1,2.81-1.22L42.973,0a3.82,3.82,0,0,1,2.894,1.106,4.014,4.014,0,0,1,.889,3.445l4.016,1.681a3.612,3.612,0,0,1,5.449-.957c1.592,1.46,3.077,2.955,4.542,4.541,1.549,1.677.933,4.149-.956,5.457L61.492,19.3a3.958,3.958,0,0,1,3.321.773,3.691,3.691,0,0,1,1.233,2.8l-.007,5.578a3.321,3.321,0,0,1-1.287,2.794,8.705,8.705,0,0,0-6.147-5.221,8.042,8.042,0,0,0-6.924,1.837" transform="translate(-11.489 0)" fill="#fff"/>
        <path id="Trazado_1001655" data-name="Trazado 1001655" d="M186.369,152.568l-14.338.03a15.239,15.239,0,0,0-5.882-2.924,12.856,12.856,0,0,0,2.116-4.6l3.292-1.132a.636.636,0,0,0,.426-.473c.175-1.055-2.851-1.685-3.068-7.105-.147-3.668,2.483-7.481,6.459-7.527,3.873-.044,6.6,3.688,6.539,7.309-.083,5.293-3.087,6.205-3.046,7.328a.629.629,0,0,0,.487.506l3.938,1.343c3.155,1.076,4.594,5.682,4.346,6.322a1.314,1.314,0,0,1-1.269.922" transform="translate(-129.867 -100.703)" fill="#fff"/>
        <path id="Trazado_1001656" data-name="Trazado 1001656" d="M92.968,175.968l-26,0a1.585,1.585,0,0,1-1.27-.668,1.533,1.533,0,0,1-.142-1.562l.812-2.024a7.489,7.489,0,0,1,4.5-4.444l4.417-1.492a.94.94,0,0,0,.583-.466.916.916,0,0,0-.207-.968,10.306,10.306,0,0,1-.422-14.759,6.712,6.712,0,0,1,9.554,0,10.309,10.309,0,0,1-.421,14.76.952.952,0,0,0-.259.789.757.757,0,0,0,.494.591l4.549,1.538a7.285,7.285,0,0,1,4.424,4.251l.892,2.227a1.528,1.528,0,0,1-.05,1.421,1.6,1.6,0,0,1-1.453.811" transform="translate(-51.127 -115.356)" fill="#fff"/>
        <path id="Trazado_1001657" data-name="Trazado 1001657" d="M15.658,152.6l-14.28-.012a1.4,1.4,0,0,1-1.317-.776c-.393-.749,1.133-5.384,4.292-6.47l3.933-1.352a.7.7,0,0,0,.44-.335c.453-1.225-2.776-1.752-3-7.27-.149-3.712,2.575-7.575,6.563-7.532,3.962.042,6.582,3.872,6.436,7.522-.217,5.415-3.236,6.051-3.069,7.108a.631.631,0,0,0,.43.471l3.29,1.135a13.179,13.179,0,0,0,2.128,4.632,13.773,13.773,0,0,0-5.849,2.88" transform="translate(0 -100.713)" fill="#fff"/>
      </g>
    </g>
  </g>
</svg>
