<svg xmlns="http://www.w3.org/2000/svg" xmlns:xlink="http://www.w3.org/1999/xlink" width="500" height="289" viewBox="0 0 500 289">
  <defs>
    <clipPath id="clip-path">
      <rect id="Rectángulo_456394" data-name="Rectángulo 456394" width="415.913" height="286.616" fill="none"/>
    </clipPath>
    <clipPath id="clip-path-2">
      <rect id="Rectángulo_456393" data-name="Rectángulo 456393" width="415.913" height="286.616" fill="#004b84"/>
    </clipPath>
    <clipPath id="clip-path-3">
      <rect id="Rectángulo_456388" data-name="Rectángulo 456388" width="62.339" height="62.334" fill="none"/>
    </clipPath>
    <clipPath id="clip-path-4">
      <rect id="Rectángulo_456389" data-name="Rectángulo 456389" width="41.207" height="48.06" fill="none"/>
    </clipPath>
    <clipPath id="clip-path-5">
      <rect id="Rectángulo_456390" data-name="Rectángulo 456390" width="43.586" height="52.869" fill="none"/>
    </clipPath>
    <clipPath id="clip-path-6">
      <rect id="Rectángulo_456391" data-name="Rectángulo 456391" width="39.858" height="47.605" fill="none"/>
    </clipPath>
    <clipPath id="clip-path-7">
      <rect id="Rectángulo_456392" data-name="Rectángulo 456392" width="27.244" height="34.419" fill="none"/>
    </clipPath>
  </defs>
  <g id="Grupo_1192151" data-name="Grupo 1192151" transform="translate(-186 -3593)">
    <rect id="Rectángulo_456206" data-name="Rectángulo 456206" width="500" height="289" transform="translate(186 3593)" fill="none"/>
    <g id="Grupo_1192150" data-name="Grupo 1192150" transform="translate(228 3594)">
      <g id="Grupo_1192149" data-name="Grupo 1192149" clip-path="url(#clip-path)">
        <g id="Grupo_1192148" data-name="Grupo 1192148" transform="translate(0 0)">
          <g id="Grupo_1192147" data-name="Grupo 1192147" clip-path="url(#clip-path-2)">
            <path id="Trazado_1000905" data-name="Trazado 1000905" d="M289.453,483.457a4.275,4.275,0,0,0-1.077,3.879,2.991,2.991,0,0,1,.1.636,4.16,4.16,0,0,1-.633,2.379l-10.368,16.9c-1.573,2.29-3.563,1.462-5,3.389-1.064,1.429-.631,3.767-.393,4.741a.156.156,0,0,0,.3.022c.232-.588.422-1.573.655-2.3.339-1.055,2.383-1.814,4.084-.378,1.381,1.166.207,3.173-.237,4.018a.169.169,0,0,0,.2.241,3.642,3.642,0,0,0,1.779-1.332,4.449,4.449,0,0,0,.922-4.065,2.9,2.9,0,0,1,0-1.288,4.71,4.71,0,0,1,.621-1.555l10.694-17.43a2.741,2.741,0,0,1,.9-.908c1.27-.777,2.629-.485,3.685-1.9s.63-3.985.392-4.959a.156.156,0,0,0-.3-.022c-.232.588-.611,1.941-.845,2.669-.339,1.055-2.11,1.919-3.811.482-1.38-1.166-.049-3.487.4-4.332a.17.17,0,0,0-.2-.241,3.868,3.868,0,0,0-1.866,1.36" transform="translate(-218.546 -387.649)" fill="#e5f0f8"/>
            <path id="Trazado_1000906" data-name="Trazado 1000906" d="M553.886,279.879S671.313-19.268,455.821.982C363.525,9.654,380.755,62.27,339.992,111.5c-26.422,31.911-77.24,5.806-96.283,33.69s3.336,107.393,11.186,134.688Z" transform="translate(-189.949 0.002)" fill="#e5f0f8"/>
            <path id="Trazado_1000907" data-name="Trazado 1000907" d="M356.046,23H255.99c-1.184,0-2.145,1.572-2.145,3.512v80.469H358.191V26.511c0-1.939-.96-3.512-2.145-3.512" transform="translate(-204.117 -18.493)" fill="#bbdbf3"/>
            <rect id="Rectángulo_456349" data-name="Rectángulo 456349" width="101.557" height="74.795" transform="translate(51.123 12.398)" fill="#e5f0f8"/>
            <path id="Trazado_1000908" data-name="Trazado 1000908" d="M283.273,89.045V88.26l4.535-2.454v1.2l-3.03,1.647,3.03,1.647v1.2Z" transform="translate(-227.78 -68.996)" fill="#fff"/>
            <path id="Trazado_1000909" data-name="Trazado 1000909" d="M734.355,411.812v-1.2l3.029-1.647-3.029-1.647v-1.2l4.535,2.454v.786Z" transform="translate(-590.496 -326.559)" fill="#fff"/>
            <rect id="Rectángulo_456350" data-name="Rectángulo 456350" width="18.036" height="1.853" transform="translate(61.71 18.73)" fill="#fff"/>
            <rect id="Rectángulo_456351" data-name="Rectángulo 456351" width="18.036" height="1.853" transform="translate(55.493 25.891)" fill="#fff"/>
            <rect id="Rectángulo_456352" data-name="Rectángulo 456352" width="18.036" height="1.853" transform="translate(59.335 30.879)" fill="#fff"/>
            <rect id="Rectángulo_456353" data-name="Rectángulo 456353" width="18.036" height="1.853" transform="translate(59.335 44.608)" fill="#fff"/>
            <rect id="Rectángulo_456354" data-name="Rectángulo 456354" width="18.036" height="1.853" transform="translate(59.335 48.855)" fill="#fff"/>
            <rect id="Rectángulo_456355" data-name="Rectángulo 456355" width="54.392" height="1.853" transform="translate(65.532 35.63)" fill="#fff"/>
            <rect id="Rectángulo_456356" data-name="Rectángulo 456356" width="72.663" height="1.853" transform="translate(65.532 53.367)" fill="#fff"/>
            <rect id="Rectángulo_456357" data-name="Rectángulo 456357" width="72.663" height="1.853" transform="translate(65.532 67.573)" fill="#fff"/>
            <rect id="Rectángulo_456358" data-name="Rectángulo 456358" width="69.615" height="1.853" transform="translate(72.366 81.479)" fill="#fff"/>
            <rect id="Rectángulo_456359" data-name="Rectángulo 456359" width="15.564" height="1.853" transform="translate(65.532 72.4)" fill="#fff"/>
            <rect id="Rectángulo_456360" data-name="Rectángulo 456360" width="15.564" height="1.853" transform="translate(65.532 76.991)" fill="#fff"/>
            <rect id="Rectángulo_456361" data-name="Rectángulo 456361" width="72.663" height="1.853" transform="translate(65.532 57.901)" fill="#fff"/>
            <rect id="Rectángulo_456362" data-name="Rectángulo 456362" width="39.314" height="1.853" transform="translate(65.532 62.436)" fill="#fff"/>
            <rect id="Rectángulo_456363" data-name="Rectángulo 456363" width="16.678" height="1.853" transform="translate(65.532 39.9)" fill="#fff"/>
            <line id="Línea_3287" data-name="Línea 3287" y1="4.617" x2="4.617" transform="translate(145.446 6.245)" fill="none" stroke="#fff" stroke-linecap="round" stroke-linejoin="round" stroke-width="3.779"/>
            <line id="Línea_3288" data-name="Línea 3288" x1="4.617" y1="4.617" transform="translate(145.446 6.245)" fill="none" stroke="#fff" stroke-linecap="round" stroke-linejoin="round" stroke-width="3.779"/>
            <path id="Trazado_1000910" data-name="Trazado 1000910" d="M833.762,16.617a7.966,7.966,0,0,0,3.811,9.59l-4.759,13.929,2.414.825,4.758-13.927a7.971,7.971,0,1,0-6.224-10.417m13.466,4.6a6.238,6.238,0,1,1-3.886-7.919,6.256,6.256,0,0,1,3.886,7.919" transform="translate(-669.667 -9.012)" fill="#e5f0f8"/>
            <path id="Trazado_1000911" data-name="Trazado 1000911" d="M1836.248,1269.781s6.957-27.752,24.3-36.317,35.853,3.161,31.152,15.491c-4.053,10.632-20.718-2.441-33.685,2.7s-15.011,18.126-15.011,18.126Z" transform="translate(-1476.529 -989.471)" fill="#40a87b"/>
            <path id="Trazado_1000912" data-name="Trazado 1000912" d="M1894.493,1266.471s-18.613-10.608-32.423-.8-18.18,29.021-18.18,29.021" transform="translate(-1482.674 -1014.381)" fill="none" stroke="#6adb6a" stroke-miterlimit="10" stroke-width="3.989"/>
            <line id="Línea_3289" data-name="Línea 3289" x1="4.331" y2="1.888" transform="translate(404.486 247.129)" fill="none" stroke="#6adb6a" stroke-miterlimit="10" stroke-width="3.989"/>
            <line id="Línea_3290" data-name="Línea 3290" x1="8.626" y2="4.046" transform="translate(393.937 243.083)" fill="none" stroke="#6adb6a" stroke-miterlimit="10" stroke-width="3.989"/>
            <line id="Línea_3291" data-name="Línea 3291" x1="4.487" y2="5.301" transform="translate(385.116 243.083)" fill="none" stroke="#6adb6a" stroke-miterlimit="10" stroke-width="3.989"/>
            <line id="Línea_3292" data-name="Línea 3292" x1="2.017" y2="4.882" transform="translate(379.08 246.636)" fill="none" stroke="#6adb6a" stroke-miterlimit="10" stroke-width="3.989"/>
            <line id="Línea_3293" data-name="Línea 3293" x1="6.648" y1="10.998" transform="translate(400.004 247.846)" fill="none" stroke="#6adb6a" stroke-miterlimit="10" stroke-width="3.989"/>
            <line id="Línea_3294" data-name="Línea 3294" x1="6.097" y1="9.792" transform="translate(388.81 247.476)" fill="none" stroke="#6adb6a" stroke-miterlimit="10" stroke-width="3.989"/>
            <line id="Línea_3295" data-name="Línea 3295" x1="9.167" y1="1.139" transform="translate(375.383 254.628)" fill="none" stroke="#6adb6a" stroke-miterlimit="10" stroke-width="3.989"/>
            <line id="Línea_3296" data-name="Línea 3296" x1="5.254" y2="1.725" transform="translate(368.624 261.321)" fill="none" stroke="#6adb6a" stroke-miterlimit="10" stroke-width="3.989"/>
            <path id="Trazado_1000913" data-name="Trazado 1000913" d="M71.293,1220.554s-8.827-35.209-30.829-46.075-45.486,4.01-39.523,19.653c5.142,13.489,26.285-3.1,42.736,3.426s19.044,23,19.044,23Z" transform="translate(0 -941.408)" fill="#40a87b"/>
            <path id="Trazado_1000914" data-name="Trazado 1000914" d="M26.513,1216.355s23.614-13.458,41.135-1.016,23.065,36.818,23.065,36.818" transform="translate(-21.319 -973.011)" fill="none" stroke="#6adb6a" stroke-miterlimit="10" stroke-width="5.061"/>
            <line id="Línea_3297" data-name="Línea 3297" x2="5.494" y2="2.395" transform="translate(9.003 237.05)" fill="none" stroke="#6adb6a" stroke-miterlimit="10" stroke-width="5.061"/>
            <line id="Línea_3298" data-name="Línea 3298" x2="10.943" y2="5.132" transform="translate(16.937 231.917)" fill="none" stroke="#6adb6a" stroke-miterlimit="10" stroke-width="5.061"/>
            <line id="Línea_3299" data-name="Línea 3299" x2="5.693" y2="6.725" transform="translate(33.379 231.917)" fill="none" stroke="#6adb6a" stroke-miterlimit="10" stroke-width="5.061"/>
            <line id="Línea_3300" data-name="Línea 3300" x2="2.559" y2="6.193" transform="translate(44.17 236.424)" fill="none" stroke="#6adb6a" stroke-miterlimit="10" stroke-width="5.061"/>
            <line id="Línea_3301" data-name="Línea 3301" y1="13.953" x2="8.434" transform="translate(11.75 237.96)" fill="none" stroke="#6adb6a" stroke-miterlimit="10" stroke-width="5.061"/>
            <line id="Línea_3302" data-name="Línea 3302" y1="12.423" x2="7.735" transform="translate(26.65 237.491)" fill="none" stroke="#6adb6a" stroke-miterlimit="10" stroke-width="5.061"/>
            <line id="Línea_3303" data-name="Línea 3303" y1="1.445" x2="11.63" transform="translate(39.79 246.564)" fill="none" stroke="#6adb6a" stroke-miterlimit="10" stroke-width="5.061"/>
            <line id="Línea_3304" data-name="Línea 3304" x2="6.666" y2="2.189" transform="translate(53.329 255.056)" fill="none" stroke="#6adb6a" stroke-miterlimit="10" stroke-width="5.061"/>
            <path id="Trazado_1000915" data-name="Trazado 1000915" d="M120.436,997.915s6.228-118.019-50.142-102.81,43.972,78.815,43.886,102.81Z" transform="translate(-42.703 -718.667)" fill="#6adb6a"/>
            <path id="Trazado_1000916" data-name="Trazado 1000916" d="M212.159,1047.226s-1.968-61.661-42.15-92.15" transform="translate(-136.704 -767.977)" fill="none" stroke="#40a87b" stroke-miterlimit="10" stroke-width="5.061"/>
            <line id="Línea_3305" data-name="Línea 3305" x1="1.004" y1="21.263" transform="translate(49.924 183.715)" fill="none" stroke="#40a87b" stroke-miterlimit="10" stroke-width="5.061"/>
            <line id="Línea_3306" data-name="Línea 3306" x2="27.16" y2="3.54" transform="translate(19.402 196.167)" fill="none" stroke="#40a87b" stroke-miterlimit="10" stroke-width="5.061"/>
            <line id="Línea_3307" data-name="Línea 3307" x2="28.717" y2="3.346" transform="translate(29.965 214.314)" fill="none" stroke="#40a87b" stroke-miterlimit="10" stroke-width="5.061"/>
            <line id="Línea_3308" data-name="Línea 3308" x2="22.18" y2="3.135" transform="translate(44.323 232.298)" fill="none" stroke="#40a87b" stroke-miterlimit="10" stroke-width="5.061"/>
            <line id="Línea_3309" data-name="Línea 3309" x1="5.084" y2="12.351" transform="translate(63.547 215.495)" fill="none" stroke="#40a87b" stroke-miterlimit="10" stroke-width="5.061"/>
            <line id="Línea_3310" data-name="Línea 3310" x1="4.334" y2="17.389" transform="translate(55.943 195.448)" fill="none" stroke="#40a87b" stroke-miterlimit="10" stroke-width="5.061"/>
            <line id="Línea_3311" data-name="Línea 3311" x1="4.05" y2="8.073" transform="translate(69.327 236.114)" fill="none" stroke="#40a87b" stroke-miterlimit="10" stroke-width="5.061"/>
            <line id="Línea_3312" data-name="Línea 3312" x2="15.894" y2="5.011" transform="translate(55.943 248.969)" fill="none" stroke="#40a87b" stroke-miterlimit="10" stroke-width="5.061"/>
            <path id="Trazado_1000917" data-name="Trazado 1000917" d="M1809.675,1094.294s-4.909-93.024,39.522-81.037-34.659,62.123-34.592,81.037Z" transform="translate(-1455.032 -813.903)" fill="#6adb6a"/>
            <path id="Trazado_1000918" data-name="Trazado 1000918" d="M1819.5,1133.161s1.551-48.6,33.224-72.635" transform="translate(-1463.063 -852.771)" fill="none" stroke="#40a87b" stroke-miterlimit="10" stroke-width="3.989"/>
            <line id="Línea_3313" data-name="Línea 3313" y1="16.76" x2="0.791" transform="translate(375.77 205.089)" fill="none" stroke="#40a87b" stroke-miterlimit="10" stroke-width="3.989"/>
            <line id="Línea_3314" data-name="Línea 3314" x1="21.408" y2="2.79" transform="translate(379.212 214.905)" fill="none" stroke="#40a87b" stroke-miterlimit="10" stroke-width="3.989"/>
            <line id="Línea_3315" data-name="Línea 3315" x1="22.635" y2="2.637" transform="translate(369.659 229.208)" fill="none" stroke="#40a87b" stroke-miterlimit="10" stroke-width="3.989"/>
            <line id="Línea_3316" data-name="Línea 3316" x1="17.483" y2="2.471" transform="translate(363.494 243.383)" fill="none" stroke="#40a87b" stroke-miterlimit="10" stroke-width="3.989"/>
            <line id="Línea_3317" data-name="Línea 3317" x2="4.007" y2="9.736" transform="translate(361.817 230.139)" fill="none" stroke="#40a87b" stroke-miterlimit="10" stroke-width="3.989"/>
            <line id="Línea_3318" data-name="Línea 3318" x2="3.416" y2="13.707" transform="translate(368.402 214.338)" fill="none" stroke="#40a87b" stroke-miterlimit="10" stroke-width="3.989"/>
            <line id="Línea_3319" data-name="Línea 3319" x2="3.193" y2="6.363" transform="translate(358.076 246.391)" fill="none" stroke="#40a87b" stroke-miterlimit="10" stroke-width="3.989"/>
            <line id="Línea_3320" data-name="Línea 3320" x1="12.528" y2="3.95" transform="translate(359.29 256.524)" fill="none" stroke="#40a87b" stroke-miterlimit="10" stroke-width="3.989"/>
            <path id="Trazado_1000919" data-name="Trazado 1000919" d="M516.077,222.436a113.477,113.477,0,0,0-61.07,181.208l88.478-71.059Z" transform="translate(-345.75 -178.861)" fill="#40a87b"/>
            <path id="Trazado_1000920" data-name="Trazado 1000920" d="M964.827,227.91a113.58,113.58,0,0,0-95.364-19.233l27.408,110.149Z" transform="translate(-699.136 -165.102)" fill="#f9e181"/>
            <path id="Trazado_1000921" data-name="Trazado 1000921" d="M1122.784,408.109a113.317,113.317,0,0,0-45.459-87.495l-67.956,90.916Z" transform="translate(-811.635 -257.806)" fill="#ffddb8"/>
            <path id="Trazado_1000922" data-name="Trazado 1000922" d="M1122.784,767.247l-113.415,3.421,80.543,79.958a113.131,113.131,0,0,0,32.958-79.958c0-1.148-.052-2.282-.086-3.421" transform="translate(-811.635 -616.944)" fill="#ffd09c"/>
            <path id="Trazado_1000923" data-name="Trazado 1000923" d="M1044.36,892.69a113.481,113.481,0,0,0,45.552-28.021l-80.543-79.958Z" transform="translate(-811.635 -630.987)" fill="#a6c9f1"/>
            <path id="Trazado_1000924" data-name="Trazado 1000924" d="M557.721,855.77a113.489,113.489,0,0,0,123.468,36.92L646.2,784.711Z" transform="translate(-448.464 -630.987)" fill="#0775ef"/>
            <path id="Trazado_1000925" data-name="Trazado 1000925" d="M618.791,222.436h15.021l-61.07,181.208H557.721Z" transform="translate(-448.464 -178.861)" fill="#40a87b"/>
            <path id="Trazado_1000926" data-name="Trazado 1000926" d="M592.753,222.436a113.477,113.477,0,0,0-61.07,181.208l88.477-71.059Z" transform="translate(-407.405 -178.861)" fill="#6adb6a"/>
            <path id="Trazado_1000927" data-name="Trazado 1000927" d="M1041.5,227.91a113.579,113.579,0,0,0-95.364-19.233l27.408,110.149Z" transform="translate(-760.792 -165.102)" fill="#f9ecb8"/>
            <path id="Trazado_1000928" data-name="Trazado 1000928" d="M1199.461,408.109A113.317,113.317,0,0,0,1154,320.614l-67.956,90.916Z" transform="translate(-873.291 -257.806)" fill="#f9e181"/>
            <path id="Trazado_1000929" data-name="Trazado 1000929" d="M1199.461,767.247l-113.415,3.421,80.543,79.958a113.131,113.131,0,0,0,32.958-79.958c0-1.148-.052-2.282-.086-3.421" transform="translate(-873.291 -616.944)" fill="#f74242"/>
            <path id="Trazado_1000930" data-name="Trazado 1000930" d="M1121.037,892.69a113.479,113.479,0,0,0,45.552-28.021l-80.543-79.958Z" transform="translate(-873.291 -630.987)" fill="#2ec6fc"/>
            <path id="Trazado_1000931" data-name="Trazado 1000931" d="M634.4,855.77a113.489,113.489,0,0,0,123.468,36.92L722.875,784.711Z" transform="translate(-510.12 -630.987)" fill="#088cfc"/>
            <rect id="Rectángulo_456364" data-name="Rectángulo 456364" width="16.338" height="16.338" transform="translate(306.266 4.856)" fill="#bbdbf3"/>
            <rect id="Rectángulo_456365" data-name="Rectángulo 456365" width="16.338" height="16.338" transform="translate(306.266 24.461)" fill="#bbdbf3"/>
            <rect id="Rectángulo_456366" data-name="Rectángulo 456366" width="16.338" height="16.338" transform="translate(306.266 44.066)" fill="#bbdbf3"/>
            <path id="Trazado_1000932" data-name="Trazado 1000932" d="M1568.231,46.4l5.376,4.743,8.538-10.752" transform="translate(-1261.016 -32.475)" fill="none" stroke="#fff" stroke-miterlimit="10" stroke-width="6.73"/>
            <path id="Trazado_1000933" data-name="Trazado 1000933" d="M1568.231,145.937l5.376,4.743,8.538-10.752" transform="translate(-1261.016 -112.517)" fill="none" stroke="#fff" stroke-miterlimit="10" stroke-width="6.73"/>
            <line id="Línea_3321" data-name="Línea 3321" x2="12.86" y2="12.86" transform="translate(307.636 45.648)" fill="none" stroke="#fff" stroke-miterlimit="10" stroke-width="6.73"/>
            <line id="Línea_3322" data-name="Línea 3322" x1="12.86" y2="12.86" transform="translate(307.636 45.648)" fill="none" stroke="#fff" stroke-miterlimit="10" stroke-width="6.73"/>
            <rect id="Rectángulo_456367" data-name="Rectángulo 456367" width="45.688" height="2.43" transform="translate(325.088 4.855)" fill="#bbdbf3"/>
            <rect id="Rectángulo_456368" data-name="Rectángulo 456368" width="45.688" height="2.43" transform="translate(325.088 9.267)" fill="#bbdbf3"/>
            <rect id="Rectángulo_456369" data-name="Rectángulo 456369" width="28.579" height="2.43" transform="translate(325.088 13.679)" fill="#bbdbf3"/>
            <rect id="Rectángulo_456370" data-name="Rectángulo 456370" width="45.688" height="2.43" transform="translate(325.088 24.461)" fill="#bbdbf3"/>
            <rect id="Rectángulo_456371" data-name="Rectángulo 456371" width="45.688" height="2.429" transform="translate(325.088 28.873)" fill="#bbdbf3"/>
            <rect id="Rectángulo_456372" data-name="Rectángulo 456372" width="28.579" height="2.43" transform="translate(325.088 33.285)" fill="#bbdbf3"/>
            <rect id="Rectángulo_456373" data-name="Rectángulo 456373" width="45.688" height="2.43" transform="translate(325.088 44.066)" fill="#bbdbf3"/>
            <rect id="Rectángulo_456374" data-name="Rectángulo 456374" width="45.688" height="2.43" transform="translate(325.088 48.478)" fill="#bbdbf3"/>
            <rect id="Rectángulo_456375" data-name="Rectángulo 456375" width="28.579" height="2.43" transform="translate(325.088 52.89)" fill="#bbdbf3"/>
            <path id="Trazado_1000934" data-name="Trazado 1000934" d="M885.226,118.537a7.222,7.222,0,0,1-6.289,7.278,31.084,31.084,0,0,0,4.111,9.573,7.227,7.227,0,0,1,10.314,10,31.693,31.693,0,0,0,6.15,2.864c.963.324,1.943.605,2.927.834.193.054.4.093.587.135a7.232,7.232,0,0,1,14.365-.229,30.939,30.939,0,0,0,9.548-4.106,7.231,7.231,0,0,1,10.014-10.3,31.166,31.166,0,0,0,3.818-9.674,7.228,7.228,0,0,1-.2-14.358,31.017,31.017,0,0,0-4.109-9.56,7.2,7.2,0,0,1-8.75.311,5.324,5.324,0,0,1-.867-.708,7.21,7.21,0,0,1-.685-9.605,31.47,31.47,0,0,0-5.788-2.751c-.963-.324-1.934-.62-2.919-.862-.329-.081-.657-.161-.984-.229a7.2,7.2,0,0,1-7.077,6.5,7.422,7.422,0,0,1-1.949-.226,7.232,7.232,0,0,1-5.327-6.05,30.934,30.934,0,0,0-9.548,4.106,7.231,7.231,0,0,1-10.014,10.3,31.5,31.5,0,0,0-3.83,9.677,7.211,7.211,0,0,1,6.5,7.077m13.5-11.052a15.138,15.138,0,0,1,5.671-3.7,15.351,15.351,0,0,1,8.411-.651,13.92,13.92,0,0,1,2.914.9,15.349,15.349,0,0,1,8.527,9.051,15.351,15.351,0,0,1-3.477,15.8,14.067,14.067,0,0,1-1.594,1.416,15.271,15.271,0,0,1-15.021,2.182,15.076,15.076,0,0,1-5.093-3.276,15.959,15.959,0,0,1-1.62-1.842,15.357,15.357,0,0,1,1.283-19.877" transform="translate(-706.582 -70.074)" fill="#0775ef"/>
            <path id="Trazado_1000935" data-name="Trazado 1000935" d="M1071.4,73.9l3.45-3.227-.656,8.173Z" transform="translate(-861.515 -56.83)" fill="#0775ef"/>
            <path id="Trazado_1000936" data-name="Trazado 1000936" d="M952.846,92.792l-3.45,3.227,5.336,2.286,1.4-5.062Z" transform="translate(-763.411 -74.614)" fill="#0775ef"/>
            <path id="Trazado_1000937" data-name="Trazado 1000937" d="M883.265,268.067l-3.45,3.227,2.893,2.173,3.113-2.722Z" transform="translate(-707.46 -215.552)" fill="#0775ef"/>
            <path id="Trazado_1000938" data-name="Trazado 1000938" d="M901.727,145.391l-3.45,3.227,1.448,3.494.8-3.875Z" transform="translate(-722.305 -116.909)" fill="#0775ef"/>
            <path id="Trazado_1000939" data-name="Trazado 1000939" d="M997.144,379.812l-3.45,3.227-2.215-2.458,1.976-2.653Z" transform="translate(-797.25 -303.892)" fill="#0775ef"/>
            <path id="Trazado_1000940" data-name="Trazado 1000940" d="M1182.626,180.417l-3.45,3.227-3.718-2.854,1.85-2.741Z" transform="translate(-945.187 -143.168)" fill="#0775ef"/>
            <path id="Trazado_1000941" data-name="Trazado 1000941" d="M1106.805,362.8l-3.45,3.227-5.238-.7,3.563-3.168Z" transform="translate(-882.998 -291.218)" fill="#0775ef"/>
            <path id="Trazado_1000942" data-name="Trazado 1000942" d="M1175.044,301.837l-3.45,3.227-1.067-5.9,3.206.54Z" transform="translate(-941.222 -240.557)" fill="#0775ef"/>
            <path id="Trazado_1000943" data-name="Trazado 1000943" d="M902.838,102.066a7.223,7.223,0,0,1-6.289,7.278,31.086,31.086,0,0,0,4.111,9.573,7.227,7.227,0,0,1,10.315,10,31.685,31.685,0,0,0,6.15,2.864c.963.324,1.943.605,2.927.834.193.054.4.093.587.135A7.232,7.232,0,0,1,935,132.52a30.938,30.938,0,0,0,9.548-4.106,7.231,7.231,0,0,1,10.014-10.3,31.162,31.162,0,0,0,3.818-9.674,7.228,7.228,0,0,1-.2-14.358,31.021,31.021,0,0,0-4.109-9.56,7.2,7.2,0,0,1-8.75.311,5.317,5.317,0,0,1-.867-.708,7.21,7.21,0,0,1-.685-9.605,31.472,31.472,0,0,0-5.788-2.751c-.963-.324-1.934-.62-2.92-.862-.329-.081-.657-.161-.984-.229a7.2,7.2,0,0,1-7.077,6.5,7.424,7.424,0,0,1-1.949-.226,7.231,7.231,0,0,1-5.326-6.05,30.94,30.94,0,0,0-9.548,4.106,7.231,7.231,0,0,1-10.014,10.3,31.5,31.5,0,0,0-3.83,9.677,7.211,7.211,0,0,1,6.5,7.077m13.5-11.052a15.136,15.136,0,0,1,5.671-3.7,15.351,15.351,0,0,1,8.411-.651,13.92,13.92,0,0,1,2.914.9,15.348,15.348,0,0,1,8.527,9.051,15.351,15.351,0,0,1-3.477,15.8,14.077,14.077,0,0,1-1.594,1.416,15.271,15.271,0,0,1-15.021,2.182,15.072,15.072,0,0,1-5.093-3.276,15.953,15.953,0,0,1-1.62-1.842,15.357,15.357,0,0,1,1.283-19.877" transform="translate(-720.744 -56.829)" fill="#088cfc"/>
            <path id="Trazado_1000944" data-name="Trazado 1000944" d="M1248.7,50.058a4.353,4.353,0,0,1-3.79,4.386,18.736,18.736,0,0,0,2.477,5.769,4.355,4.355,0,0,1,6.215,6.026,19.1,19.1,0,0,0,3.706,1.726c.58.2,1.171.365,1.764.5.117.033.239.056.354.081a4.358,4.358,0,0,1,8.656-.138,18.637,18.637,0,0,0,5.754-2.474,4.357,4.357,0,0,1,6.035-6.209,18.775,18.775,0,0,0,2.3-5.83,4.356,4.356,0,0,1-.121-8.652,18.69,18.69,0,0,0-2.476-5.761,4.339,4.339,0,0,1-5.273.188,3.2,3.2,0,0,1-.523-.426,4.345,4.345,0,0,1-.412-5.788,18.976,18.976,0,0,0-3.488-1.658c-.58-.2-1.165-.374-1.759-.519-.2-.048-.4-.1-.593-.138a4.338,4.338,0,0,1-4.265,3.919,4.466,4.466,0,0,1-1.174-.136,4.358,4.358,0,0,1-3.21-3.646,18.644,18.644,0,0,0-5.754,2.474,4.357,4.357,0,0,1-6.035,6.209,18.976,18.976,0,0,0-2.308,5.831,4.346,4.346,0,0,1,3.918,4.265m8.135-6.66a9.122,9.122,0,0,1,3.417-2.23,9.252,9.252,0,0,1,5.068-.392,8.411,8.411,0,0,1,1.756.543,9.249,9.249,0,0,1,5.138,5.454,9.251,9.251,0,0,1-2.1,9.519,8.481,8.481,0,0,1-.961.853,9.2,9.2,0,0,1-9.052,1.315,9.084,9.084,0,0,1-3.069-1.974,9.633,9.633,0,0,1-.976-1.11,9.254,9.254,0,0,1,.773-11.978" transform="translate(-1000.933 -25.04)" fill="#0775ef"/>
            <path id="Trazado_1000945" data-name="Trazado 1000945" d="M1360.895,23.159l2.079-1.944-.395,4.925Z" transform="translate(-1094.297 -17.059)" fill="#0775ef"/>
            <path id="Trazado_1000946" data-name="Trazado 1000946" d="M1289.452,34.543l-2.079,1.944,3.216,1.378.844-3.051Z" transform="translate(-1035.178 -27.776)" fill="#0775ef"/>
            <path id="Trazado_1000947" data-name="Trazado 1000947" d="M1247.522,140.166l-2.079,1.945,1.743,1.31,1.876-1.64Z" transform="translate(-1001.462 -112.707)" fill="#0775ef"/>
            <path id="Trazado_1000948" data-name="Trazado 1000948" d="M1258.647,66.24l-2.079,1.944.873,2.106.479-2.335Z" transform="translate(-1010.408 -53.263)" fill="#0775ef"/>
            <path id="Trazado_1000949" data-name="Trazado 1000949" d="M1316.146,207.5l-2.079,1.945-1.335-1.481,1.19-1.6Z" transform="translate(-1055.57 -165.941)" fill="#0775ef"/>
            <path id="Trazado_1000950" data-name="Trazado 1000950" d="M1427.92,87.347l-2.079,1.944-2.24-1.72,1.114-1.652Z" transform="translate(-1144.719 -69.088)" fill="#0775ef"/>
            <path id="Trazado_1000951" data-name="Trazado 1000951" d="M1382.229,197.254l-2.079,1.945-3.156-.419,2.147-1.909Z" transform="translate(-1107.242 -158.304)" fill="#0775ef"/>
            <path id="Trazado_1000952" data-name="Trazado 1000952" d="M1423.351,160.516l-2.079,1.945-.643-3.556,1.932.326Z" transform="translate(-1142.329 -127.775)" fill="#0775ef"/>
            <path id="Trazado_1000953" data-name="Trazado 1000953" d="M1259.317,40.132a4.352,4.352,0,0,1-3.79,4.386A18.739,18.739,0,0,0,1258,50.286a4.355,4.355,0,0,1,6.216,6.026,19.094,19.094,0,0,0,3.706,1.726c.58.2,1.171.365,1.764.5.116.033.239.056.354.081a4.358,4.358,0,0,1,8.656-.138,18.639,18.639,0,0,0,5.754-2.474,4.358,4.358,0,0,1,6.035-6.209,18.784,18.784,0,0,0,2.3-5.83,4.356,4.356,0,0,1-.121-8.652,18.7,18.7,0,0,0-2.476-5.761,4.34,4.34,0,0,1-5.273.188,3.2,3.2,0,0,1-.522-.426,4.345,4.345,0,0,1-.413-5.788,18.967,18.967,0,0,0-3.488-1.658c-.58-.2-1.165-.374-1.759-.519-.2-.048-.4-.1-.593-.138a4.338,4.338,0,0,1-4.265,3.919A4.467,4.467,0,0,1,1272.7,25a4.358,4.358,0,0,1-3.21-3.646,18.647,18.647,0,0,0-5.754,2.474,4.357,4.357,0,0,1-6.035,6.209,18.983,18.983,0,0,0-2.308,5.831,4.346,4.346,0,0,1,3.919,4.265m8.135-6.66a9.122,9.122,0,0,1,3.417-2.23,9.253,9.253,0,0,1,5.068-.392,8.409,8.409,0,0,1,1.756.543,9.249,9.249,0,0,1,5.138,5.454,9.251,9.251,0,0,1-2.1,9.519,8.48,8.48,0,0,1-.961.853,9.2,9.2,0,0,1-9.052,1.315,9.086,9.086,0,0,1-3.069-1.974,9.64,9.64,0,0,1-.976-1.11,9.254,9.254,0,0,1,.773-11.978" transform="translate(-1009.467 -17.059)" fill="#088cfc"/>
            <path id="Trazado_1000954" data-name="Trazado 1000954" d="M1914.435,629.384,1906.708,618l-3.643,18.076,5.684,14.628Z" transform="translate(-1530.257 -496.936)" fill="#bbdbf3"/>
            <path id="Trazado_1000955" data-name="Trazado 1000955" d="M1386.178,772.722h81.683a4.146,4.146,0,0,0,3.918-3.3l25.236-139.377c.334-1.843.07-3.723-1.774-3.723l-80.935-11.473a4.164,4.164,0,0,0-3.932,3.338l-26.929,151.235a2.7,2.7,0,0,0,2.732,3.3" transform="translate(-1112.388 -494.399)" fill="#bbdbf3"/>
            <path id="Trazado_1000956" data-name="Trazado 1000956" d="M1338.152,772.722h81.684a4.146,4.146,0,0,0,3.918-3.3l27.383-151.235a2.71,2.71,0,0,0-2.734-3.338h-82.122a4.164,4.164,0,0,0-3.932,3.338L1335.42,769.419a2.7,2.7,0,0,0,2.732,3.3" transform="translate(-1073.771 -494.399)" fill="#fff"/>
            <path id="Trazado_1000957" data-name="Trazado 1000957" d="M1399.315,644.807l-24.71,138.616h76.686l9.884-54.647-30.984-81.8h13.424l21.891,57.851,10.856-60.024Z" transform="translate(-1105.322 -518.49)" fill="#bbdbf3"/>
            <path id="Trazado_1000958" data-name="Trazado 1000958" d="M1639.526,628.256a2.647,2.647,0,0,0-.024.828,2.39,2.39,0,0,0,.528,1.29,2.487,2.487,0,0,0,1.96.883h16.888a3.771,3.771,0,0,0,3.269-2.173,3.079,3.079,0,0,0,.273-.828,2.564,2.564,0,0,0-.5-2.119,2.476,2.476,0,0,0-1.96-.884h-16.892a3.766,3.766,0,0,0-3.541,3" transform="translate(-1318.308 -502.767)" fill="#fff"/>
            <path id="Trazado_1000959" data-name="Trazado 1000959" d="M1658.354,655.9l30.984,81.8,4.331-23.946-21.891-57.85Z" transform="translate(-1333.484 -527.412)" fill="#e5f0f8"/>
            <path id="Trazado_1000960" data-name="Trazado 1000960" d="M1500.347,644.807l-.1.538,52.2,137.387,8.42-46.555-34.625-91.371Z" transform="translate(-1206.353 -518.49)" fill="#e5f0f8"/>
            <path id="Trazado_1000961" data-name="Trazado 1000961" d="M1434.671,975.974l-1.714,9.615,24.449,64.126h5.372Z" transform="translate(-1152.242 -784.782)" fill="#e5f0f8"/>
            <path id="Trazado_1000962" data-name="Trazado 1000962" d="M1416.55,1040.2l-3.34,18.735,16.193,42.424h10.469Z" transform="translate(-1136.364 -836.424)" fill="#e5f0f8"/>
            <path id="Trazado_1000963" data-name="Trazado 1000963" d="M1499.6,1374.261h18.7a4.866,4.866,0,0,0,4.585-3.869,3.161,3.161,0,0,0-3.193-3.87h-18.709a4.863,4.863,0,0,0-4.583,3.87,3.164,3.164,0,0,0,3.2,3.869" transform="translate(-1203.212 -1098.821)" fill="#bbdbf3"/>
            <path id="Trazado_1000964" data-name="Trazado 1000964" d="M435.584,1003.107H355.242a2.512,2.512,0,0,0-2.51,2.515v15.723H438.1v-15.723a2.516,2.516,0,0,0-2.515-2.515M374.243,1016a4.107,4.107,0,1,1,4.107-4.107,4.107,4.107,0,0,1-4.107,4.107m42.34,0a4.107,4.107,0,1,1,4.107-4.107,4.107,4.107,0,0,1-4.107,4.107" transform="translate(-283.632 -806.599)" fill="#e62c2c"/>
            <path id="Trazado_1000965" data-name="Trazado 1000965" d="M352.721,1096.206v61.063a2.515,2.515,0,0,0,2.515,2.515h80.338a2.515,2.515,0,0,0,2.515-2.515v-61.063Z" transform="translate(-283.623 -881.46)" fill="#bbdbf3"/>
            <path id="Trazado_1000966" data-name="Trazado 1000966" d="M460.024,1003.107H379.682a2.512,2.512,0,0,0-2.51,2.515v15.723h85.367v-15.723a2.516,2.516,0,0,0-2.515-2.515M398.683,1016a4.107,4.107,0,1,1,4.107-4.107,4.107,4.107,0,0,1-4.107,4.107m42.34,0a4.107,4.107,0,1,1,4.107-4.107,4.107,4.107,0,0,1-4.107,4.107" transform="translate(-303.284 -806.599)" fill="#f74242"/>
            <path id="Trazado_1000967" data-name="Trazado 1000967" d="M377.162,1096.206v61.063a2.515,2.515,0,0,0,2.515,2.515h80.338a2.515,2.515,0,0,0,2.515-2.515v-61.063Z" transform="translate(-303.276 -881.46)" fill="#e5f0f8"/>
            <rect id="Rectángulo_456376" data-name="Rectángulo 456376" width="13.364" height="13.364" transform="translate(80.268 220.712)" fill="#fff"/>
            <rect id="Rectángulo_456377" data-name="Rectángulo 456377" width="13.364" height="13.364" transform="translate(80.268 239.853)" fill="#fff"/>
            <rect id="Rectángulo_456378" data-name="Rectángulo 456378" width="13.364" height="13.364" transform="translate(80.268 258.993)" fill="#fff"/>
            <rect id="Rectángulo_456379" data-name="Rectángulo 456379" width="13.364" height="13.364" transform="translate(100.014 220.712)" fill="#fff"/>
            <rect id="Rectángulo_456380" data-name="Rectángulo 456380" width="13.364" height="13.364" transform="translate(100.014 239.853)" fill="#bbdbf3"/>
            <rect id="Rectángulo_456381" data-name="Rectángulo 456381" width="13.364" height="13.364" transform="translate(100.014 258.993)" fill="#fff"/>
            <rect id="Rectángulo_456382" data-name="Rectángulo 456382" width="13.364" height="13.364" transform="translate(119.76 220.712)" fill="#fff"/>
            <rect id="Rectángulo_456383" data-name="Rectángulo 456383" width="13.364" height="13.364" transform="translate(119.76 239.853)" fill="#fff"/>
            <rect id="Rectángulo_456384" data-name="Rectángulo 456384" width="13.364" height="13.364" transform="translate(119.76 258.993)" fill="#fff"/>
            <rect id="Rectángulo_456385" data-name="Rectángulo 456385" width="13.364" height="13.364" transform="translate(139.506 220.712)" fill="#fff"/>
            <rect id="Rectángulo_456386" data-name="Rectángulo 456386" width="13.364" height="13.364" transform="translate(139.506 239.853)" fill="#fff"/>
            <rect id="Rectángulo_456387" data-name="Rectángulo 456387" width="13.364" height="13.364" transform="translate(139.506 258.993)" fill="#fff"/>
            <path id="Trazado_1000968" data-name="Trazado 1000968" d="M697.28,969.9v17.739c1.329,0,2.416-.818,2.416-1.818v-14.1c0-1-1.087-1.818-2.416-1.818" transform="translate(-560.684 -779.901)" fill="#586773"/>
            <path id="Trazado_1000969" data-name="Trazado 1000969" d="M684.948,971.722v14.1c0,1,1.087,1.818,2.416,1.818V969.9c-1.329,0-2.416.818-2.416,1.818" transform="translate(-550.767 -779.901)" fill="#93acbf"/>
            <path id="Trazado_1000970" data-name="Trazado 1000970" d="M468.82,971.722v14.1c0,1,1.087,1.818,2.415,1.818V969.9c-1.329,0-2.415.818-2.415,1.818" transform="translate(-376.979 -779.901)" fill="#93acbf"/>
            <path id="Trazado_1000971" data-name="Trazado 1000971" d="M481.15,969.9h0v17.739h0c1.329,0,2.416-.818,2.416-1.818v-14.1c0-1-1.087-1.818-2.416-1.818" transform="translate(-386.893 -779.901)" fill="#586773"/>
            <path id="Trazado_1000972" data-name="Trazado 1000972" d="M582.132,1428.916H260.95a3.691,3.691,0,0,1-3.691-3.691v-.941a3.691,3.691,0,0,1,3.691-3.691H582.132a3.691,3.691,0,0,1,3.691,3.691v.941a3.691,3.691,0,0,1-3.691,3.691" transform="translate(-206.862 -1142.299)" fill="#004b84"/>
            <path id="Trazado_1000973" data-name="Trazado 1000973" d="M1843.418,541.916l.051-7.7-9.033,1.333Z" transform="translate(-1475.071 -429.564)" fill="#2d628c"/>
            <path id="Trazado_1000974" data-name="Trazado 1000974" d="M1575.517,351.144l-.815-2.389s-1.468-2.284-1.906-3.168a11.469,11.469,0,0,0-1.258-1.929c-.164-.125-.642-.077-.685.12a13.149,13.149,0,0,0,.5,2.239l.561,2.13s-3.085-2.8-4.065-3.8c-.552-.561-2.092-2.27-2.508-1.912-.317.273,1.065,2.2,1.531,2.859.429.609,1.7,2.449,1.7,2.449l-2.87-2.985c-.522-.543-1.875-2.357-2.352-1.97s.99,2.074,1.415,2.693l2.4,3.492-3.074-3.054c-.425-.423-1.528-1.846-1.949-1.453s.869,1.69,1.243,2.173l2.565,3.307-2.281-2.147c-.244-.229-.991-.891-1.209-.645-.3.335.646,1.3.927,1.661l2.316,2.965a3.858,3.858,0,0,0,.639.644l3.923,3.94Z" transform="translate(-1256.048 -275.312)" fill="#fdae97"/>
            <path id="Trazado_1000975" data-name="Trazado 1000975" d="M1639.165,527.754l-30.572,19.36a8.561,8.561,0,1,0,9.065,14.232l35.242-18.474Z" transform="translate(-1289.242 -424.367)" fill="#0775ef"/>
            <path id="Trazado_1000976" data-name="Trazado 1000976" d="M1603.138,632.861a8.56,8.56,0,1,1,17.035-1.206l-.506,38.244h-14.252Z" transform="translate(-1289.009 -501.028)" fill="#0775ef"/>
            <path id="Trazado_1000977" data-name="Trazado 1000977" d="M1720.911,539.569l-19.148,22.9a9.582,9.582,0,0,1-14.7-12.291l19.148-22.9a9.582,9.582,0,1,1,14.7,12.291" transform="translate(-1354.782 -421.23)" fill="#088cfc"/>
            <path id="Trazado_1000978" data-name="Trazado 1000978" d="M1751.8,337.377l-9.058,4.078,1.249,36.792,25.747.4,3.9-37.847-12.575-4.1Z" transform="translate(-1401.342 -270.744)" fill="#e5f0f8"/>
            <path id="Trazado_1000979" data-name="Trazado 1000979" d="M1788.992,282.259V288s.343,1.241,3.265,1.253a13.35,13.35,0,0,0,6-1.927l-.9-12.564Z" transform="translate(-1438.53 -220.939)" fill="#fdae97"/>
            <path id="Trazado_1000980" data-name="Trazado 1000980" d="M1788.979,312.571l5.968-6.195-5.968-.078Z" transform="translate(-1438.521 -246.294)" fill="#e89780"/>
            <path id="Trazado_1000981" data-name="Trazado 1000981" d="M1776.509,237.085v8.089c0,1.632.458,4.054,2.295,4.614a6.321,6.321,0,0,0,6.113-2.114c1.759-1.915,5.662-10.54.235-13.726s-8.516,2.295-8.643,3.138" transform="translate(-1428.493 -187.324)" fill="#fdae97"/>
            <path id="Trazado_1000982" data-name="Trazado 1000982" d="M1620.965,405.076a5.117,5.117,0,0,1-6.51-.051l-16.105-18.638,2.212-2.33,4.07-4.3.468-.5,16.586,18.674a5.092,5.092,0,0,1-.719,7.146" transform="translate(-1285.234 -304.959)" fill="#f74242"/>
            <path id="Trazado_1000983" data-name="Trazado 1000983" d="M1684.6,650.155a8.565,8.565,0,0,1,8.565-8.565c4.73,0,7.326,1.972,8.358,6.69,2.4,10.952,7.42,40.119,7.42,40.119H1694.1L1684.7,651.36a8.568,8.568,0,0,1-.095-1.206" transform="translate(-1354.59 -515.903)" fill="#088cfc"/>
            <path id="Trazado_1000984" data-name="Trazado 1000984" d="M1671.1,389.518h0a5.94,5.94,0,0,0,8.073-2.229l10.684-18.833a5.922,5.922,0,0,0-10.3-5.844l-10.683,18.833a5.94,5.94,0,0,0,2.229,8.073" transform="translate(-1341.321 -289.168)" fill="#f74242"/>
            <path id="Trazado_1000985" data-name="Trazado 1000985" d="M1776.353,229.424s-6.567-3.029-8.081-1.04,1.009,2.684,1.009,2.684-3.132-.37-3.01,1.742,7.958-.771,7.958-.771-2.6,1.178-1.1,2.111,3.22-.284,3.22-.284,1.49.852,1.246,4.765,2.092,4.777,2.092,4.777-.28-5.928.865-7.512-.536-7.462-4.2-6.472" transform="translate(-1420.258 -183.099)" fill="#322a28"/>
            <path id="Trazado_1000986" data-name="Trazado 1000986" d="M1819.988,282.608c-.637,1-.807,1.7-.024,2.2a2.03,2.03,0,0,0,2.724-.656,1.956,1.956,0,0,0-.265-2.713c-.783-.5-1.8.17-2.435,1.168" transform="translate(-1463.015 -226.17)" fill="#fdae97"/>
            <path id="Trazado_1000987" data-name="Trazado 1000987" d="M1827.11,287.689a1.414,1.414,0,0,0-1.356.911,3.045,3.045,0,0,1,1.127,0" transform="translate(-1468.091 -231.328)" fill="none" stroke="#e89780" stroke-miterlimit="10" stroke-width="0.737"/>
            <path id="Trazado_1000988" data-name="Trazado 1000988" d="M1797.775,274.6c0,.379-.2.685-.443.685s-.443-.307-.443-.685.2-.685.443-.685.443.307.443.685" transform="translate(-1444.88 -220.253)" fill="#2c3447"/>
            <path id="Trazado_1000989" data-name="Trazado 1000989" d="M1790.42,299.36a2.128,2.128,0,0,1-2.325.982" transform="translate(-1437.809 -240.715)" fill="none" stroke="#2c3447" stroke-miterlimit="10" stroke-width="0.922"/>
            <path id="Trazado_1000990" data-name="Trazado 1000990" d="M1788.245,278.748l-.835,2.418a.564.564,0,0,0,.226.657l.681.443" transform="translate(-1437.233 -224.141)" fill="none" stroke="#2c3447" stroke-miterlimit="10" stroke-width="0.922"/>
            <path id="Trazado_1000991" data-name="Trazado 1000991" d="M1797.493,270.056a2.022,2.022,0,0,0-1.824-.239" transform="translate(-1443.899 -216.849)" fill="none" stroke="#2c3447" stroke-miterlimit="10" stroke-width="0.922"/>
            <path id="Trazado_1000992" data-name="Trazado 1000992" d="M1778.039,274.6c0,.379.2.685.443.685s.444-.307.444-.685-.2-.685-.444-.685-.443.307-.443.685" transform="translate(-1429.723 -220.253)" fill="#2c3447"/>
            <path id="Trazado_1000993" data-name="Trazado 1000993" d="M1775.938,270a1.411,1.411,0,0,1,1.537-.2" transform="translate(-1428.034 -216.826)" fill="none" stroke="#2c3447" stroke-miterlimit="10" stroke-width="0.922"/>
            <path id="Trazado_1000994" data-name="Trazado 1000994" d="M1876.254,389.415h0a5.939,5.939,0,0,0,4.246-7.219l-5.435-20.959a5.922,5.922,0,0,0-11.465,2.973l5.435,20.959a5.939,5.939,0,0,0,7.219,4.246" transform="translate(-1498.371 -286.905)" fill="#f74242"/>
            <path id="Trazado_1000995" data-name="Trazado 1000995" d="M1797.745,285.344c.117.348.772.442,1.463.21s1.158-.7,1.041-1.049-.772-.442-1.463-.21-1.158.7-1.042,1.049" transform="translate(-1445.554 -228.5)" fill="#e89780"/>
            <path id="Trazado_1000996" data-name="Trazado 1000996" d="M1776.509,284.758V286.1c.566.066,1.03-.09,1.108-.385.084-.35-.41-.777-1.108-.958" transform="translate(-1428.493 -228.974)" fill="#e89780"/>
            <path id="Trazado_1000997" data-name="Trazado 1000997" d="M1632.116,867.77l.3-5.735h-11.574l-.183,5.735Z" transform="translate(-1303.169 -693.163)" fill="#fdae97"/>
            <path id="Trazado_1000998" data-name="Trazado 1000998" d="M1621.045,865.369l11.681-3.334h-11.574Z" transform="translate(-1303.484 -693.163)" fill="#e89780"/>
            <path id="Trazado_1000999" data-name="Trazado 1000999" d="M1758.975,886.269l-.947-5.735h-11.3l1.438,5.735Z" transform="translate(-1404.549 -708.038)" fill="#fdae97"/>
            <path id="Trazado_1001000" data-name="Trazado 1001000" d="M1796.687,353.951h2.1l.183.4-.966.719h-.824l-.688-.842Z" transform="translate(-1444.558 -284.612)" fill="#f74242"/>
            <path id="Trazado_1001001" data-name="Trazado 1001001" d="M1747.423,883.289l10.606-2.755h-11.3Z" transform="translate(-1404.55 -708.038)" fill="#e89780"/>
            <path id="Trazado_1001002" data-name="Trazado 1001002" d="M1809.052,336.368l-6.589,2.423,1.2,2.75,5.678-4.569Z" transform="translate(-1449.363 -270.473)" fill="#fff"/>
            <path id="Trazado_1001003" data-name="Trazado 1001003" d="M1787.695,339.774l-.316.645,1.708,3.6,1.247-2.49Z" transform="translate(-1437.233 -273.213)" fill="#fff"/>
            <path id="Trazado_1001004" data-name="Trazado 1001004" d="M1787.19,359.653l-3.121,24.228,2.433,3.137,3.163-2.845-1.65-24.52Z" transform="translate(-1434.571 -289.197)" fill="#f74242"/>
            <line id="Línea_3323" data-name="Línea 3323" x2="3.466" y2="14.32" transform="translate(366.438 82.4)" fill="none" stroke="#2c3447" stroke-miterlimit="10" stroke-width="0.922"/>
            <line id="Línea_3324" data-name="Línea 3324" x1="0.295" y1="8.694" transform="translate(341.784 82.4)" fill="none" stroke="#2c3447" stroke-miterlimit="10" stroke-width="0.922"/>
            <path id="Trazado_1001005" data-name="Trazado 1001005" d="M1750.81,909.808l1.016,4.18h-15.161a3.416,3.416,0,0,1,3.33-4.18h10.816Z" transform="translate(-1396.383 -731.577)" fill="#403534"/>
            <path id="Trazado_1001006" data-name="Trazado 1001006" d="M1613.985,891.309v4.551H1598.1l.02-.375a4.4,4.4,0,0,1,4.4-4.176Z" transform="translate(-1285.038 -716.702)" fill="#403534"/>
            <path id="Trazado_1001007" data-name="Trazado 1001007" d="M1613.7,891.117s-.346-1.512-1.2-1.1,1.145,1.156,1.145,1.156l-1.188.821" transform="translate(-1296.442 -715.605)" fill="none" stroke="#fff" stroke-linecap="round" stroke-linejoin="round" stroke-width="0.491"/>
            <path id="Trazado_1001008" data-name="Trazado 1001008" d="M1619.49,891.117s.346-1.512,1.2-1.1-1.145,1.156-1.145,1.156l1.188.821" transform="translate(-1302.234 -715.605)" fill="none" stroke="#fff" stroke-linecap="round" stroke-linejoin="round" stroke-width="0.491"/>
            <path id="Trazado_1001009" data-name="Trazado 1001009" d="M1748.831,910.489s-.346-1.512-1.2-1.1,1.145,1.156,1.145,1.156l-1.188.821" transform="translate(-1405.102 -731.182)" fill="none" stroke="#fff" stroke-linecap="round" stroke-linejoin="round" stroke-width="0.491"/>
            <path id="Trazado_1001010" data-name="Trazado 1001010" d="M1754.623,910.489s.346-1.512,1.2-1.1-1.145,1.156-1.145,1.156l1.188.821" transform="translate(-1410.894 -731.182)" fill="none" stroke="#fff" stroke-linecap="round" stroke-linejoin="round" stroke-width="0.491"/>
            <path id="Trazado_1001011" data-name="Trazado 1001011" d="M1720.209,342.385s-.62,6.479-1.623,16.264-.937,25.056-4.1,27.987a53.72,53.72,0,0,0-9.848,2.185s1.844-6.2,4.1-9.7,3.363-33.094,3.363-33.094Z" transform="translate(-1370.704 -275.312)" fill="#f74242"/>
            <path id="Trazado_1001012" data-name="Trazado 1001012" d="M1778.238,370.327l-.765,7.629,2.433-2.073-.176-5.407Z" transform="translate(-1429.268 -297.78)" fill="#e5f0f8"/>
            <path id="Trazado_1001013" data-name="Trazado 1001013" d="M1817.022,340.431s-2.433,10.493-3.625,20.223-.788,19.14-3.853,24.853c0,0,12.3,2.212,12.269,7.172a14.964,14.964,0,0,0,3.5-9.06c.03-5.237,2.045-39.824,2.045-39.824Z" transform="translate(-1455.057 -273.741)" fill="#f74242"/>
            <path id="Trazado_1001014" data-name="Trazado 1001014" d="M1611.7,536.591h27.868l-7.273-20.868H1604.43Z" transform="translate(-1290.124 -414.693)" fill="#a5bbd6"/>
            <path id="Trazado_1001015" data-name="Trazado 1001015" d="M1667.873,583.992l9.113-8.06h-26.954l-10.026,8.06Z" transform="translate(-1318.73 -463.107)" fill="#89a5c7"/>
            <path id="Trazado_1001016" data-name="Trazado 1001016" d="M1614.39,534.234h27.868l-7.273-20.868h-27.868Z" transform="translate(-1292.285 -412.797)" fill="#a5bbd6"/>
            <path id="Trazado_1001017" data-name="Trazado 1001017" d="M1604.956,513.366l-.526.462H1632.3l7.273,20.868.526-.462-7.273-20.868Z" transform="translate(-1290.124 -412.798)" fill="#89a5c7"/>
            <path id="Trazado_1001018" data-name="Trazado 1001018" d="M1791.172,575.932l.3,1.013-9.113,8.06-.353-1.013Z" transform="translate(-1432.916 -463.107)" fill="#586773"/>
            <path id="Trazado_1001019" data-name="Trazado 1001019" d="M1672.35,564.585c0,.755,1.383,1.368,3.09,1.368s3.089-.612,3.089-1.368-1.383-1.368-3.089-1.368-3.09.612-3.09,1.368" transform="translate(-1344.739 -452.883)" fill="#89a5c7"/>
            <path id="Trazado_1001020" data-name="Trazado 1001020" d="M1757.17,543.52l4.126,7.088-.023.014c-1.893,1-5.863,4.806-7.3,6.213a1.078,1.078,0,0,1-1.213.2l-3.9-1.809a2.34,2.34,0,0,1-1.265-1.448l-.854-2.762a.379.379,0,0,1,.453-.475l2.215.62a.679.679,0,0,0,.79-.363l1.26-2.614-3.59,2.118a.471.471,0,0,1-.616-.13l-.2-.283a.469.469,0,0,1,.075-.635l5.677-4.606,4.165-.989s.065-.051.191-.14" transform="translate(-1404.55 -437.045)" fill="#fdae97"/>
            <path id="Trazado_1001021" data-name="Trazado 1001021" d="M1823.266,470c1.742,2.626,1.264,6.047-1.064,7.582l-23.093,13.238-5.726-9.844,21.406-13.245c2.328-1.535,6.737-.371,8.477,2.268" transform="translate(-1442.062 -375.55)" fill="#f74242"/>
            <path id="Trazado_1001022" data-name="Trazado 1001022" d="M1822.388,447.266l12.586-7.787-2.731-9.983" transform="translate(-1465.384 -345.358)" fill="none" stroke="#322a28" stroke-miterlimit="10" stroke-width="1.269"/>
            <path id="Trazado_1001023" data-name="Trazado 1001023" d="M324.939,609.765a6.9,6.9,0,0,1-5.964-10.377l22.775-39.082a6.9,6.9,0,0,1,11.927,0l22.775,39.081a6.9,6.9,0,0,1-5.964,10.378Z" transform="translate(-255.736 -447.787)" fill="#f74242"/>
            <path id="Trazado_1001024" data-name="Trazado 1001024" d="M367.506,584.211l-22.775,39.082a1.714,1.714,0,0,0,1.481,2.578h45.55a1.714,1.714,0,0,0,1.481-2.578l-22.775-39.082a1.714,1.714,0,0,0-2.962,0" transform="translate(-277.009 -469.08)" fill="#fff"/>
            <path id="Trazado_1001025" data-name="Trazado 1001025" d="M458.51,675.773a2.177,2.177,0,1,1,.638,1.52,2.07,2.07,0,0,1-.638-1.52m3.659-4.705h-3.135V654.6h3.135Z" transform="translate(-368.688 -526.364)" fill="#f74242"/>
            <path id="Trazado_1001026" data-name="Trazado 1001026" d="M863.745,1329.228l-1.593-14.052h10.076a43.948,43.948,0,0,1,.318,5.657,61.322,61.322,0,0,1-.647,8.666Z" transform="translate(-693.257 -1057.533)" fill="#fdae97"/>
            <path id="Trazado_1001027" data-name="Trazado 1001027" d="M840.1,1386.908l-7.354,6.629h10.723l1.622-1.979.126,1.979h2.948l.091-6.629Z" transform="translate(-669.612 -1115.214)" fill="#332b27"/>
            <line id="Línea_3325" data-name="Línea 3325" x2="2.864" transform="translate(169.056 273.817)" fill="none" stroke="#fff1f0" stroke-miterlimit="10" stroke-width="0.797"/>
            <path id="Trazado_1001028" data-name="Trazado 1001028" d="M793.8,674.218a6.567,6.567,0,0,0-2.087,6.247c.665,4.178,1.036,6.44-1.608,6.694s-7.969-1.246-8.347,2.3,2.155,5.872-1.564,6.579-4.159,5.517-4.159,5.517,13.439,8.191,25.987.306-1.022-13-1.022-13Z" transform="translate(-624.01 -542.139)" fill="#322a28"/>
            <line id="Línea_3326" data-name="Línea 3326" x2="2.864" transform="translate(167.624 274.997)" fill="none" stroke="#fff1f0" stroke-miterlimit="10" stroke-width="0.797"/>
            <path id="Trazado_1001029" data-name="Trazado 1001029" d="M833.2,932.742c-3.967,4.137-6.327,13.374-5.262,23.732S829,973.562,829,973.562a8.591,8.591,0,0,0,17.181-.171l1.937-40.123Z" transform="translate(-665.54 -750.019)" fill="#e7888b"/>
            <path id="Trazado_1001030" data-name="Trazado 1001030" d="M968.741,1329.228l-.155-14.052H958.51a33.608,33.608,0,0,0,.6,7.469c.766,3.359,1.476,6.854,1.476,6.854Z" transform="translate(-770.727 -1057.533)" fill="#fdae97"/>
            <path id="Trazado_1001031" data-name="Trazado 1001031" d="M951.51,911.386l-3.344.791,1.672,2.743Z" transform="translate(-762.421 -732.846)" fill="#e89780"/>
            <path id="Trazado_1001032" data-name="Trazado 1001032" d="M851.528,1107.016a8.591,8.591,0,1,0-16.968,1.082h0l1.858,37.9H853.5Z" transform="translate(-670.921 -882.695)" fill="#e7888b"/>
            <path id="Trazado_1001033" data-name="Trazado 1001033" d="M854.03,745.7l8.66,2.55-.873,34.617H839.53s-1.5-29.734-2.2-34.544l8.891-2.6Z" transform="translate(-673.301 -599.62)" fill="#fff"/>
            <path id="Trazado_1001034" data-name="Trazado 1001034" d="M907.87,935.427c4.415,3.656,7.428,11.457,7.555,21.868s.9,17.1.9,17.1a8.591,8.591,0,0,1-17.088,1.8l-4.63-40.761Z" transform="translate(-719.355 -752.178)" fill="#e7888b"/>
            <path id="Trazado_1001035" data-name="Trazado 1001035" d="M977.329,1386.908l7.353,6.629H973.959l-1.622-1.979-.126,1.979h-2.948l-.088-6.36Z" transform="translate(-779.315 -1115.214)" fill="#332b27"/>
            <path id="Trazado_1001036" data-name="Trazado 1001036" d="M935,1103.1a8.591,8.591,0,1,0-16.679,3.3h0l5.443,37.351,16.616-.177Z" transform="translate(-738.029 -880.456)" fill="#e7888b"/>
            <line id="Línea_3327" data-name="Línea 3327" x1="2.864" transform="translate(196.582 273.817)" fill="none" stroke="#fff1f0" stroke-miterlimit="10" stroke-width="0.797"/>
            <path id="Trazado_1001037" data-name="Trazado 1001037" d="M795.627,787.868l.058.016a4.834,4.834,0,0,0,5.924-3.371l5.723-20.828a4.834,4.834,0,0,0-3.371-5.925l-.058-.016a4.834,4.834,0,0,0-5.925,3.371l-5.723,20.828a4.834,4.834,0,0,0,3.371,5.925" transform="translate(-636.916 -609.165)" fill="#fff"/>
            <line id="Línea_3328" data-name="Línea 3328" x1="2.864" transform="translate(198.014 274.997)" fill="none" stroke="#fff1f0" stroke-miterlimit="10" stroke-width="0.797"/>
            <path id="Trazado_1001038" data-name="Trazado 1001038" d="M1084.2,809.569c.559.218.456,1.09.456,1.09s.573-.635.9-.207c.3.4-.222,1.477-.29,1.617.062-.075.291-.293.5.2.236.537-1.175,1.889-1.309,2.015a.384.384,0,0,1,.513.3c.128.459-2.142,2.155-4.1,2.818-1.656.555-5.617,1.419-6.8,1.676l-2-5.2a13.934,13.934,0,0,0,1.905-1.14c1.342-.976,5.285-3.2,5.6-2.621s-2.078,2.64-1.749,2.768,2.438-.978,3.3-1.517,2.528-2.012,3.079-1.794" transform="translate(-862.05 -650.957)" fill="#fdae97"/>
            <path id="Trazado_1001039" data-name="Trazado 1001039" d="M834.795,748.358a145.918,145.918,0,0,1,3.306,23.893c.889,14.244-1.114,81.307-1.114,81.307H825.71s-.626-45.359-.449-53.434,4.942-30.087,4.942-30.087,1.5-11.317-2.6-19.576Z" transform="translate(-663.568 -601.755)" fill="#bbdbf3"/>
            <path id="Trazado_1001040" data-name="Trazado 1001040" d="M882.7,690.6v10.822a3.039,3.039,0,0,0,3.051,2.585,5.588,5.588,0,0,0,4.969-2.785l-.2-1.868-.617-5.769-.317-2.985Z" transform="translate(-709.778 -555.316)" fill="#fdae97"/>
            <path id="Trazado_1001041" data-name="Trazado 1001041" d="M948.618,788.379l-.058.017a4.834,4.834,0,0,1-5.966-3.3l-5.98-20.755a4.834,4.834,0,0,1,3.3-5.966l.058-.017a4.834,4.834,0,0,1,5.966,3.3l5.98,20.756a4.834,4.834,0,0,1-3.3,5.966" transform="translate(-752.982 -609.647)" fill="#fff"/>
            <path id="Trazado_1001042" data-name="Trazado 1001042" d="M852.373,846.534s1.78,2.621,5.944,1.459" transform="translate(-685.394 -680.699)" fill="none" stroke="#586773" stroke-miterlimit="10" stroke-width="0.919"/>
            <path id="Trazado_1001043" data-name="Trazado 1001043" d="M993.348,828.557,975.09,837.97c-2.2,1.053-4.983-.121-6.183-2.616s-.371-5.4,1.831-6.462l19.12-8.767Z" transform="translate(-778.658 -659.462)" fill="#fff"/>
            <path id="Trazado_1001044" data-name="Trazado 1001044" d="M894.017,707.825l5.6,3.785L899,705.841Z" transform="translate(-718.88 -567.567)" fill="#e89780"/>
            <path id="Trazado_1001045" data-name="Trazado 1001045" d="M906.375,742.3l-4.1,3.163,1.1,3.269,4.035-5.673Z" transform="translate(-725.517 -596.887)" fill="#e5f0f8"/>
            <path id="Trazado_1001046" data-name="Trazado 1001046" d="M880.207,742.3l3.827,3.163-1.287,3.269-3.155-5.562Z" transform="translate(-707.281 -596.887)" fill="#e5f0f8"/>
            <path id="Trazado_1001047" data-name="Trazado 1001047" d="M918.142,747.948l7.354,2.183s-4.361,11.413-1.439,21.623c0,0,3.94,11.887,7.023,24.679,1.7,7.034,2.626,14.51,3.684,20.039,3.135,16.386,3.951,36.756,3.951,36.756h-9.4s-13.667-66.478-14.07-77.03,2.9-28.251,2.9-28.251" transform="translate(-735.92 -601.425)" fill="#bbdbf3"/>
            <path id="Trazado_1001048" data-name="Trazado 1001048" d="M1059.345,543.9a36.493,36.493,0,1,0-51.608-.349,36.529,36.529,0,0,0,51.608.349m-49.1-2.837a32.962,32.962,0,1,1,46.619.325,32.961,32.961,0,0,1-46.619-.325" transform="translate(-801.885 -387.129)" fill="#93acbf"/>
            <path id="Trazado_1001049" data-name="Trazado 1001049" d="M1071.264,555.792a32.965,32.965,0,1,0-46.619-.325,32.966,32.966,0,0,0,46.619.325m-45.339-1.583a31.167,31.167,0,1,1,44.081.3,31.169,31.169,0,0,1-44.081-.3" transform="translate(-816.283 -401.535)" fill="#586773"/>
            <g id="Grupo_1192134" data-name="Grupo 1192134" transform="translate(200.663 99.619)" opacity="0.3">
              <g id="Grupo_1192133" data-name="Grupo 1192133">
                <g id="Grupo_1192132" data-name="Grupo 1192132" clip-path="url(#clip-path-3)">
                  <path id="Trazado_1001050" data-name="Trazado 1001050" d="M1077.379,561.883a31.155,31.155,0,0,1-44.08-.3q-.417-.425-.818-.861a31.13,31.13,0,0,1-7.98-17.667,31.155,31.155,0,0,1,51.565-26.77c.552.487,1.085.992,1.609,1.521a31.185,31.185,0,0,1,4.3,5.445,30.86,30.86,0,0,1,3.66,8.507,30.513,30.513,0,0,1,.829,4.44,31.177,31.177,0,0,1-9.081,25.69" transform="translate(-1024.319 -508.523)" fill="#e5f0f8"/>
                </g>
              </g>
            </g>
            <path id="Trazado_1001051" data-name="Trazado 1001051" d="M990.067,803.576l-1.429-1.373,14-13.8,1.345,1.455Z" transform="translate(-794.965 -633.952)" fill="#93acbf"/>
            <path id="Trazado_1001052" data-name="Trazado 1001052" d="M832.136,885.637c-.007,0-.008-.011-.015-.015a2.351,2.351,0,0,1,.023-3.331l29.027-28.634,1.064,1.02.653.623.777.75.9.87-29.118,28.726a2.351,2.351,0,0,1-3.316-.008" transform="translate(-668.562 -686.426)" fill="#586773"/>
            <path id="Trazado_1001053" data-name="Trazado 1001053" d="M834.99,892.38a.136.136,0,0,1,.026-.024l30.727-30.313.777.75.905.87-29.118,28.726a2.351,2.351,0,0,1-3.316-.008" transform="translate(-671.416 -693.169)" fill="#93acbf"/>
            <g id="Grupo_1192137" data-name="Grupo 1192137" transform="translate(200.843 99.619)" opacity="0.3">
              <g id="Grupo_1192136" data-name="Grupo 1192136">
                <g id="Grupo_1192135" data-name="Grupo 1192135" clip-path="url(#clip-path-4)">
                  <path id="Trazado_1001054" data-name="Trazado 1001054" d="M1066.452,510.237l-36.415,46.346a30.954,30.954,0,0,1-4.792-13.533l26.919-34.261a31.3,31.3,0,0,1,14.288,1.448" transform="translate(-1025.244 -508.523)" fill="#fff"/>
                </g>
              </g>
            </g>
            <g id="Grupo_1192140" data-name="Grupo 1192140" transform="translate(208.824 103.45)" opacity="0.3">
              <g id="Grupo_1192139" data-name="Grupo 1192139">
                <g id="Grupo_1192138" data-name="Grupo 1192138" clip-path="url(#clip-path-5)">
                  <path id="Trazado_1001055" data-name="Trazado 1001055" d="M1109.566,532l-38.459,48.943a31.185,31.185,0,0,1-4.308-3.645q-.417-.425-.818-.861l38-48.364a31.177,31.177,0,0,1,5.588,3.926" transform="translate(-1065.981 -528.077)" fill="#fff"/>
                </g>
              </g>
            </g>
            <g id="Grupo_1192143" data-name="Grupo 1192143" transform="translate(222.116 114.342)" opacity="0.3">
              <g id="Grupo_1192142" data-name="Grupo 1192142">
                <g id="Grupo_1192141" data-name="Grupo 1192141" clip-path="url(#clip-path-6)">
                  <path id="Trazado_1001056" data-name="Trazado 1001056" d="M1173.691,592.185l-30.718,39.1a31.166,31.166,0,0,1-9.14-1.538l36.2-46.067a30.861,30.861,0,0,1,3.66,8.507" transform="translate(-1133.832 -583.678)" fill="#fff"/>
                </g>
              </g>
            </g>
            <g id="Grupo_1192146" data-name="Grupo 1192146" transform="translate(235.758 127.289)" opacity="0.3">
              <g id="Grupo_1192145" data-name="Grupo 1192145">
                <g id="Grupo_1192144" data-name="Grupo 1192144" clip-path="url(#clip-path-7)">
                  <path id="Trazado_1001057" data-name="Trazado 1001057" d="M1230.462,657.235l-19.753,25.139a31.128,31.128,0,0,1-7.234,1.813l27.044-34.419a31.043,31.043,0,0,1-.057,7.468" transform="translate(-1203.474 -649.767)" fill="#fff"/>
                </g>
              </g>
            </g>
            <path id="Trazado_1001058" data-name="Trazado 1001058" d="M917.477,902.523c.333.441-.169,1.075-.169,1.075s.756-.221.8.271c.047.458-.888,1.05-1.01,1.127.085-.028.37-.089.3.4-.075.535-1.834.911-2,.945a.353.353,0,0,1,.257.484c-.122.422-2.72.653-4.577.223-1.566-.366-5.087-1.605-6.14-1.977l.949-5.042a12.8,12.8,0,0,0,2.044.028c1.524-.116,5.686.052,5.658.657s-2.9,1.064-2.709,1.323,2.384.413,3.318.407,2.954-.354,3.28.083" transform="translate(-727.66 -723.706)" fill="#fdae97"/>
            <path id="Trazado_1001059" data-name="Trazado 1001059" d="M817.967,867.6l-19.619-6.087c-2.352-.653-4.885.987-5.633,3.653s.577,5.385,2.929,6.044l20.356,5.3Z" transform="translate(-637.257 -692.628)" fill="#fff"/>
            <path id="Trazado_1001060" data-name="Trazado 1001060" d="M924.617,840.17s-1.672,3.736-6.863,2.706" transform="translate(-737.967 -675.581)" fill="none" stroke="#586773" stroke-miterlimit="10" stroke-width="0.919"/>
            <path id="Trazado_1001061" data-name="Trazado 1001061" d="M935.99,752.456s-2.67,7.373-2.256,13.569l-5.241-8.851,2.3-6.243Z" transform="translate(-746.602 -603.823)" fill="#bbdbf3"/>
            <path id="Trazado_1001062" data-name="Trazado 1001062" d="M840.141,765.674a33.029,33.029,0,0,0-2.807-12.111l4.607-1.346,2.686,8.731Z" transform="translate(-673.301 -604.858)" fill="#bbdbf3"/>
            <path id="Trazado_1001063" data-name="Trazado 1001063" d="M920.589,879.855a.928.928,0,1,0,.928-.928.928.928,0,0,0-.928.928" transform="translate(-740.247 -706.746)" fill="#fff"/>
            <path id="Trazado_1001064" data-name="Trazado 1001064" d="M920.12,657.559s1.4-3.082-1.626-4.151Z" transform="translate(-738.561 -525.406)" fill="#322a28"/>
            <path id="Trazado_1001065" data-name="Trazado 1001065" d="M874.213,661.069a6.372,6.372,0,0,0,6.512.505c1.649-1.01,1.482-3.494,1.066-5.084l0-.012c-.087-.329-.21-.791-.348-1.315-.534-2.053-1.323-5.094-1.323-5.094-.334-1.6-4.742-5.354-9.231-.866s1.123,10.446,3.326,11.865" transform="translate(-698.92 -520.313)" fill="#fdae97"/>
            <path id="Trazado_1001066" data-name="Trazado 1001066" d="M877.728,648.745s-.134,1.9-2.849,3.067-5.322,3.011-5.114,5.834a7.372,7.372,0,0,1-.818,4.37,18.4,18.4,0,0,0-1.908-6.553,6.084,6.084,0,0,1,.076-5.675c1.925-3.231,6.659-5.556,10.613-1.042" transform="translate(-696.65 -519.635)" fill="#322a28"/>
            <path id="Trazado_1001067" data-name="Trazado 1001067" d="M875.1,696.673c.54.87.679,1.479,0,1.9a1.755,1.755,0,0,1-2.347-.6,1.691,1.691,0,0,1,.259-2.342c.683-.424,1.552.167,2.092,1.036" transform="translate(-701.508 -559.249)" fill="#fdae97"/>
            <path id="Trazado_1001068" data-name="Trazado 1001068" d="M876.4,701.628a1.25,1.25,0,0,1,1.046.013c-.348-.982-1.523-.637-1.523-.637" transform="translate(-704.33 -563.631)" fill="none" stroke="#e89780" stroke-linecap="round" stroke-linejoin="round" stroke-width="0.649"/>
            <path id="Trazado_1001069" data-name="Trazado 1001069" d="M906.783,685.765c.091.385.367.649.615.591s.377-.418.286-.8-.366-.649-.615-.591-.377.418-.286.8" transform="translate(-729.122 -550.771)" fill="#332b27"/>
            <path id="Trazado_1001070" data-name="Trazado 1001070" d="M923.21,680.279c.091.385.366.649.615.591s.377-.418.286-.8-.366-.649-.615-.591-.377.418-.286.8" transform="translate(-742.331 -546.36)" fill="#332b27"/>
            <path id="Trazado_1001071" data-name="Trazado 1001071" d="M901.5,682.025s.546-1.142,1.529-1.007" transform="translate(-724.893 -547.598)" fill="none" stroke="#332b27" stroke-miterlimit="10" stroke-width="0.963"/>
            <path id="Trazado_1001072" data-name="Trazado 1001072" d="M922.157,676.856a1.429,1.429,0,0,1,1.278.23" transform="translate(-741.508 -544.212)" fill="none" stroke="#332b27" stroke-miterlimit="10" stroke-width="0.963"/>
            <path id="Trazado_1001073" data-name="Trazado 1001073" d="M917.461,685.292s.494,1.9,1.669,1.866a2.432,2.432,0,0,1-.694.647" transform="translate(-737.732 -551.044)" fill="none" stroke="#332b27" stroke-miterlimit="10" stroke-width="0.963"/>
            <path id="Trazado_1001074" data-name="Trazado 1001074" d="M915.717,704.594a1.809,1.809,0,0,1-2.338-.342" transform="translate(-734.449 -566.289)" fill="none" stroke="#332b27" stroke-miterlimit="10" stroke-width="0.963"/>
            <path id="Trazado_1001075" data-name="Trazado 1001075" d="M898.292,694.981c-.028.411.6.788,1.41.843s1.482-.235,1.51-.646-.6-.789-1.41-.843-1.482.235-1.51.646" transform="translate(-722.317 -558.309)" fill="#e89780"/>
            <path id="Trazado_1001076" data-name="Trazado 1001076" d="M928.954,689.456c.121.224.448.3.845.229-.087-.329-.211-.791-.348-1.315-.439.37-.657.806-.5,1.086" transform="translate(-746.931 -553.519)" fill="#e89780"/>
            <path id="Trazado_1001077" data-name="Trazado 1001077" d="M851.549,640.175c1.33.972,1.23,3.373-.224,5.363s-3.711,2.814-5.042,1.842-1.23-3.373.224-5.363,3.711-2.814,5.041-1.842" transform="translate(-679.745 -514.437)" fill="#322a28"/>
            <path id="Trazado_1001078" data-name="Trazado 1001078" d="M882.384,709.167a.658.658,0,1,1-.787-.5A.658.658,0,0,1,882.384,709.167Z" transform="translate(-708.481 -569.828)" fill="none" stroke="#fff" stroke-miterlimit="10" stroke-width="0.853"/>
            <path id="Trazado_1001079" data-name="Trazado 1001079" d="M1469.067,177.319a8.541,8.541,0,0,0-7.508-3.638c-.094.005-.189.013-.283.02a8.55,8.55,0,0,0-5.42,14.41v0a8.718,8.718,0,0,0,1.3,1.115,4.865,4.865,0,0,1,2.018,3.421l-.4.006a.417.417,0,0,0-.291.126c-.013.014-.025.03-.039.046a.395.395,0,1,1,.051.786l-.021.024a.416.416,0,0,0,.325.682.412.412,0,0,0-.292.128c-.012.012-.023.026-.034.04a.426.426,0,0,0-.082.255.416.416,0,0,0,.421.408.411.411,0,0,0-.291.128.082.082,0,0,0-.014.016.408.408,0,0,0-.1.279.415.415,0,0,0,.421.408l.428-.006a2.861,2.861,0,0,0,.03.3,2.773,2.773,0,0,0,.349.959q.048.082.1.161c.018.026.037.051.056.077s.051.068.077.1l.059.071c.032.037.065.073.1.109l.047.05q.074.073.153.141l.056.045c.039.032.079.063.119.092l.062.045c.048.033.1.064.148.095l.037.023c.062.036.126.069.191.1l.061.027q.073.033.148.062l.067.025q.094.033.192.06l.022.006c.072.019.146.034.219.048l.066.01c.056.009.112.016.17.021l.068.006c.078.005.155.008.234.007l.467-.007a2.8,2.8,0,0,0,2.732-2.422c.007-.052.011-.105.015-.158s.005-.1.006-.143v0l.389-.006a.418.418,0,0,0,.292-.126.412.412,0,0,0,.119-.3.423.423,0,0,0-.423-.41.418.418,0,0,0,.292-.126.411.411,0,0,0,.027-.548.417.417,0,0,0-.331-.158.415.415,0,0,0,.3-.691.418.418,0,0,0-.317-.14.422.422,0,0,0,.411-.423.4.4,0,0,0-.088-.247.415.415,0,0,0-.335-.161l-.394.006a4.882,4.882,0,0,1,1.915-3.482,8.55,8.55,0,0,0,1.9-11.757" transform="translate(-1168.763 -139.645)" fill="#fff"/>
          </g>
        </g>
      </g>
    </g>
  </g>
</svg>
