<svg xmlns="http://www.w3.org/2000/svg" xmlns:xlink="http://www.w3.org/1999/xlink" width="118.5" height="118.5" viewBox="0 0 118.5 118.5">
  <defs>
    <clipPath id="clip-path">
      <rect id="Rectángulo_454800" data-name="Rectángulo 454800" width="118.5" height="118.5" fill="none"/>
    </clipPath>
    <linearGradient id="linear-gradient" x1="0.5" y1="-0.646" x2="0.5" y2="1.118" gradientUnits="objectBoundingBox">
      <stop offset="0" stop-color="#67ccf1"/>
      <stop offset="0.625" stop-color="#004b84"/>
      <stop offset="1" stop-color="#002d4f"/>
    </linearGradient>
    <clipPath id="clip-path-2">
      <rect id="Rectángulo_454805" data-name="Rectángulo 454805" width="50.778" height="50.786" fill="#f3f9ff"/>
    </clipPath>
  </defs>
  <g id="Grupo_1177550" data-name="Grupo 1177550" transform="translate(-927 -165.994)">
    <g id="Grupo_1177535" data-name="Grupo 1177535" transform="translate(-13.833 -47.006)">
      <g id="Grupo_1177525" data-name="Grupo 1177525" transform="translate(940.833 213)">
        <g id="Grupo_1177524" data-name="Grupo 1177524" clip-path="url(#clip-path)">
          <path id="Trazado_997408" data-name="Trazado 997408" d="M59.25,118.5A59.25,59.25,0,1,1,118.5,59.25,59.317,59.317,0,0,1,59.25,118.5m0-116.954a57.7,57.7,0,1,0,57.7,57.7,57.769,57.769,0,0,0-57.7-57.7" fill="#fff"/>
          <path id="Trazado_997409" data-name="Trazado 997409" d="M56.288,107.15a50.861,50.861,0,1,1,50.86-50.862,50.919,50.919,0,0,1-50.86,50.862m0-100.176A49.315,49.315,0,1,0,105.6,56.288,49.37,49.37,0,0,0,56.288,6.974" transform="translate(2.962 2.962)" fill="#fff"/>
          <path id="Trazado_997410" data-name="Trazado 997410" d="M53.327,95.8A42.472,42.472,0,1,1,95.8,53.327,42.52,42.52,0,0,1,53.327,95.8m0-83.4A40.926,40.926,0,1,0,94.253,53.327,40.974,40.974,0,0,0,53.327,12.4" transform="translate(5.923 5.923)" fill="#fff"/>
          <path id="Trazado_997411" data-name="Trazado 997411" d="M50.365,84.447A34.082,34.082,0,1,1,84.447,50.365,34.121,34.121,0,0,1,50.365,84.447m0-66.618A32.536,32.536,0,1,0,82.9,50.365,32.574,32.574,0,0,0,50.365,17.829" transform="translate(8.885 8.885)" fill="#fff"/>
          <path id="Trazado_997412" data-name="Trazado 997412" d="M47.4,73.1A25.692,25.692,0,1,1,73.1,47.4,25.722,25.722,0,0,1,47.4,73.1m0-49.838A24.146,24.146,0,1,0,71.549,47.4,24.174,24.174,0,0,0,47.4,23.257" transform="translate(11.847 11.847)" fill="#fff"/>
          <path id="Trazado_997413" data-name="Trazado 997413" d="M44.441,61.745a17.3,17.3,0,1,1,17.3-17.3,17.322,17.322,0,0,1-17.3,17.3m0-33.06A15.757,15.757,0,1,0,60.2,44.441,15.774,15.774,0,0,0,44.441,28.685" transform="translate(14.809 14.809)" fill="#fff"/>
          <path id="Trazado_997414" data-name="Trazado 997414" d="M41.48,50.392a8.913,8.913,0,1,1,8.914-8.912,8.923,8.923,0,0,1-8.914,8.912m0-16.28a7.367,7.367,0,1,0,7.368,7.368,7.378,7.378,0,0,0-7.368-7.368" transform="translate(17.77 17.77)" fill="#fff"/>
        </g>
      </g>
      <g id="Elipse_13614" data-name="Elipse 13614" transform="translate(950.033 222.2)" stroke="#fff" stroke-width="1" fill="url(#linear-gradient)">
        <circle cx="50.6" cy="50.6" r="50.6" stroke="none"/>
        <circle cx="50.6" cy="50.6" r="50.1" fill="none"/>
      </g>
    </g>
    <g id="Grupo_1177540" data-name="Grupo 1177540" transform="translate(965.5 199.852)">
      <g id="Grupo_1177539" data-name="Grupo 1177539" clip-path="url(#clip-path-2)">
        <path id="Trazado_997425" data-name="Trazado 997425" d="M32.472,27.852C28.625,27,26.46,31.278,25.44,34.258c-.583,1.7.528,3.092,1.231,4.41-.635,1.191-1.8,2.611-1.268,4.237a14,14,0,0,0,3.152,5.487,4.632,4.632,0,0,0,4.277,1.068c.377.079.6.845.65,1.3L6.439,50.748A6.417,6.417,0,0,1,0,44.31V6.415C0,3.137,2.562.083,5.9.071L26.968,0a3.823,3.823,0,0,1,2.74,1.21L39.973,11.462a4.234,4.234,0,0,1,1.354,3.1l-.014,9.767c-9.126-1.016-7.2,3.889-8.841,3.525M29.021,14.759l8.1-.093L26.618,4.184l-.056,8.066a2.426,2.426,0,0,0,2.459,2.509m-.19,8.841a1.769,1.769,0,0,0,1.849-1.856,1.787,1.787,0,0,0-1.94-1.7L9.8,20.087A1.712,1.712,0,0,0,8.276,22a1.788,1.788,0,0,0,1.874,1.6Zm-8.172,8.268A1.74,1.74,0,0,0,22.4,30.23a1.654,1.654,0,0,0-1.463-1.843L9.778,28.379a1.667,1.667,0,0,0-1.509,1.816,1.774,1.774,0,0,0,1.738,1.677Zm.031,8.245A1.716,1.716,0,0,0,22.4,38.221a1.757,1.757,0,0,0-1.822-1.63l-10.572.013a1.738,1.738,0,0,0-1.743,1.788,1.788,1.788,0,0,0,1.874,1.743Z" transform="translate(0 0)" fill="#f3f9ff"/>
        <path id="Trazado_997426" data-name="Trazado 997426" d="M170.5,173.708a9.482,9.482,0,0,1-5.479.006c-1.1-.324-1.238-2.548-1.958-3.07-1.16-.841-3.113.425-4.017-.377a9.151,9.151,0,0,1-2.816-4.906c-.21-1.054,1.642-2.192,1.695-3.285.063-1.29-1.918-2.342-1.694-3.468a9.135,9.135,0,0,1,2.815-4.9c.8-.712,2.766.38,3.912-.294.892-.524.869-2.878,2.188-3.2a10.793,10.793,0,0,1,5.294.029c1.228.331,1.232,2.605,2.13,3.166,1.179.735,3.065-.456,3.95.338a9.549,9.549,0,0,1,2.751,4.681c.331,1.289-1.613,2.293-1.668,3.475-.064,1.383,2.02,2.306,1.668,3.659a9.558,9.558,0,0,1-2.753,4.683c-.6.54-1.729.265-2.4.133-2.849-.558-1.975,2.808-3.614,3.341m.8-11.723a3.536,3.536,0,1,0-3.536,3.536,3.536,3.536,0,0,0,3.536-3.536" transform="translate(-128.534 -123.33)" fill="#f3f9ff"/>
      </g>
    </g>
  </g>
</svg>
