<svg xmlns="http://www.w3.org/2000/svg" xmlns:xlink="http://www.w3.org/1999/xlink" width="85" height="85" viewBox="0 0 85 85">
  <defs>
    <clipPath id="clip-path">
      <rect id="Rectángulo_456422" data-name="Rectángulo 456422" width="56.196" height="56.239" fill="#12263f"/>
    </clipPath>
  </defs>
  <g id="Grupo_1177693" data-name="Grupo 1177693" transform="translate(-179.668 -5521)">
    <rect id="Rectángulo_402006" data-name="Rectángulo 402006" width="85" height="85" rx="5" transform="translate(179.668 5521)" fill="#fe93c4"/>
    <g id="Grupo_1192197" data-name="Grupo 1192197" transform="translate(196.381 5535.381)">
      <g id="Grupo_1192196" data-name="Grupo 1192196" clip-path="url(#clip-path)">
        <path id="Trazado_1001337" data-name="Trazado 1001337" d="M7.023,38.721l-.011,6.795A1.862,1.862,0,0,0,8.95,47.458l6.689,0a1.763,1.763,0,0,0,1.9-1.6l.091-4.572a20.025,20.025,0,0,0,3.543,3.687,2.333,2.333,0,0,0,.212,1.694c1.056,1.41,3.323.49,4.412.841A18.14,18.14,0,0,0,37.42,47.6a8.381,8.381,0,0,0,2.887,4.231,5.265,5.265,0,0,1-5.19,4.414L5.276,56.223A5.242,5.242,0,0,1,0,50.938V5.3A5.281,5.281,0,0,1,5.452,0L34.944.014a5.237,5.237,0,0,1,5.45,5.257L40.4,15.619a17.923,17.923,0,0,0-17.473.088,6.269,6.269,0,0,0-1.868,1.206c-1.829,1.807-3.745,3.551-4.84,5.951L8.6,22.881a1.764,1.764,0,0,0-1.591,1.882l0,6.518A2.106,2.106,0,0,0,7.5,32.815a2.081,2.081,0,0,0,1.628.588l5.286,0a34.635,34.635,0,0,0,.8,3.482l-6.6.046a1.715,1.715,0,0,0-1.581,1.785m8.706-19.388a1.818,1.818,0,0,0,1.843-1.928V10.712A1.8,1.8,0,0,0,15.81,8.8H8.773a1.8,1.8,0,0,0-1.761,1.911V17.4a1.861,1.861,0,0,0,1.94,1.942Zm15.982-7.05a1.718,1.718,0,0,0,1.652-1.817A1.742,1.742,0,0,0,31.624,8.8h-8.8a1.748,1.748,0,0,0-1.739,1.826A1.771,1.771,0,0,0,22.833,12.3Z" transform="translate(0 -0.001)" fill="#12263f"/>
        <rect id="Rectángulo_456419" data-name="Rectángulo 456419" width="3.514" height="3.526" transform="translate(10.535 12.302)" fill="#12263f"/>
        <path id="Trazado_1001338" data-name="Trazado 1001338" d="M137.937,125.558a5.275,5.275,0,0,1-.1,7.6,5.4,5.4,0,0,1-7.583-.357l-5.171-5.2a3.576,3.576,0,0,1-.073-4.964,6.57,6.57,0,0,0-1.3-1.3,14.065,14.065,0,1,1,2.566-2.566,5.739,5.739,0,0,0,1.309,1.286,3.537,3.537,0,0,1,4.752-.076ZM109.579,111.4l3.119,3.1a1.757,1.757,0,0,0,2.518-.163l5.546-5.895a1.762,1.762,0,1,0-2.585-2.391l-4.345,4.6-2.008-1.928a1.707,1.707,0,0,0-2.441.211,1.76,1.76,0,0,0,.194,2.466" transform="translate(-83.309 -79.248)" fill="#12263f"/>
        <rect id="Rectángulo_456420" data-name="Rectángulo 456420" width="3.514" height="3.526" transform="translate(10.535 26.358)" fill="#12263f"/>
        <rect id="Rectángulo_456421" data-name="Rectángulo 456421" width="3.514" height="3.526" transform="translate(10.535 40.414)" fill="#12263f"/>
      </g>
    </g>
  </g>
</svg>
