<svg xmlns="http://www.w3.org/2000/svg" xmlns:xlink="http://www.w3.org/1999/xlink" width="84" height="84" viewBox="0 0 84 84">
  <defs>
    <clipPath id="clip-path">
      <rect id="Rectángulo_456470" data-name="Rectángulo 456470" width="54.961" height="60.219" fill="#12263f"/>
    </clipPath>
  </defs>
  <g id="Grupo_1191944" data-name="Grupo 1191944" transform="translate(-179.668 -5521)">
    <rect id="Rectángulo_402006" data-name="Rectángulo 402006" width="84" height="84" rx="5" transform="translate(179.668 5521)" fill="#67ccf1"/>
    <g id="Grupo_1192224" data-name="Grupo 1192224" transform="translate(194.188 5532.891)">
      <g id="Grupo_1192223" data-name="Grupo 1192223" clip-path="url(#clip-path)">
        <path id="Trazado_1001436" data-name="Trazado 1001436" d="M239.6,182.844a1.329,1.329,0,1,1-1.329-1.329,1.329,1.329,0,0,1,1.329,1.329" transform="translate(-185.321 -141.966)" fill="#12263f"/>
        <path id="Trazado_1001437" data-name="Trazado 1001437" d="M8.828,1.325A1.325,1.325,0,1,1,7.5,0,1.325,1.325,0,0,1,8.828,1.325" transform="translate(-4.833)" fill="#12263f"/>
        <path id="Trazado_1001438" data-name="Trazado 1001438" d="M146.147,179.662l-3.641-3.583a22.623,22.623,0,0,0,9.368-9.425l3.677,3.537Z" transform="translate(-111.457 -130.343)" fill="#12263f"/>
        <path id="Trazado_1001439" data-name="Trazado 1001439" d="M168.5,14.314a.984.984,0,0,0,.018.787c.08.156.332.415.614.314l8.32-2.983A8.924,8.924,0,1,1,171.4,6.49Z" transform="translate(-125.139 -4.815)" fill="#12263f"/>
        <path id="Trazado_1001440" data-name="Trazado 1001440" d="M215.567,6.262l-8.624,3.221L210.157.892a11.04,11.04,0,0,1,5.41,5.37" transform="translate(-161.854 -0.698)" fill="#12263f"/>
        <path id="Trazado_1001441" data-name="Trazado 1001441" d="M206.268,135.436a2.676,2.676,0,1,1-2.676-2.676,2.676,2.676,0,0,1,2.676,2.676" transform="translate(-157.14 -103.834)" fill="#12263f"/>
        <path id="Trazado_1001442" data-name="Trazado 1001442" d="M23.818,236.463a2.673,2.673,0,1,1-2.673-2.673,2.673,2.673,0,0,1,2.673,2.673" transform="translate(-14.448 -182.852)" fill="#12263f"/>
        <path id="Trazado_1001443" data-name="Trazado 1001443" d="M180.005,210.568l-10.068-10.021,6.6-6.668,9.922,9.908a4.687,4.687,0,0,1,.195,6.512,4.615,4.615,0,0,1-6.646.269m5.179-3.311a2,2,0,1,0-2,2,2,2,0,0,0,2-2" transform="translate(-132.911 -151.636)" fill="#12263f"/>
        <path id="Trazado_1001444" data-name="Trazado 1001444" d="M229.069,252.921a.65.65,0,1,1-.65-.65.65.65,0,0,1,.65.65" transform="translate(-178.143 -197.306)" fill="#12263f"/>
        <path id="Trazado_1001445" data-name="Trazado 1001445" d="M9.327,28l.047,6.956a15.411,15.411,0,1,0,6.834-4.347,49.706,49.706,0,0,1-.073-5.5A20.609,20.609,0,0,1,33.517,28.92a10.349,10.349,0,0,0,7.11,10.3A20.774,20.774,0,1,1,9.327,28" transform="translate(0 -19.215)" fill="#12263f"/>
        <path id="Trazado_1001446" data-name="Trazado 1001446" d="M53.145,53.08A10.4,10.4,0,0,1,49.1,50.257V18.393c1.363-.082,2.552-.052,4.025-.011Z" transform="translate(-38.404 -14.345)" fill="#12263f"/>
        <path id="Trazado_1001447" data-name="Trazado 1001447" d="M77.923,97.885a8.523,8.523,0,0,1-3.962-.7l0-23.2a35.97,35.97,0,0,1,3.959,0Z" transform="translate(-57.845 -57.819)" fill="#12263f"/>
        <path id="Trazado_1001448" data-name="Trazado 1001448" d="M102.511,111.306a7.64,7.64,0,0,1-4.058.86l0-19.958a38.986,38.986,0,0,1,4.023-.035Z" transform="translate(-77.002 -72.063)" fill="#12263f"/>
        <path id="Trazado_1001449" data-name="Trazado 1001449" d="M127.055,122.478a12.364,12.364,0,0,1-4,2.919l-.063-14.641,4.02-.04Z" transform="translate(-96.191 -86.593)" fill="#12263f"/>
      </g>
    </g>
  </g>
</svg>
