<svg xmlns="http://www.w3.org/2000/svg" xmlns:xlink="http://www.w3.org/1999/xlink" width="80" height="80" viewBox="0 0 80 80">
  <defs>
    <clipPath id="clip-path">
      <rect id="Rectángulo_456425" data-name="Rectángulo 456425" width="61.832" height="56.063" fill="#fff"/>
    </clipPath>
  </defs>
  <g id="Grupo_1177897" data-name="Grupo 1177897" transform="translate(-710 -1680.92)">
    <g id="Grupo_1119665" data-name="Grupo 1119665" transform="translate(534.111 -3840.08)">
      <rect id="Rectángulo_402006" data-name="Rectángulo 402006" width="80" height="80" rx="5" transform="translate(175.889 5521)" fill="#004b84"/>
    </g>
    <g id="Grupo_1192201" data-name="Grupo 1192201" transform="translate(719.084 1692.888)">
      <g id="Grupo_1192200" data-name="Grupo 1192200" clip-path="url(#clip-path)">
        <path id="Trazado_1001352" data-name="Trazado 1001352" d="M87.168,242.324H61.937a3.239,3.239,0,0,1-.182-2.314l25.03,0c.081.8.207,1.412.383,2.316" transform="translate(-48.926 -190.529)" fill="#fff"/>
        <path id="Trazado_1001353" data-name="Trazado 1001353" d="M47.506,10.826a6.917,6.917,0,0,1-3.208.161l3.124-3.821a22.347,22.347,0,0,1,.083,3.66" transform="translate(-35.166 -5.689)" fill="#fff"/>
        <path id="Trazado_1001354" data-name="Trazado 1001354" d="M45.959,30.99l.03,7.778c0,.373-.306.443-.605.425a.889.889,0,0,0-1.066.886c0,.513.415.889,1.087.889L70.22,40.96a.937.937,0,0,0,.877-.868c.072-1.246-1.653-.687-1.654-1.143l-.022-13.77c0-1.4-1.87-.7-2.873-.937a13.657,13.657,0,1,0-24.486,2.4c-.44.7-1.2,1.08-1.735,1.743-.212.263-1.289.55-1.29.061L38.995,7.2l3.82-.082a2.3,2.3,0,0,0,2.236-2.376L45.087.01,75.651,0a.71.71,0,0,1,.75.695l0,23.249a10.025,10.025,0,0,1-2.623,1.7c-.831,1.093.829,5.117,1.778,6.521a2.714,2.714,0,0,0-.629,3.679,25.274,25.274,0,0,0-6.019,11.925l-29.069-.008a.726.726,0,0,1-.83-.769l0-8.059,3.441-3.117a3.161,3.161,0,0,0,1.074-2.876,18.9,18.9,0,0,1,2.442-1.952m25.9-24.945a.845.845,0,0,0,.875-.953.854.854,0,0,0-.965-.763l-7.222,0a.878.878,0,0,0-.946.9.9.9,0,0,0,.946.831Zm.076,3.6a.839.839,0,0,0,.812-.894.848.848,0,0,0-.846-.824l-4.811,0a.866.866,0,0,0-.864.83.846.846,0,0,0,.827.889Z" transform="translate(-30.956 0)" fill="#fff"/>
        <path id="Trazado_1001355" data-name="Trazado 1001355" d="M76.407,48.867a11.92,11.92,0,1,1-11.92-11.919,11.92,11.92,0,0,1,11.92,11.919m-1.56,0A10.35,10.35,0,1,0,64.5,59.221a10.35,10.35,0,0,0,10.35-10.35" transform="translate(-41.731 -29.331)" fill="#fff"/>
        <path id="Trazado_1001356" data-name="Trazado 1001356" d="M3.792,157.231c-1.336,1.191-2.589-.745-3.455-1.764a1.408,1.408,0,0,1,.18-2l6.634-5.9c1.271-1.13,2.489.854,3.306,1.729a1.431,1.431,0,0,1-.091,2.074Z" transform="translate(0 -116.876)" fill="#fff"/>
        <path id="Trazado_1001357" data-name="Trazado 1001357" d="M167.4,139.054a12.644,12.644,0,0,1-2.794.051l.02-11.529a2.3,2.3,0,0,1,.936-1.517,3.663,3.663,0,0,1,1.818-.039Z" transform="translate(-130.672 -99.961)" fill="#fff"/>
        <path id="Trazado_1001358" data-name="Trazado 1001358" d="M145.088,152.823l-.006-7.971a27.165,27.165,0,0,0,2.228-1.658l.031,9.6a10.933,10.933,0,0,1-2.253.028" transform="translate(-115.173 -113.674)" fill="#fff"/>
        <path id="Trazado_1001359" data-name="Trazado 1001359" d="M84.09,161.895a16.952,16.952,0,0,1-2.822.009l.049-7.255c.995.353,1.767.689,2.74.937Z" transform="translate(-64.514 -122.767)" fill="#fff"/>
        <path id="Trazado_1001360" data-name="Trazado 1001360" d="M125.766,163a14.265,14.265,0,0,1-2.813.021l0-6.127,2.784-.835Z" transform="translate(-97.606 -123.883)" fill="#fff"/>
        <rect id="Rectángulo_456424" data-name="Rectángulo 456424" width="2.289" height="6.032" transform="translate(21.318 33.147)" fill="#fff"/>
        <path id="Trazado_1001361" data-name="Trazado 1001361" d="M52.159,139.807a4.422,4.422,0,0,1-1.42-1.559l1.695-1.5,1.455,1.526a20.739,20.739,0,0,1-1.73,1.529" transform="translate(-40.279 -108.56)" fill="#fff"/>
        <path id="Trazado_1001362" data-name="Trazado 1001362" d="M78.061,70.125a3.787,3.787,0,0,1-2.267-.114l-.012-8.78a.908.908,0,0,0-.944-.952l-4.3-.012c-1.854,0-.668,3.1-1.121,4.926a8.608,8.608,0,1,1,15,1.152c-.223-1.354.452-3.223-1.1-3.221l-4.3.007a.939.939,0,0,0-.933.978Z" transform="translate(-54.471 -42.07)" fill="#fff"/>
        <path id="Trazado_1001363" data-name="Trazado 1001363" d="M84.093,104.14a6.1,6.1,0,0,1-2.8-1.719l.015-5.7a12.8,12.8,0,0,1,2.785-.017Z" transform="translate(-64.533 -76.711)" fill="#fff"/>
        <path id="Trazado_1001364" data-name="Trazado 1001364" d="M125.743,114a6.931,6.931,0,0,1-2.78,1.487l-.033-4.826a11.165,11.165,0,0,1,2.788-.014Z" transform="translate(-97.587 -87.77)" fill="#fff"/>
        <path id="Trazado_1001365" data-name="Trazado 1001365" d="M210.532,196.359a18.481,18.481,0,0,1-14.358-.013,6.924,6.924,0,0,1-3.67-3.387,8.714,8.714,0,0,1,.059-4.669,24.408,24.408,0,0,1,5.411-9.672l10.915-.069a24.707,24.707,0,0,1,5.346,10.779,7.438,7.438,0,0,1-.184,3.99,7.147,7.147,0,0,1-3.52,3.041m-8.219-2.823a.9.9,0,0,0,1.112.235c.454-.113.274-.892.509-1.087.889-.738,1.916-1.151,2.107-2.174a2.986,2.986,0,0,0-.809-3.118c-1.239-.951-3.762-.533-3.672-2.061a1.268,1.268,0,0,1,1.311-1.175c2.178-.116,1.025,2.258,2.538,2.057a.885.885,0,0,0,.738-.964c.025-1.485-1.018-2.169-2.159-2.832-.28-.163-.063-1.085-.564-1.179-.3-.056-.739-.265-1.061.149-.23.3-.2.726-.363,1.147a2.951,2.951,0,0,0-2.138,2.259,2.73,2.73,0,0,0,1.23,3.019c1.246.674,3.4.382,3.3,1.849a1.234,1.234,0,0,1-1.114,1.165,1.388,1.388,0,0,1-1.732-1.189.87.87,0,0,0-.848-.866.84.84,0,0,0-.86.655,2.856,2.856,0,0,0,2,2.988c.389.152.244.825.468,1.121" transform="translate(-152.584 -141.74)" fill="#fff"/>
        <path id="Trazado_1001366" data-name="Trazado 1001366" d="M225.2,123.334c1.094.041,1.837.972,2.711,1.455a13.165,13.165,0,0,1-1.887,4.721l-8.663.038a11.425,11.425,0,0,1-2.123-4.817l1.681-1.313c1.11-.866,1.9.363,3.673,1.272,2.417,1.242,3.617-1.394,4.607-1.357" transform="translate(-170.869 -97.742)" fill="#fff"/>
        <path id="Trazado_1001367" data-name="Trazado 1001367" d="M231.817,40.832a16.462,16.462,0,0,0-2.887-1.519V19.885a10.036,10.036,0,0,1,2.858.063Z" transform="translate(-181.734 -15.729)" fill="#fff"/>
        <path id="Trazado_1001368" data-name="Trazado 1001368" d="M229.7,164.359l-9.491.007a.738.738,0,0,1-.684-.75.728.728,0,0,1,.7-.737l9.5,0a.706.706,0,0,1,.738.737.727.727,0,0,1-.756.741" transform="translate(-174.265 -129.301)" fill="#fff"/>
      </g>
    </g>
  </g>
</svg>
