<svg xmlns="http://www.w3.org/2000/svg" xmlns:xlink="http://www.w3.org/1999/xlink" width="128" height="127.999" viewBox="0 0 128 127.999">
  <defs>
    <clipPath id="clip-path">
      <rect id="Rectángulo_454800" data-name="Rectángulo 454800" width="127.998" height="127.488" fill="none"/>
    </clipPath>
    <linearGradient id="linear-gradient" x1="0.5" y1="-0.646" x2="0.5" y2="1.118" gradientUnits="objectBoundingBox">
      <stop offset="0" stop-color="#67ccf1"/>
      <stop offset="0.625" stop-color="#004b84"/>
      <stop offset="1" stop-color="#002d4f"/>
    </linearGradient>
    <clipPath id="clip-path-2">
      <rect id="Rectángulo_456533" data-name="Rectángulo 456533" width="60.811" height="60.818" fill="#fff"/>
    </clipPath>
  </defs>
  <g id="Grupo_1192089" data-name="Grupo 1192089" transform="translate(-1136.727 -7764.48)">
    <path id="Trazado_997475" data-name="Trazado 997475" d="M63.973,0A63.718,63.718,0,1,1,0,63.717,63.845,63.845,0,0,1,63.973,0Z" transform="translate(1136.781 7764.48)" fill="#fff"/>
    <g id="Grupo_1177602" data-name="Grupo 1177602" transform="translate(1136.727 7764.993)">
      <g id="Grupo_1177525" data-name="Grupo 1177525">
        <g id="Grupo_1177524" data-name="Grupo 1177524" clip-path="url(#clip-path)">
          <path id="Trazado_997408" data-name="Trazado 997408" d="M64,127.488a63.744,63.744,0,1,1,64-63.744,63.944,63.944,0,0,1-64,63.744M64,1.663a62.081,62.081,0,1,0,62.33,62.081A62.275,62.275,0,0,0,64,1.663" fill="#002d4f"/>
          <path id="Trazado_997409" data-name="Trazado 997409" d="M60.365,114.865A54.719,54.719,0,1,1,115.3,60.146a54.891,54.891,0,0,1-54.937,54.719m0-107.774a53.056,53.056,0,1,0,53.267,53.055A53.222,53.222,0,0,0,60.365,7.091" transform="translate(3.634 3.598)" fill="#002d4f"/>
          <path id="Trazado_997410" data-name="Trazado 997410" d="M56.731,102.241a45.693,45.693,0,1,1,45.876-45.693,45.837,45.837,0,0,1-45.876,45.693m0-89.723a44.031,44.031,0,1,0,44.207,44.03,44.17,44.17,0,0,0-44.207-44.03" transform="translate(7.268 7.196)" fill="#fff"/>
          <path id="Trazado_997411" data-name="Trazado 997411" d="M53.1,89.617A36.667,36.667,0,1,1,89.911,52.95,36.783,36.783,0,0,1,53.1,89.617m0-71.671a35,35,0,1,0,35.144,35,35.115,35.115,0,0,0-35.144-35" transform="translate(10.902 10.794)" fill="#fff"/>
          <path id="Trazado_997412" data-name="Trazado 997412" d="M49.462,76.992A27.641,27.641,0,1,1,77.214,49.352,27.728,27.728,0,0,1,49.462,76.992m0-53.618A25.978,25.978,0,1,0,75.544,49.352,26.059,26.059,0,0,0,49.462,23.374" transform="translate(14.537 14.392)" fill="#fff"/>
          <path id="Trazado_997413" data-name="Trazado 997413" d="M45.828,64.37A18.615,18.615,0,1,1,64.517,45.753,18.673,18.673,0,0,1,45.828,64.37m0-35.568a16.953,16.953,0,1,0,17.02,16.952A17,17,0,0,0,45.828,28.8" transform="translate(18.171 17.99)" fill="#fff"/>
          <path id="Trazado_997414" data-name="Trazado 997414" d="M42.194,51.744a9.589,9.589,0,1,1,9.628-9.588,9.62,9.62,0,0,1-9.628,9.588m0-17.515a7.926,7.926,0,1,0,7.959,7.927,7.953,7.953,0,0,0-7.959-7.927" transform="translate(21.805 21.588)" fill="#fff"/>
        </g>
      </g>
      <g id="Elipse_13614" data-name="Elipse 13614" transform="translate(10.388 10.387)" stroke="#002d4f" stroke-width="1" fill="url(#linear-gradient)">
        <ellipse cx="53.612" cy="53.356" rx="53.612" ry="53.356" stroke="none"/>
        <ellipse cx="53.612" cy="53.356" rx="53.112" ry="52.856" fill="none"/>
      </g>
    </g>
    <g id="Grupo_1192318" data-name="Grupo 1192318" transform="translate(1168.063 7798.003)">
      <g id="Grupo_1192317" data-name="Grupo 1192317" clip-path="url(#clip-path-2)">
        <path id="Trazado_1001699" data-name="Trazado 1001699" d="M225.561,277.052l-18.084-.009a1.133,1.133,0,0,1-1.152-1.184l0-5.655a1.192,1.192,0,0,1,1.314-1.2l17.822.008a1.157,1.157,0,0,1,1.194,1.155l0,5.7a1.129,1.129,0,0,1-1.095,1.185m-3.664-3.07c.662,0,.847-.78.788-1.136a1.035,1.035,0,0,0-1.124-.779l-10.2,0a1.011,1.011,0,0,0-1.072.95.988.988,0,0,0,.941,1.009Z" transform="translate(-165.85 -216.234)" fill="#fff"/>
        <path id="Trazado_1001700" data-name="Trazado 1001700" d="M225.559,209.987l-17.9-.006a1.2,1.2,0,0,1-1.31-1.174l.016-5.826a1.032,1.032,0,0,1,1.094-1l18.229,0a1.023,1.023,0,0,1,.97.981l.015,5.876a1.151,1.151,0,0,1-1.112,1.154m-3.691-3.071a.933.933,0,0,0,.842-1.07.964.964,0,0,0-.966-.862l-10.543.01a.922.922,0,0,0-.874,1,.994.994,0,0,0,1.052.953Z" transform="translate(-165.868 -162.353)" fill="#fff"/>
        <rect id="Rectángulo_456532" data-name="Rectángulo 456532" width="7.26" height="1.976" transform="translate(31.25 29.416)" fill="#fff"/>
        <path id="Trazado_1001701" data-name="Trazado 1001701" d="M225.773,142.563l-18.295-.009a1.091,1.091,0,0,1-1.1-1.075v-5.832a1.094,1.094,0,0,1,1.1-1.077l18.036,0a1.1,1.1,0,0,1,1.174,1.053l.015,5.885a1.144,1.144,0,0,1-.928,1.06m-4.081-3.019a.974.974,0,0,0,1.04-1.065.941.941,0,0,0-.943-.882L211.4,137.59a.951.951,0,0,0-1.039,1.073.966.966,0,0,0,1.043.887Z" transform="translate(-165.891 -108.167)" fill="#fff"/>
        <path id="Trazado_1001702" data-name="Trazado 1001702" d="M225.55,8.006l-17.9.01a1.187,1.187,0,0,1-1.313-1.193l0-5.651A1.1,1.1,0,0,1,207.453,0h18.214a1.1,1.1,0,0,1,.993,1.159v5.7a1.12,1.12,0,0,1-1.11,1.145m-3.7-3.031a.982.982,0,0,0,.839-1.121,1,1,0,0,0-1.011-.843l-10.449.01a.965.965,0,0,0-.058,1.927Z" transform="translate(-165.853)" fill="#fff"/>
        <path id="Trazado_1001703" data-name="Trazado 1001703" d="M70.987,17.278l-.065,8.535a8.054,8.054,0,0,1-1.931.121l-.023-9.527c0-.465.3-1.08.876-1.08l24-.013a3.966,3.966,0,0,1,.006,1.958Z" transform="translate(-55.439 -12.311)" fill="#fff"/>
        <path id="Trazado_1001704" data-name="Trazado 1001704" d="M225.558,75.26l-18.1,0a1.041,1.041,0,0,1-1.1-1.017l-.02-5.836a1.106,1.106,0,0,1,.946-1.111l18.2-.021a1.094,1.094,0,0,1,1.183,1.119l-.015,5.872a1.04,1.04,0,0,1-1.087.993m-3.76-3.006a.981.981,0,0,0,.907-1.019c-.017-.316-.238-.9-.748-.9l-10.775,0a.909.909,0,0,0-.856,1.092,1,1,0,0,0,1.05.856Z" transform="translate(-165.857 -54.078)" fill="#fff"/>
        <path id="Trazado_1001705" data-name="Trazado 1001705" d="M184.168,84.571c-1.032.136-2.988.36-2.9-.966.083-1.3,1.686-.863,2.882-.883a5.813,5.813,0,0,1,.022,1.849" transform="translate(-145.703 -66.449)" fill="#fff"/>
        <path id="Trazado_1001706" data-name="Trazado 1001706" d="M19.688,84.8A10.618,10.618,0,0,0,6.373,87.725,10.4,10.4,0,1,0,24.034,89.52a.635.635,0,0,1,.045-.771c.471-.55,2.4.917,4.232-.077A14.679,14.679,0,1,1,20.046,80.4c-1.045,1.2.761,4.947-.359,4.4" transform="translate(0 -63.779)" fill="#fff"/>
        <path id="Trazado_1001707" data-name="Trazado 1001707" d="M41.194,114.4a5.218,5.218,0,0,0-6.171,4.579,5.158,5.158,0,1,0,10.22-.326,29.1,29.1,0,0,1,2.562-2.583,8.41,8.41,0,0,1-13.586,9.436,8.432,8.432,0,0,1,9.408-13.682Z" transform="translate(-25.487 -89.266)" fill="#fff"/>
        <path id="Trazado_1001708" data-name="Trazado 1001708" d="M79.7,68.392l-5.633,5.687-3.39-.7-6.13,6.126A3.265,3.265,0,0,1,63.5,83.583a3.2,3.2,0,0,1-4.053-.3,3.21,3.21,0,0,1,3.7-5.161l6.108-6.069-.64-3.449,5.247-5.312c.926-.937.909,2.326,1.3,2.8l1.4-1.3a.923.923,0,0,1,1.351.2c.666.955-.666,1.622-1.306,2.493Z" transform="translate(-47.003 -50.742)" fill="#fff"/>
        <path id="Trazado_1001709" data-name="Trazado 1001709" d="M93.7,247.814c.55.5.289,1.28.18,1.963H70.038a.976.976,0,0,1-1.011-.9l-.007-9.977a8.642,8.642,0,0,1,1.947.02l.02,8.89Z" transform="translate(-55.479 -191.994)" fill="#fff"/>
        <path id="Trazado_1001710" data-name="Trazado 1001710" d="M141.866,216.175l-11.719-.028a5.7,5.7,0,0,1-1.487-1.408,9.711,9.711,0,0,1,1.312-1.274c.365.164.548.5.936.746l10.933.016a4.734,4.734,0,0,1,.025,1.949" transform="translate(-103.421 -171.588)" fill="#fff"/>
      </g>
    </g>
  </g>
</svg>
