<svg xmlns="http://www.w3.org/2000/svg" xmlns:xlink="http://www.w3.org/1999/xlink" width="128" height="127.999" viewBox="0 0 128 127.999">
  <defs>
    <clipPath id="clip-path">
      <rect id="Rectángulo_454800" data-name="Rectángulo 454800" width="127.998" height="127.488" fill="none"/>
    </clipPath>
    <linearGradient id="linear-gradient" x1="0.5" y1="-0.646" x2="0.5" y2="1.118" gradientUnits="objectBoundingBox">
      <stop offset="0" stop-color="#67ccf1"/>
      <stop offset="0.625" stop-color="#004b84"/>
      <stop offset="1" stop-color="#002d4f"/>
    </linearGradient>
    <clipPath id="clip-path-2">
      <rect id="Rectángulo_456534" data-name="Rectángulo 456534" width="64.033" height="61.864" fill="#fff"/>
    </clipPath>
  </defs>
  <g id="Grupo_1192087" data-name="Grupo 1192087" transform="translate(-1136.727 -7764.48)">
    <path id="Trazado_997475" data-name="Trazado 997475" d="M63.973,0A63.718,63.718,0,1,1,0,63.717,63.845,63.845,0,0,1,63.973,0Z" transform="translate(1136.781 7764.48)" fill="#fff"/>
    <g id="Grupo_1177602" data-name="Grupo 1177602" transform="translate(1136.727 7764.993)">
      <g id="Grupo_1177525" data-name="Grupo 1177525">
        <g id="Grupo_1177524" data-name="Grupo 1177524" clip-path="url(#clip-path)">
          <path id="Trazado_997408" data-name="Trazado 997408" d="M64,127.488a63.744,63.744,0,1,1,64-63.744,63.944,63.944,0,0,1-64,63.744M64,1.663a62.081,62.081,0,1,0,62.33,62.081A62.275,62.275,0,0,0,64,1.663" fill="#002d4f"/>
          <path id="Trazado_997409" data-name="Trazado 997409" d="M60.365,114.865A54.719,54.719,0,1,1,115.3,60.146a54.891,54.891,0,0,1-54.937,54.719m0-107.774a53.056,53.056,0,1,0,53.267,53.055A53.222,53.222,0,0,0,60.365,7.091" transform="translate(3.634 3.598)" fill="#002d4f"/>
          <path id="Trazado_997410" data-name="Trazado 997410" d="M56.731,102.241a45.693,45.693,0,1,1,45.876-45.693,45.837,45.837,0,0,1-45.876,45.693m0-89.723a44.031,44.031,0,1,0,44.207,44.03,44.17,44.17,0,0,0-44.207-44.03" transform="translate(7.268 7.196)" fill="#fff"/>
          <path id="Trazado_997411" data-name="Trazado 997411" d="M53.1,89.617A36.667,36.667,0,1,1,89.911,52.95,36.783,36.783,0,0,1,53.1,89.617m0-71.671a35,35,0,1,0,35.144,35,35.115,35.115,0,0,0-35.144-35" transform="translate(10.902 10.794)" fill="#fff"/>
          <path id="Trazado_997412" data-name="Trazado 997412" d="M49.462,76.992A27.641,27.641,0,1,1,77.214,49.352,27.728,27.728,0,0,1,49.462,76.992m0-53.618A25.978,25.978,0,1,0,75.544,49.352,26.059,26.059,0,0,0,49.462,23.374" transform="translate(14.537 14.392)" fill="#fff"/>
          <path id="Trazado_997413" data-name="Trazado 997413" d="M45.828,64.37A18.615,18.615,0,1,1,64.517,45.753,18.673,18.673,0,0,1,45.828,64.37m0-35.568a16.953,16.953,0,1,0,17.02,16.952A17,17,0,0,0,45.828,28.8" transform="translate(18.171 17.99)" fill="#fff"/>
          <path id="Trazado_997414" data-name="Trazado 997414" d="M42.194,51.744a9.589,9.589,0,1,1,9.628-9.588,9.62,9.62,0,0,1-9.628,9.588m0-17.515a7.926,7.926,0,1,0,7.959,7.927,7.953,7.953,0,0,0-7.959-7.927" transform="translate(21.805 21.588)" fill="#fff"/>
        </g>
      </g>
      <g id="Elipse_13614" data-name="Elipse 13614" transform="translate(10.388 10.387)" stroke="#002d4f" stroke-width="1" fill="url(#linear-gradient)">
        <ellipse cx="53.612" cy="53.356" rx="53.612" ry="53.356" stroke="none"/>
        <ellipse cx="53.612" cy="53.356" rx="53.112" ry="52.856" fill="none"/>
      </g>
    </g>
    <g id="Grupo_1192320" data-name="Grupo 1192320" transform="translate(1168.737 7797.266)">
      <g id="Grupo_1192319" data-name="Grupo 1192319" clip-path="url(#clip-path-2)">
        <path id="Trazado_1001711" data-name="Trazado 1001711" d="M49.962,64.221a2.765,2.765,0,0,1-3.194-2.7l-.012-8.259a3.634,3.634,0,0,1,3.551-3.747l9.681-.04a3.762,3.762,0,0,1,3.947,3.8l-.025,8.234A2.8,2.8,0,0,1,60.869,64.2l-.006,8.809a8.059,8.059,0,0,1,2.343,1.755,3.281,3.281,0,0,1,.067,4.277c-2.335,2.892-7.834,3.488-11.368,2.434L40.029,90.238A8.94,8.94,0,0,1,42.2,92.1a4.188,4.188,0,0,1-.071,5.373c-3.969,4.789-15.567,4.926-19.928.237a4.213,4.213,0,0,1-.257-5.61,11.355,11.355,0,0,1,2.165-1.885L12.2,81.482c-3.639.719-7.9.522-10.738-1.8a3.443,3.443,0,0,1-.446-5.23,6.829,6.829,0,0,1,2.144-1.494l.01-8.771A2.7,2.7,0,0,1,0,61.521l.02-8.459a3.722,3.722,0,0,1,3.923-3.571l9.282,0a3.648,3.648,0,0,1,3.743,3.577l.021,8.247A2.85,2.85,0,0,1,13.936,64.2l-.019,8.92a6.017,6.017,0,0,1,2.416,1.751,3.327,3.327,0,0,1-.2,4.405,15.964,15.964,0,0,1-1.787,1.446l11.281,8.238L25.64,78.55a2.915,2.915,0,0,1-3.408-.512l-4.937-5.8a3.455,3.455,0,0,1,.852-5.138L25.4,63.227a7.829,7.829,0,0,1,3.673-.654l5.573-.009A10.233,10.233,0,0,1,39.6,63.811l6,3.243a3.437,3.437,0,0,1,.965,5.139l-4.834,5.684a2.931,2.931,0,0,1-3.443.7l.03,10.3,11.238-8.247c-1.919-1.311-3.647-3.19-2.189-5.578a5.51,5.51,0,0,1,2.557-2.107ZM25.575,73.46a23.022,23.022,0,0,0,.019-4.187,12.4,12.4,0,0,0-2.56,1.261Zm15.312-3a16.715,16.715,0,0,0-2.554-1.185,23.792,23.792,0,0,0,.036,4.214,34.065,34.065,0,0,0,2.518-3.029m-26.909,4.95a3.457,3.457,0,0,1-2.064,2.456c-1.295.722-2.33-.423-3.3-.405-1.054.02-2.146,1.157-3.544.348a3.374,3.374,0,0,1-1.879-2.482,1.864,1.864,0,0,0-1.167,1.557,1.889,1.889,0,0,0,.916,1.55c4.431,3.1,12.664.977,12.207-1.681a1.63,1.63,0,0,0-1.171-1.342m46.738-.081a3.419,3.419,0,0,1-2.254,2.52c-1.2.611-2.183-.554-3.126-.468-1.115.1-2.117,1.057-3.449.363a3.53,3.53,0,0,1-1.949-2.424,1.611,1.611,0,0,0-1.161,1.435c-.246,2.333,6.863,4.7,12.047,1.716a1.9,1.9,0,0,0,1.062-1.8,1.7,1.7,0,0,0-1.171-1.346M32.637,88.239l.032-6.739a.573.573,0,0,0-.38-.582c-.12-.023-.5-.008-.5.241l-.019,7.187c.11.269.867.33.87-.106m7.8,8.11a2.119,2.119,0,0,0,.121-2.814,5.338,5.338,0,0,0-2.34-1.714l-.129,3.446a2.78,2.78,0,0,1-5.533-.358L32.5,90.632c0-.212-.331-.169-.443-.178a.32.32,0,0,0-.361.32l-.056,4.267a2.945,2.945,0,0,1-3.063,2.716,3.007,3.007,0,0,1-2.792-2.845c-.067-1.061.06-2.006-.072-3.08a5.287,5.287,0,0,0-2.247,1.58,2.126,2.126,0,0,0-.035,2.862c3.266,3.922,13.592,3.982,17.011.076" transform="translate(0 -39.28)" fill="#fff"/>
        <path id="Trazado_1001712" data-name="Trazado 1001712" d="M141.194,66.606a4.889,4.889,0,1,1-4.889-4.889,4.889,4.889,0,0,1,4.889,4.889" transform="translate(-104.338 -49)" fill="#fff"/>
        <path id="Trazado_1001713" data-name="Trazado 1001713" d="M256.313,4.334A4.333,4.333,0,1,1,251.979,0a4.334,4.334,0,0,1,4.334,4.334" transform="translate(-196.618)" fill="#fff"/>
        <path id="Trazado_1001714" data-name="Trazado 1001714" d="M29.387,4.461A4.317,4.317,0,1,1,25.069.144a4.317,4.317,0,0,1,4.317,4.317" transform="translate(-16.476 -0.114)" fill="#fff"/>
      </g>
    </g>
  </g>
</svg>
