<svg xmlns="http://www.w3.org/2000/svg" xmlns:xlink="http://www.w3.org/1999/xlink" width="84" height="84" viewBox="0 0 84 84">
  <defs>
    <clipPath id="clip-path">
      <rect id="Rectángulo_456429" data-name="Rectángulo 456429" width="62.108" height="57.542" fill="#12263f"/>
    </clipPath>
  </defs>
  <g id="Grupo_1191876" data-name="Grupo 1191876" transform="translate(-710 -1680.92)">
    <g id="Grupo_1119665" data-name="Grupo 1119665" transform="translate(710 1680.92)">
      <rect id="Rectángulo_402006" data-name="Rectángulo 402006" width="84" height="84" rx="5" fill="#fe93c4"/>
    </g>
    <g id="Grupo_1192205" data-name="Grupo 1192205" transform="translate(720.946 1694.149)">
      <g id="Grupo_1192204" data-name="Grupo 1192204" clip-path="url(#clip-path)">
        <path id="Trazado_1001376" data-name="Trazado 1001376" d="M31.2,121.3a16.482,16.482,0,0,0,6.122,2.828c-4.36,5.138-11.368,6.428-17.708,6.3C11.255,130.261,2.888,126.987.675,118.2c-2.631-10.448,2.7-20.188,11.278-25.968a5.653,5.653,0,0,0,2.247.4l13.592-.032c.449,0,.806-.293,1.279-.351a27.16,27.16,0,0,1,4.61,3.817,15.849,15.849,0,0,0-4.828,3.832A14.406,14.406,0,1,0,31.2,121.3" transform="translate(0 -73.717)" fill="#12263f"/>
        <path id="Trazado_1001377" data-name="Trazado 1001377" d="M161.933,126.175A13.036,13.036,0,1,1,148.9,113.139a13.036,13.036,0,0,1,13.036,13.036m-3.443,0a9.591,9.591,0,1,0-9.591,9.591,9.591,9.591,0,0,0,9.591-9.591" transform="translate(-108.593 -90.431)" fill="#12263f"/>
        <path id="Trazado_1001378" data-name="Trazado 1001378" d="M67.022,10.749l-15.151.015c-1.6-1.537-4.424-6.439-2.554-8.379,1.326-1.376,3.9.345,5.158,1.3a1.03,1.03,0,0,0,.9.115c.563-.145.58-1.5,1.991-2.919a2.881,2.881,0,0,1,4.15.005C62.914,2.3,62.923,3.655,63.5,3.8a1.035,1.035,0,0,0,.895-.125c1.243-.94,3.672-2.575,5.046-1.391,2.048,1.765-.74,6.8-2.424,8.463" transform="translate(-38.925 0)" fill="#12263f"/>
        <path id="Trazado_1001379" data-name="Trazado 1001379" d="M73.83,148.588a15.292,15.292,0,0,0,1.3,11.625,8.492,8.492,0,1,1-1.3-11.625m-4.054,11.748a3.123,3.123,0,0,0,1.927-3.677,3.316,3.316,0,0,0-3.443-2.5,1.345,1.345,0,0,1-1.458-1.3,1.322,1.322,0,0,1,1.463-1.36c1.982-.041.888,2.153,2.314,2.246a.927.927,0,0,0,.978-.848,3.28,3.28,0,0,0-2.173-3.159,4.767,4.767,0,0,0-.261-1.259.972.972,0,0,0-1.284-.275c-.434.2-.422.872-.423,1.416a3.394,3.394,0,0,0-2.487,3.577,3.252,3.252,0,0,0,3.323,2.84c.86.017,1.6.429,1.647,1.246a1.352,1.352,0,0,1-1.282,1.453c-2.073.245-1.1-2.159-2.5-2.273a.934.934,0,0,0-.968.784,3.226,3.226,0,0,0,2.03,3.174c.42.192-.061,1.772,1.179,1.742,1.35-.033.509-1.5,1.416-1.826" transform="translate(-47.844 -117.186)" fill="#12263f"/>
        <path id="Trazado_1001380" data-name="Trazado 1001380" d="M58.465,130.7a10.377,10.377,0,1,0,1.649,15.213,7.246,7.246,0,0,1,1.42,1.62A12.525,12.525,0,1,1,59.5,128.809a17.264,17.264,0,0,1-1.032,1.89" transform="translate(-31.808 -101.137)" fill="#12263f"/>
        <path id="Trazado_1001381" data-name="Trazado 1001381" d="M72.974,62.791a2.227,2.227,0,0,1,2.36,2.38,2.313,2.313,0,0,1-2.5,2.066l-13.152-.011a2.256,2.256,0,0,1-2.338-2.047,2.2,2.2,0,0,1,2.28-2.377Z" transform="translate(-45.832 -50.188)" fill="#12263f"/>
        <rect id="Rectángulo_456428" data-name="Rectángulo 456428" width="4.666" height="9.386" transform="matrix(0.707, -0.707, 0.707, 0.707, 49.111, 47.858)" fill="#12263f"/>
        <path id="Trazado_1001382" data-name="Trazado 1001382" d="M285.988,266.558a6.279,6.279,0,0,1-1.4-1.358l3.2-3.212c1.432.963,2.38,2.508,1.357,3.962a2.293,2.293,0,0,1-3.16.608" transform="translate(-227.469 -209.403)" fill="#12263f"/>
        <path id="Trazado_1001383" data-name="Trazado 1001383" d="M169.92,158.627a1.566,1.566,0,0,1,.087-2.2,1.529,1.529,0,0,1,2.127.024l2.306,2.492,4.947-5.69a1.554,1.554,0,0,1,2.293,2.1l-5.915,6.92a1.605,1.605,0,0,1-2.489.1Z" transform="translate(-135.486 -122.092)" fill="#12263f"/>
      </g>
    </g>
  </g>
</svg>
