<svg xmlns="http://www.w3.org/2000/svg" xmlns:xlink="http://www.w3.org/1999/xlink" width="96" height="96" viewBox="0 0 96 96">
  <defs>
    <clipPath id="clip-path">
      <rect id="Rectángulo_454800" data-name="Rectángulo 454800" width="95.999" height="95.612" fill="none"/>
    </clipPath>
    <linearGradient id="linear-gradient" x1="0.5" y1="-0.646" x2="0.5" y2="1.118" gradientUnits="objectBoundingBox">
      <stop offset="0" stop-color="#67ccf1"/>
      <stop offset="0.625" stop-color="#004b84"/>
      <stop offset="1" stop-color="#002d4f"/>
    </linearGradient>
    <clipPath id="clip-path-2">
      <rect id="Rectángulo_456494" data-name="Rectángulo 456494" width="43.856" height="44.894" fill="#fff"/>
    </clipPath>
  </defs>
  <g id="Grupo_1192022" data-name="Grupo 1192022" transform="translate(-1136.727 -7764.48)">
    <path id="Trazado_997475" data-name="Trazado 997475" d="M47.979,0A47.786,47.786,0,1,1,0,47.786,47.883,47.883,0,0,1,47.979,0Z" transform="translate(1136.768 7764.48)" fill="#fff"/>
    <g id="Grupo_1177602" data-name="Grupo 1177602" transform="translate(1136.727 7764.868)">
      <g id="Grupo_1177525" data-name="Grupo 1177525">
        <g id="Grupo_1177524" data-name="Grupo 1177524" clip-path="url(#clip-path)">
          <path id="Trazado_997408" data-name="Trazado 997408" d="M48,95.612A47.807,47.807,0,1,1,96,47.806,47.957,47.957,0,0,1,48,95.612M48,1.247A46.559,46.559,0,1,0,94.747,47.806,46.705,46.705,0,0,0,48,1.247" fill="#002d4f"/>
          <path id="Trazado_997409" data-name="Trazado 997409" d="M46.631,87.5a41.038,41.038,0,1,1,41.2-41.038A41.167,41.167,0,0,1,46.631,87.5m0-80.828a39.791,39.791,0,1,0,39.95,39.79,39.915,39.915,0,0,0-39.95-39.79" transform="translate(1.369 1.341)" fill="#002d4f"/>
          <path id="Trazado_997410" data-name="Trazado 997410" d="M45.262,79.392A34.269,34.269,0,1,1,79.669,45.124,34.377,34.377,0,0,1,45.262,79.392m0-67.29A33.022,33.022,0,1,0,78.417,45.124,33.127,33.127,0,0,0,45.262,12.1" transform="translate(2.737 2.683)" fill="#fff"/>
          <path id="Trazado_997411" data-name="Trazado 997411" d="M43.893,71.281a27.5,27.5,0,1,1,27.61-27.5,27.587,27.587,0,0,1-27.61,27.5m0-53.751A26.252,26.252,0,1,0,70.252,43.782,26.336,26.336,0,0,0,43.893,17.53" transform="translate(4.106 4.024)" fill="#fff"/>
          <path id="Trazado_997412" data-name="Trazado 997412" d="M42.525,63.171a20.73,20.73,0,1,1,20.814-20.73,20.8,20.8,0,0,1-20.814,20.73m0-40.212A19.483,19.483,0,1,0,62.086,42.441,19.544,19.544,0,0,0,42.525,22.958" transform="translate(5.475 5.365)" fill="#fff"/>
          <path id="Trazado_997413" data-name="Trazado 997413" d="M41.156,55.061A13.961,13.961,0,1,1,55.173,41.1,14,14,0,0,1,41.156,55.061m0-26.675A12.714,12.714,0,1,0,53.92,41.1,12.753,12.753,0,0,0,41.156,28.386" transform="translate(6.844 6.707)" fill="#fff"/>
          <path id="Trazado_997414" data-name="Trazado 997414" d="M39.787,46.949a7.192,7.192,0,1,1,7.221-7.191,7.215,7.215,0,0,1-7.221,7.191m0-13.136a5.944,5.944,0,1,0,5.969,5.945,5.965,5.965,0,0,0-5.969-5.945" transform="translate(8.212 8.048)" fill="#fff"/>
        </g>
      </g>
      <g id="Elipse_13614" data-name="Elipse 13614" transform="translate(7.859 7.858)" stroke="#002d4f" stroke-width="1" fill="url(#linear-gradient)">
        <ellipse cx="40.141" cy="39.948" rx="40.141" ry="39.948" stroke="none"/>
        <ellipse cx="40.141" cy="39.948" rx="39.641" ry="39.448" fill="none"/>
      </g>
    </g>
    <g id="Grupo_1192266" data-name="Grupo 1192266" transform="translate(1162.269 7789.733)">
      <g id="Grupo_1192265" data-name="Grupo 1192265" clip-path="url(#clip-path-2)">
        <path id="Trazado_1001552" data-name="Trazado 1001552" d="M97.768,44.894H64.913L64.9,4.9A6.54,6.54,0,0,0,62.739.013L92.976,0a4.784,4.784,0,0,1,4.8,4.754ZM85.934,19.762c-.041-1.257.451-3.128-.944-3.134l-2.936-.011-.012-9.568a2.541,2.541,0,0,0,1.431-1.407l4.976,0A2.177,2.177,0,0,1,89,6.395l-1.891,5.282c-.109.16-.45.087-.588.218l-.008,1.429a1.484,1.484,0,0,0,1.41,1.52l4.514.018a1.548,1.548,0,0,0,1.636-1.557,9.027,9.027,0,0,0-.03-1.431c-.164-.077-.443-.06-.558-.174l-1.91-5.375a1.9,1.9,0,1,0-3.05-2.136l-5.068-.025a2.3,2.3,0,0,0-2.2-1.5A2.358,2.358,0,0,0,79.19,4.179l-5.084-.02a1.9,1.9,0,0,0-2.879-.749,1.919,1.919,0,0,0-.142,2.909L69.177,11.7c-.163.126-.46.084-.592.222-.009.523-.028,1,.008,1.507a1.539,1.539,0,0,0,1.619,1.432l4.514-.016c1.512-.005,1.548-1.835,1.427-2.924-.155-.146-.5-.1-.613-.283L73.672,6.4a1.674,1.674,0,0,1,.544-.753l4.947.028a3.207,3.207,0,0,0,1.463,1.41l-.02,9.528-3.082.039c-1.227.016-.734,2.215-.792,3.118Zm6.642,3.783a.732.732,0,0,0,.684-.858.712.712,0,0,0-.723-.6H70.114a.713.713,0,0,0-.723.728.754.754,0,0,0,.733.733ZM81.244,25.2l-11.163.009a.708.708,0,0,0-.685.813.726.726,0,0,0,.71.62h11.21a.7.7,0,0,0,.72-.742.712.712,0,0,0-.791-.7M80.3,33.254a8.076,8.076,0,0,0-2.287-1.178l-3.591-1.3a9.194,9.194,0,0,1-3.727-2.6,11.38,11.38,0,0,0,9.083,13.881c-.732-3.248-1.438-5.858.522-8.8m.794,7.813a14.851,14.851,0,0,1,4.354-4.9.742.742,0,0,1,1.018.066.686.686,0,0,1-.058,1,12.625,12.625,0,0,0-4.185,4.921,11.362,11.362,0,0,0,9.739-13.983c-2.557,2.971-5.5,2.893-8.689,4.516-3.3,1.743-3.165,5.069-2.178,8.38" transform="translate(-53.918 -0.001)" fill="#fff"/>
        <path id="Trazado_1001553" data-name="Trazado 1001553" d="M9.54,11.106,0,11.117.016,4.631A4.7,4.7,0,0,1,4.829.05,4.784,4.784,0,0,1,9.535,4.774Z" transform="translate(0 -0.043)" fill="#fff"/>
        <path id="Trazado_1001554" data-name="Trazado 1001554" d="M122.737,55.148a26.179,26.179,0,0,1-3.32.039l1.678-4.682Z" transform="translate(-102.627 -43.404)" fill="#fff"/>
        <path id="Trazado_1001555" data-name="Trazado 1001555" d="M250.289,55.486A15.22,15.22,0,0,1,247,55.6l1.652-4.627Z" transform="translate(-212.27 -43.807)" fill="#fff"/>
      </g>
    </g>
  </g>
</svg>
