<svg xmlns="http://www.w3.org/2000/svg" xmlns:xlink="http://www.w3.org/1999/xlink" width="128" height="128" viewBox="0 0 128 128">
  <defs>
    <clipPath id="clip-path">
      <rect id="Rectángulo_454800" data-name="Rectángulo 454800" width="127.998" height="127.488" fill="none"/>
    </clipPath>
    <linearGradient id="linear-gradient" x1="0.5" y1="-0.646" x2="0.5" y2="1.118" gradientUnits="objectBoundingBox">
      <stop offset="0" stop-color="#67ccf1"/>
      <stop offset="0.625" stop-color="#004b84"/>
      <stop offset="1" stop-color="#002d4f"/>
    </linearGradient>
    <clipPath id="clip-path-2">
      <rect id="Rectángulo_456537" data-name="Rectángulo 456537" width="67.329" height="60.93" fill="#fff"/>
    </clipPath>
  </defs>
  <g id="Grupo_1192095" data-name="Grupo 1192095" transform="translate(-1136.727 -7764.48)">
    <path id="Trazado_997475" data-name="Trazado 997475" d="M63.973,0A63.718,63.718,0,1,1,0,63.717,63.845,63.845,0,0,1,63.973,0Z" transform="translate(1136.781 7764.48)" fill="#fff"/>
    <g id="Grupo_1177602" data-name="Grupo 1177602" transform="translate(1136.727 7764.993)">
      <g id="Grupo_1177525" data-name="Grupo 1177525">
        <g id="Grupo_1177524" data-name="Grupo 1177524" clip-path="url(#clip-path)">
          <path id="Trazado_997408" data-name="Trazado 997408" d="M64,127.488a63.744,63.744,0,1,1,64-63.744,63.944,63.944,0,0,1-64,63.744M64,1.663a62.081,62.081,0,1,0,62.33,62.081A62.275,62.275,0,0,0,64,1.663" fill="#002d4f"/>
          <path id="Trazado_997409" data-name="Trazado 997409" d="M60.365,114.865A54.719,54.719,0,1,1,115.3,60.146a54.891,54.891,0,0,1-54.937,54.719m0-107.774a53.056,53.056,0,1,0,53.267,53.055A53.222,53.222,0,0,0,60.365,7.091" transform="translate(3.634 3.598)" fill="#002d4f"/>
          <path id="Trazado_997410" data-name="Trazado 997410" d="M56.731,102.241a45.693,45.693,0,1,1,45.876-45.693,45.837,45.837,0,0,1-45.876,45.693m0-89.723a44.031,44.031,0,1,0,44.207,44.03,44.17,44.17,0,0,0-44.207-44.03" transform="translate(7.268 7.196)" fill="#fff"/>
          <path id="Trazado_997411" data-name="Trazado 997411" d="M53.1,89.617A36.667,36.667,0,1,1,89.911,52.95,36.783,36.783,0,0,1,53.1,89.617m0-71.671a35,35,0,1,0,35.144,35,35.115,35.115,0,0,0-35.144-35" transform="translate(10.902 10.794)" fill="#fff"/>
          <path id="Trazado_997412" data-name="Trazado 997412" d="M49.462,76.992A27.641,27.641,0,1,1,77.214,49.352,27.728,27.728,0,0,1,49.462,76.992m0-53.618A25.978,25.978,0,1,0,75.544,49.352,26.059,26.059,0,0,0,49.462,23.374" transform="translate(14.537 14.392)" fill="#fff"/>
          <path id="Trazado_997413" data-name="Trazado 997413" d="M45.828,64.37A18.615,18.615,0,1,1,64.517,45.753,18.673,18.673,0,0,1,45.828,64.37m0-35.568a16.953,16.953,0,1,0,17.02,16.952A17,17,0,0,0,45.828,28.8" transform="translate(18.171 17.99)" fill="#fff"/>
          <path id="Trazado_997414" data-name="Trazado 997414" d="M42.194,51.744a9.589,9.589,0,1,1,9.628-9.588,9.62,9.62,0,0,1-9.628,9.588m0-17.515a7.926,7.926,0,1,0,7.959,7.927,7.953,7.953,0,0,0-7.959-7.927" transform="translate(21.805 21.588)" fill="#fff"/>
        </g>
      </g>
      <g id="Elipse_13614" data-name="Elipse 13614" transform="translate(10.388 10.387)" stroke="#002d4f" stroke-width="1" fill="url(#linear-gradient)">
        <ellipse cx="53.612" cy="53.356" rx="53.612" ry="53.356" stroke="none"/>
        <ellipse cx="53.612" cy="53.356" rx="53.112" ry="52.856" fill="none"/>
      </g>
    </g>
    <g id="Grupo_1192324" data-name="Grupo 1192324" transform="translate(1167.089 7795.182)">
      <g id="Grupo_1192323" data-name="Grupo 1192323" clip-path="url(#clip-path-2)">
        <path id="Trazado_1001717" data-name="Trazado 1001717" d="M161.317,29.914a1.079,1.079,0,0,1-1.142-1.168L160.17,1.23A1.117,1.117,0,0,1,161.344,0,28.823,28.823,0,0,1,190.1,28.832a1.111,1.111,0,0,1-1.154,1.085Z" transform="translate(-126.46 0)" fill="#fff"/>
        <path id="Trazado_1001718" data-name="Trazado 1001718" d="M199.454,176.593a1.126,1.126,0,0,1-1.718.106l-19.53-19.527a1.08,1.08,0,0,1,.734-1.9l27.752,0a1.02,1.02,0,0,1,1.039.97,28.748,28.748,0,0,1-8.277,20.345" transform="translate(-140.402 -122.594)" fill="#fff"/>
        <path id="Trazado_1001719" data-name="Trazado 1001719" d="M63.47,64.768a28.848,28.848,0,0,1-29.58,6.819,4.338,4.338,0,0,0-.445-5.745,4.2,4.2,0,0,0,0-6.142,4.217,4.217,0,0,0,.913-4.9A4.535,4.535,0,0,0,29.9,52.4,11.859,11.859,0,0,0,32.887,36.4c-3.406-5.268-10.13-6.986-16.037-3.812A28.7,28.7,0,0,1,42.964,15.435a1.156,1.156,0,0,1,1.318,1.15l.005,27.263L63.521,63.086a1.13,1.13,0,0,1-.052,1.682" transform="translate(-13.304 -12.185)" fill="#fff"/>
        <path id="Trazado_1001720" data-name="Trazado 1001720" d="M19.3,109.252A9.652,9.652,0,1,1,9.652,99.6a9.652,9.652,0,0,1,9.652,9.652m-8.036,5.23a3.12,3.12,0,0,0,2.289-3.17c-.2-3.866-5.791-2.3-5.251-4.582a1.127,1.127,0,0,1,.986-.741c2.626-.451,1.556,2.125,3.422,1.626a1.071,1.071,0,0,0,.665-1.39c-.773-2.529-2.772-1.685-2.654-3.011a1.1,1.1,0,0,0-1.144-1.336c-1.473.087-.735,1.919-1.215,2.082a3.144,3.144,0,0,0-.3,5.939c1.484.683,3.173.554,3.286,1.424a.9.9,0,0,1-.555,1.033,2.208,2.208,0,0,1-2.965-1.24,1.123,1.123,0,0,0-1.361-.667,1.069,1.069,0,0,0-.689,1.3,4.716,4.716,0,0,0,2.656,2.785c.183.111.13.635.132.858.007.793.471,1.316,1.2,1.244,1.542-.153.35-1.827,1.5-2.156" transform="translate(0 -78.638)" fill="#fff"/>
        <path id="Trazado_1001721" data-name="Trazado 1001721" d="M17.4,234.825l-15.26.018a2.02,2.02,0,0,1-2.1-1.837,1.987,1.987,0,0,1,1.895-2.141l15.54-.032a2.062,2.062,0,0,1,1.837,2,1.941,1.941,0,0,1-1.914,1.988" transform="translate(-0.025 -182.251)" fill="#fff"/>
        <path id="Trazado_1001722" data-name="Trazado 1001722" d="M17.4,205.756l-15.248.019A2.028,2.028,0,0,1,.07,203.966a1.937,1.937,0,0,1,1.868-2.16l15.564.007a1.921,1.921,0,0,1,1.836,1.971,1.965,1.965,0,0,1-1.934,1.972" transform="translate(-0.049 -159.333)" fill="#fff"/>
        <path id="Trazado_1001723" data-name="Trazado 1001723" d="M17.187,260.276a1.985,1.985,0,1,1,.1,3.963l-15.145,0a1.987,1.987,0,1,1,0-3.967Z" transform="translate(-0.036 -205.497)" fill="#fff"/>
      </g>
    </g>
  </g>
</svg>
