<svg xmlns="http://www.w3.org/2000/svg" xmlns:xlink="http://www.w3.org/1999/xlink" width="128" height="128" viewBox="0 0 128 128">
  <defs>
    <clipPath id="clip-path">
      <rect id="Rectángulo_454800" data-name="Rectángulo 454800" width="127.998" height="127.488" fill="none"/>
    </clipPath>
    <linearGradient id="linear-gradient" x1="0.5" y1="-0.646" x2="0.5" y2="1.118" gradientUnits="objectBoundingBox">
      <stop offset="0" stop-color="#67ccf1"/>
      <stop offset="0.625" stop-color="#004b84"/>
      <stop offset="1" stop-color="#002d4f"/>
    </linearGradient>
    <clipPath id="clip-path-2">
      <rect id="Rectángulo_456471" data-name="Rectángulo 456471" width="68.924" height="57.984" fill="#fff"/>
    </clipPath>
  </defs>
  <g id="Grupo_1191950" data-name="Grupo 1191950" transform="translate(-1136.727 -7764.48)">
    <path id="Trazado_997475" data-name="Trazado 997475" d="M63.973,0A63.718,63.718,0,1,1,0,63.717,63.845,63.845,0,0,1,63.973,0Z" transform="translate(1136.781 7764.48)" fill="#fff"/>
    <g id="Grupo_1177602" data-name="Grupo 1177602" transform="translate(1136.727 7764.993)">
      <g id="Grupo_1177525" data-name="Grupo 1177525">
        <g id="Grupo_1177524" data-name="Grupo 1177524" clip-path="url(#clip-path)">
          <path id="Trazado_997408" data-name="Trazado 997408" d="M64,127.488a63.744,63.744,0,1,1,64-63.744,63.944,63.944,0,0,1-64,63.744M64,1.663a62.081,62.081,0,1,0,62.33,62.081A62.275,62.275,0,0,0,64,1.663" fill="#002d4f"/>
          <path id="Trazado_997409" data-name="Trazado 997409" d="M60.365,114.865A54.719,54.719,0,1,1,115.3,60.146a54.891,54.891,0,0,1-54.937,54.719m0-107.774a53.056,53.056,0,1,0,53.267,53.055A53.222,53.222,0,0,0,60.365,7.091" transform="translate(3.634 3.598)" fill="#002d4f"/>
          <path id="Trazado_997410" data-name="Trazado 997410" d="M56.731,102.241a45.693,45.693,0,1,1,45.876-45.693,45.837,45.837,0,0,1-45.876,45.693m0-89.723a44.031,44.031,0,1,0,44.207,44.03,44.17,44.17,0,0,0-44.207-44.03" transform="translate(7.268 7.196)" fill="#fff"/>
          <path id="Trazado_997411" data-name="Trazado 997411" d="M53.1,89.617A36.667,36.667,0,1,1,89.911,52.95,36.783,36.783,0,0,1,53.1,89.617m0-71.671a35,35,0,1,0,35.144,35,35.115,35.115,0,0,0-35.144-35" transform="translate(10.902 10.794)" fill="#fff"/>
          <path id="Trazado_997412" data-name="Trazado 997412" d="M49.462,76.992A27.641,27.641,0,1,1,77.214,49.352,27.728,27.728,0,0,1,49.462,76.992m0-53.618A25.978,25.978,0,1,0,75.544,49.352,26.059,26.059,0,0,0,49.462,23.374" transform="translate(14.537 14.392)" fill="#fff"/>
          <path id="Trazado_997413" data-name="Trazado 997413" d="M45.828,64.37A18.615,18.615,0,1,1,64.517,45.753,18.673,18.673,0,0,1,45.828,64.37m0-35.568a16.953,16.953,0,1,0,17.02,16.952A17,17,0,0,0,45.828,28.8" transform="translate(18.171 17.99)" fill="#fff"/>
          <path id="Trazado_997414" data-name="Trazado 997414" d="M42.194,51.744a9.589,9.589,0,1,1,9.628-9.588,9.62,9.62,0,0,1-9.628,9.588m0-17.515a7.926,7.926,0,1,0,7.959,7.927,7.953,7.953,0,0,0-7.959-7.927" transform="translate(21.805 21.588)" fill="#fff"/>
        </g>
      </g>
      <g id="Elipse_13614" data-name="Elipse 13614" transform="translate(10.388 10.387)" stroke="#002d4f" stroke-width="1" fill="url(#linear-gradient)">
        <ellipse cx="53.612" cy="53.356" rx="53.612" ry="53.356" stroke="none"/>
        <ellipse cx="53.612" cy="53.356" rx="53.112" ry="52.856" fill="none"/>
      </g>
    </g>
    <g id="Grupo_1192226" data-name="Grupo 1192226" transform="translate(1166.292 7799.745)">
      <g id="Grupo_1192225" data-name="Grupo 1192225" clip-path="url(#clip-path-2)">
        <path id="Trazado_1001450" data-name="Trazado 1001450" d="M116.839,169.025c-10.232,4.866-23.975,3.626-34.42.164l0-10.869a12.711,12.711,0,0,1,12.6-12.689l9.281,0a12.772,12.772,0,0,1,12.561,12.911Z" transform="translate(-64.665 -114.259)" fill="#fff"/>
        <path id="Trazado_1001451" data-name="Trazado 1001451" d="M135.65,58.53a10.1,10.1,0,1,1-10.1-10.1,10.1,10.1,0,0,1,10.1,10.1" transform="translate(-90.577 -37.996)" fill="#fff"/>
        <path id="Trazado_1001452" data-name="Trazado 1001452" d="M227.938,120.469c-4.267,2.2-9.408,2.983-14.23,3.23-.11-1.213-.056-2.238-.078-3.408a15.472,15.472,0,0,0-10.958-14.549,12.78,12.78,0,0,0,3.82-8.647l8.511,0a12.863,12.863,0,0,1,12.926,12.816Z" transform="translate(-159.014 -76.178)" fill="#fff"/>
        <path id="Trazado_1001453" data-name="Trazado 1001453" d="M199.015,19.271a12.713,12.713,0,0,0-5.843-9.3,10.089,10.089,0,1,1,5.843,9.3" transform="translate(-151.56 0)" fill="#fff"/>
        <path id="Trazado_1001454" data-name="Trazado 1001454" d="M15.33,119.879,15.3,123.6A60.935,60.935,0,0,1,0,120.658l.057-11.4C.091,102.442,6.008,97.2,12.743,97.092l9.709.027a12.8,12.8,0,0,0,3.822,8.608c-6.286,2.032-10.884,7.45-10.944,14.151" transform="translate(0 -76.177)" fill="#fff"/>
        <path id="Trazado_1001455" data-name="Trazado 1001455" d="M53.295,10.622a12.875,12.875,0,0,0-4.729,8.011,10.069,10.069,0,1,1,4.729-8.011" transform="translate(-25.945 -0.024)" fill="#fff"/>
      </g>
    </g>
  </g>
</svg>
