<svg xmlns="http://www.w3.org/2000/svg" xmlns:xlink="http://www.w3.org/1999/xlink" width="1020" height="417" viewBox="0 0 1020 417">
  <defs>
    <clipPath id="clip-path">
      <rect id="Rectángulo_456126" data-name="Rectángulo 456126" width="87.555" height="99.129" fill="#004b84"/>
    </clipPath>
    <clipPath id="clip-path-2">
      <rect id="Rectángulo_456127" data-name="Rectángulo 456127" width="84.012" height="89.858" fill="#2e5c6c"/>
    </clipPath>
    <clipPath id="clip-path-3">
      <rect id="Rectángulo_456128" data-name="Rectángulo 456128" width="86.148" height="85.968" fill="#004b84"/>
    </clipPath>
    <clipPath id="clip-path-4">
      <rect id="Rectángulo_456129" data-name="Rectángulo 456129" width="92.69" height="105.201" fill="#2e5c6c"/>
    </clipPath>
  </defs>
  <g id="Grupo_1192206" data-name="Grupo 1192206" transform="translate(-290 -4824)">
    <rect id="Rectángulo_454922" data-name="Rectángulo 454922" width="1020" height="417" rx="15" transform="translate(290 4824)" fill="#ffe9f3"/>
    <circle id="Elipse_13711" data-name="Elipse 13711" cx="89.5" cy="89.5" r="89.5" transform="translate(327.711 4847)" fill="#fff"/>
    <circle id="Elipse_13712" data-name="Elipse 13712" cx="89.5" cy="89.5" r="89.5" transform="translate(582.711 4847)" fill="#fff"/>
    <circle id="Elipse_13713" data-name="Elipse 13713" cx="89.5" cy="89.5" r="89.5" transform="translate(837.711 4847)" fill="#fff"/>
    <circle id="Elipse_13714" data-name="Elipse 13714" cx="89.5" cy="89.5" r="89.5" transform="translate(1092.711 4847)" fill="#fff"/>
    <g id="Rectángulo_456115" data-name="Rectángulo 456115" transform="translate(553.195 5082.706)" fill="#c2ebf9" stroke="#2e5c6c" stroke-width="2">
      <rect width="238.805" height="138" rx="12" stroke="none"/>
      <rect x="1" y="1" width="236.805" height="136" rx="11" fill="none"/>
    </g>
    <g id="Rectángulo_456124" data-name="Rectángulo 456124" transform="translate(1062.152 5082.706)" fill="#c2ebf9" stroke="#2e5c6c" stroke-width="2">
      <rect width="238.805" height="138" rx="12" stroke="none"/>
      <rect x="1" y="1" width="236.805" height="136" rx="11" fill="none"/>
    </g>
    <g id="Rectángulo_456120" data-name="Rectángulo 456120" transform="translate(298.109 5082.706)" fill="#ccdbe6" stroke="#004b84" stroke-width="2">
      <rect width="238.805" height="138" rx="12" stroke="none"/>
      <rect x="1" y="1" width="236.805" height="136" rx="11" fill="none"/>
    </g>
    <g id="Rectángulo_456123" data-name="Rectángulo 456123" transform="translate(807.23 5082.706)" fill="#ccdbe6" stroke="#004b84" stroke-width="2">
      <rect width="238.805" height="138" rx="12" stroke="none"/>
      <rect x="1" y="1" width="236.805" height="136" rx="11" fill="none"/>
    </g>
    <text id="Evaluar_el_nivel_de_riesgo_asociado_a_la_inversión." data-name="Evaluar el nivel de riesgo asociado a la inversión." transform="translate(567.553 5139)" fill="#12263f" font-size="16" font-family="SegoeUI, Segoe UI"><tspan x="17.982" y="17">Evaluar el nivel de riesgo </tspan><tspan x="23.693" y="39">asociado a la inversión.</tspan></text>
    <text id="Utilizar_la_tasa_de_descuento_para_calcular_el_valor_presente_neto_del_proyecto." data-name="Utilizar la tasa de descuento para calcular el valor presente neto del proyecto." transform="translate(1076.51 5139)" fill="#12263f" font-size="16" font-family="SegoeUI, Segoe UI"><tspan x="6.119" y="17">Utilizar la tasa de descuento </tspan><tspan x="32.798" y="39">para calcular el valor </tspan><tspan x="7.904" y="61">presente neto del proyecto.</tspan></text>
    <text id="Determinar_el_costo_de_la_deuda_y_el_capital_propio." data-name="Determinar el costo de la deuda y el capital propio." transform="translate(312.467 5139)" fill="#12263f" font-size="16" font-family="SegoeUI, Segoe UI"><tspan x="16.502" y="17">Determinar el costo de la </tspan><tspan x="15.822" y="39">deuda y el capital propio.</tspan></text>
    <text id="Elegir_la_tasa_de_descuento_apropiada_basada_en_el_costo_y_el_riesgo." data-name="Elegir la tasa de descuento apropiada basada en el costo y el riesgo." transform="translate(821.588 5139)" fill="#12263f" font-size="16" font-family="SegoeUI, Segoe UI"><tspan x="11.009" y="17">Elegir la tasa de descuento </tspan><tspan x="1.615" y="39">apropiada basada en el costo </tspan><tspan x="67.338" y="61">y el riesgo.</tspan></text>
    <rect id="Rectángulo_456116" data-name="Rectángulo 456116" width="238.805" height="62.165" rx="8" transform="translate(553.195 5063.206)" fill="#2e5c6c"/>
    <rect id="Rectángulo_456125" data-name="Rectángulo 456125" width="238.805" height="62.165" rx="8" transform="translate(1062.152 5063.206)" fill="#2e5c6c"/>
    <rect id="Rectángulo_456121" data-name="Rectángulo 456121" width="238.805" height="62.165" rx="8" transform="translate(298.109 5063.206)" fill="#004b84"/>
    <rect id="Rectángulo_456122" data-name="Rectángulo 456122" width="238.805" height="62.165" rx="8" transform="translate(807.23 5063.206)" fill="#004b84"/>
    <text id="Considerar_el_riesgo_de_la_inversión" data-name="Considerar el riesgo de la inversión" transform="translate(585 5071.206)" fill="#fff" font-size="16" font-family="SegoeUI-Bold, Segoe UI" font-weight="700"><tspan x="1.518" y="17">Considerar el riesgo de </tspan><tspan x="44.436" y="39">la inversión</tspan></text>
    <text id="Calcular_el_valor_presente_neto" data-name="Calcular el valor presente neto" transform="translate(1093.957 5071.206)" fill="#fff" font-size="16" font-family="SegoeUI-Bold, Segoe UI" font-weight="700"><tspan x="27.775" y="17">Calcular el valor </tspan><tspan x="35.783" y="39">presente neto</tspan></text>
    <text id="Evaluar_el_costo_del_capital" data-name="Evaluar el costo del capital" transform="translate(315.313 5081.997)" fill="#fff" font-size="16" font-family="SegoeUI-Bold, Segoe UI" font-weight="700"><tspan x="2.543" y="17">Evaluar el costo del capital</tspan></text>
    <text id="Seleccionar_la_tasa_de_descuento" data-name="Seleccionar la tasa de descuento" transform="translate(844.588 5071.497)" fill="#fff" font-size="16" font-family="SegoeUI-Bold, Segoe UI" font-weight="700"><tspan x="1.975" y="17">Seleccionar la tasa de </tspan><tspan x="43.663" y="39">descuento</tspan></text>
    <path id="Trazado_1000582" data-name="Trazado 1000582" d="M-10082.428-8880.3v33.6" transform="translate(10755.195 13909.906)" fill="none" stroke="#2e5c6c" stroke-width="3"/>
    <path id="Trazado_1000585" data-name="Trazado 1000585" d="M-10082.428-8880.3v33.6" transform="translate(11264.152 13909.906)" fill="none" stroke="#2e5c6c" stroke-width="3"/>
    <path id="Trazado_1000583" data-name="Trazado 1000583" d="M-10082.428-8880.3v33.6" transform="translate(10500.109 13909.906)" fill="none" stroke="#004b84" stroke-width="3"/>
    <path id="Trazado_1000584" data-name="Trazado 1000584" d="M-10082.428-8880.3v33.6" transform="translate(11009.229 13909.906)" fill="none" stroke="#004b84" stroke-width="3"/>
    <circle id="Elipse_13707" data-name="Elipse 13707" cx="5.5" cy="5.5" r="5.5" transform="translate(667.195 5052.905)" fill="#2e5c6c"/>
    <circle id="Elipse_13710" data-name="Elipse 13710" cx="5.5" cy="5.5" r="5.5" transform="translate(1176.152 5052.905)" fill="#2e5c6c"/>
    <circle id="Elipse_13708" data-name="Elipse 13708" cx="5.5" cy="5.5" r="5.5" transform="translate(412.109 5052.905)" fill="#004b84"/>
    <circle id="Elipse_13709" data-name="Elipse 13709" cx="5.5" cy="5.5" r="5.5" transform="translate(921.23 5052.905)" fill="#004b84"/>
    <path id="Trazado_1000575" data-name="Trazado 1000575" d="M614.7,201.151a85,85,0,0,0,0,51.9H520.111a85,85,0,0,0,0-51.9Z" transform="translate(-22.551 4709.698)" fill="#004b84"/>
    <path id="Trazado_1000576" data-name="Trazado 1000576" d="M181.927,66.849A93.455,93.455,0,1,0,185.6,92.8a92.846,92.846,0,0,0-3.675-25.952m-29.657,85.422A84.1,84.1,0,1,1,33.332,33.326,84.1,84.1,0,1,1,152.271,152.271" transform="translate(324.711 4844)" fill="#004b84"/>
    <path id="Trazado_1000577" data-name="Trazado 1000577" d="M1381.037,201.151a84.891,84.891,0,0,0,0,51.9h-94.593a84.884,84.884,0,0,0,0-51.9Z" transform="translate(-534.208 4709.698)" fill="#2e5c6c"/>
    <path id="Trazado_1000578" data-name="Trazado 1000578" d="M948.278,66.849A93.453,93.453,0,1,0,951.953,92.8a92.846,92.846,0,0,0-3.675-25.952m-29.657,85.422A84.107,84.107,0,1,1,799.677,33.326,84.107,84.107,0,1,1,918.622,152.271" transform="translate(-186.957 4844)" fill="#2e5c6c"/>
    <path id="Trazado_1000579" data-name="Trazado 1000579" d="M2143.326,227.1a84.294,84.294,0,0,0,4.058,25.946H2052.8a85.005,85.005,0,0,0,0-51.9h94.586a84.332,84.332,0,0,0-4.058,25.952" transform="translate(-1045.877 4709.698)" fill="#004b84"/>
    <path id="Trazado_1000580" data-name="Trazado 1000580" d="M1714.613,66.849a93.449,93.449,0,1,0,3.675,25.952,92.841,92.841,0,0,0-3.675-25.952m-29.651,85.422A84.107,84.107,0,1,1,1566.017,33.326a84.107,84.107,0,1,1,118.945,118.945" transform="translate(-698.615 4844)" fill="#004b84"/>
    <path id="Trazado_1000581" data-name="Trazado 1000581" d="M2391.838,0a92.8,92.8,0,1,0,92.8,92.8,92.847,92.847,0,0,0-92.8-92.8m59.469,152.271A84.1,84.1,0,1,1,2332.369,33.326a84.1,84.1,0,1,1,118.939,118.945" transform="translate(-1210.284 4844)" fill="#2e5c6c"/>
    <g id="Grupo_1191878" data-name="Grupo 1191878" transform="translate(373 4886.936)">
      <g id="Grupo_1191877" data-name="Grupo 1191877" clip-path="url(#clip-path)">
        <path id="Trazado_1000586" data-name="Trazado 1000586" d="M18.267,241.1a1.531,1.531,0,0,1-2.036-.576L.163,212.4c-.229-.7-.3-1.565.341-1.939l7.41-4.353a1.511,1.511,0,0,1,1.892.61l16.113,28.222a1.607,1.607,0,0,1-.7,2.1Z" transform="translate(0 -142.128)" fill="#004b84"/>
        <path id="Trazado_1000587" data-name="Trazado 1000587" d="M115.684,194.387a4.066,4.066,0,1,1,4.107,7.017L87.462,219.166a11.113,11.113,0,0,1-8.913.946l-7.722-2.487a14.27,14.27,0,0,0-10.96.949L49.652,200.715,61.9,193.959a16.129,16.129,0,0,1,12.889-1.37l19.623,6.356a4.06,4.06,0,0,1,2.562,4.9,3.927,3.927,0,0,1-4.961,2.823l-16.206-5.209a1.519,1.519,0,0,0-1.921.952,1.442,1.442,0,0,0,.822,1.771l15.819,5.2a7.324,7.324,0,0,0,6.5-.754c1.775-1.108,2.762-3.32,3.16-5.6Z" transform="translate(-34.257 -132.348)" fill="#004b84"/>
        <path id="Trazado_1000588" data-name="Trazado 1000588" d="M199.1,199.172a8,8,0,0,0-5.23-4.052l6.167-3.445a5.611,5.611,0,0,1,8.055,2.487Z" transform="translate(-133.757 -131.691)" fill="#004b84"/>
        <path id="Trazado_1000589" data-name="Trazado 1000589" d="M60.811,19.336l-.09,27.658c0,.64-1.857.493-2.049-.223L50.409,15.976a1.173,1.173,0,0,1,.851-1.5L105.165.021A1.242,1.242,0,0,1,106.713.9l3.629,13.769-45.07.016a4.362,4.362,0,0,0-4.461,4.651" transform="translate(-34.747 0)" fill="#004b84"/>
        <path id="Trazado_1000590" data-name="Trazado 1000590" d="M152.634,91.728H94.386V57.583h58.248Zm-10.81-5.57a5.653,5.653,0,0,1,5.282-5.342l.028-12.326a5.666,5.666,0,0,1-5.282-5.314l-36.6-.04a5.707,5.707,0,0,1-5.325,5.34l.015,12.346a5.7,5.7,0,0,1,5.311,5.345Z" transform="translate(-65.121 -39.729)" fill="#004b84"/>
        <path id="Trazado_1000591" data-name="Trazado 1000591" d="M180.934,99.068a6.086,6.086,0,1,1-6.086-6.086,6.086,6.086,0,0,1,6.086,6.086" transform="translate(-116.437 -64.153)" fill="#004b84"/>
        <path id="Trazado_1000592" data-name="Trazado 1000592" d="M137.191,104.686a3.553,3.553,0,1,1-3.553-3.553,3.553,3.553,0,0,1,3.553,3.553" transform="translate(-89.751 -69.776)" fill="#004b84"/>
        <path id="Trazado_1000593" data-name="Trazado 1000593" d="M230.889,104.686a3.554,3.554,0,1,1-3.554-3.554,3.555,3.555,0,0,1,3.554,3.554" transform="translate(-154.397 -69.776)" fill="#004b84"/>
      </g>
    </g>
    <g id="Grupo_1191880" data-name="Grupo 1191880" transform="translate(630.34 4889.051)">
      <g id="Grupo_1191879" data-name="Grupo 1191879" clip-path="url(#clip-path-2)">
        <path id="Trazado_1000594" data-name="Trazado 1000594" d="M61.977,55.6a24.137,24.137,0,1,0-39.918-.026L12.585,71.958l-3.208-3.2,2.989-6.952A35.9,35.9,0,0,1,7.038,48.965L.032,46.184,0,37.879l7-2.762a36.635,36.635,0,0,1,5.362-12.906l-2.99-6.985,5.905-5.865,6.879,3.024A35.906,35.906,0,0,1,35.044,7.056L37.829,0l8.384,0,2.752,7.041a35.678,35.678,0,0,1,12.845,5.315l6.96-2.982,5.889,5.842L71.679,22.2A36.059,36.059,0,0,1,77,35.066L84,37.819l.008,8.376L77,48.975A36.155,36.155,0,0,1,71.675,61.81l2.988,6.954-3.2,3.192Z" fill="#2e5c6c"/>
        <path id="Trazado_1000595" data-name="Trazado 1000595" d="M96.728,183.08l-47.24.013a6.263,6.263,0,0,1-5.513-9.4l23.75-41.116a6.253,6.253,0,0,1,10.609,0l23.751,41.118a6.144,6.144,0,0,1,0,6.265,6.078,6.078,0,0,1-5.357,3.121M75.473,162.8l.607-16.765c.068-1.867-1.394-2.674-3.051-2.666s-3.119.8-3.051,2.665l.608,16.768a2.444,2.444,0,0,0,4.888,0m.657,11.124a3.1,3.1,0,1,0-3.1,3.1,3.1,3.1,0,0,0,3.1-3.1" transform="translate(-31.01 -93.235)" fill="#2e5c6c"/>
      </g>
    </g>
    <g id="Grupo_1191882" data-name="Grupo 1191882" transform="translate(884.559 4890.786)">
      <g id="Grupo_1191881" data-name="Grupo 1191881" clip-path="url(#clip-path-3)">
        <path id="Trazado_1000596" data-name="Trazado 1000596" d="M30.39,105.527c2.734,3.09,1.5,7.269,1.692,11.65l-20.052.029a7.472,7.472,0,0,0-2.67-6.311l-6.671-5.323a7.067,7.067,0,0,1-2.664-6.29L2.351,67.9c.17-2.295,2.526-3.647,4.41-3.532a4.138,4.138,0,0,1,3.983,4.144L9.778,84.682a6.567,6.567,0,0,0-4.216,4.244A6.392,6.392,0,0,0,6.69,95.058L16.4,106.113A1.2,1.2,0,0,0,18,106.4a1.177,1.177,0,0,0,.208-1.767L8.609,93.75A4.253,4.253,0,0,1,14.964,88.1Z" transform="translate(0 -43.469)" fill="#004b84"/>
        <path id="Trazado_1000597" data-name="Trazado 1000597" d="M49.03,244.155l-28.322-.008a1.856,1.856,0,0,1-1.942-1.943l.016-6.179A1.843,1.843,0,0,1,20.51,234.2l28.358.01a1.782,1.782,0,0,1,1.813,1.795l-.027,6.526c0,.859-.617,1.441-1.623,1.623" transform="translate(-12.676 -158.188)" fill="#004b84"/>
        <path id="Trazado_1000598" data-name="Trazado 1000598" d="M167.95,105.855l15.7-17.768a4.3,4.3,0,0,1,5.812-.475,4.248,4.248,0,0,1,.547,6.132l-9.6,10.89a1.167,1.167,0,0,0,.207,1.755,1.217,1.217,0,0,0,1.607-.293l9.563-10.861a6.5,6.5,0,0,0,1.338-6.077,6.575,6.575,0,0,0-4.285-4.491l-.968-16.17a4.144,4.144,0,0,1,3.985-4.147c1.868-.123,4.24,1.25,4.409,3.536l2.319,31.386a6.924,6.924,0,0,1-2.5,6.147l-7,5.627a6.86,6.86,0,0,0-2.424,6.117l-20.125.017-.031-7.255a5.939,5.939,0,0,1,1.444-4.069" transform="translate(-112.463 -43.458)" fill="#004b84"/>
        <path id="Trazado_1000599" data-name="Trazado 1000599" d="M178.455,244.155l-28.345,0a1.7,1.7,0,0,1-1.745-1.619l-.029-6.526a1.782,1.782,0,0,1,1.811-1.795l28.358-.01a1.844,1.844,0,0,1,1.727,1.824l.013,6.176a1.853,1.853,0,0,1-1.792,1.952" transform="translate(-100.192 -158.188)" fill="#004b84"/>
        <path id="Trazado_1000600" data-name="Trazado 1000600" d="M85.418,46.089c-2.438.572-2.309,4.563-5.375,4.658-3.153.1-3.124-3.879-5.334-4.579-3.1-.982-4.69,2.9-7.534,1.155-2.614-1.608-.516-4.91-2.338-6.777-1.859-1.906-5.285.289-6.906-2.5-1.54-2.651,2.006-4.482,1.315-7.106-.7-2.674-4.655-2.345-4.673-5.542-.018-3.217,3.912-2.826,4.654-5.518.731-2.652-2.76-4.43-1.351-7.079,1.48-2.782,5.042-.729,6.873-2.516,1.989-1.941-.3-5.277,2.517-6.906,2.692-1.557,4.362,2,7.152,1.305C76.915,4.068,76.8.112,79.8,0c3.158-.116,3.1,3.816,5.394,4.6,2.882.988,4.666-2.834,7.4-1.236,2.809,1.642.535,5,2.531,6.918,1.82,1.747,5.124-.223,6.745,2.3,1.737,2.708-2.01,4.6-1.229,7.3.753,2.6,4.69,2.322,4.658,5.515s-3.993,2.875-4.665,5.506c-.69,2.7,2.867,4.452,1.306,7.14-1.549,2.668-4.777.731-6.71,2.323-2.146,1.768.185,5.279-2.528,6.952-2.77,1.707-4.312-1.93-7.281-1.234M94.2,25.382A14.259,14.259,0,1,0,79.936,39.642,14.259,14.259,0,0,0,94.2,25.382" transform="translate(-36.861 0)" fill="#004b84"/>
        <path id="Trazado_1000601" data-name="Trazado 1000601" d="M110.479,55.835a4.307,4.307,0,1,1-4.307-4.307,4.307,4.307,0,0,1,4.307,4.307m-3.339,0a.97.97,0,1,0-.97.97.97.97,0,0,0,.97-.97" transform="translate(-68.802 -34.804)" fill="#004b84"/>
        <path id="Trazado_1000602" data-name="Trazado 1000602" d="M145.648,82.645a4.305,4.305,0,1,1-4.305-4.305,4.305,4.305,0,0,1,4.305,4.305m-3.327.017a.981.981,0,1,0-.981.981.982.982,0,0,0,.981-.981" transform="translate(-92.56 -52.913)" fill="#004b84"/>
        <path id="Trazado_1000603" data-name="Trazado 1000603" d="M120.173,69.319a1.617,1.617,0,0,1-2.279.5,1.649,1.649,0,0,1-.5-2.184l6.873-11.877a1.627,1.627,0,0,1,2.772,1.7Z" transform="translate(-79.139 -37.17)" fill="#004b84"/>
      </g>
    </g>
    <g id="Grupo_1191884" data-name="Grupo 1191884" transform="translate(1138.964 4880.492)">
      <g id="Grupo_1191883" data-name="Grupo 1191883" clip-path="url(#clip-path-4)">
        <path id="Trazado_1000604" data-name="Trazado 1000604" d="M144.764,7.3a1.8,1.8,0,0,1-1.695,1.623A1.684,1.684,0,0,1,141.4,7.163l.009-5.5A1.621,1.621,0,0,1,143.068,0a1.642,1.642,0,0,1,1.659,1.666Z" transform="translate(-94.909 0)" fill="#2e5c6c"/>
        <path id="Trazado_1000605" data-name="Trazado 1000605" d="M211.461,27.261a1.781,1.781,0,0,1-2.387.92,1.643,1.643,0,0,1-.677-2.265l2.874-4.972a1.656,1.656,0,0,1,2.743,1.856Z" transform="translate(-139.73 -13.58)" fill="#2e5c6c"/>
        <path id="Trazado_1000606" data-name="Trazado 1000606" d="M71.977,25.8a1.649,1.649,0,0,1-.644,2.354,1.722,1.722,0,0,1-2.311-.8l-2.73-4.818a1.586,1.586,0,0,1,.615-2.092,1.649,1.649,0,0,1,2.268.536Z" transform="translate(-44.371 -13.563)" fill="#2e5c6c"/>
        <path id="Trazado_1000607" data-name="Trazado 1000607" d="M18.3,78.3a1.668,1.668,0,1,1-1.692,2.871L12,78.5a1.7,1.7,0,0,1-.77-2.276,1.724,1.724,0,0,1,2.381-.633Z" transform="translate(-7.416 -50.572)" fill="#2e5c6c"/>
        <path id="Trazado_1000608" data-name="Trazado 1000608" d="M259.53,81.179a1.654,1.654,0,0,1-2.236-.519,1.633,1.633,0,0,1,.575-2.343l4.749-2.75a1.709,1.709,0,0,1,2.27.441,1.6,1.6,0,0,1-.458,2.316Z" transform="translate(-172.507 -50.552)" fill="#2e5c6c"/>
        <path id="Trazado_1000609" data-name="Trazado 1000609" d="M78.087,116.882a3.919,3.919,0,0,1-4.452,1.814c-2.618-.886,2.236-3.869-.574-8.712a6.3,6.3,0,0,0-5.176-3.248l-7.123-.058a38.121,38.121,0,0,0-.138-9.422,19.521,19.521,0,1,0-4.28-6.785c-2.038-.772-4.082-.966-5.827.09-5.479,3.315-.967,8.922-5.107,11.892-1.629-.523-2.348-3.351-1.546-4.9l1.711-3.309a4.009,4.009,0,0,0-1.389-5.276l-2.776-1.773a4.119,4.119,0,0,1-2.023-3.38,3.906,3.906,0,0,1,1.669-3.5l3.2-2.072A4.032,4.032,0,0,0,45.529,72.9c-1.43-2.748-3.023-4.682-1.206-7.238,1.628-2.291,3.928-1.5,6.827-1.866,4.368-.555,3.533-5.142,3.837-7.7A4.042,4.042,0,0,1,60.322,52.8a21.5,21.5,0,0,1,3.23,1.653A4.058,4.058,0,0,0,69.106,53.4l2.347-3.528c1.362-2.047,4.655-1.949,6.217-.031a33.67,33.67,0,0,1,2.087,3.19,4.144,4.144,0,0,0,5.6,1.509c2.875-1.549,4.553-2.872,7.108-1.219a4.144,4.144,0,0,1,1.79,3.46l.128,2.961a4.1,4.1,0,0,0,3.7,4.046c3.039.344,5.345-.411,6.915,2.1a4.1,4.1,0,0,1,.122,4.16l-1.493,2.84a4.121,4.121,0,0,0,1.5,5.493l2.593,1.641a4.21,4.21,0,0,1,2.074,3.3,4.026,4.026,0,0,1-1.843,3.71l-2.82,1.785a4.117,4.117,0,0,0-1.5,5.479l1.567,3.019a4.015,4.015,0,0,1-.172,4,4.219,4.219,0,0,1-3.494,1.972l-3.477.166A3.894,3.894,0,0,0,94.5,106.75c-.424,2.828.412,5.713-2.153,7.268-2.784,1.688-4.6-.274-7.3-1.464a4.106,4.106,0,0,0-5.2,1.543Z" transform="translate(-26.433 -32.465)" fill="#2e5c6c"/>
        <path id="Trazado_1000610" data-name="Trazado 1000610" d="M69.434,221.359a3.266,3.266,0,0,1-1.209,6.265l-19.661-.032c-1.544,0-2.891-.984-4.366-1.487l-.035-23.022a58.884,58.884,0,0,1,5.982-5.665c6.3-5.393,2.155-10.805,5.205-12.5a2.657,2.657,0,0,1,3.118.567c3.187,3.391,2.918,11.685,1.038,15.968l10.238-.005c1.9,0,3.562.722,3.973,2.536s-.614,3.437-2.723,4.154a3.528,3.528,0,0,1,2.118,3.069,3.483,3.483,0,0,1-2.512,3.346c1.325.973,2.228,2.031,2.085,3.546-.149,1.578-1.209,2.534-3.251,3.258" transform="translate(-29.641 -123.927)" fill="#2e5c6c"/>
        <path id="Trazado_1000611" data-name="Trazado 1000611" d="M129.656,122.7a16.115,16.115,0,1,1-16.115-16.115A16.115,16.115,0,0,1,129.656,122.7m-14.381,9.7c.04-.1,6-1.918,4.776-6.775-.79-3.13-3.791-4.567-6.857-4.64-1.479-.036-3.244-1.081-2.92-2.662.3-1.483,2.036-2.053,3.271-2.052,4.176,0,2.8,4.033,5.4,3.371a1.709,1.709,0,0,0,1.152-2.226c-.617-2.29-2.48-3.544-4.63-4.317-.385-.259-.22-1.3-.222-1.712a1.722,1.722,0,0,0-1.918-1.876c-2.019.268-1.168,2.66-1.6,3.479.009-.017-6.624,2.319-4.508,7.491,1.065,2.6,3.722,3.864,6.53,3.928,1.443.034,3.27.977,3.034,2.558-.231,1.549-1.972,2.127-3.231,2.132-4.464.017-2.657-4.079-5.522-3.328a1.709,1.709,0,0,0-1.076,2.192c.585,2.276,2.446,3.553,4.577,4.31.666.237-.406,3.8,2.011,3.645,2.176-.142,1.43-2.731,1.736-3.518" transform="translate(-65.391 -71.539)" fill="#2e5c6c"/>
        <path id="Trazado_1000612" data-name="Trazado 1000612" d="M9.319,260.843l-7.035-.006A2.2,2.2,0,0,1,0,258.525L0,233.9A2.138,2.138,0,0,1,2.279,231.9l6.6-.005A2.158,2.158,0,0,1,11.2,234.2l-.005,24.326a2.213,2.213,0,0,1-1.872,2.315" transform="translate(0 -155.642)" fill="#2e5c6c"/>
      </g>
    </g>
  </g>
</svg>
