<svg xmlns="http://www.w3.org/2000/svg" xmlns:xlink="http://www.w3.org/1999/xlink" width="128" height="128" viewBox="0 0 128 128">
  <defs>
    <clipPath id="clip-path">
      <rect id="Rectángulo_454800" data-name="Rectángulo 454800" width="127.998" height="127.488" fill="none"/>
    </clipPath>
    <linearGradient id="linear-gradient" x1="0.5" y1="-0.646" x2="0.5" y2="1.118" gradientUnits="objectBoundingBox">
      <stop offset="0" stop-color="#67ccf1"/>
      <stop offset="0.625" stop-color="#004b84"/>
      <stop offset="1" stop-color="#002d4f"/>
    </linearGradient>
    <clipPath id="clip-path-2">
      <rect id="Rectángulo_456521" data-name="Rectángulo 456521" width="67.65" height="73.187" fill="#fff"/>
    </clipPath>
  </defs>
  <g id="Grupo_1192094" data-name="Grupo 1192094" transform="translate(-1136.727 -7764.48)">
    <path id="Trazado_997475" data-name="Trazado 997475" d="M63.973,0A63.718,63.718,0,1,1,0,63.717,63.845,63.845,0,0,1,63.973,0Z" transform="translate(1136.781 7764.48)" fill="#fff"/>
    <g id="Grupo_1177602" data-name="Grupo 1177602" transform="translate(1136.727 7764.993)">
      <g id="Grupo_1177525" data-name="Grupo 1177525">
        <g id="Grupo_1177524" data-name="Grupo 1177524" clip-path="url(#clip-path)">
          <path id="Trazado_997408" data-name="Trazado 997408" d="M64,127.488a63.744,63.744,0,1,1,64-63.744,63.944,63.944,0,0,1-64,63.744M64,1.663a62.081,62.081,0,1,0,62.33,62.081A62.275,62.275,0,0,0,64,1.663" fill="#002d4f"/>
          <path id="Trazado_997409" data-name="Trazado 997409" d="M60.365,114.865A54.719,54.719,0,1,1,115.3,60.146a54.891,54.891,0,0,1-54.937,54.719m0-107.774a53.056,53.056,0,1,0,53.267,53.055A53.222,53.222,0,0,0,60.365,7.091" transform="translate(3.634 3.598)" fill="#002d4f"/>
          <path id="Trazado_997410" data-name="Trazado 997410" d="M56.731,102.241a45.693,45.693,0,1,1,45.876-45.693,45.837,45.837,0,0,1-45.876,45.693m0-89.723a44.031,44.031,0,1,0,44.207,44.03,44.17,44.17,0,0,0-44.207-44.03" transform="translate(7.268 7.196)" fill="#fff"/>
          <path id="Trazado_997411" data-name="Trazado 997411" d="M53.1,89.617A36.667,36.667,0,1,1,89.911,52.95,36.783,36.783,0,0,1,53.1,89.617m0-71.671a35,35,0,1,0,35.144,35,35.115,35.115,0,0,0-35.144-35" transform="translate(10.902 10.794)" fill="#fff"/>
          <path id="Trazado_997412" data-name="Trazado 997412" d="M49.462,76.992A27.641,27.641,0,1,1,77.214,49.352,27.728,27.728,0,0,1,49.462,76.992m0-53.618A25.978,25.978,0,1,0,75.544,49.352,26.059,26.059,0,0,0,49.462,23.374" transform="translate(14.537 14.392)" fill="#fff"/>
          <path id="Trazado_997413" data-name="Trazado 997413" d="M45.828,64.37A18.615,18.615,0,1,1,64.517,45.753,18.673,18.673,0,0,1,45.828,64.37m0-35.568a16.953,16.953,0,1,0,17.02,16.952A17,17,0,0,0,45.828,28.8" transform="translate(18.171 17.99)" fill="#fff"/>
          <path id="Trazado_997414" data-name="Trazado 997414" d="M42.194,51.744a9.589,9.589,0,1,1,9.628-9.588,9.62,9.62,0,0,1-9.628,9.588m0-17.515a7.926,7.926,0,1,0,7.959,7.927,7.953,7.953,0,0,0-7.959-7.927" transform="translate(21.805 21.588)" fill="#fff"/>
        </g>
      </g>
      <g id="Elipse_13614" data-name="Elipse 13614" transform="translate(10.388 10.387)" stroke="#002d4f" stroke-width="1" fill="url(#linear-gradient)">
        <ellipse cx="53.612" cy="53.356" rx="53.612" ry="53.356" stroke="none"/>
        <ellipse cx="53.612" cy="53.356" rx="53.112" ry="52.856" fill="none"/>
      </g>
    </g>
    <g id="Grupo_1192307" data-name="Grupo 1192307" transform="translate(1166.9 7791.604)">
      <g id="Grupo_1192306" data-name="Grupo 1192306" clip-path="url(#clip-path-2)">
        <path id="Trazado_1001669" data-name="Trazado 1001669" d="M50.453,16.924a62.9,62.9,0,0,1-5.51-3.593c-.542-.408-.125-1.347.251-1.548.552-.3,1.034.141,2.011.283A25.108,25.108,0,0,0,2.181,29.346a1.029,1.029,0,0,1-.928,1.137,1,1,0,0,1-1.14-.877A27.248,27.248,0,0,1,49.965,12.182c.38-1.114-.347-3.526,1.361-3.338.678.075.944.631.908,1.336l-.292,5.852c-.029.572-.733,1.347-1.491.892" transform="translate(0 0)" fill="#fff"/>
        <path id="Trazado_1001670" data-name="Trazado 1001670" d="M43.61,167.816a1.114,1.114,0,0,1,1.386.362c.215.4.273,1.228-.291,1.468a27.152,27.152,0,0,1-33.186-10c-.454,1.182.219,3.351-1.38,3.318a1.088,1.088,0,0,1-.978-1.108l.323-6.04a1.083,1.083,0,0,1,.343-.811c.246-.149.817-.377,1.163-.156l5.173,3.308a1.128,1.128,0,0,1,.49,1.314,1.044,1.044,0,0,1-1.451.583c-.4-.145-.615-.526-1.213-.543a25.081,25.081,0,0,0,29.62,8.3" transform="translate(-6.943 -117.298)" fill="#fff"/>
        <path id="Trazado_1001671" data-name="Trazado 1001671" d="M56.526,72.592l-5.438.029a1.1,1.1,0,0,1-1.134-1.212l0-2.476A23.6,23.6,0,0,1,45.8,67.205c-.962.449-2.245,3.024-3.463,1.806l-3.721-3.723c-1.328-1.328,1.227-2.484,1.744-3.545a19.343,19.343,0,0,1-1.68-4.053c-1.178-.357-3.741.639-3.735-1.29l.014-5.294c0-1.65,2.634-.763,3.712-1.076a17.608,17.608,0,0,1,1.706-4.119c-.569-.973-2.125-1.729-2.12-2.7a1.473,1.473,0,0,1,.558-1.052l3.527-3.495c1.235-1.224,2.432,1.3,3.466,1.816a17.374,17.374,0,0,1,4.02-1.666c.486-.932-.505-3.718,1.042-3.721l5.555-.012c1.722,0,.725,2.687,1.165,3.724A23.837,23.837,0,0,1,61.7,40.448c.964-.624,2.21-2.962,3.354-1.821l3.834,3.825c1.216,1.212-1.486,2.564-1.83,3.484a18.767,18.767,0,0,1,1.746,4.183,16.355,16.355,0,1,1,12.58,29.63c-.7,5.665,1.483,3.068,1.47,5.965L82.807,97.3a2.5,2.5,0,0,1-2.644,2.471l-4.866,0A2.538,2.538,0,0,1,72.688,97.3l-.047-11.609c0-1.222.946-1.735,1.472-2.518.415-1,.027-2.305.084-3.374A16.471,16.471,0,0,1,61.761,67.175a22.167,22.167,0,0,1-4.226,1.694l-.106,2.8a.94.94,0,0,1-.9.924m4-18.764a6.816,6.816,0,1,0-6.816,6.816,6.816,6.816,0,0,0,6.816-6.816M79.2,82.974l0-3.842a1.18,1.18,0,0,1,.938-1.262,14.223,14.223,0,1,0-4.753,0,1.039,1.039,0,0,1,.952,1.039l.046,4.116a6.917,6.917,0,0,0,2.822-.046" transform="translate(-26.483 -26.589)" fill="#fff"/>
        <path id="Trazado_1001672" data-name="Trazado 1001672" d="M185.217,114.521a12.546,12.546,0,1,1-12.546-12.546,12.546,12.546,0,0,1,12.546,12.546m-2.117,0a10.428,10.428,0,1,0-10.428,10.428A10.429,10.429,0,0,0,183.1,114.523" transform="translate(-121.365 -77.291)" fill="#fff"/>
        <path id="Trazado_1001673" data-name="Trazado 1001673" d="M191.143,139.678a13.141,13.141,0,0,1-18.721.384,1.326,1.326,0,0,1-.5-1.006,1.312,1.312,0,0,1,.527-1,13.229,13.229,0,0,1,18.508.186c.274.273.637.966.19,1.436m-13.941.951a11.98,11.98,0,0,1,.02-3.179,7.689,7.689,0,0,0-2.666,1.622,5.76,5.76,0,0,0,2.645,1.558m11.41-1.637a7.29,7.29,0,0,0-2.7-1.545,8.706,8.706,0,0,1,.119,3.245,5.373,5.373,0,0,0,2.579-1.7" transform="translate(-130.304 -101.848)" fill="#fff"/>
      </g>
    </g>
  </g>
</svg>
