<svg xmlns="http://www.w3.org/2000/svg" xmlns:xlink="http://www.w3.org/1999/xlink" width="128" height="128" viewBox="0 0 128 128">
  <defs>
    <clipPath id="clip-path">
      <rect id="Rectángulo_454800" data-name="Rectángulo 454800" width="127.998" height="127.488" fill="none"/>
    </clipPath>
    <linearGradient id="linear-gradient" x1="0.5" y1="-0.646" x2="0.5" y2="1.118" gradientUnits="objectBoundingBox">
      <stop offset="0" stop-color="#67ccf1"/>
      <stop offset="0.625" stop-color="#004b84"/>
      <stop offset="1" stop-color="#002d4f"/>
    </linearGradient>
    <clipPath id="clip-path-2">
      <rect id="Rectángulo_456472" data-name="Rectángulo 456472" width="59.204" height="59.237" fill="#fff"/>
    </clipPath>
  </defs>
  <g id="Grupo_1191949" data-name="Grupo 1191949" transform="translate(-1136.727 -7764.48)">
    <path id="Trazado_997475" data-name="Trazado 997475" d="M63.973,0A63.718,63.718,0,1,1,0,63.717,63.845,63.845,0,0,1,63.973,0Z" transform="translate(1136.781 7764.48)" fill="#fff"/>
    <g id="Grupo_1177602" data-name="Grupo 1177602" transform="translate(1136.727 7764.993)">
      <g id="Grupo_1177525" data-name="Grupo 1177525">
        <g id="Grupo_1177524" data-name="Grupo 1177524" clip-path="url(#clip-path)">
          <path id="Trazado_997408" data-name="Trazado 997408" d="M64,127.488a63.744,63.744,0,1,1,64-63.744,63.944,63.944,0,0,1-64,63.744M64,1.663a62.081,62.081,0,1,0,62.33,62.081A62.275,62.275,0,0,0,64,1.663" fill="#002d4f"/>
          <path id="Trazado_997409" data-name="Trazado 997409" d="M60.365,114.865A54.719,54.719,0,1,1,115.3,60.146a54.891,54.891,0,0,1-54.937,54.719m0-107.774a53.056,53.056,0,1,0,53.267,53.055A53.222,53.222,0,0,0,60.365,7.091" transform="translate(3.634 3.598)" fill="#002d4f"/>
          <path id="Trazado_997410" data-name="Trazado 997410" d="M56.731,102.241a45.693,45.693,0,1,1,45.876-45.693,45.837,45.837,0,0,1-45.876,45.693m0-89.723a44.031,44.031,0,1,0,44.207,44.03,44.17,44.17,0,0,0-44.207-44.03" transform="translate(7.268 7.196)" fill="#fff"/>
          <path id="Trazado_997411" data-name="Trazado 997411" d="M53.1,89.617A36.667,36.667,0,1,1,89.911,52.95,36.783,36.783,0,0,1,53.1,89.617m0-71.671a35,35,0,1,0,35.144,35,35.115,35.115,0,0,0-35.144-35" transform="translate(10.902 10.794)" fill="#fff"/>
          <path id="Trazado_997412" data-name="Trazado 997412" d="M49.462,76.992A27.641,27.641,0,1,1,77.214,49.352,27.728,27.728,0,0,1,49.462,76.992m0-53.618A25.978,25.978,0,1,0,75.544,49.352,26.059,26.059,0,0,0,49.462,23.374" transform="translate(14.537 14.392)" fill="#fff"/>
          <path id="Trazado_997413" data-name="Trazado 997413" d="M45.828,64.37A18.615,18.615,0,1,1,64.517,45.753,18.673,18.673,0,0,1,45.828,64.37m0-35.568a16.953,16.953,0,1,0,17.02,16.952A17,17,0,0,0,45.828,28.8" transform="translate(18.171 17.99)" fill="#fff"/>
          <path id="Trazado_997414" data-name="Trazado 997414" d="M42.194,51.744a9.589,9.589,0,1,1,9.628-9.588,9.62,9.62,0,0,1-9.628,9.588m0-17.515a7.926,7.926,0,1,0,7.959,7.927,7.953,7.953,0,0,0-7.959-7.927" transform="translate(21.805 21.588)" fill="#fff"/>
        </g>
      </g>
      <g id="Elipse_13614" data-name="Elipse 13614" transform="translate(10.388 10.387)" stroke="#002d4f" stroke-width="1" fill="url(#linear-gradient)">
        <ellipse cx="53.612" cy="53.356" rx="53.612" ry="53.356" stroke="none"/>
        <ellipse cx="53.612" cy="53.356" rx="53.112" ry="52.856" fill="none"/>
      </g>
    </g>
    <g id="Grupo_1192228" data-name="Grupo 1192228" transform="translate(1171.124 7798.579)">
      <g id="Grupo_1192227" data-name="Grupo 1192227" clip-path="url(#clip-path-2)">
        <path id="Trazado_1001456" data-name="Trazado 1001456" d="M132.777,224.794l-10.475.044a2.178,2.178,0,0,1-2.307-2.136V212.12a2.081,2.081,0,0,1,2.1-2.1h10.59a2.087,2.087,0,0,1,2.1,2.1v10.588a2.056,2.056,0,0,1-2.006,2.088" transform="translate(-94.615 -165.601)" fill="#fff"/>
        <path id="Trazado_1001457" data-name="Trazado 1001457" d="M132.75,129.031l-10.471.018a2.2,2.2,0,0,1-2.316-2.349,6.48,6.48,0,0,1,6.419-6.2,5.33,5.33,0,0,1-4.273-5.742,5.278,5.278,0,0,1,10.483-.184,5.336,5.336,0,0,1-4.241,5.928,6.443,6.443,0,0,1,6.4,6.41,2.122,2.122,0,0,1-2,2.12" transform="translate(-94.588 -86.732)" fill="#fff"/>
        <path id="Trazado_1001458" data-name="Trazado 1001458" d="M222.75,139.005l-10.47.045a2.2,2.2,0,0,1-2.316-2.349,6.48,6.48,0,0,1,6.419-6.2,5.33,5.33,0,0,1-4.273-5.742,5.278,5.278,0,0,1,10.483-.184,5.335,5.335,0,0,1-4.241,5.927,6.443,6.443,0,0,1,6.4,6.417,2.048,2.048,0,0,1-2,2.088" transform="translate(-165.553 -94.618)" fill="#fff"/>
        <path id="Trazado_1001459" data-name="Trazado 1001459" d="M222.779,232.678l-10.475.044A2.177,2.177,0,0,1,210,230.588v-8.472a2.079,2.079,0,0,1,2.1-2.1h10.589a2.086,2.086,0,0,1,2.1,2.094v8.479a2.055,2.055,0,0,1-2.005,2.084" transform="translate(-165.581 -173.485)" fill="#fff"/>
        <path id="Trazado_1001460" data-name="Trazado 1001460" d="M42.75,159.031l-10.471.018a2.2,2.2,0,0,1-2.316-2.349,6.48,6.48,0,0,1,6.419-6.2,5.331,5.331,0,0,1-4.273-5.743,5.278,5.278,0,0,1,10.483-.184,5.336,5.336,0,0,1-4.241,5.928,6.442,6.442,0,0,1,6.4,6.41,2.121,2.121,0,0,1-2,2.12" transform="translate(-23.623 -110.387)" fill="#fff"/>
        <path id="Trazado_1001461" data-name="Trazado 1001461" d="M42.781,248.448l-10.472.044A2.172,2.172,0,0,1,30,246.361v-4.249a2.075,2.075,0,0,1,2.1-2.091H42.688a2.08,2.08,0,0,1,2.1,2.089v4.261a2.05,2.05,0,0,1-2.005,2.077" transform="translate(-23.656 -189.254)" fill="#fff"/>
        <path id="Trazado_1001462" data-name="Trazado 1001462" d="M165.458,41.447l-4.965,4.879a8.954,8.954,0,0,0-4.325-1.619l7.855-7.872a2.116,2.116,0,0,1,2.909.073l2.748,2.682,5.523-5.507a2.323,2.323,0,0,1-1.25-2.507,2.18,2.18,0,0,1,2.256-1.638h3.828a2.15,2.15,0,0,1,2.3,2.114v4.242a2.094,2.094,0,0,1-1.634,2.044,2.237,2.237,0,0,1-2.47-1.242L171.06,44.2a2.084,2.084,0,0,1-2.906-.081Z" transform="translate(-123.138 -23.606)" fill="#fff"/>
        <path id="Trazado_1001463" data-name="Trazado 1001463" d="M27.995,22.893a7.623,7.623,0,0,0-2.36,7.767c-1.459-1.248-2.567-2.54-3.863-3.769-.711-.674-.555-1.5-.513-2.39.012-.578-.848-.957-1.265-1.461a12.707,12.707,0,1,1,3.07-3.1c1.871,2.513,1.462.617,3.3,1.473a7.341,7.341,0,0,1,1.63,1.476M23.25,12.682a10.57,10.57,0,1,0-10.57,10.57,10.57,10.57,0,0,0,10.57-10.57" transform="translate(0 0)" fill="#fff"/>
        <path id="Trazado_1001464" data-name="Trazado 1001464" d="M36.884,28.433a8.457,8.457,0,1,1-8.457-8.457,8.457,8.457,0,0,1,8.457,8.457" transform="translate(-15.746 -15.751)" fill="#fff"/>
      </g>
    </g>
  </g>
</svg>
