<svg xmlns="http://www.w3.org/2000/svg" xmlns:xlink="http://www.w3.org/1999/xlink" width="84" height="84" viewBox="0 0 84 84">
  <defs>
    <clipPath id="clip-path">
      <rect id="Rectángulo_456483" data-name="Rectángulo 456483" width="52.797" height="53" fill="#12263f"/>
    </clipPath>
  </defs>
  <g id="Grupo_1191987" data-name="Grupo 1191987" transform="translate(-179.668 -5521)">
    <rect id="Rectángulo_402006" data-name="Rectángulo 402006" width="84" height="84" rx="5" transform="translate(179.668 5521)" fill="#fe93c4"/>
    <g id="Grupo_1192244" data-name="Grupo 1192244" transform="translate(195.269 5536.5)">
      <g id="Grupo_1192243" data-name="Grupo 1192243" clip-path="url(#clip-path)">
        <path id="Trazado_1001501" data-name="Trazado 1001501" d="M86.31,66.695a5.653,5.653,0,1,1-5.653-5.653,5.653,5.653,0,0,1,5.653,5.653m-5.618,1.921,2.463-2.455a.954.954,0,0,0-.038-1.452c-1.084-.855-2.1,1.252-3.043,1.785-.435-.073-1.042-1.262-1.924-.5a.956.956,0,0,0-.107,1.275c.623.75,1.817,2.179,2.649,1.349" transform="translate(-60.859 -49.529)" fill="#12263f"/>
        <path id="Trazado_1001502" data-name="Trazado 1001502" d="M37.874,29.3,28.3,38.879a2.829,2.829,0,0,0-3.207,4.56L35.419,53.816,2.85,53.823A2.812,2.812,0,0,1,0,50.969L0,4.806A3.666,3.666,0,0,1,3.592,1.051L27.34,1.014l.008,6.608A5.609,5.609,0,0,0,33,13.271l6.609.008L39.6,25.368A2.854,2.854,0,0,0,37.874,29.3M27.337,17.987A7.537,7.537,0,1,0,19.8,25.524a7.537,7.537,0,0,0,7.537-7.537M15.927,32.132a.932.932,0,0,0,1.012-1.027.906.906,0,0,0-.918-.85l-9.419,0a.914.914,0,0,0-.92,1.014.982.982,0,0,0,1.105.868Zm6.589,6.6a.936.936,0,0,0,1.023-1.029.9.9,0,0,0-.924-.85l-16.006,0a.91.91,0,0,0-.925,1.014.983.983,0,0,0,1.113.87Zm0,6.6a.936.936,0,0,0,1.023-1.029.9.9,0,0,0-.924-.85l-16.006,0a.91.91,0,0,0-.925,1.014.983.983,0,0,0,1.113.87Z" transform="translate(0 -0.823)" fill="#12263f"/>
        <path id="Trazado_1001503" data-name="Trazado 1001503" d="M180.231,186.307l-6.06-6.991-1.323,1.212-7.983-7.954,6.667-6.668,7.935,7.93-1.191,1.369,7.039,6.115a3.574,3.574,0,1,1-5.085,4.987" transform="translate(-133.772 -134.616)" fill="#12263f"/>
        <path id="Trazado_1001504" data-name="Trazado 1001504" d="M165.419,10.4a45.519,45.519,0,0,1-6.785.15,3.725,3.725,0,0,1-3.743-3.744A56.98,56.98,0,0,1,155.018,0Z" transform="translate(-125.645)" fill="#12263f"/>
        <path id="Trazado_1001505" data-name="Trazado 1001505" d="M216.852,149.916l-1.359,1.253-7.913-7.914,1.136-1.352c.244-.291-1.217-.75-.682-1.845.146-.3.92-.7,1.293-.333l9.425,9.375a.981.981,0,0,1,.23,1.245.961.961,0,0,1-1.257.319c-.321-.15-.479-.474-.872-.748" transform="translate(-168.43 -113.253)" fill="#12263f"/>
        <path id="Trazado_1001506" data-name="Trazado 1001506" d="M148.41,220l-9.551-9.542a.976.976,0,0,1,.164-1.309c1-.766,1.685.826,1.95.6l1.349-1.133,7.89,7.876L149,217.872l.737.894a.914.914,0,0,1-.121,1.084c-.2.222-.8.558-1.2.152" transform="translate(-112.516 -169.276)" fill="#12263f"/>
      </g>
    </g>
  </g>
</svg>
