<svg xmlns="http://www.w3.org/2000/svg" xmlns:xlink="http://www.w3.org/1999/xlink" width="133" height="133" viewBox="0 0 133 133">
  <defs>
    <clipPath id="clip-path">
      <rect id="Rectángulo_454800" data-name="Rectángulo 454800" width="132.998" height="132.488" fill="none"/>
    </clipPath>
    <linearGradient id="linear-gradient" x1="0.5" y1="-0.646" x2="0.5" y2="1.118" gradientUnits="objectBoundingBox">
      <stop offset="0" stop-color="#67ccf1"/>
      <stop offset="0.625" stop-color="#004b84"/>
      <stop offset="1" stop-color="#002d4f"/>
    </linearGradient>
    <clipPath id="clip-path-2">
      <rect id="Rectángulo_456485" data-name="Rectángulo 456485" width="58.36" height="64.912" fill="#fff"/>
    </clipPath>
  </defs>
  <g id="Grupo_1192011" data-name="Grupo 1192011" transform="translate(-1136.727 -7764.48)">
    <path id="Trazado_997475" data-name="Trazado 997475" d="M66.473,0A66.218,66.218,0,1,1,0,66.217,66.345,66.345,0,0,1,66.473,0Z" transform="translate(1136.781 7764.48)" fill="#fff"/>
    <g id="Grupo_1177602" data-name="Grupo 1177602" transform="translate(1136.727 7764.993)">
      <g id="Grupo_1177525" data-name="Grupo 1177525">
        <g id="Grupo_1177524" data-name="Grupo 1177524" clip-path="url(#clip-path)">
          <path id="Trazado_997408" data-name="Trazado 997408" d="M66.5,132.488A66.244,66.244,0,1,1,133,66.244a66.447,66.447,0,0,1-66.5,66.244m0-130.76a64.516,64.516,0,1,0,64.765,64.516A64.713,64.713,0,0,0,66.5,1.728" fill="#002d4f"/>
          <path id="Trazado_997409" data-name="Trazado 997409" d="M62.511,119.157a56.865,56.865,0,1,1,57.083-56.865,57.039,57.039,0,0,1-57.083,56.865m0-112a55.137,55.137,0,1,0,55.348,55.136A55.3,55.3,0,0,0,62.511,7.156" transform="translate(3.988 3.952)" fill="#002d4f"/>
          <path id="Trazado_997410" data-name="Trazado 997410" d="M58.523,105.825A47.486,47.486,0,1,1,106.191,58.34a47.631,47.631,0,0,1-47.668,47.485m0-93.242A45.757,45.757,0,1,0,104.457,58.34,45.9,45.9,0,0,0,58.523,12.583" transform="translate(7.976 7.904)" fill="#fff"/>
          <path id="Trazado_997411" data-name="Trazado 997411" d="M54.535,92.493a38.105,38.105,0,1,1,38.252-38.1,38.223,38.223,0,0,1-38.252,38.1m0-74.482A36.377,36.377,0,1,0,91.052,54.388,36.49,36.49,0,0,0,54.535,18.011" transform="translate(11.964 11.856)" fill="#fff"/>
          <path id="Trazado_997412" data-name="Trazado 997412" d="M50.546,79.16A28.725,28.725,0,1,1,79.382,50.436,28.814,28.814,0,0,1,50.546,79.16m0-55.721a27,27,0,1,0,27.1,27,27.079,27.079,0,0,0-27.1-27" transform="translate(15.953 15.808)" fill="#fff"/>
          <path id="Trazado_997413" data-name="Trazado 997413" d="M46.558,65.83A19.346,19.346,0,1,1,65.977,46.484,19.4,19.4,0,0,1,46.558,65.83m0-36.963A17.617,17.617,0,1,0,64.242,46.484,17.67,17.67,0,0,0,46.558,28.867" transform="translate(19.941 19.76)" fill="#fff"/>
          <path id="Trazado_997414" data-name="Trazado 997414" d="M42.57,52.5a9.965,9.965,0,1,1,10-9.964,10,10,0,0,1-10,9.964m0-18.2a8.237,8.237,0,1,0,8.27,8.238,8.264,8.264,0,0,0-8.27-8.238" transform="translate(23.929 23.712)" fill="#fff"/>
        </g>
      </g>
      <g id="Elipse_13614" data-name="Elipse 13614" transform="translate(10.388 10.387)" stroke="#002d4f" stroke-width="1" fill="url(#linear-gradient)">
        <ellipse cx="56.112" cy="55.856" rx="56.112" ry="55.856" stroke="none"/>
        <ellipse cx="56.112" cy="55.856" rx="55.612" ry="55.356" fill="none"/>
      </g>
    </g>
    <g id="Grupo_1192248" data-name="Grupo 1192248" transform="translate(1178.797 7798.78)">
      <g id="Grupo_1192247" data-name="Grupo 1192247" clip-path="url(#clip-path-2)">
        <path id="Trazado_1001512" data-name="Trazado 1001512" d="M107.267,154.73l-5.391.049-1.373-3.342A17.592,17.592,0,0,1,95.59,149.4L92.3,150.77l-3.8-3.756,1.36-3.283a19.018,19.018,0,0,1-2.049-4.979l-3.294-1.323-.007-5.385,3.279-1.3a18.932,18.932,0,0,1,2.082-5.021L88.5,122.482l3.7-3.766,3.349,1.323a16.712,16.712,0,0,1,4.933-2.009l1.381-3.339,5.381.025,1.325,3.3a17.813,17.813,0,0,1,4.952,2.036l3.31-1.368,3.727,3.706-1.339,3.369a17.246,17.246,0,0,1,2.011,4.941l3.278,1.332.064,5.308-3.3,1.379a21.278,21.278,0,0,1-2.07,5l1.35,3.254-3.756,3.762-3.26-1.339a19.283,19.283,0,0,1-5,2.04Zm6.752-20.009a9.482,9.482,0,1,0-9.482,9.482,9.482,9.482,0,0,0,9.482-9.482" transform="translate(-66.221 -89.867)" fill="#fff"/>
        <path id="Trazado_1001513" data-name="Trazado 1001513" d="M154.044,195.723l-3.1-3.1a1.39,1.39,0,1,1,2.076-1.848l2.01,2.02,4.787-4.729a1.3,1.3,0,0,1,1.806.082,1.368,1.368,0,0,1,0,1.967l-5.494,5.564a1.441,1.441,0,0,1-2.09.049" transform="translate(-117.984 -147.097)" fill="#fff"/>
        <path id="Trazado_1001514" data-name="Trazado 1001514" d="M20.254,31.049c.139.532-.432.785-.767,1.038.457,1.007,2.75,4.4.833,4.386l-1.962-.01a1.082,1.082,0,0,0-1.182,1.07,1.137,1.137,0,0,0,1.184,1.115c.492.034,1.049-.169,1.49.156.089.282-.37.541-.618.637L16.1,40.657v8.377c1.064.706,2.669.671,3.572,1.618a18.8,18.8,0,0,1,1.42,3.266c-.077,1.248-1.149,2.378-1.392,3.652l1.755,2.152L1.3,59.746A1.3,1.3,0,0,1,0,58.381V1.318A1.23,1.23,0,0,1,1.151,0L36.463,0l.063,7.284a2.66,2.66,0,0,0,2.8,2.338l6.772.039-.03,17.294a7.346,7.346,0,0,1-2.04-.68l-1.531-3.657-8.3.047-.7,1-15.12.029a1.109,1.109,0,0,0-1.2,1.065,1.09,1.09,0,0,0,1.176,1.1c2.446.074,4.712-.139,7.281.118-.95.863-1.681,2.192-2.832,2.7-1.76.77-5.626-.746-5.624,1.285a1.08,1.08,0,0,0,1.182,1.087ZM40.933,13.112a1.034,1.034,0,0,0,.962-1.294,1.061,1.061,0,0,0-1.068-.868l-22.444,0a1.1,1.1,0,0,0-1.2,1.066,1.069,1.069,0,0,0,.991,1.107Zm-29.972,4.9a1.075,1.075,0,0,0,1.058-1.142l0-4.552A1,1,0,0,0,11,11.261l-4.771,0a1.008,1.008,0,0,0-.995,1.057L5.225,16.87A1.087,1.087,0,0,0,6.284,18Zm29.678.28c.793,0,1.306-.367,1.281-1.1a1.093,1.093,0,0,0-1.094-1.072l-22.629.01a1.067,1.067,0,0,0-1.01,1.225,1.088,1.088,0,0,0,1.188.935ZM10.785,30.8a1.155,1.155,0,0,0,1.232-1.163l0-4.558a1.093,1.093,0,0,0-1.074-1.11H6.3A1.092,1.092,0,0,0,5.23,25.08v4.553A1.144,1.144,0,0,0,6.458,30.8Zm.255,12.733a1.113,1.113,0,0,0,.976-1.127l0-4.558a1.087,1.087,0,0,0-1.078-1.114H6.3a1.088,1.088,0,0,0-1.073,1.114l0,4.558a1.142,1.142,0,0,0,1.429,1.12Z" fill="#fff"/>
        <path id="Trazado_1001515" data-name="Trazado 1001515" d="M185.617,7.932c-2.28.456-4.505.1-7.01.188a59.123,59.123,0,0,1-.046-7.229Z" transform="translate(-139.845 -0.698)" fill="#fff"/>
        <path id="Trazado_1001516" data-name="Trazado 1001516" d="M125.261,119.568c-3.7,1.923-3.364,2.132-7.166-.069a37.386,37.386,0,0,1,7.166.069" transform="translate(-92.534 -93.525)" fill="#fff"/>
      </g>
    </g>
  </g>
</svg>
