<svg xmlns="http://www.w3.org/2000/svg" xmlns:xlink="http://www.w3.org/1999/xlink" width="128" height="128" viewBox="0 0 128 128">
  <defs>
    <clipPath id="clip-path">
      <rect id="Rectángulo_454800" data-name="Rectángulo 454800" width="127.998" height="127.488" fill="none"/>
    </clipPath>
    <linearGradient id="linear-gradient" x1="0.5" y1="-0.646" x2="0.5" y2="1.118" gradientUnits="objectBoundingBox">
      <stop offset="0" stop-color="#67ccf1"/>
      <stop offset="0.625" stop-color="#004b84"/>
      <stop offset="1" stop-color="#002d4f"/>
    </linearGradient>
    <clipPath id="clip-path-2">
      <rect id="Rectángulo_456538" data-name="Rectángulo 456538" width="60.608" height="60.639" fill="#fff"/>
    </clipPath>
  </defs>
  <g id="Grupo_1192093" data-name="Grupo 1192093" transform="translate(-1136.727 -7764.48)">
    <path id="Trazado_997475" data-name="Trazado 997475" d="M63.973,0A63.718,63.718,0,1,1,0,63.717,63.845,63.845,0,0,1,63.973,0Z" transform="translate(1136.781 7764.48)" fill="#fff"/>
    <g id="Grupo_1177602" data-name="Grupo 1177602" transform="translate(1136.727 7764.993)">
      <g id="Grupo_1177525" data-name="Grupo 1177525">
        <g id="Grupo_1177524" data-name="Grupo 1177524" clip-path="url(#clip-path)">
          <path id="Trazado_997408" data-name="Trazado 997408" d="M64,127.488a63.744,63.744,0,1,1,64-63.744,63.944,63.944,0,0,1-64,63.744M64,1.663a62.081,62.081,0,1,0,62.33,62.081A62.275,62.275,0,0,0,64,1.663" fill="#002d4f"/>
          <path id="Trazado_997409" data-name="Trazado 997409" d="M60.365,114.865A54.719,54.719,0,1,1,115.3,60.146a54.891,54.891,0,0,1-54.937,54.719m0-107.774a53.056,53.056,0,1,0,53.267,53.055A53.222,53.222,0,0,0,60.365,7.091" transform="translate(3.634 3.598)" fill="#002d4f"/>
          <path id="Trazado_997410" data-name="Trazado 997410" d="M56.731,102.241a45.693,45.693,0,1,1,45.876-45.693,45.837,45.837,0,0,1-45.876,45.693m0-89.723a44.031,44.031,0,1,0,44.207,44.03,44.17,44.17,0,0,0-44.207-44.03" transform="translate(7.268 7.196)" fill="#fff"/>
          <path id="Trazado_997411" data-name="Trazado 997411" d="M53.1,89.617A36.667,36.667,0,1,1,89.911,52.95,36.783,36.783,0,0,1,53.1,89.617m0-71.671a35,35,0,1,0,35.144,35,35.115,35.115,0,0,0-35.144-35" transform="translate(10.902 10.794)" fill="#fff"/>
          <path id="Trazado_997412" data-name="Trazado 997412" d="M49.462,76.992A27.641,27.641,0,1,1,77.214,49.352,27.728,27.728,0,0,1,49.462,76.992m0-53.618A25.978,25.978,0,1,0,75.544,49.352,26.059,26.059,0,0,0,49.462,23.374" transform="translate(14.537 14.392)" fill="#fff"/>
          <path id="Trazado_997413" data-name="Trazado 997413" d="M45.828,64.37A18.615,18.615,0,1,1,64.517,45.753,18.673,18.673,0,0,1,45.828,64.37m0-35.568a16.953,16.953,0,1,0,17.02,16.952A17,17,0,0,0,45.828,28.8" transform="translate(18.171 17.99)" fill="#fff"/>
          <path id="Trazado_997414" data-name="Trazado 997414" d="M42.194,51.744a9.589,9.589,0,1,1,9.628-9.588,9.62,9.62,0,0,1-9.628,9.588m0-17.515a7.926,7.926,0,1,0,7.959,7.927,7.953,7.953,0,0,0-7.959-7.927" transform="translate(21.805 21.588)" fill="#fff"/>
        </g>
      </g>
      <g id="Elipse_13614" data-name="Elipse 13614" transform="translate(10.388 10.387)" stroke="#002d4f" stroke-width="1" fill="url(#linear-gradient)">
        <ellipse cx="53.612" cy="53.356" rx="53.612" ry="53.356" stroke="none"/>
        <ellipse cx="53.612" cy="53.356" rx="53.112" ry="52.856" fill="none"/>
      </g>
    </g>
    <g id="Grupo_1192326" data-name="Grupo 1192326" transform="translate(1178.227 7797.878)">
      <g id="Grupo_1192325" data-name="Grupo 1192325" clip-path="url(#clip-path-2)">
        <path id="Trazado_1001724" data-name="Trazado 1001724" d="M24.9,43.756a7.585,7.585,0,0,0-5.1,2.175,1.843,1.843,0,0,0-.237,2.761,1.877,1.877,0,0,0,2.668-.131,3.817,3.817,0,0,1,2.527-1.229,3.169,3.169,0,0,0,2.828,3.724,11.241,11.241,0,0,0,7.384-1.886A15.281,15.281,0,0,0,45.386,44.1l.007,14.779a1.78,1.78,0,0,1-1.842,1.76l-41.63,0A1.785,1.785,0,0,1,0,58.876V1.734A1.715,1.715,0,0,1,1.715.012L28.591,0a1.8,1.8,0,0,1,1.855,1.888L30.44,13.071a1.8,1.8,0,0,0,1.776,1.89l11.357.008a1.8,1.8,0,0,1,1.835,1.9V28.23l-8.4,8.4a15.121,15.121,0,0,0-4.65,9.982,7.744,7.744,0,0,1-4.121.934A3.212,3.212,0,0,0,24.9,43.756M17.15,22.533a1.706,1.706,0,0,0,1.593-1.953,1.74,1.74,0,0,0-1.771-1.55l-7.459,0A1.753,1.753,0,0,0,7.63,20.763a1.691,1.691,0,0,0,1.652,1.78Zm18.928,4.12H9.294a1.758,1.758,0,0,0,0,3.51l26.876-.007a1.755,1.755,0,0,0-.088-3.5M28.7,37.74c1.073,0,1.485-1.117,1.451-1.834-.029-.6-.5-1.607-1.379-1.607L9.107,34.294c-1.044,0-1.578,1.2-1.473,1.932a1.763,1.763,0,0,0,1.848,1.562Z" transform="translate(0.001 0)" fill="#fff"/>
        <path id="Trazado_1001725" data-name="Trazado 1001725" d="M196.575,131.948a11.189,11.189,0,0,1-5.971,3.139,10.777,10.777,0,0,1,3.337-6.241L212.213,110.6a2.525,2.525,0,0,1,2.85,2.865Z" transform="translate(-154.488 -89.615)" fill="#fff"/>
        <path id="Trazado_1001726" data-name="Trazado 1001726" d="M189.653,15.852l-10.222.136-.01-10.371Z" transform="translate(-145.424 -4.553)" fill="#fff"/>
      </g>
    </g>
  </g>
</svg>
