<svg xmlns="http://www.w3.org/2000/svg" xmlns:xlink="http://www.w3.org/1999/xlink" width="394.5" height="1228.699" viewBox="0 0 394.5 1228.699">
  <defs>
    <clipPath id="clip-path">
      <rect id="Rectángulo_456129" data-name="Rectángulo 456129" width="69.92" height="79.357" fill="#2e5c6c"/>
    </clipPath>
    <clipPath id="clip-path-2">
      <rect id="Rectángulo_456128" data-name="Rectángulo 456128" width="64.985" height="64.849" fill="#004b84"/>
    </clipPath>
    <clipPath id="clip-path-3">
      <rect id="Rectángulo_456127" data-name="Rectángulo 456127" width="63.374" height="67.784" fill="#2e5c6c"/>
    </clipPath>
    <clipPath id="clip-path-4">
      <rect id="Rectángulo_456126" data-name="Rectángulo 456126" width="66.046" height="74.777" fill="#004b84"/>
    </clipPath>
  </defs>
  <g id="Grupo_1191890" data-name="Grupo 1191890" transform="translate(-289.711 -5288.98)">
    <rect id="Rectángulo_455285" data-name="Rectángulo 455285" width="394.5" height="1228.699" rx="15" transform="translate(289.711 5288.98)" fill="#ffe9f3"/>
    <g id="Grupo_1191889" data-name="Grupo 1191889" transform="translate(-5 1.428)">
      <g id="Grupo_1177811" data-name="Grupo 1177811" transform="translate(312.711 5962.582)">
        <circle id="Elipse_5841" data-name="Elipse 5841" cx="21.252" cy="21.252" r="21.252" transform="translate(0 0)" fill="#fe93c4"/>
        <text id="_1" data-name="1" transform="translate(16.528 28.638)" fill="#12263f" font-size="18" font-family="SegoeUI-Bold, Segoe UI" font-weight="700"><tspan x="0" y="0">1</tspan></text>
      </g>
      <g id="Grupo_1177933" data-name="Grupo 1177933" transform="translate(312.711 6098.34)">
        <circle id="Elipse_5841-2" data-name="Elipse 5841" cx="21.252" cy="21.252" r="21.252" transform="translate(0 0)" fill="#fe93c4"/>
        <text id="_2" data-name="2" transform="translate(16.528 28.638)" fill="#12263f" font-size="18" font-family="SegoeUI-Bold, Segoe UI" font-weight="700"><tspan x="0" y="0">2</tspan></text>
      </g>
      <g id="Grupo_1177934" data-name="Grupo 1177934" transform="translate(312.711 6235.1)">
        <circle id="Elipse_5841-3" data-name="Elipse 5841" cx="21.252" cy="21.252" r="21.252" transform="translate(0 0)" fill="#fe93c4"/>
        <text id="_3" data-name="3" transform="translate(16.528 28.638)" fill="#12263f" font-size="18" font-family="SegoeUI-Bold, Segoe UI" font-weight="700"><tspan x="0" y="0">3</tspan></text>
      </g>
      <g id="Grupo_1177935" data-name="Grupo 1177935" transform="translate(312.711 6369.86)">
        <circle id="Elipse_5841-4" data-name="Elipse 5841" cx="21.252" cy="21.252" r="21.252" transform="translate(0 0)" fill="#fe93c4"/>
        <text id="_4" data-name="4" transform="translate(16.528 28.638)" fill="#12263f" font-size="18" font-family="SegoeUI-Bold, Segoe UI" font-weight="700"><tspan x="0" y="0">4</tspan></text>
      </g>
      <text id="Evaluar_el_costo_del_capital_Determinar_el_costo_de_la_deuda_y_el_capital_propio." data-name="Evaluar el costo del capital

Determinar el costo de la deuda y el capital propio." transform="translate(374.045 5974.086)" fill="#12263f" font-size="16" font-family="SegoeUI-Bold, Segoe UI" font-weight="700"><tspan x="0" y="17">Evaluar el costo del capital</tspan><tspan font-family="SegoeUI, Segoe UI" font-weight="400"><tspan x="0" y="41"></tspan><tspan x="0" y="65">Determinar el costo de la deuda y el </tspan><tspan x="0" y="89">capital propio.</tspan></tspan></text>
      <text id="Considerar_el_riesgo_de_la_inversión_Evaluar_el_nivel_de_riesgo_asociado_a_la_inversión." data-name="Considerar el riesgo de la inversión

Evaluar el nivel de riesgo asociado a la inversión." transform="translate(374.045 6109.844)" fill="#12263f" font-size="16" font-family="SegoeUI-Bold, Segoe UI" font-weight="700"><tspan x="0" y="17">Considerar el riesgo de la inversión</tspan><tspan font-family="SegoeUI, Segoe UI" font-weight="400"><tspan x="0" y="41"></tspan><tspan x="0" y="65">Evaluar el nivel de riesgo asociado a la </tspan><tspan x="0" y="89">inversión.</tspan></tspan></text>
      <text id="Seleccionar_la_tasa_de_descuento_Elegir_la_tasa_de_descuento_apropiada_basada_en_el_costo_y_el_riesgo." data-name="Seleccionar la tasa de descuento

Elegir la tasa de descuento apropiada basada en el costo y el riesgo." transform="translate(374.045 6246.604)" fill="#12263f" font-size="16" font-family="SegoeUI-Bold, Segoe UI" font-weight="700"><tspan x="0" y="17">Seleccionar la tasa de descuento</tspan><tspan font-family="SegoeUI, Segoe UI" font-weight="400"><tspan x="0" y="41"></tspan><tspan x="0" y="65">Elegir la tasa de descuento apropiada </tspan><tspan x="0" y="89">basada en el costo y el riesgo.</tspan></tspan></text>
      <text id="Calcular_el_valor_presente_neto_Utilizar_la_tasa_de_descuento_para_calcular_el_valor_presente_neto_del_proyecto." data-name="Calcular el valor presente neto

Utilizar la tasa de descuento para calcular el valor presente neto del proyecto." transform="translate(374.045 6381.364)" fill="#12263f" font-size="16" font-family="SegoeUI-Bold, Segoe UI" font-weight="700"><tspan x="0" y="17">Calcular el valor presente neto</tspan><tspan font-family="SegoeUI, Segoe UI" font-weight="400"><tspan x="0" y="41"></tspan><tspan x="0" y="65">Utilizar la tasa de descuento para calcular </tspan><tspan x="0" y="89">el valor presente neto del proyecto.</tspan></tspan></text>
    </g>
    <g id="Grupo_1190376" data-name="Grupo 1190376" transform="translate(364.496 5359.479)">
      <circle id="Elipse_5841-5" data-name="Elipse 5841" cx="21.252" cy="21.252" r="21.252" transform="translate(0 0)" fill="#fe93c4"/>
      <text id="_1-2" data-name="1" transform="translate(16.528 28.638)" fill="#12263f" font-size="18" font-family="SegoeUI-Bold, Segoe UI" font-weight="700"><tspan x="0" y="0">1</tspan></text>
    </g>
    <g id="Grupo_1190414" data-name="Grupo 1190414" transform="translate(568.711 5521.855)">
      <circle id="Elipse_5841-6" data-name="Elipse 5841" cx="21.252" cy="21.252" r="21.252" transform="translate(0 0)" fill="#fe93c4"/>
      <text id="_2-2" data-name="2" transform="translate(16.528 28.638)" fill="#12263f" font-size="18" font-family="SegoeUI-Bold, Segoe UI" font-weight="700"><tspan x="0" y="0">2</tspan></text>
    </g>
    <g id="Grupo_1190415" data-name="Grupo 1190415" transform="translate(364.496 5682.752)">
      <circle id="Elipse_5841-7" data-name="Elipse 5841" cx="21.252" cy="21.252" r="21.252" transform="translate(0 0)" fill="#fe93c4"/>
      <text id="_3-2" data-name="3" transform="translate(16.528 28.638)" fill="#12263f" font-size="18" font-family="SegoeUI-Bold, Segoe UI" font-weight="700"><tspan x="0" y="0">3</tspan></text>
    </g>
    <g id="Grupo_1190418" data-name="Grupo 1190418" transform="translate(568.711 5842.752)">
      <circle id="Elipse_5841-8" data-name="Elipse 5841" cx="21.252" cy="21.252" r="21.252" transform="translate(0 0)" fill="#fe93c4"/>
      <text id="_4-2" data-name="4" transform="translate(16.528 28.638)" fill="#12263f" font-size="18" font-family="SegoeUI-Bold, Segoe UI" font-weight="700"><tspan x="0" y="0">4</tspan></text>
    </g>
    <ellipse id="Elipse_13718" data-name="Elipse 13718" cx="67.514" cy="67.514" rx="67.514" ry="67.514" transform="translate(419.509 5450.582) rotate(-90)" fill="#fff"/>
    <path id="Trazado_1000616" data-name="Trazado 1000616" d="M71.351,0a64.122,64.122,0,0,0,0,39.15H0A63.584,63.584,0,0,0,3.061,19.577,63.612,63.612,0,0,0,0,0Z" transform="translate(467.673 5829.675) rotate(-90)" fill="#004b84"/>
    <path id="Trazado_1000617" data-name="Trazado 1000617" d="M71.355,0a64.037,64.037,0,0,0,0,39.15H0A63.579,63.579,0,0,0,3.065,19.577,63.607,63.607,0,0,0,0,0Z" transform="translate(467.673 5661.416) rotate(-90)" fill="#2e5c6c"/>
    <path id="Trazado_1000618" data-name="Trazado 1000618" d="M68.29,19.577A63.585,63.585,0,0,0,71.351,39.15H0A63.581,63.581,0,0,0,3.061,19.577,63.61,63.61,0,0,0,0,0H71.351A63.614,63.614,0,0,0,68.29,19.577" transform="translate(467.673 5515.297) rotate(-90)" fill="#004b84"/>
    <path id="Trazado_1000619" data-name="Trazado 1000619" d="M70,0a70,70,0,1,0,70,70A70.038,70.038,0,0,0,70,0m44.86,114.864A63.444,63.444,0,1,1,25.143,25.139a63.444,63.444,0,1,1,89.721,89.725" transform="translate(417.246 5453.567) rotate(-90)" fill="#2e5c6c"/>
    <g id="Grupo_1191888" data-name="Grupo 1191888" transform="translate(449.492 5341.053)">
      <g id="Grupo_1191883" data-name="Grupo 1191883" clip-path="url(#clip-path)">
        <path id="Trazado_1000604" data-name="Trazado 1000604" d="M2.534,5.506A1.358,1.358,0,0,1,1.256,6.731,1.27,1.27,0,0,1,0,5.4L.006,1.256A1.223,1.223,0,0,1,1.255,0,1.239,1.239,0,0,1,2.507,1.257Z" transform="translate(35.073 0)" fill="#2e5c6c"/>
        <path id="Trazado_1000605" data-name="Trazado 1000605" d="M2.473,5.3A1.344,1.344,0,0,1,.672,6,1.239,1.239,0,0,1,.161,4.287L2.329.536A1.249,1.249,0,0,1,4.4,1.937Z" transform="translate(51.637 5.019)" fill="#2e5c6c"/>
        <path id="Trazado_1000606" data-name="Trazado 1000606" d="M4.427,4.221A1.244,1.244,0,0,1,3.942,6a1.3,1.3,0,0,1-1.743-.6L.139,1.758A1.2,1.2,0,0,1,.6.18a1.244,1.244,0,0,1,1.711.4Z" transform="translate(16.397 5.012)" fill="#2e5c6c"/>
        <path id="Trazado_1000607" data-name="Trazado 1000607" d="M5.471,2.225A1.258,1.258,0,1,1,4.195,4.391L.718,2.374A1.279,1.279,0,0,1,.137.657,1.3,1.3,0,0,1,1.933.18Z" transform="translate(2.741 18.689)" fill="#2e5c6c"/>
        <path id="Trazado_1000608" data-name="Trazado 1000608" d="M1.9,4.422A1.248,1.248,0,0,1,.209,4.031,1.231,1.231,0,0,1,.643,2.263L4.225.189A1.29,1.29,0,0,1,5.938.522a1.206,1.206,0,0,1-.345,1.747Z" transform="translate(63.75 18.681)" fill="#2e5c6c"/>
        <path id="Trazado_1000609" data-name="Trazado 1000609" d="M29.2,51.682a2.956,2.956,0,0,1-3.359,1.369c-1.975-.668,1.687-2.918-.433-6.572a4.753,4.753,0,0,0-3.9-2.45l-5.373-.044a28.756,28.756,0,0,0-.1-7.108,14.726,14.726,0,1,0-3.229-5.118,4.914,4.914,0,0,0-4.4.068c-4.133,2.5-.729,6.73-3.853,8.971C3.317,40.4,2.774,38.27,3.379,37.1L4.67,34.6a3.024,3.024,0,0,0-1.047-3.98L1.529,29.287A3.107,3.107,0,0,1,0,26.738,2.947,2.947,0,0,1,1.262,24.1l2.411-1.563A3.041,3.041,0,0,0,4.637,18.5c-1.079-2.073-2.28-3.532-.91-5.46,1.228-1.728,2.963-1.13,5.15-1.407,3.295-.418,2.665-3.879,2.894-5.808A3.049,3.049,0,0,1,15.8,3.345a16.219,16.219,0,0,1,2.436,1.247,3.061,3.061,0,0,0,4.19-.8l1.77-2.661a3.011,3.011,0,0,1,4.69-.023,25.4,25.4,0,0,1,1.575,2.407,3.126,3.126,0,0,0,4.226,1.138c2.169-1.169,3.435-2.167,5.362-.919a3.126,3.126,0,0,1,1.35,2.61l.1,2.234a3.1,3.1,0,0,0,2.789,3.052c2.292.26,4.032-.31,5.216,1.587a3.09,3.09,0,0,1,.092,3.138L48.462,18.5a3.108,3.108,0,0,0,1.131,4.144l1.956,1.238a3.176,3.176,0,0,1,1.564,2.49,3.037,3.037,0,0,1-1.39,2.8L49.6,30.516a3.105,3.105,0,0,0-1.135,4.133l1.182,2.277a3.029,3.029,0,0,1-.13,3.02,3.182,3.182,0,0,1-2.636,1.487l-2.623.125a2.938,2.938,0,0,0-2.676,2.48c-.32,2.133.311,4.309-1.624,5.483-2.1,1.274-3.472-.207-5.508-1.1a3.1,3.1,0,0,0-3.919,1.164Z" transform="translate(9.768 11.997)" fill="#2e5c6c"/>
        <path id="Trazado_1000610" data-name="Trazado 1000610" d="M19.064,27.7a2.464,2.464,0,0,1-.912,4.726L3.32,32.4c-1.165,0-2.18-.743-3.293-1.121L0,13.915A44.418,44.418,0,0,1,4.513,9.642C9.267,5.573,6.138,1.491,8.439.213a2,2,0,0,1,2.352.428c2.4,2.558,2.2,8.814.783,12.045l7.723,0c1.436,0,2.687.544,3,1.913a2.66,2.66,0,0,1-2.054,3.133,2.661,2.661,0,0,1,1.6,2.315,2.627,2.627,0,0,1-1.895,2.524,2.973,2.973,0,0,1,1.573,2.675c-.112,1.19-.912,1.911-2.452,2.458" transform="translate(10.954 45.797)" fill="#2e5c6c"/>
        <path id="Trazado_1000611" data-name="Trazado 1000611" d="M24.312,12.156A12.156,12.156,0,1,1,12.156,0,12.156,12.156,0,0,1,24.312,12.156M13.464,19.474c.03-.077,4.527-1.447,3.6-5.111-.6-2.361-2.859-3.445-5.173-3.5-1.116-.027-2.447-.816-2.2-2.008.229-1.118,1.536-1.549,2.467-1.548,3.15,0,2.111,3.042,4.072,2.543A1.289,1.289,0,0,0,17.1,8.17a4.979,4.979,0,0,0-3.493-3.256c-.29-.2-.166-.98-.167-1.291a1.3,1.3,0,0,0-1.447-1.415c-1.523.2-.881,2.006-1.208,2.624.007-.013-5,1.749-3.4,5.651a5.183,5.183,0,0,0,4.926,2.963c1.089.025,2.466.737,2.289,1.929-.174,1.169-1.487,1.6-2.437,1.609-3.368.013-2-3.077-4.165-2.511a1.29,1.29,0,0,0-.812,1.653,4.9,4.9,0,0,0,3.452,3.252c.5.179-.307,2.868,1.517,2.749,1.642-.107,1.079-2.06,1.31-2.654" transform="translate(24.165 26.437)" fill="#2e5c6c"/>
        <path id="Trazado_1000612" data-name="Trazado 1000612" d="M7.03,21.84l-5.307,0A1.658,1.658,0,0,1,0,20.091L0,1.518A1.613,1.613,0,0,1,1.719,0L6.695,0A1.628,1.628,0,0,1,8.446,1.743l0,18.35A1.669,1.669,0,0,1,7.03,21.84" transform="translate(0 57.518)" fill="#2e5c6c"/>
      </g>
    </g>
    <ellipse id="Elipse_13717" data-name="Elipse 13717" cx="67.514" cy="67.514" rx="67.514" ry="67.514" transform="translate(419.509 5610.939) rotate(-90)" fill="#fff"/>
    <path id="Trazado_1000615" data-name="Trazado 1000615" d="M137.235,50.427A70.493,70.493,0,1,0,140.007,70a70.034,70.034,0,0,0-2.772-19.577m-22.367,64.437A63.445,63.445,0,1,1,25.143,25.139a63.445,63.445,0,1,1,89.725,89.725" transform="translate(417.246 5613.685) rotate(-90)" fill="#004b84"/>
    <g id="Grupo_1191887" data-name="Grupo 1191887" transform="translate(452.472 5510.683)">
      <g id="Grupo_1191881" data-name="Grupo 1191881" clip-path="url(#clip-path-2)">
        <path id="Trazado_1000596" data-name="Trazado 1000596" d="M22.924,31.056c2.063,2.331,1.132,5.484,1.277,8.788l-15.126.022A5.636,5.636,0,0,0,7.061,35.1L2.028,31.09a5.331,5.331,0,0,1-2.01-4.745L1.773,2.67A3.136,3.136,0,0,1,5.1.005a3.121,3.121,0,0,1,3,3.126l-.728,12.2a4.954,4.954,0,0,0-3.18,3.2,4.821,4.821,0,0,0,.851,4.625L12.373,31.5a.9.9,0,0,0,1.2.218.888.888,0,0,0,.157-1.333l-7.237-8.21a3.208,3.208,0,0,1,4.794-4.265Z" transform="translate(0 15.757)" fill="#004b84"/>
        <path id="Trazado_1000597" data-name="Trazado 1000597" d="M22.829,7.508,1.465,7.5A1.4,1.4,0,0,1,0,6.037L.012,1.376A1.39,1.39,0,0,1,1.315,0L22.706.008a1.344,1.344,0,0,1,1.368,1.354l-.021,4.923c0,.648-.465,1.087-1.225,1.224" transform="translate(4.595 57.341)" fill="#004b84"/>
        <path id="Trazado_1000598" data-name="Trazado 1000598" d="M1.09,31.316l11.84-13.4a3.24,3.24,0,0,1,4.385-.358,3.2,3.2,0,0,1,.413,4.625l-7.238,8.214a.88.88,0,0,0,.156,1.324.918.918,0,0,0,1.212-.221L19.072,23.3a4.9,4.9,0,0,0,1.009-4.584,4.96,4.96,0,0,0-3.232-3.388l-.73-12.2a3.187,3.187,0,0,1,6.332-.461L24.2,26.349a5.223,5.223,0,0,1-1.884,4.637l-5.282,4.245A5.175,5.175,0,0,0,15.2,39.845L.024,39.858,0,34.385a4.48,4.48,0,0,1,1.09-3.069" transform="translate(40.766 15.753)" fill="#004b84"/>
        <path id="Trazado_1000599" data-name="Trazado 1000599" d="M22.719,7.507l-21.382,0A1.279,1.279,0,0,1,.022,6.284L0,1.361A1.344,1.344,0,0,1,1.366.007L22.758,0a1.391,1.391,0,0,1,1.3,1.376l.01,4.659a1.4,1.4,0,0,1-1.352,1.473" transform="translate(36.318 57.341)" fill="#004b84"/>
        <path id="Trazado_1000600" data-name="Trazado 1000600" d="M23.267,34.767c-1.839.431-1.742,3.442-4.054,3.514-2.378.074-2.356-2.926-4.024-3.454-2.338-.741-3.538,2.191-5.683.871-1.972-1.213-.389-3.7-1.763-5.112-1.4-1.437-3.987.218-5.209-1.886-1.162-2,1.513-3.381.992-5.36C2.995,21.322.014,21.57,0,19.158-.014,16.732,2.951,17.027,3.511,15c.552-2-2.082-3.342-1.019-5.34,1.116-2.1,3.8-.55,5.185-1.9,1.5-1.464-.225-3.981,1.9-5.209,2.03-1.174,3.29,1.506,5.4.985C16.853,3.068,16.768.085,19.028,0,21.41-.086,21.367,2.88,23.1,3.473c2.174.745,3.52-2.138,5.582-.932,2.119,1.239.4,3.773,1.909,5.219,1.373,1.318,3.865-.168,5.088,1.737,1.311,2.043-1.517,3.468-.927,5.506.568,1.964,3.538,1.752,3.513,4.16s-3.012,2.169-3.519,4.153c-.52,2.036,2.162,3.358.985,5.386s-3.6.551-5.061,1.752c-1.619,1.333.14,3.982-1.907,5.244-2.089,1.288-3.253-1.456-5.492-.931m6.621-15.62A10.756,10.756,0,1,0,19.132,29.9,10.756,10.756,0,0,0,29.888,19.147" transform="translate(13.362 0)" fill="#004b84"/>
        <path id="Trazado_1000601" data-name="Trazado 1000601" d="M6.5,3.249A3.249,3.249,0,1,1,3.249,0,3.249,3.249,0,0,1,6.5,3.249m-2.519,0a.732.732,0,1,0-.732.732.732.732,0,0,0,.732-.732" transform="translate(24.94 12.616)" fill="#004b84"/>
        <path id="Trazado_1000602" data-name="Trazado 1000602" d="M6.5,3.248A3.248,3.248,0,1,1,3.248,0,3.248,3.248,0,0,1,6.5,3.248m-2.51.013a.74.74,0,1,0-.74.74.74.74,0,0,0,.74-.74" transform="translate(33.552 19.18)" fill="#004b84"/>
        <path id="Trazado_1000603" data-name="Trazado 1000603" d="M2.267,10.778a1.22,1.22,0,0,1-1.719.377A1.244,1.244,0,0,1,.168,9.507L5.353.548A1.227,1.227,0,0,1,7.445,1.829Z" transform="translate(28.687 13.474)" fill="#004b84"/>
      </g>
    </g>
    <ellipse id="Elipse_13716" data-name="Elipse 13716" cx="67.514" cy="67.514" rx="67.514" ry="67.514" transform="translate(419.509 5771.505) rotate(-90)" fill="#fff"/>
    <path id="Trazado_1000614" data-name="Trazado 1000614" d="M137.235,50.427A70.5,70.5,0,1,0,140.008,70a70.038,70.038,0,0,0-2.772-19.577m-22.371,64.437A63.445,63.445,0,1,1,25.139,25.139a63.445,63.445,0,1,1,89.725,89.725" transform="translate(417.246 5774.007) rotate(-90)" fill="#2e5c6c"/>
    <g id="Grupo_1191886" data-name="Grupo 1191886" transform="translate(453.436 5669.998)">
      <g id="Grupo_1191879" data-name="Grupo 1191879" clip-path="url(#clip-path-3)">
        <path id="Trazado_1000594" data-name="Trazado 1000594" d="M46.752,41.944a18.207,18.207,0,1,0-30.112-.02L9.493,54.281,7.073,51.87l2.254-5.244a27.08,27.08,0,0,1-4.018-9.69l-5.285-2.1L0,28.574,5.284,26.49a27.635,27.635,0,0,1,4.045-9.735L7.073,11.486l4.454-4.424,5.189,2.281a27.085,27.085,0,0,1,9.719-4.02L28.536,0,34.86,0l2.076,5.311a26.914,26.914,0,0,1,9.689,4.01l5.25-2.25,4.442,4.407-2.247,5.271a27.2,27.2,0,0,1,4.012,9.7l5.286,2.077.006,6.318-5.29,2.1a27.273,27.273,0,0,1-4.016,9.682l2.254,5.246L53.9,54.28Z" fill="#2e5c6c"/>
        <path id="Trazado_1000595" data-name="Trazado 1000595" d="M40.441,40.315l-35.635.01A4.685,4.685,0,0,1,.728,38.1a4.657,4.657,0,0,1-.081-4.867L18.563,2.219a4.717,4.717,0,0,1,8,0L44.482,33.235a4.634,4.634,0,0,1,0,4.726,4.585,4.585,0,0,1-4.041,2.354m-16.033-15.3.458-12.647c.051-1.409-1.051-2.017-2.3-2.011s-2.353.6-2.3,2.01l.459,12.649a1.844,1.844,0,0,0,3.687,0m.5,8.391a2.34,2.34,0,1,0-2.34,2.34,2.34,2.34,0,0,0,2.34-2.34" transform="translate(9.133 27.459)" fill="#2e5c6c"/>
      </g>
    </g>
    <ellipse id="Elipse_13715" data-name="Elipse 13715" cx="67.514" cy="67.514" rx="67.514" ry="67.514" transform="translate(419.509 5931.744) rotate(-90)" fill="#fff"/>
    <path id="Trazado_1000613" data-name="Trazado 1000613" d="M137.235,50.427A70.5,70.5,0,1,0,140.007,70a70.038,70.038,0,0,0-2.772-19.577m-22.371,64.437A63.444,63.444,0,1,1,25.144,25.139a63.444,63.444,0,1,1,89.721,89.725" transform="translate(417.246 5934.007) rotate(-90)" fill="#004b84"/>
    <g id="Grupo_1191885" data-name="Grupo 1191885" transform="translate(454 5827.169)">
      <g id="Grupo_1191877" data-name="Grupo 1191877" clip-path="url(#clip-path-4)">
        <path id="Trazado_1000586" data-name="Trazado 1000586" d="M13.78,26.48a1.155,1.155,0,0,1-1.536-.434L.123,4.832C-.05,4.305-.1,3.651.38,3.369L5.97.085A1.14,1.14,0,0,1,7.4.545L19.552,21.834a1.212,1.212,0,0,1-.53,1.583Z" transform="translate(0 48.18)" fill="#004b84"/>
        <path id="Trazado_1000587" data-name="Trazado 1000587" d="M49.811,1.934a3.067,3.067,0,1,1,3.1,5.294l-24.387,13.4a8.383,8.383,0,0,1-6.723.714l-5.825-1.876a10.764,10.764,0,0,0-8.268.716L0,6.708l9.242-5.1A12.167,12.167,0,0,1,18.965.578l14.8,4.795A3.063,3.063,0,0,1,35.7,9.07,2.963,2.963,0,0,1,31.958,11.2L19.733,7.27a1.146,1.146,0,0,0-1.449.718,1.088,1.088,0,0,0,.62,1.336l11.933,3.92a5.525,5.525,0,0,0,4.9-.569,6.1,6.1,0,0,0,2.384-4.222Z" transform="translate(11.613 44.865)" fill="#004b84"/>
        <path id="Trazado_1000588" data-name="Trazado 1000588" d="M3.945,6.262A6.037,6.037,0,0,0,0,3.205L4.652.607a4.233,4.233,0,0,1,6.076,1.876Z" transform="translate(45.342 44.642)" fill="#004b84"/>
        <path id="Trazado_1000589" data-name="Trazado 1000589" d="M7.883,14.586,7.815,35.449c0,.483-1.4.372-1.546-.168L.036,12.052a.885.885,0,0,1,.642-1.129L41.341.016a.937.937,0,0,1,1.168.662l2.738,10.386-34,.012a3.29,3.29,0,0,0-3.365,3.509" transform="translate(11.779 0)" fill="#004b84"/>
        <path id="Trazado_1000590" data-name="Trazado 1000590" d="M43.939,25.757H0V0H43.939Zm-8.154-4.2a4.265,4.265,0,0,1,3.985-4.03l.021-9.3a4.274,4.274,0,0,1-3.984-4.009L8.2,4.189A4.3,4.3,0,0,1,4.179,8.217l.011,9.313A4.3,4.3,0,0,1,8.2,21.561Z" transform="translate(22.076 13.468)" fill="#004b84"/>
        <path id="Trazado_1000591" data-name="Trazado 1000591" d="M9.182,4.591A4.591,4.591,0,1,1,4.591,0,4.591,4.591,0,0,1,9.182,4.591" transform="translate(39.471 21.747)" fill="#004b84"/>
        <path id="Trazado_1000592" data-name="Trazado 1000592" d="M5.361,2.68A2.68,2.68,0,1,1,2.681,0a2.68,2.68,0,0,1,2.68,2.68" transform="translate(30.425 23.654)" fill="#004b84"/>
        <path id="Trazado_1000593" data-name="Trazado 1000593" d="M5.363,2.681A2.681,2.681,0,1,1,2.681,0,2.681,2.681,0,0,1,5.363,2.681" transform="translate(52.339 23.653)" fill="#004b84"/>
      </g>
    </g>
  </g>
</svg>
