<svg xmlns="http://www.w3.org/2000/svg" xmlns:xlink="http://www.w3.org/1999/xlink" width="128" height="128" viewBox="0 0 128 128">
  <defs>
    <clipPath id="clip-path">
      <rect id="Rectángulo_454800" data-name="Rectángulo 454800" width="127.998" height="127.488" fill="none"/>
    </clipPath>
    <linearGradient id="linear-gradient" x1="0.5" y1="-0.646" x2="0.5" y2="1.118" gradientUnits="objectBoundingBox">
      <stop offset="0" stop-color="#67ccf1"/>
      <stop offset="0.625" stop-color="#004b84"/>
      <stop offset="1" stop-color="#002d4f"/>
    </linearGradient>
    <clipPath id="clip-path-2">
      <rect id="Rectángulo_456475" data-name="Rectángulo 456475" width="56.874" height="67.716" fill="#fff"/>
    </clipPath>
  </defs>
  <g id="Grupo_1191956" data-name="Grupo 1191956" transform="translate(-1136.727 -7764.48)">
    <path id="Trazado_997475" data-name="Trazado 997475" d="M63.973,0A63.718,63.718,0,1,1,0,63.717,63.845,63.845,0,0,1,63.973,0Z" transform="translate(1136.781 7764.48)" fill="#fff"/>
    <g id="Grupo_1177602" data-name="Grupo 1177602" transform="translate(1136.727 7764.993)">
      <g id="Grupo_1177525" data-name="Grupo 1177525">
        <g id="Grupo_1177524" data-name="Grupo 1177524" clip-path="url(#clip-path)">
          <path id="Trazado_997408" data-name="Trazado 997408" d="M64,127.488a63.744,63.744,0,1,1,64-63.744,63.944,63.944,0,0,1-64,63.744M64,1.663a62.081,62.081,0,1,0,62.33,62.081A62.275,62.275,0,0,0,64,1.663" fill="#002d4f"/>
          <path id="Trazado_997409" data-name="Trazado 997409" d="M60.365,114.865A54.719,54.719,0,1,1,115.3,60.146a54.891,54.891,0,0,1-54.937,54.719m0-107.774a53.056,53.056,0,1,0,53.267,53.055A53.222,53.222,0,0,0,60.365,7.091" transform="translate(3.634 3.598)" fill="#002d4f"/>
          <path id="Trazado_997410" data-name="Trazado 997410" d="M56.731,102.241a45.693,45.693,0,1,1,45.876-45.693,45.837,45.837,0,0,1-45.876,45.693m0-89.723a44.031,44.031,0,1,0,44.207,44.03,44.17,44.17,0,0,0-44.207-44.03" transform="translate(7.268 7.196)" fill="#fff"/>
          <path id="Trazado_997411" data-name="Trazado 997411" d="M53.1,89.617A36.667,36.667,0,1,1,89.911,52.95,36.783,36.783,0,0,1,53.1,89.617m0-71.671a35,35,0,1,0,35.144,35,35.115,35.115,0,0,0-35.144-35" transform="translate(10.902 10.794)" fill="#fff"/>
          <path id="Trazado_997412" data-name="Trazado 997412" d="M49.462,76.992A27.641,27.641,0,1,1,77.214,49.352,27.728,27.728,0,0,1,49.462,76.992m0-53.618A25.978,25.978,0,1,0,75.544,49.352,26.059,26.059,0,0,0,49.462,23.374" transform="translate(14.537 14.392)" fill="#fff"/>
          <path id="Trazado_997413" data-name="Trazado 997413" d="M45.828,64.37A18.615,18.615,0,1,1,64.517,45.753,18.673,18.673,0,0,1,45.828,64.37m0-35.568a16.953,16.953,0,1,0,17.02,16.952A17,17,0,0,0,45.828,28.8" transform="translate(18.171 17.99)" fill="#fff"/>
          <path id="Trazado_997414" data-name="Trazado 997414" d="M42.194,51.744a9.589,9.589,0,1,1,9.628-9.588,9.62,9.62,0,0,1-9.628,9.588m0-17.515a7.926,7.926,0,1,0,7.959,7.927,7.953,7.953,0,0,0-7.959-7.927" transform="translate(21.805 21.588)" fill="#fff"/>
        </g>
      </g>
      <g id="Elipse_13614" data-name="Elipse 13614" transform="translate(10.388 10.387)" stroke="#002d4f" stroke-width="1" fill="url(#linear-gradient)">
        <ellipse cx="53.612" cy="53.356" rx="53.612" ry="53.356" stroke="none"/>
        <ellipse cx="53.612" cy="53.356" rx="53.112" ry="52.856" fill="none"/>
      </g>
    </g>
    <g id="Grupo_1192232" data-name="Grupo 1192232" transform="translate(1172.317 7791.182)">
      <g id="Grupo_1192231" data-name="Grupo 1192231" clip-path="url(#clip-path-2)">
        <path id="Trazado_1001473" data-name="Trazado 1001473" d="M77.788,247.229l-.072-1.528,9.725-4.541a3.275,3.275,0,0,1,3.786.918L71.716,254.563c-2.446,1.565-5.8,1.576-8.48.835l-14.093-3.9c-1.979-.547-3.8.291-5.576,1.388l.3-12.063a12.809,12.809,0,0,1,13.509-.535,9.967,9.967,0,0,0,3.972,1.315c2.978.251,5.863.26,8.855.273a5.287,5.287,0,0,1,5.466,4.35l-12.231-.343c-.643-.018-1.134.23-1.251.748a1.045,1.045,0,0,0,.918,1.289l13.657.318a.943.943,0,0,0,1.02-1.014" transform="translate(-34.354 -188.16)" fill="#fff"/>
        <rect id="Rectángulo_456474" data-name="Rectángulo 456474" width="18.047" height="7.148" transform="matrix(0.028, -1, 1, 0.028, 0, 66.847)" fill="#fff"/>
        <path id="Trazado_1001474" data-name="Trazado 1001474" d="M135.9,11.707a1.062,1.062,0,0,1-.962,1.166,1.025,1.025,0,0,1-1.077-1.087l0-10.879A1.048,1.048,0,0,1,134.949,0a1,1,0,0,1,.942,1.049Z" transform="translate(-105.552 0)" fill="#fff"/>
        <path id="Trazado_1001475" data-name="Trazado 1001475" d="M176.674,33.308a1.024,1.024,0,0,1-1.067,1,1.006,1.006,0,0,1-.935-1.056l.005-5.071a.963.963,0,0,1,.929-1,.984.984,0,0,1,1.055,1.031Z" transform="translate(-137.732 -21.429)" fill="#fff"/>
        <path id="Trazado_1001476" data-name="Trazado 1001476" d="M95.3,33.141c0,.784-.435,1.146-.978,1.15a.939.939,0,0,1-.994-1.028l.007-5.092a.977.977,0,1,1,1.954-.007Z" transform="translate(-73.592 -21.428)" fill="#fff"/>
        <path id="Trazado_1001477" data-name="Trazado 1001477" d="M99.426,96.178A14.489,14.489,0,1,1,84.937,81.69,14.489,14.489,0,0,1,99.426,96.178m-13.7,9.329c0-.333-.036-.831.121-1a4.77,4.77,0,0,0-.992-9.443,2.722,2.722,0,0,1-2.659-2.844,2.744,2.744,0,0,1,5.485.052,1.024,1.024,0,0,0,.911,1.031.985.985,0,0,0,1.044-.85,4.72,4.72,0,0,0-3.724-4.791c-.457-.349.261-2.151-1.17-2.146a.966.966,0,0,0-.991,1.094c0,.3.071.887-.111,1.119a4.771,4.771,0,0,0,1.308,9.362,2.747,2.747,0,1,1-.117,5.491,2.794,2.794,0,0,1-2.658-2.67,1.013,1.013,0,0,0-1.028-1.067.987.987,0,0,0-.966,1.1,4.864,4.864,0,0,0,3.473,4.53c.181.264.1.843.1,1.161a.948.948,0,0,0,.992,1.055c.566,0,.972-.35.981-1.176" transform="translate(-55.55 -64.414)" fill="#fff"/>
      </g>
    </g>
  </g>
</svg>
