<svg xmlns="http://www.w3.org/2000/svg" xmlns:xlink="http://www.w3.org/1999/xlink" width="128" height="128" viewBox="0 0 128 128">
  <defs>
    <clipPath id="clip-path">
      <rect id="Rectángulo_454800" data-name="Rectángulo 454800" width="127.998" height="127.488" fill="none"/>
    </clipPath>
    <linearGradient id="linear-gradient" x1="0.5" y1="-0.646" x2="0.5" y2="1.118" gradientUnits="objectBoundingBox">
      <stop offset="0" stop-color="#67ccf1"/>
      <stop offset="0.625" stop-color="#004b84"/>
      <stop offset="1" stop-color="#002d4f"/>
    </linearGradient>
    <clipPath id="clip-path-2">
      <rect id="Rectángulo_456478" data-name="Rectángulo 456478" width="66.783" height="66.816" fill="#fff"/>
    </clipPath>
  </defs>
  <g id="Grupo_1191954" data-name="Grupo 1191954" transform="translate(-1136.727 -7764.48)">
    <path id="Trazado_997475" data-name="Trazado 997475" d="M63.973,0A63.718,63.718,0,1,1,0,63.717,63.845,63.845,0,0,1,63.973,0Z" transform="translate(1136.781 7764.48)" fill="#fff"/>
    <g id="Grupo_1177602" data-name="Grupo 1177602" transform="translate(1136.727 7764.993)">
      <g id="Grupo_1177525" data-name="Grupo 1177525">
        <g id="Grupo_1177524" data-name="Grupo 1177524" clip-path="url(#clip-path)">
          <path id="Trazado_997408" data-name="Trazado 997408" d="M64,127.488a63.744,63.744,0,1,1,64-63.744,63.944,63.944,0,0,1-64,63.744M64,1.663a62.081,62.081,0,1,0,62.33,62.081A62.275,62.275,0,0,0,64,1.663" fill="#002d4f"/>
          <path id="Trazado_997409" data-name="Trazado 997409" d="M60.365,114.865A54.719,54.719,0,1,1,115.3,60.146a54.891,54.891,0,0,1-54.937,54.719m0-107.774a53.056,53.056,0,1,0,53.267,53.055A53.222,53.222,0,0,0,60.365,7.091" transform="translate(3.634 3.598)" fill="#002d4f"/>
          <path id="Trazado_997410" data-name="Trazado 997410" d="M56.731,102.241a45.693,45.693,0,1,1,45.876-45.693,45.837,45.837,0,0,1-45.876,45.693m0-89.723a44.031,44.031,0,1,0,44.207,44.03,44.17,44.17,0,0,0-44.207-44.03" transform="translate(7.268 7.196)" fill="#fff"/>
          <path id="Trazado_997411" data-name="Trazado 997411" d="M53.1,89.617A36.667,36.667,0,1,1,89.911,52.95,36.783,36.783,0,0,1,53.1,89.617m0-71.671a35,35,0,1,0,35.144,35,35.115,35.115,0,0,0-35.144-35" transform="translate(10.902 10.794)" fill="#fff"/>
          <path id="Trazado_997412" data-name="Trazado 997412" d="M49.462,76.992A27.641,27.641,0,1,1,77.214,49.352,27.728,27.728,0,0,1,49.462,76.992m0-53.618A25.978,25.978,0,1,0,75.544,49.352,26.059,26.059,0,0,0,49.462,23.374" transform="translate(14.537 14.392)" fill="#fff"/>
          <path id="Trazado_997413" data-name="Trazado 997413" d="M45.828,64.37A18.615,18.615,0,1,1,64.517,45.753,18.673,18.673,0,0,1,45.828,64.37m0-35.568a16.953,16.953,0,1,0,17.02,16.952A17,17,0,0,0,45.828,28.8" transform="translate(18.171 17.99)" fill="#fff"/>
          <path id="Trazado_997414" data-name="Trazado 997414" d="M42.194,51.744a9.589,9.589,0,1,1,9.628-9.588,9.62,9.62,0,0,1-9.628,9.588m0-17.515a7.926,7.926,0,1,0,7.959,7.927,7.953,7.953,0,0,0-7.959-7.927" transform="translate(21.805 21.588)" fill="#fff"/>
        </g>
      </g>
      <g id="Elipse_13614" data-name="Elipse 13614" transform="translate(10.388 10.387)" stroke="#002d4f" stroke-width="1" fill="url(#linear-gradient)">
        <ellipse cx="53.612" cy="53.356" rx="53.612" ry="53.356" stroke="none"/>
        <ellipse cx="53.612" cy="53.356" rx="53.112" ry="52.856" fill="none"/>
      </g>
    </g>
    <g id="Grupo_1192234" data-name="Grupo 1192234" transform="translate(1167.334 7794.79)">
      <g id="Grupo_1192233" data-name="Grupo 1192233" clip-path="url(#clip-path-2)">
        <path id="Trazado_1001478" data-name="Trazado 1001478" d="M216.124,101.1l-9.671.038,0-38.434c-1.912-.111-3.7.126-5.583-.151L211.3,44.515l10.452,18.039a43.475,43.475,0,0,1-5.615.114Z" transform="translate(-154.968 -34.343)" fill="#fff"/>
        <path id="Trazado_1001479" data-name="Trazado 1001479" d="M40.734,76.453a30.239,30.239,0,0,1-2.408-2.418l2.61-2.74a22.041,22.041,0,0,1-3.154-7.535l-3.766-.048-.021-7.771a36.619,36.619,0,0,0,3.821-.124,21.577,21.577,0,0,1,3.121-7.541l-2.631-2.692,5.5-5.52,2.7,2.617a22.308,22.308,0,0,1,7.606-3.126l.048-3.8,7.8-.006.07,3.8a21.255,21.255,0,0,1,7.52,3.125l2.8-2.606,3.931,3.951L69.557,55.592a12.223,12.223,0,1,0-11.43,16.434l.053,11.782a23.213,23.213,0,0,1-3.043.023l-.055-8.638-14.023-.022c-.335.4-.178.866-.325,1.282" transform="translate(-26.227 -27.58)" fill="#fff"/>
        <rect id="Rectángulo_456476" data-name="Rectángulo 456476" width="9.675" height="28.213" transform="translate(34.232 38.603)" fill="#fff"/>
        <path id="Trazado_1001480" data-name="Trazado 1001480" d="M48.859,7.279l-5.627.8a1.1,1.1,0,0,1-1.358-.845,1.133,1.133,0,0,1,.945-1.391,13,13,0,0,0,2.318-.414,29.556,29.556,0,0,0-34.113,47.38,1.271,1.271,0,0,1-.059,1.454,1.188,1.188,0,0,1-1.53.172A31.839,31.839,0,0,1,45.445,3.034C45.29,2.263,43.978.918,45.123.22a1.2,1.2,0,0,1,1.671.358l2.824,4.936A1.237,1.237,0,0,1,49.7,6.607a1.142,1.142,0,0,1-.845.672" transform="translate(0 0)" fill="#fff"/>
        <rect id="Rectángulo_456477" data-name="Rectángulo 456477" width="9.689" height="16.936" transform="translate(16.907 49.879)" fill="#fff"/>
        <path id="Trazado_1001481" data-name="Trazado 1001481" d="M192.746,155.2l-.032-15.341a18.442,18.442,0,0,1-2.777-.2,13.535,13.535,0,0,0,.553-5.558l5.242.006,0,18.225a31.86,31.86,0,0,1-2.983,2.865" transform="translate(-146.535 -103.457)" fill="#fff"/>
      </g>
    </g>
  </g>
</svg>
