<svg xmlns="http://www.w3.org/2000/svg" xmlns:xlink="http://www.w3.org/1999/xlink" width="128" height="128" viewBox="0 0 128 128">
  <defs>
    <clipPath id="clip-path">
      <rect id="Rectángulo_454800" data-name="Rectángulo 454800" width="127.998" height="127.488" fill="none"/>
    </clipPath>
    <linearGradient id="linear-gradient" x1="0.5" y1="-0.646" x2="0.5" y2="1.118" gradientUnits="objectBoundingBox">
      <stop offset="0" stop-color="#67ccf1"/>
      <stop offset="0.625" stop-color="#004b84"/>
      <stop offset="1" stop-color="#002d4f"/>
    </linearGradient>
    <clipPath id="clip-path-2">
      <rect id="Rectángulo_456479" data-name="Rectángulo 456479" width="63.944" height="63.944" fill="#fff"/>
    </clipPath>
  </defs>
  <g id="Grupo_1191953" data-name="Grupo 1191953" transform="translate(-1136.727 -7764.48)">
    <path id="Trazado_997475" data-name="Trazado 997475" d="M63.973,0A63.718,63.718,0,1,1,0,63.717,63.845,63.845,0,0,1,63.973,0Z" transform="translate(1136.781 7764.48)" fill="#fff"/>
    <g id="Grupo_1177602" data-name="Grupo 1177602" transform="translate(1136.727 7764.993)">
      <g id="Grupo_1177525" data-name="Grupo 1177525">
        <g id="Grupo_1177524" data-name="Grupo 1177524" clip-path="url(#clip-path)">
          <path id="Trazado_997408" data-name="Trazado 997408" d="M64,127.488a63.744,63.744,0,1,1,64-63.744,63.944,63.944,0,0,1-64,63.744M64,1.663a62.081,62.081,0,1,0,62.33,62.081A62.275,62.275,0,0,0,64,1.663" fill="#002d4f"/>
          <path id="Trazado_997409" data-name="Trazado 997409" d="M60.365,114.865A54.719,54.719,0,1,1,115.3,60.146a54.891,54.891,0,0,1-54.937,54.719m0-107.774a53.056,53.056,0,1,0,53.267,53.055A53.222,53.222,0,0,0,60.365,7.091" transform="translate(3.634 3.598)" fill="#002d4f"/>
          <path id="Trazado_997410" data-name="Trazado 997410" d="M56.731,102.241a45.693,45.693,0,1,1,45.876-45.693,45.837,45.837,0,0,1-45.876,45.693m0-89.723a44.031,44.031,0,1,0,44.207,44.03,44.17,44.17,0,0,0-44.207-44.03" transform="translate(7.268 7.196)" fill="#fff"/>
          <path id="Trazado_997411" data-name="Trazado 997411" d="M53.1,89.617A36.667,36.667,0,1,1,89.911,52.95,36.783,36.783,0,0,1,53.1,89.617m0-71.671a35,35,0,1,0,35.144,35,35.115,35.115,0,0,0-35.144-35" transform="translate(10.902 10.794)" fill="#fff"/>
          <path id="Trazado_997412" data-name="Trazado 997412" d="M49.462,76.992A27.641,27.641,0,1,1,77.214,49.352,27.728,27.728,0,0,1,49.462,76.992m0-53.618A25.978,25.978,0,1,0,75.544,49.352,26.059,26.059,0,0,0,49.462,23.374" transform="translate(14.537 14.392)" fill="#fff"/>
          <path id="Trazado_997413" data-name="Trazado 997413" d="M45.828,64.37A18.615,18.615,0,1,1,64.517,45.753,18.673,18.673,0,0,1,45.828,64.37m0-35.568a16.953,16.953,0,1,0,17.02,16.952A17,17,0,0,0,45.828,28.8" transform="translate(18.171 17.99)" fill="#fff"/>
          <path id="Trazado_997414" data-name="Trazado 997414" d="M42.194,51.744a9.589,9.589,0,1,1,9.628-9.588,9.62,9.62,0,0,1-9.628,9.588m0-17.515a7.926,7.926,0,1,0,7.959,7.927,7.953,7.953,0,0,0-7.959-7.927" transform="translate(21.805 21.588)" fill="#fff"/>
        </g>
      </g>
      <g id="Elipse_13614" data-name="Elipse 13614" transform="translate(10.388 10.387)" stroke="#002d4f" stroke-width="1" fill="url(#linear-gradient)">
        <ellipse cx="53.612" cy="53.356" rx="53.612" ry="53.356" stroke="none"/>
        <ellipse cx="53.612" cy="53.356" rx="53.112" ry="52.856" fill="none"/>
      </g>
    </g>
    <g id="Grupo_1192236" data-name="Grupo 1192236" transform="translate(1168.754 7796.226)">
      <g id="Grupo_1192235" data-name="Grupo 1192235" clip-path="url(#clip-path-2)">
        <path id="Trazado_1001482" data-name="Trazado 1001482" d="M54.57,43.73A10.12,10.12,0,1,1,43.742,54.572l-7.572.019c-1.372,0-2.558-.621-2.711-2.078l-.034-9.1a15,15,0,0,1-2.9,0l-.034,9.065a2.181,2.181,0,0,1-2.115,2.065l-8.171.045A10.114,10.114,0,1,1,9.353,43.743l.026-7.984a2.21,2.21,0,0,1,2.092-2.29l9.041-.048c-.039-1.04-.039-1.875,0-2.872l-8.881-.02a2.224,2.224,0,0,1-2.2-1.962l-.066-8.36A10.118,10.118,0,1,1,20.2,9.364l8.184.034a2.173,2.173,0,0,1,2.1,2.062l.035,9.088c1.032-.063,1.864-.063,2.9-.029l.029-8.928a2.17,2.17,0,0,1,2.1-2.191l8.184-.033A10.115,10.115,0,1,1,54.584,20.2l-.069,8.364a2.249,2.249,0,0,1-2.369,1.966l-8.71.015c.032,1,.034,1.834-.005,2.876l9.044.044a2.212,2.212,0,0,1,2.091,2.29ZM12.532,10.041a7.328,7.328,0,0,1,4.479,5.2A8.606,8.606,0,0,0,4.478,3.595,8.529,8.529,0,0,0,3.194,15.184a7.462,7.462,0,0,1,4.5-5.14,3.572,3.572,0,0,1-.051-5.129A3.529,3.529,0,0,1,12.665,5a3.585,3.585,0,0,1-.133,5.04m43.744.023a7.333,7.333,0,0,1,4.468,5.156A8.572,8.572,0,0,0,59.46,3.584a8.667,8.667,0,0,0-11.514.231,8.579,8.579,0,0,0-1.011,11.43,7.3,7.3,0,0,1,4.5-5.2A3.532,3.532,0,1,1,56.385,5.01a3.623,3.623,0,0,1-.109,5.054M20.887,28.936A11.6,11.6,0,0,1,29,20.841V11.6a.839.839,0,0,0-.852-.752l-7.933.012a10.19,10.19,0,0,1-9.355,9.352l0,8.092a.9.9,0,0,0,.748.7Zm31.552.059a.877.877,0,0,0,.658-.851l-.012-7.931a10.2,10.2,0,0,1-9.354-9.354l-7.756-.01a.88.88,0,0,0-1.036.938l.034,9.084A11.606,11.606,0,0,1,43.1,28.995ZM33.1,27.582a.746.746,0,0,0-.376.932c.391.853,2.313.144,3.811-.182a.774.774,0,0,0,.593-.941l-.6-2.806a.777.777,0,0,0-.832-.709.736.736,0,0,0-.652.818,3.22,3.22,0,0,1,.084,1.032,7.1,7.1,0,0,0-7.677,1.015c-3.3,2.865-2.681,8.034-1.258,7.733a.715.715,0,0,0,.584-.874,5.532,5.532,0,0,1,1.748-5.808,5.438,5.438,0,0,1,5.908-.684c-.376.415-.891.221-1.335.474M27.376,39.55a.713.713,0,0,0,.862.57c.952-.229.327-1.331.567-1.949a7.048,7.048,0,0,0,7.754-.916c3.385-2.911,2.719-8.207,1.2-7.8a.711.711,0,0,0-.521.871,5.5,5.5,0,0,1-1.558,5.7,5.326,5.326,0,0,1-5.886.922c.23-.272.581-.19.9-.269a.779.779,0,0,0,.666-.982c-.277-.965-2.042-.255-3.753-.073-1.171.124-.5,2.79-.236,3.92m.675,13.569a.917.917,0,0,0,.953-.78l-.031-9.262a11.6,11.6,0,0,1-8.1-8.1l-9.44-.017a.9.9,0,0,0-.58.834l.012,7.931A10.2,10.2,0,0,1,20.216,53.1Zm15.68-.048a10.211,10.211,0,0,1,9.353-9.356l.008-8.079a.851.851,0,0,0-.746-.687l-9.269.033a11.587,11.587,0,0,1-8.1,8.092l-.031,9.266a.935.935,0,0,0,.858.79Zm-31.172.7a7.338,7.338,0,0,1,4.457,5.208A8.612,8.612,0,1,0,3.2,58.918a7.342,7.342,0,0,1,4.5-5.136,3.582,3.582,0,0,1,.008-5.207,3.542,3.542,0,0,1,4.9.087,3.64,3.64,0,0,1-.048,5.11m43.714.021a7.314,7.314,0,0,1,4.461,5.085,8.482,8.482,0,0,0-1.228-11.541A8.616,8.616,0,0,0,46.93,58.979a7.367,7.367,0,0,1,4.482-5.224,3.537,3.537,0,1,1,4.92-5.083,3.63,3.63,0,0,1-.06,5.121" transform="translate(0 0)" fill="#fff"/>
      </g>
    </g>
  </g>
</svg>
