<svg xmlns="http://www.w3.org/2000/svg" xmlns:xlink="http://www.w3.org/1999/xlink" width="128" height="128" viewBox="0 0 128 128">
  <defs>
    <clipPath id="clip-path">
      <rect id="Rectángulo_454800" data-name="Rectángulo 454800" width="127.998" height="127.488" fill="none"/>
    </clipPath>
    <linearGradient id="linear-gradient" x1="0.5" y1="-0.646" x2="0.5" y2="1.118" gradientUnits="objectBoundingBox">
      <stop offset="0" stop-color="#67ccf1"/>
      <stop offset="0.625" stop-color="#004b84"/>
      <stop offset="1" stop-color="#002d4f"/>
    </linearGradient>
    <clipPath id="clip-path-2">
      <rect id="Rectángulo_456480" data-name="Rectángulo 456480" width="60.663" height="58.142" fill="#fff"/>
    </clipPath>
  </defs>
  <g id="Grupo_1191958" data-name="Grupo 1191958" transform="translate(-1136.727 -7764.48)">
    <path id="Trazado_997475" data-name="Trazado 997475" d="M63.973,0A63.718,63.718,0,1,1,0,63.717,63.845,63.845,0,0,1,63.973,0Z" transform="translate(1136.781 7764.48)" fill="#fff"/>
    <g id="Grupo_1177602" data-name="Grupo 1177602" transform="translate(1136.727 7764.993)">
      <g id="Grupo_1177525" data-name="Grupo 1177525">
        <g id="Grupo_1177524" data-name="Grupo 1177524" clip-path="url(#clip-path)">
          <path id="Trazado_997408" data-name="Trazado 997408" d="M64,127.488a63.744,63.744,0,1,1,64-63.744,63.944,63.944,0,0,1-64,63.744M64,1.663a62.081,62.081,0,1,0,62.33,62.081A62.275,62.275,0,0,0,64,1.663" fill="#002d4f"/>
          <path id="Trazado_997409" data-name="Trazado 997409" d="M60.365,114.865A54.719,54.719,0,1,1,115.3,60.146a54.891,54.891,0,0,1-54.937,54.719m0-107.774a53.056,53.056,0,1,0,53.267,53.055A53.222,53.222,0,0,0,60.365,7.091" transform="translate(3.634 3.598)" fill="#002d4f"/>
          <path id="Trazado_997410" data-name="Trazado 997410" d="M56.731,102.241a45.693,45.693,0,1,1,45.876-45.693,45.837,45.837,0,0,1-45.876,45.693m0-89.723a44.031,44.031,0,1,0,44.207,44.03,44.17,44.17,0,0,0-44.207-44.03" transform="translate(7.268 7.196)" fill="#fff"/>
          <path id="Trazado_997411" data-name="Trazado 997411" d="M53.1,89.617A36.667,36.667,0,1,1,89.911,52.95,36.783,36.783,0,0,1,53.1,89.617m0-71.671a35,35,0,1,0,35.144,35,35.115,35.115,0,0,0-35.144-35" transform="translate(10.902 10.794)" fill="#fff"/>
          <path id="Trazado_997412" data-name="Trazado 997412" d="M49.462,76.992A27.641,27.641,0,1,1,77.214,49.352,27.728,27.728,0,0,1,49.462,76.992m0-53.618A25.978,25.978,0,1,0,75.544,49.352,26.059,26.059,0,0,0,49.462,23.374" transform="translate(14.537 14.392)" fill="#fff"/>
          <path id="Trazado_997413" data-name="Trazado 997413" d="M45.828,64.37A18.615,18.615,0,1,1,64.517,45.753,18.673,18.673,0,0,1,45.828,64.37m0-35.568a16.953,16.953,0,1,0,17.02,16.952A17,17,0,0,0,45.828,28.8" transform="translate(18.171 17.99)" fill="#fff"/>
          <path id="Trazado_997414" data-name="Trazado 997414" d="M42.194,51.744a9.589,9.589,0,1,1,9.628-9.588,9.62,9.62,0,0,1-9.628,9.588m0-17.515a7.926,7.926,0,1,0,7.959,7.927,7.953,7.953,0,0,0-7.959-7.927" transform="translate(21.805 21.588)" fill="#fff"/>
        </g>
      </g>
      <g id="Elipse_13614" data-name="Elipse 13614" transform="translate(10.388 10.387)" stroke="#002d4f" stroke-width="1" fill="url(#linear-gradient)">
        <ellipse cx="53.612" cy="53.356" rx="53.612" ry="53.356" stroke="none"/>
        <ellipse cx="53.612" cy="53.356" rx="53.112" ry="52.856" fill="none"/>
      </g>
    </g>
    <g id="Grupo_1192238" data-name="Grupo 1192238" transform="translate(1174.063 7799.127)">
      <g id="Grupo_1192237" data-name="Grupo 1192237" clip-path="url(#clip-path-2)">
        <path id="Trazado_1001483" data-name="Trazado 1001483" d="M16.3,38.168l7.9.054a16.662,16.662,0,0,1,.376,2.265l-8.4.094a.881.881,0,0,0-.8.934.956.956,0,0,0,1.014.988l8.97.034a15.949,15.949,0,0,0,2.906,4.283L16.4,46.886a1.012,1.012,0,0,0-1.028.916.991.991,0,0,0,1.027,1.088l14.526.016a14.241,14.241,0,0,0,13.867.513l.046,7.355a1.28,1.28,0,0,1-1.386,1.368l-42.19-.008A1.182,1.182,0,0,1,.007,56.94L0,1.4A1.271,1.271,0,0,1,1.447,0L35.541.008l.07,7.019a2.525,2.525,0,0,0,2.6,2.3l6.614.022-.021,14.958a14.267,14.267,0,0,0-14.862,1.162l-13.74.024a.922.922,0,0,0-.837.875.98.98,0,0,0,.864,1.079l11.407.064-1.6,2.286-9.663.019a.95.95,0,0,0-1,.979.979.979,0,0,0,.889,1l8.8.081a17.035,17.035,0,0,0-.87,4.274l-7.8.032a1,1,0,0,0-1.023.882.99.99,0,0,0,.933,1.108M32.874,13.074a10.46,10.46,0,1,0-10.46,10.46,10.46,10.46,0,0,0,10.46-10.46m-21.9,18.744a1.033,1.033,0,0,0,1.064-.985c.019-1.515.047-2.972-.011-4.465a.985.985,0,0,0-1.087-.9l-4.271.011a.963.963,0,0,0-.976.969l-.018,4.245a1.089,1.089,0,0,0,1.074,1.123Zm.064,10.7a.988.988,0,0,0,1-.968l.013-4.308a1.06,1.06,0,0,0-1.126-1.074l-4.053,0a1.118,1.118,0,0,0-1.2,1.2l.007,4.045a1.052,1.052,0,0,0,1,1.109Zm.005,10.729a.993.993,0,0,0,.992-.978l.014-4.31a1.076,1.076,0,0,0-1.129-1.081l-4.051,0a1.135,1.135,0,0,0-1.2,1.207l.007,4.051a1.025,1.025,0,0,0,1,1.1ZM38.9,53.222a.959.959,0,0,0,.891-1.14.941.941,0,0,0-.971-.829L16.4,51.229a1,1,0,0,0-1.031,1,.97.97,0,0,0,1.03,1Z" transform="translate(0 0)" fill="#fff"/>
        <path id="Trazado_1001484" data-name="Trazado 1001484" d="M163.683,152.977l-2.339,2.412a1.133,1.133,0,0,1-1.713-.038L153.091,149c-.526-.511-.227-1.142.014-1.7l-3.572-3.593a12.177,12.177,0,1,1,2.065-2.319,43.649,43.649,0,0,0,3.716,3.631c.562-.273,1.241-.548,1.776-.028l6.453,6.262a1.174,1.174,0,0,1,.14,1.72m-13.36-18.469a8.682,8.682,0,1,0-8.683,8.682,8.682,8.682,0,0,0,8.683-8.682" transform="translate(-103.337 -97.646)" fill="#fff"/>
        <path id="Trazado_1001485" data-name="Trazado 1001485" d="M186.456,7.856a.762.762,0,0,1-.763-.883c.068-2.109-.1-4.079.091-6.289l7.045,7.092Z" transform="translate(-148.134 -0.546)" fill="#fff"/>
        <path id="Trazado_1001486" data-name="Trazado 1001486" d="M106.516,36.557a1.06,1.06,0,0,1-.971,1.042c-.455.039-1.223-.225-1.25-.891-.116-2.884-.381-5.734-.229-8.623.032-.611.9-.693,1.271-.718.408-.027,1.368.11,1.4.749.121,2.825-.1,5.612-.217,8.44" transform="translate(-82.981 -21.83)" fill="#fff"/>
        <path id="Trazado_1001487" data-name="Trazado 1001487" d="M106.551,89a1.449,1.449,0,1,1-1.449-1.449A1.449,1.449,0,0,1,106.551,89" transform="translate(-82.688 -69.846)" fill="#fff"/>
      </g>
    </g>
  </g>
</svg>
