<svg xmlns="http://www.w3.org/2000/svg" xmlns:xlink="http://www.w3.org/1999/xlink" width="85" height="85" viewBox="0 0 85 85">
  <defs>
    <clipPath id="clip-path">
      <rect id="Rectángulo_456513" data-name="Rectángulo 456513" width="60" height="60" transform="translate(-0.342 -0.342)" fill="#12263f"/>
    </clipPath>
  </defs>
  <g id="Grupo_1192100" data-name="Grupo 1192100" transform="translate(-179.668 -5521)">
    <rect id="Rectángulo_402006" data-name="Rectángulo 402006" width="85" height="85" rx="5" transform="translate(179.668 5521)" fill="#fe93c4"/>
    <g id="Grupo_1192293" data-name="Grupo 1192293" transform="translate(193.01 5533.751)">
      <g id="Grupo_1192292" data-name="Grupo 1192292" clip-path="url(#clip-path)">
        <path id="Trazado_1001629" data-name="Trazado 1001629" d="M99.656,61.61A19.932,19.932,0,1,1,79.723,41.678,19.932,19.932,0,0,1,99.656,61.61m-3.6,0A16.335,16.335,0,1,0,79.723,77.944,16.335,16.335,0,0,0,96.058,61.609" transform="translate(-48.424 -33.754)" fill="#12263f"/>
        <path id="Trazado_1001630" data-name="Trazado 1001630" d="M5.8,262.335a1.252,1.252,0,0,1-1.838.1l-3.6-3.6a1.233,1.233,0,0,1,.051-1.783L5.6,251.843a1.323,1.323,0,0,1,1.72-.159l3.783,3.783a1.322,1.322,0,0,1-.16,1.72Z" transform="translate(0 -203.636)" fill="#12263f"/>
        <path id="Trazado_1001631" data-name="Trazado 1001631" d="M175.721,180.084c-.638.075-.969-.106-1.058-.491a.692.692,0,0,1,.627-.893,24.257,24.257,0,0,0,21.522-21.479.7.7,0,0,1,.734-.7c.486,0,.73.376.666.952a25.655,25.655,0,0,1-22.491,22.613" transform="translate(-141.439 -126.761)" fill="#12263f"/>
        <path id="Trazado_1001632" data-name="Trazado 1001632" d="M53.461,13.924a24.229,24.229,0,0,0-21.48,21.52.68.68,0,0,1-.731.648c-.486-.009-.727-.394-.667-.937A25.616,25.616,0,0,1,53.2,12.53c.5-.055.859.1.928.476a.707.707,0,0,1-.67.917" transform="translate(-24.761 -10.139)" fill="#12263f"/>
        <path id="Trazado_1001633" data-name="Trazado 1001633" d="M196.813,35.4a24.233,24.233,0,0,0-21.481-21.481.717.717,0,0,1-.694-.733c0-.5.382-.724.943-.663a25.606,25.606,0,0,1,22.628,22.626c.052.468-.141.841-.507.922a.713.713,0,0,1-.889-.671" transform="translate(-141.436 -10.134)" fill="#12263f"/>
        <rect id="Rectángulo_456512" data-name="Rectángulo 456512" width="8.59" height="5.096" transform="translate(8.425 47.127) rotate(-44.977)" fill="#12263f"/>
        <path id="Trazado_1001634" data-name="Trazado 1001634" d="M36.333,168.69a.706.706,0,0,1-1.2.746,25.255,25.255,0,0,1-4.566-12.118.686.686,0,0,1,.507-.774.7.7,0,0,1,.879.537,24.5,24.5,0,0,0,4.38,11.608" transform="translate(-24.753 -126.768)" fill="#12263f"/>
        <path id="Trazado_1001635" data-name="Trazado 1001635" d="M97.626,254.066a.706.706,0,1,1-.161,1.4A25.277,25.277,0,0,1,85.349,250.9a.73.73,0,0,1-.255-.9.7.7,0,0,1,.944-.334,24.517,24.517,0,0,0,11.588,4.4" transform="translate(-68.865 -202.126)" fill="#12263f"/>
        <path id="Trazado_1001636" data-name="Trazado 1001636" d="M162.32,4.952c0,.556-.259.853-.631.892a.721.721,0,0,1-.788-.8l.013-4.354A.7.7,0,0,1,161.538,0a.688.688,0,0,1,.765.689Z" transform="translate(-130.311 0)" fill="#12263f"/>
        <path id="Trazado_1001637" data-name="Trazado 1001637" d="M23.238,144.223H18.8a.7.7,0,0,1-.679-.627.676.676,0,0,1,.678-.759l4.355-.018a.705.705,0,0,1,.8.623.7.7,0,0,1-.719.781" transform="translate(-14.675 -115.667)" fill="#12263f"/>
        <path id="Trazado_1001638" data-name="Trazado 1001638" d="M285.627,144.2l-4.436.026a.734.734,0,0,1-.8-.62.705.705,0,0,1,.794-.792l4.35.015a.7.7,0,0,1,.7.623.654.654,0,0,1-.608.748" transform="translate(-227.081 -115.667)" fill="#12263f"/>
        <path id="Trazado_1001639" data-name="Trazado 1001639" d="M162.306,267.382a.7.7,0,0,1-.635.762.683.683,0,0,1-.755-.679l-.017-4.351a.726.726,0,0,1,.619-.8.709.709,0,0,1,.8.8Z" transform="translate(-130.309 -212.437)" fill="#12263f"/>
        <path id="Trazado_1001640" data-name="Trazado 1001640" d="M116.031,83.01a14.909,14.909,0,1,1-14.91-14.91,14.909,14.909,0,0,1,14.91,14.91M102.922,93.091c.484-.168.137-1.182.357-1.491a15.14,15.14,0,0,1,2.506-.947c.4.262.952,1.151,1.523.646a12.747,12.747,0,0,0,2.153-2.218c.373-.551-.46-1.036-.714-1.417a10.688,10.688,0,0,1,1.056-2.533c.361-.139,1.32.132,1.434-.354a8.262,8.262,0,0,0,0-3.541c-.12-.52-1.244-.121-1.487-.407a10.15,10.15,0,0,1-.972-2.477c.139-.373,1.087-.836.691-1.406a11.927,11.927,0,0,0-2.171-2.223c-.518-.43-1.144.217-1.493.709a14.143,14.143,0,0,1-2.568-1.118c-.153-.333.128-1.318-.346-1.425a8.552,8.552,0,0,0-3.541,0c-.485.108-.2,1.089-.355,1.43a9.86,9.86,0,0,1-2.541,1.059c-.381-.277-.845-1.06-1.429-.693A15.333,15.333,0,0,0,92.9,76.7c-.855.811.98,1.48.534,2.072-.462.613-.483,1.506-.962,2.061-.239.278-1.336-.14-1.478.411a7.573,7.573,0,0,0,0,3.524c.145.566,1.219.152,1.472.414.485.5.465,1.373.908,1.93.612.77-1.384,1.352-.463,2.217a16.23,16.23,0,0,0,2.152,2.036c.558.356,1.014-.51,1.405-.722a11.158,11.158,0,0,1,2.474.992c.252.283-.117,1.35.413,1.49a6.523,6.523,0,0,0,3.566-.037" transform="translate(-69.822 -55.153)" fill="#12263f"/>
        <path id="Trazado_1001641" data-name="Trazado 1001641" d="M149.131,126.262a4.754,4.754,0,1,1-4.754-4.754,4.754,4.754,0,0,1,4.754,4.754" transform="translate(-113.078 -98.407)" fill="#12263f"/>
      </g>
    </g>
  </g>
</svg>
