<svg xmlns="http://www.w3.org/2000/svg" xmlns:xlink="http://www.w3.org/1999/xlink" width="235.776" height="262.36" viewBox="0 0 235.776 262.36">
  <defs>
    <clipPath id="clip-path">
      <rect id="Rectángulo_454878" data-name="Rectángulo 454878" width="235.776" height="210.45" fill="none"/>
    </clipPath>
    <clipPath id="clip-path-2">
      <rect id="Rectángulo_454876" data-name="Rectángulo 454876" width="84.057" height="6.987" fill="none"/>
    </clipPath>
    <clipPath id="clip-path-3">
      <rect id="Rectángulo_454871" data-name="Rectángulo 454871" width="55.306" height="13.706" fill="none"/>
    </clipPath>
    <clipPath id="clip-path-4">
      <rect id="Rectángulo_454872" data-name="Rectángulo 454872" width="56.549" height="69.126" fill="#b6cfe3"/>
    </clipPath>
    <clipPath id="clip-path-5">
      <rect id="Rectángulo_454873" data-name="Rectángulo 454873" width="56.549" height="12.1" fill="none"/>
    </clipPath>
  </defs>
  <g id="Grupo_1192338" data-name="Grupo 1192338" transform="translate(-221 -996)">
    <g id="Grupo_1099281" data-name="Grupo 1099281" transform="translate(221 996)">
      <path id="Trazado_873129" data-name="Trazado 873129" d="M234.018,117V262.008H0V117q0-3.674.236-7.274c.087-1.654.224-3.3.4-4.937.037-.4.087-.8.137-1.181.236-2.151.535-4.29.908-6.4q.69-4.122,1.679-8.132a117.2,117.2,0,0,1,35.14-58.8c2.611-2.375,5.347-4.638,8.17-6.764A116.331,116.331,0,0,1,73.874,8.219c1.778-.709,3.594-1.38,5.421-2A116.661,116.661,0,0,1,186.431,22.83c.6.435,1.181.87,1.753,1.318a117.009,117.009,0,0,1,44.5,75.241A117.5,117.5,0,0,1,234.018,117" fill="#ccdbe6"/>
      <path id="Trazado_873131" data-name="Trazado 873131" d="M220.238,117v25.864c-1.268.485-2.562.92-3.855,1.331C197.794,150,177.4,148.344,159,142.015c-14.337-4.937-29.109-14.524-31.721-29.457-1.094-6.329.174-12.8.609-19.211s-.174-13.38-4.315-18.3c-3.531-4.178-9.052-6.168-14.474-6.914-11.577-1.592-23.949,1.529-34.68-3.084C62.667,60,56.189,46.393,56.624,33.611c.336-9.885,4.253-18.863,8.891-27.393A116.661,116.661,0,0,1,172.651,22.83c.6.435,1.181.87,1.753,1.318a117.009,117.009,0,0,1,44.5,75.241A117.5,117.5,0,0,1,220.238,117" transform="translate(13.782)" fill="#ccdbe6"/>
    </g>
    <g id="Grupo_1190303" data-name="Grupo 1190303" transform="translate(221 1047.91)">
      <g id="Grupo_1190301" data-name="Grupo 1190301" clip-path="url(#clip-path)">
        <g id="Grupo_1190300" data-name="Grupo 1190300">
          <g id="Grupo_1191877" data-name="Grupo 1191877">
            <path id="Trazado_997462" data-name="Trazado 997462" d="M235.755,72.17c-.116,6.978-.36,13.956-.592,20.845,0,.1-.013.218-.013.321a2.569,2.569,0,0,1-.013.321v.282c-.077,2.322-.154,4.631-.219,6.914-.154,5.247-.257,10.416-.257,15.47v73.72H0V91.95Z" transform="translate(0 20.407)" fill="#67ccf1"/>
            <path id="Trazado_997492" data-name="Trazado 997492" d="M235.3,78.132c-.013,9.557-.347,19.139-.669,28.567,0,.1-.013.218-.013.321a2.569,2.569,0,0,1-.013.321v.282c-.077,2.322-.154,4.631-.219,6.914l-44.805,52a4,4,0,0,1-3.061,1.411H9.734a3.966,3.966,0,0,1-2.908-1.257l-4.45-4.669-.719-.757,31.455-18.78,1.056-.629,11.574-6.9h.024l1.016-.629,8.333-4.977,1.016-.629h.026l8.308-4.951,1.042-.616h.026l8.308-4.977,1.042-.629,8.308-4.951,1.042-.629,5.723-3.412L91,107.93l6.314-3.758.514-.308.514-.308,8.423-5.028,40.2-24,11.523-6.876,5.723-3.412.874-.539,2.366-1.411,14.4-8.594,2.636-1.578,1.633-.962,2.546-1.526,6.186-3.694,3.459-2.065,11.214-6.7,19.548-11.66c.6,1.95,1.157,3.925,1.646,5.914a158.942,158.942,0,0,1,4.038,27.887c.4,6.209.54,12.507.54,18.818" transform="translate(0.474 7.214)" fill="#2e5c6c"/>
            <path id="Trazado_997493" data-name="Trazado 997493" d="M235.372,83.92c-.013,9.557-.347,19.139-.669,28.567,0,.1-.013.218-.013.321a2.572,2.572,0,0,1-.013.321v.282l-48.522,53.542a2.564,2.564,0,0,1-1.942.885H2.731a1.936,1.936,0,0,1-.284-.026,1.319,1.319,0,0,1-.6-2.258L64.318,109.1l.231-.218.077-.321L88.585,7.019A2.574,2.574,0,0,1,91.2,5.043l129.079,5.221q2.122,3.868,3.922,7.915A107.444,107.444,0,0,1,229.148,31.3c.6,1.95,1.157,3.925,1.646,5.914A158.944,158.944,0,0,1,234.832,65.1c.4,6.209.54,12.507.54,18.818" transform="translate(0.404 1.425)" fill="#12263f"/>
            <path id="Trazado_997494" data-name="Trazado 997494" d="M220.733,89.668c0,.1-.013.218-.013.321a2.572,2.572,0,0,1-.013.321l-137.3-3.168-32.845-.757a.317.317,0,0,1-.219-.1.341.341,0,0,1-.09-.231.357.357,0,0,1,.334-.308h.064l33.784.782Z" transform="translate(14.375 24.245)" fill="#becce3"/>
            <path id="Trazado_997495" data-name="Trazado 997495" d="M219.917,82.255l-5.774,21.91L91.379,102.65,55.447,102.2,77.335,10.933l131.406,5.58a107.451,107.451,0,0,1,4.951,13.123c.6,1.95,1.157,3.925,1.646,5.914a158.941,158.941,0,0,1,4.038,27.887c.4,6.209.54,12.507.54,18.818" transform="translate(15.859 3.091)" fill="#e8e8ff"/>
            <path id="Trazado_997496" data-name="Trazado 997496" d="M136.83,9.363a1.636,1.636,0,1,0,1.646,1.629,1.633,1.633,0,0,0-1.646-1.629m0,2.95a1.315,1.315,0,1,1,1.325-1.321,1.318,1.318,0,0,1-1.325,1.321" transform="translate(38.67 2.647)" fill="#becce3"/>
            <path id="Trazado_997497" data-name="Trazado 997497" d="M213.332,92.033a.325.325,0,0,0-.3-.192l-13.992-.218-.862-.013-17.13-.269-.862-.013-17.117-.269h-.013l-.874-.013-17.1-.257-.887-.013h-.013l-17.066-.269-.9-.013-17.066-.269-.913-.013L91.2,89.943l-.913-.013-5.607-.09-11.433-.167-.926-.013-10.43-.167a.273.273,0,0,0-.219.09l-4.36,3.951-.694.629-5.53,5-.694.641-5.53,5.016-.694.629-5.53,5-.694.629-5.53,5.016-.694.629-7.87,7.132.026.026c-.077.026-.09.051-.1.09a.323.323,0,0,0,.116.385.33.33,0,0,0,.244.051c.167-.013,1.093-.013,2.662-.013,2.019.013,5.093.026,9.015.051.3,0,.592.013.913.013h.013c4.874.026,10.931.077,17.811.128.3.013.592.013.9.013h.013c5.5.038,11.5.09,17.8.141h.013c.309,0,.592.013.9.013,5.749.051,11.729.1,17.811.141H92c.3.013.6.013.9.013h.013l17.811.154c.3,0,.592.013.887,0h.013c6.044.064,12.024.115,17.811.167.3,0,.592,0,.887.013,6.25.051,12.269.1,17.837.167.3-.013.579,0,.862,0,6.713.051,12.77.115,17.863.154.3,0,.592.013.875,0,9.362.09,15.252.154,15.561.154a.352.352,0,0,0,.244-.1l5.607-6.26.566-.641,4.488-5.016.566-.629,4.488-5.028.566-.629,4.5-5.041.566-.629,4.488-5.028.566-.629,3.318-3.707a.341.341,0,0,0,.051-.346M209.1,96.074l-.566.629-4.488,5.028-.566.629-4.5,5.041-.566.629-4.488,5.016-.566.641-4.488,5.016-.566.641-5.131,5.734c-.939-.013-6.43-.051-14.841-.141-.283,0-.566,0-.862-.013-5.067-.038-11.124-.09-17.85-.154-.283,0-.579,0-.862-.013-5.568-.038-11.574-.09-17.837-.154h-.887c-5.774-.051-11.767-.1-17.811-.154h-.013c-.3,0-.592-.013-.887-.013-2.521-.026-5.067-.038-7.6-.064-3.408-.026-6.816-.064-10.2-.09-.309,0-.617-.013-.913-.013-6.07-.051-12.037-.1-17.786-.154H73.9c-6.289-.051-12.269-.1-17.786-.154-.309,0-.6,0-.9-.013H55.2l-6.212-.038c-4.681-.038-8.488-.064-11.587-.09h-.939c-4.012-.038-6.752-.051-8.616-.051h-.167c-1.35,0-2.225.013-2.8.026l7.78-7.042.694-.641,5.53-5.016.694-.629,5.517-5,.694-.629,5.543-5.016.694-.629,5.517-5,.694-.641,3.768-3.412,9.658.154.913.013,11.06.167,5.993.09h.013l.9.026,17.066.257.9.013,17.078.269.9.013,17.091.269.887.013,17.117.269.874.013,17.143.257.862.013,17.143.269.862.013,13.863.218Z" transform="translate(6.793 25.305)" fill="#becce3"/>
            <path id="Trazado_997498" data-name="Trazado 997498" d="M202.654,95.195l-.566.629-.862-.013L187.26,95.58l-.849-.013L169.2,95.285h-.013l-.849-.026-17.194-.282-.874-.013-17.168-.282h-.013l-.875-.026-17.143-.282-.9-.013-17.143-.282-.887-.026h-.013l-17.1-.282-.913-.013-17.1-.282H61l-.9-.026h-.013L50.234,93.3l-.926-.026L50,92.642l.926.013,9.825.167.913.013h.013l17.078.3h.013l.9.013,17.1.282.9.013,17.117.3h.013l.887.013h.013l17.13.282.887.013,17.156.3.875.013,17.181.282.862.013,17.194.3.849.013h.013l13.941.231Z" transform="translate(14.104 26.196)" fill="#becce3"/>
            <path id="Trazado_997499" data-name="Trazado 997499" d="M198.984,99.611l-.566.629-.862-.013L183.436,100l-.849-.013h-.013l-17.3-.3-.862-.013-17.284-.3h-.013l-.875-.013-17.271-.282-.887-.013-17.246-.3-.9-.013-17.233-.3-.9-.013-17.22-.282-.9-.013h-.013l-17.194-.3-.926-.013-10.147-.167-.939-.013.694-.641.939.026,10.108.167h.013l.913.013,17.194.282h.013l.887.026h.013l17.194.282h.013l.9.013,17.22.3.9.013,17.233.282.887.026,17.259.282.874.013h.013l17.271.3.862.013,17.3.282.862.013,14.095.244Z" transform="translate(12.719 27.437)" fill="#becce3"/>
            <path id="Trazado_997500" data-name="Trazado 997500" d="M180.191,103.777l-.579.629H179.6l-.849-.013-17.413-.3-.862-.013-17.387-.282h-.013l-.874-.013-17.361-.3h-.013l-.874-.013h-.013l-17.336-.3-.9-.013-17.336-.3-.9-.013h-.013l-17.31-.282h-.013l-.887-.026h-.013l-17.31-.282-.913-.013H51l-10.443-.18-.926-.013.694-.629.926.013,10.417.18.913.013h.013l17.3.282.9.013H70.8l17.3.3.9.013,17.323.3.9.013h.013l17.323.3h.013l.875.013h.013l17.349.282h.013l.874.013,17.374.3.862.013,17.4.3Z" transform="translate(11.335 28.684)" fill="#becce3"/>
            <path id="Trazado_997501" data-name="Trazado 997501" d="M161,103.465l-.566.629-.862-.013.566-.629Z" transform="translate(45.641 29.252)" fill="#becce3"/>
            <path id="Trazado_997502" data-name="Trazado 997502" d="M191.632,108.449l-.566.629-.862-.013-14.429-.244-.862-.013-17.5-.3-.862-.013-17.49-.3-.887-.013-17.464-.3-.887-.013-17.451-.3-.9-.013-17.439-.3-.9-.013-17.426-.3-.9-.013-17.413-.282h-.013l-.9-.026h-.013l-10.738-.18-.939-.013.694-.629.939.013,10.713.18.913.013h.013l17.387.3h.013l.9.013,17.413.3.9.013,17.426.3.9.013,17.439.3.887.013,17.451.3.887.013,17.477.3.862.013,17.5.282.849.026h.013l14.4.231Z" transform="translate(9.95 29.925)" fill="#becce3"/>
            <path id="Trazado_997503" data-name="Trazado 997503" d="M187.962,112.849l-.566.641-.862-.013-14.584-.244-.849-.026h-.013l-17.606-.282h-.013l-.849-.013h-.013l-17.58-.3h-.013l-.874-.013-17.567-.3-.887-.013h-.013L98.133,112l-.9-.013H97.22l-17.529-.3-.9-.013-17.529-.3-.9-.013-17.516-.3-.926-.013-11.034-.18-.939-.026.694-.629.939.013,11,.192h.013l.913.013,17.5.3.9.013,17.516.3.9.013h.013l17.529.282.9.026,17.541.282.875.026h.013l17.554.282h.013l.874.013,17.58.3.862.013,17.593.3h.013l.849.013h.013l14.558.244Z" transform="translate(8.566 31.169)" fill="#becce3"/>
            <path id="Trazado_997504" data-name="Trazado 997504" d="M47.609,105.982l.913.013-.656.641h-.013l-5.26,5.016-.656.629-7.215,6.876-.669.641h-.013c-.322,0-.617-.013-.913-.013l.656-.629,7.227-6.888.656-.629h.013l5.26-5.028h.013Z" transform="translate(9.476 29.968)" fill="#becce3"/>
            <path id="Trazado_997505" data-name="Trazado 997505" d="M60.991,92.782l.913.013-.656.641h-.013l-5.247,5-.656.629L50.06,104.1h-.013l-.656.629-.913-.013.656-.629,5.273-5.028.656-.629h.013l5.247-5.016h.013Z" transform="translate(13.866 26.235)" fill="#becce3"/>
            <path id="Trazado_997506" data-name="Trazado 997506" d="M62.59,89.635l-.669.629-.913-.013.656-.629Z" transform="translate(17.45 25.342)" fill="#becce3"/>
            <path id="Trazado_997507" data-name="Trazado 997507" d="M84.35,89.845l-.656.641-3.562,3.451-.643.629-5.17,5.016h-.013l-.643.629-5.17,5.016H68.48l-.643.641h-.013l-5.157,5-.656.629-5.183,5.028-.643.629-6.919,6.709-.656.641H48.6c-.309,0-.6,0-.9-.013l.656-.641h.013l6.919-6.709.643-.629,5.183-5.028.643-.629h.013l5.157-5.016h.013l.643-.629,5.17-5.016h.013l.643-.641h.013l5.157-5,.643-.629h.013l3.549-3.463h.013l.643-.629Z" transform="translate(13.643 25.401)" fill="#becce3"/>
            <path id="Trazado_997508" data-name="Trazado 997508" d="M98.138,90.065l-.643.629L93.971,94.17l-.643.641-5.067,5-.643.629-5.093,5.028-.63.629-5.08,5.016-.643.629-5.08,5.028H71.08l-.63.629-6.636,6.555H63.8l-.643.641c-.309,0-.592-.013-.9-.013l.63-.629H62.9l6.649-6.568.63-.629,5.093-5.028.643-.629,5.067-5.016H81l.63-.629,5.093-5.028.63-.629h.013l5.067-5.016h.013l.63-.629,3.524-3.476.63-.629Z" transform="translate(17.807 25.463)" fill="#becce3"/>
            <path id="Trazado_997509" data-name="Trazado 997509" d="M77.435,116.6c.3,0,.6.013.913.013l-.617.629h-.013c-.3,0-.6,0-.9-.013Z" transform="translate(21.972 32.971)" fill="#becce3"/>
            <path id="Trazado_997510" data-name="Trazado 997510" d="M110.381,90.285l-.63.629-3.472,3.5h-.013l-.617.629-4.99,5.016-.63.629-4.99,5.028h-.013l-.617.629-4.99,5.016-.63.629-4.99,5.028-.63.629-.9-.013.63-.641,4.99-5.016.63-.629,4.99-5.016.617-.629,5-5.028.63-.629,4.99-5.016.617-.629h.013l3.472-3.5.63-.629Z" transform="translate(23.531 25.525)" fill="#becce3"/>
            <path id="Trazado_997511" data-name="Trazado 997511" d="M91.982,116.732c.3,0,.592.013.887.013l-.592.616h-.013c-.3.013-.592,0-.887,0Z" transform="translate(26.137 33.007)" fill="#becce3"/>
            <path id="Trazado_997512" data-name="Trazado 997512" d="M124.242,90.5l-.617.629-3.434,3.515-.617.641h-.013l-4.887,5.016-.617.629-4.9,5.028h-.013l-.6.629h-.013l-4.887,5.016-.617.629-4.9,5.028H98.11l-.6.629-.887-.013.617-.641,4.9-5.016.617-.629,4.887-5.016h.013l.6-.629h.013l4.9-5.028.617-.641,4.9-5.016.617-.629,3.434-3.515.6-.629h.013Z" transform="translate(27.635 25.588)" fill="#becce3"/>
            <path id="Trazado_997513" data-name="Trazado 997513" d="M139.558,90.715l-.6.641-3.4,3.54-.6.629-4.8,5.016h-.013l-.592.629h-.013l-4.81,5.028-.6.641h-.013l-4.8,5.016-.6.629L113.9,117.5l-.6.641h-.013l-5.864,6.119-.6.641c-.3-.013-.592-.013-.887-.013l.6-.629,5.877-6.132.6-.641h.013l4.8-5.016.6-.629,4.81-5.016.6-.641h.013l4.81-5.028.6-.629,4.81-5.016.6-.629,3.4-3.54.6-.641Z" transform="translate(30.298 25.647)" fill="#becce3"/>
            <path id="Trazado_997514" data-name="Trazado 997514" d="M153.385,90.935l-.592.629-3.357,3.566-.592.641h-.013l-4.707,5.016-.592.629-4.733,5.028-.592.629-4.72,5.028-.592.629-4.72,5.016-.592.641h-.013l-5.62,5.978-.6.641c-.283,0-.566-.013-.862,0l.6-.654,5.62-5.978h.013l.592-.641,4.72-5.016.592-.629,4.72-5.028.592-.629,4.733-5.028.592-.629,4.72-5.028.592-.629,3.357-3.566.592-.629Z" transform="translate(34.463 25.709)" fill="#becce3"/>
            <path id="Trazado_997515" data-name="Trazado 997515" d="M146.828,107.652l.849.026-.579.629-4.617,5.016h-.013l-.579.641L136.5,119.8l-.579.629c-.283.013-.579,0-.875,0l.592-.641,5.388-5.849h.013l.566-.629h.013l4.617-5.016Z" transform="translate(38.627 30.44)" fill="#becce3"/>
            <path id="Trazado_997516" data-name="Trazado 997516" d="M158.817,94.432l.849.013-.579.629-4.617,5.016-.592.641-4.63,5.028-.579.629h-.013l-.849-.013.579-.629,4.63-5.028h.013l.579-.641,4.63-5.016Z" transform="translate(42.277 26.702)" fill="#becce3"/>
            <path id="Trazado_997517" data-name="Trazado 997517" d="M160.379,91.155l-.579.629-.862-.013.579-.629Z" transform="translate(45.461 25.771)" fill="#becce3"/>
            <path id="Trazado_997518" data-name="Trazado 997518" d="M50.514,129.006l9.784-9.1a1.393,1.393,0,0,1,.971-.371l63.8,1.094a1.384,1.384,0,0,1,1.152,2.12l-5.121,8.131a1.374,1.374,0,0,1-1.175.649c-6.642-.038-54.684-.309-68.451-.13a1.381,1.381,0,0,1-.957-2.4" transform="translate(14.321 33.8)" fill="#294972"/>
            <path id="Trazado_997519" data-name="Trazado 997519" d="M74.52,61.935l5.289-24.317a7.516,7.516,0,0,1,7.625-5.9L193.617,35.6a7.506,7.506,0,0,1,7.117,8.874L196.119,69.1a7.516,7.516,0,0,1-7.688,6.116l-106.859-4.2a7.505,7.505,0,0,1-7.053-9.086" transform="translate(21.265 11.284)" fill="#004b84"/>
            <path id="Trazado_997520" data-name="Trazado 997520" d="M95.679,44.066a3.615,3.615,0,0,0-.965-1.334,4.788,4.788,0,0,0-1.273-.8,3.92,3.92,0,0,0-1.325-.321l-3.292-.167a2.919,2.919,0,0,0-.8.051.712.712,0,0,0-.424.308,1.1,1.1,0,0,0-.167.4,3.773,3.773,0,0,0-.051.526l-.424,8.543c-.013.192-.013.334-.013.436a1.518,1.518,0,0,0,.064.359.618.618,0,0,0,.193.321,1.332,1.332,0,0,0,.386.205,2.23,2.23,0,0,0,.656.115,2.849,2.849,0,0,0,.8-.064.649.649,0,0,0,.424-.3,1.1,1.1,0,0,0,.167-.4,3.793,3.793,0,0,0,.051-.539l.09-1.732,1.929.09a3.925,3.925,0,0,0,1.35-.18,5.092,5.092,0,0,0,1.35-.667A3.533,3.533,0,0,0,95.5,47.7a4.1,4.1,0,0,0,.489-1.8,4.31,4.31,0,0,0-.309-1.834M92.773,46.76a1.468,1.468,0,0,1-.926.3l-1.942-.09.141-2.719,1.929.09a1.423,1.423,0,0,1,.9.4,1.181,1.181,0,0,1,.4,1.026,1.2,1.2,0,0,1-.5,1" transform="translate(24.869 14.037)" fill="#fff"/>
            <path id="Trazado_997521" data-name="Trazado 997521" d="M106.618,43.824a5.49,5.49,0,0,0-3.884-1.834,5.289,5.289,0,0,0-2.083.321,5.95,5.95,0,0,0-1.839,1.1,5.693,5.693,0,0,0-1.325,1.809,6.252,6.252,0,0,0-.579,2.36,5.636,5.636,0,0,0,1.44,4.118,5.4,5.4,0,0,0,3.948,1.886,5.141,5.141,0,0,0,3.987-1.526,5.715,5.715,0,0,0,1.8-3.989,5.549,5.549,0,0,0-1.466-4.246m-2.251,6.3a2.782,2.782,0,0,1-2.019.731,2.735,2.735,0,0,1-1.929-.949,2.873,2.873,0,0,1-.772-2.245,2.941,2.941,0,0,1,.99-2.194,2.754,2.754,0,0,1,2.019-.757,2.786,2.786,0,0,1,1.929.949,3.273,3.273,0,0,1-.219,4.464" transform="translate(27.716 14.189)" fill="#fff"/>
            <path id="Trazado_997522" data-name="Trazado 997522" d="M117.184,44.459a5.566,5.566,0,0,0-3.858-1.8q-.482-.019-1.427-.077c-.643-.038-1.106-.064-1.415-.077a2.919,2.919,0,0,0-.8.051.692.692,0,0,0-.437.308.927.927,0,0,0-.154.385,3.794,3.794,0,0,0-.051.539l-.424,8.543a4.056,4.056,0,0,0,0,.564,1.1,1.1,0,0,0,.141.423.644.644,0,0,0,.4.321,2.3,2.3,0,0,0,.746.128l2.816.141a5.43,5.43,0,0,0,4.1-1.475,5.526,5.526,0,0,0,1.852-3.938,5.279,5.279,0,0,0-1.492-4.041m-2.238,6.016a2.885,2.885,0,0,1-2.045.718l-1.492-.077.283-5.811,1.492.077a2.841,2.841,0,0,1,1.993.936,2.784,2.784,0,0,1,.772,2.117,2.708,2.708,0,0,1-1,2.04" transform="translate(31.065 14.337)" fill="#fff"/>
            <path id="Trazado_997523" data-name="Trazado 997523" d="M123.361,46.451a3.579,3.579,0,0,1,1-.475,3.082,3.082,0,0,1,1-.128,2.661,2.661,0,0,1,1.7.616,1.709,1.709,0,0,0,.772.372c.309.013.694-.244,1.119-.782a1.4,1.4,0,0,0,.36-.808.756.756,0,0,0-.1-.436,1.455,1.455,0,0,0-.27-.334c-.09-.077-.231-.18-.412-.308l-.347-.231a5.867,5.867,0,0,0-1.119-.513,5.414,5.414,0,0,0-1.466-.3,6.658,6.658,0,0,0-1.479.128,6.652,6.652,0,0,0-3.074,1.552,5.337,5.337,0,0,0-1.106,1.565,5.759,5.759,0,0,0-.5,2.142,6.16,6.16,0,0,0,.3,2.258,5.315,5.315,0,0,0,.952,1.732,6.634,6.634,0,0,0,1.376,1.167,6.223,6.223,0,0,0,1.5.731,6,6,0,0,0,1.427.257,5.2,5.2,0,0,0,1.582-.167,6.091,6.091,0,0,0,1.055-.346c.18-.09.309-.167.412-.231a3.458,3.458,0,0,0,.643-.423.709.709,0,0,0,.232-.513,1.685,1.685,0,0,0-.3-.9c-.334-.59-.669-.9-.99-.911a1.671,1.671,0,0,0-.746.269l-.1.051-.193.141a2.267,2.267,0,0,1-.617.205,3.028,3.028,0,0,1-.913.09,3.466,3.466,0,0,1-.965-.218,3.871,3.871,0,0,1-.952-.564,2.627,2.627,0,0,1-.746-1,3.171,3.171,0,0,1-.231-1.411,2.987,2.987,0,0,1,.373-1.373,2.6,2.6,0,0,1,.823-.911" transform="translate(34.16 14.513)" fill="#fff"/>
            <path id="Trazado_997524" data-name="Trazado 997524" d="M140.536,53.355l-3.729-8.787a1.323,1.323,0,0,0-1.2-.859,1.425,1.425,0,0,0-.746.18,1.45,1.45,0,0,0-.54.539l-4.591,8.389a1.867,1.867,0,0,0-.3.782c-.026.359.257.706.849,1.026a2.066,2.066,0,0,0,.862.308.8.8,0,0,0,.45-.128.956.956,0,0,0,.283-.269c.064-.09.154-.244.27-.436l.875-1.629,4.27.218.72,1.693c.1.218.167.372.219.475a1.09,1.09,0,0,0,.257.308.766.766,0,0,0,.437.167,2.224,2.224,0,0,0,.887-.218c.617-.269.926-.59.952-.962a2.013,2.013,0,0,0-.231-.8m-6.289-3.1,1.132-2.052.926,2.155Z" transform="translate(37.022 14.677)" fill="#fff"/>
            <path id="Trazado_997525" data-name="Trazado 997525" d="M148.87,50.64a1.107,1.107,0,0,0-.09-.218,2.265,2.265,0,0,0-.939-1.013,7.915,7.915,0,0,0-1.247-.526,10.723,10.723,0,0,0-1.273-.346,2.232,2.232,0,0,1-.952-.41.8.8,0,0,1-.36-.731.75.75,0,0,1,.36-.616,1.325,1.325,0,0,1,.707-.205,2.454,2.454,0,0,1,.592.1,1.416,1.416,0,0,1,.36.154,2.684,2.684,0,0,1,.231.205,1.909,1.909,0,0,0,.167.167,1.615,1.615,0,0,0,.784.346,1.416,1.416,0,0,0,1.119-.718,1.781,1.781,0,0,0,.412-.847c.013-.192-.141-.436-.437-.757l-.077-.064-.3-.244a3.07,3.07,0,0,0-1.029-.539,5.7,5.7,0,0,0-1.685-.321,3.752,3.752,0,0,0-2.8.872,3.256,3.256,0,0,0-1.119,2.309,3.3,3.3,0,0,0,.309,1.706,2.532,2.532,0,0,0,.926,1.065,7.961,7.961,0,0,0,1.235.629,8.8,8.8,0,0,0,1.247.41,3.026,3.026,0,0,1,.965.385.7.7,0,0,1,.36.616.355.355,0,0,1-.013.115c-.077.706-.566,1.026-1.479.988a.647.647,0,0,1-.154-.026,1.647,1.647,0,0,1-.527-.218,2.5,2.5,0,0,1-.463-.359c-.077-.09-.129-.154-.167-.205l-.077-.077a1.9,1.9,0,0,0-1.132-.757,1.165,1.165,0,0,0-.8.334,1.822,1.822,0,0,0-.72,1.078,1.51,1.51,0,0,0,.373.834l.129.18a2.661,2.661,0,0,0,.4.462,4.2,4.2,0,0,0,.347.308c.1.077.219.167.334.244a4.063,4.063,0,0,0,1.029.475,4.828,4.828,0,0,0,1.363.244,4.558,4.558,0,0,0,1.376-.128,5.449,5.449,0,0,0,1.35-.552A3.082,3.082,0,0,0,148.6,53.86a3.683,3.683,0,0,0,.489-1.719,3.625,3.625,0,0,0-.219-1.5" transform="translate(40.275 14.775)" fill="#fff"/>
            <path id="Trazado_997526" data-name="Trazado 997526" d="M160.543,45.459a.527.527,0,0,0-.258-.346,1.074,1.074,0,0,0-.307-.141c-.091-.013-.244-.026-.451-.038l-3.575-.18-4.99-.244a2.715,2.715,0,0,0-.463,0,1.1,1.1,0,0,0-.334.1.513.513,0,0,0-.283.321,2.467,2.467,0,0,0-.1.629,2.528,2.528,0,0,0,.039.654.563.563,0,0,0,.244.346,1.129,1.129,0,0,0,.334.128,2.542,2.542,0,0,0,.439.051l1.658.077,1.3.064-.386,7.722a3.173,3.173,0,0,0,0,.526,1.454,1.454,0,0,0,.116.41.709.709,0,0,0,.386.334,2.3,2.3,0,0,0,.757.128,2.874,2.874,0,0,0,.786-.051.7.7,0,0,0,.424-.3,1.538,1.538,0,0,0,.153-.385c.014-.115.039-.282.053-.526l.372-7.735,2.945.154h.463a1.6,1.6,0,0,0,.336-.1.59.59,0,0,0,.283-.321,2.573,2.573,0,0,0,.1-.629,2.472,2.472,0,0,0-.039-.654" transform="translate(42.839 14.901)" fill="#fff"/>
            <g id="Grupo_1190298" data-name="Grupo 1190298" transform="translate(21.743 197.039)" opacity="0.15">
              <g id="Grupo_1190297" data-name="Grupo 1190297">
                <g id="Grupo_1190296" data-name="Grupo 1190296" clip-path="url(#clip-path-2)">
                  <path id="Trazado_997527" data-name="Trazado 997527" d="M134.143,156.895c0,1.929-18.817,3.493-42.029,3.493s-42.029-1.564-42.029-3.493S68.9,153.4,92.115,153.4s42.029,1.564,42.029,3.493" transform="translate(-50.087 -153.402)" fill="#502750"/>
                </g>
              </g>
            </g>
            <rect id="Rectángulo_456116" data-name="Rectángulo 456116" width="38.983" height="6.12" transform="translate(43.974 155.033)" fill="#888ea6"/>
            <path id="Trazado_1000586" data-name="Trazado 1000586" d="M19.7,57.633H8.512a5.227,5.227,0,0,1-5.234-5.22V48.091a5.228,5.228,0,0,1,5.234-5.22H19.7Z" transform="translate(17.596 63.377)" fill="#888ea6"/>
            <path id="Trazado_1000587" data-name="Trazado 1000587" d="M44.332,57.633h11.19a5.227,5.227,0,0,0,5.234-5.22V48.091a5.228,5.228,0,0,0-5.234-5.22H44.332Z" transform="translate(42.776 63.377)" fill="#888ea6"/>
            <path id="Trazado_1000588" data-name="Trazado 1000588" d="M67.492,37.79V37.8c0,1.452-.015,2.792-.056,3.962,0,.212-.015.409-.015.607-.042,1.339-.1,2.44-.127,3.215-.027.549-.042.93-.056,1.114v.127l-3.407.042c-.14,0-.282.014-.423.014-1.725.014-3.959.042-6.532.085h-.424l-2.827.042c-.213,0-.424.014-.637.014l-3.067.042H49.5l-6.531.085a.169.169,0,0,1-.071.013h-.65c-2.078.043-4.17.071-6.236.1H35.6c-1.173.013-2.333.042-3.477.056h-.65c-.821.013-1.612.027-2.4.042-.142,0-.269.014-.41.014-2.333.027-4.538.071-6.532.113H21.32c-.226.014-.439.014-.65.014-5.161.1-8.61.183-8.652.225,0,0-.015-.2-.015-.565,0-.14-.013-.3,0-.48-.013-.127-.013-.267-.013-.423-.015-1.424.027-3.793.239-6.725.015-.142.015-.3.029-.438.127-1.522.3-3.2.523-4.965.029-.169.056-.338.071-.521.015-.056.015-.1.029-.154.069-.494.14-.986.211-1.495.029-.154.042-.311.071-.48.268-1.9.565-3.891.918-5.909.029-.154.056-.323.1-.492.056-.311.113-.634.169-.959a4.663,4.663,0,0,0,.1-.48,55.894,55.894,0,0,1,1.484-5.795,4.218,4.218,0,0,1,.142-.438c.2-.634.424-1.255.65-1.876.086-.182.155-.38.226-.563a31.728,31.728,0,0,1,1.7-3.568c.071-.113.127-.225.2-.338a23.161,23.161,0,0,1,3.507-4.612c.084-.084.169-.169.253-.24A19.63,19.63,0,0,1,27.031,2.96c.1-.056.2-.113.311-.169A23.378,23.378,0,0,1,32.63.845c.113-.029.24-.056.368-.085A32.119,32.119,0,0,1,39.118.04h.3a.192.192,0,0,1,.127,0c.169-.014.353-.014.523-.014h.1a31.893,31.893,0,0,1,6.376.621c.184.042.353.085.508.127.439.1.863.211,1.287.338a2.635,2.635,0,0,1,.437.127,22.058,22.058,0,0,1,5.811,2.721c.113.071.211.142.31.212a21.479,21.479,0,0,1,4.2,3.779c.071.085.155.169.226.269a26.2,26.2,0,0,1,3.054,4.554c.056.1.113.2.169.311a36.423,36.423,0,0,1,2.163,5.132,3.193,3.193,0,0,0,.113.352A46.227,46.227,0,0,1,66.248,24.2c.027.127.056.24.084.367.382,2.044.652,4.075.821,6.035.015.1.015.2.027.282,0,.043.015.071.015.113v.014c.015.212.029.409.042.607.169,2.045.226,3.991.24,5.768a3.846,3.846,0,0,1,.015.409" transform="translate(22.938 37.274)" fill="#17428d"/>
            <path id="Trazado_1000589" data-name="Trazado 1000589" d="M37.742.056c.169-.014.353-.014.523-.014L37.9.282l-.3.2L33.034,3.511l-.3.2L28.171,6.754l-.284.183-4.58,3.046-.282.183L18.459,13.2l-.284.2-3.251,2.156c.086-.183.155-.38.226-.563l2.828-1.876.3-.2,4.566-3.032.282-.2L27.69,6.656l.3-.2,4.566-3.032.3-.2L37.4.2l.211-.142L37.7,0Z" transform="translate(24.739 37.258)" fill="#c8eefe"/>
            <path id="Trazado_1000590" data-name="Trazado 1000590" d="M47.876.828l-.976.649-.3.2L42.037,4.706l-.3.2L37.175,7.935l-.3.2-4.553,3.032-.3.2-4.566,3.046-.3.183-4.553,3.03-.3.2L17.75,20.867l-.3.183-4,2.665a4.664,4.664,0,0,0,.1-.48l3.7-2.467.3-.2,4.566-3.032.3-.2,4.567-3.032.282-.2,4.566-3.033.3-.2,4.567-3.032.3-.2,4.551-3.046.3-.2,4.567-3.032.3-.2L47.437.7a2.652,2.652,0,0,1,.439.127" transform="translate(23.836 37.685)" fill="#c8eefe"/>
            <path id="Trazado_1000591" data-name="Trazado 1000591" d="M54.475,2.682,50.616,5.249l-.3.2L45.766,8.478l-.3.2L40.9,11.706l-.3.2-4.567,3.032-.3.2-4.566,3.032-.282.2-4.567,3.032-.3.2-4.566,3.032-.3.2L16.6,27.854l-.3.2-3.632,2.425c.027-.154.04-.309.068-.48l3.367-2.242.3-.2,4.566-3.032.3-.2L25.833,21.3l.3-.2L30.7,18.066l.282-.2,4.569-3.033.3-.2,4.566-3.032.3-.2,4.566-3.032.3-.2L50.12,5.15l.3-.2,3.746-2.481c.113.069.213.14.311.211" transform="translate(23.359 38.764)" fill="#c8eefe"/>
            <path id="Trazado_1000592" data-name="Trazado 1000592" d="M59.229,5.218,54.182,8.575l-.3.2L49.318,11.8l-.3.2L44.47,15.033l-.3.2-4.567,3.045-.3.183-4.566,3.046-.3.183-4.553,3.046-.3.183-4.566,3.045-.3.2-4.566,3.032-.3.2-4.553,3.032-.3.2-2.885,1.918c.015-.142.015-.3.029-.438l2.657-1.777.3-.2,4.567-3.032.3-.2,4.551-3.032.3-.2L29.4,24.635l.3-.2,4.566-3.032.282-.2,4.567-3.032.3-.2,4.566-3.032.3-.2,4.566-3.032.3-.2L53.7,8.49l.3-.2,5-3.341c.071.084.155.169.226.267" transform="translate(23.03 40.275)" fill="#c8eefe"/>
            <path id="Trazado_1000593" data-name="Trazado 1000593" d="M62.543,8.258,57.511,11.6l-.3.2-4.553,3.032-.3.2L47.8,18.058l-.3.2-4.567,3.032-.3.2L38.072,24.53l-.282.183L33.222,27.76l-.3.183L28.36,30.99l-.3.2L23.51,34.218l-.3.2-4.566,3.032-.3.2L12,41.862c-.013-.127-.013-.269-.013-.423l6.163-4.091.3-.2,4.566-3.032.3-.2,4.567-3.032.282-.2,4.566-3.032.3-.2,4.567-3.032.282-.2,4.566-3.045.3-.183L47.3,17.96l.3-.2,4.566-3.032.3-.2L57.03,11.5l.3-.2,5.047-3.357c.056.1.113.2.169.311" transform="translate(22.939 42.099)" fill="#c8eefe"/>
            <path id="Trazado_1000594" data-name="Trazado 1000594" d="M61.52,11.682l-4.058,2.694-.3.2L52.6,17.619l-.3.2-4.567,3.032-.3.2-4.566,3.032-.3.2L38.01,27.307v.014l-.284.183L33.16,30.536l-.3.2L28.3,33.779l-.284.183-4.566,3.046-.3.183-4.566,3.046-.552.365h-.015c-.226.014-.439.014-.65.014l.721-.48.3-.2L22.953,36.9l.3-.183,4.567-3.046.282-.183,4.566-3.046.3-.2,4.567-3.032.282-.183v-.014l4.58-3.032.282-.2,4.567-3.032.3-.2L52.1,17.521l.3-.2,4.566-3.046.3-.2,4.143-2.75a3.306,3.306,0,0,0,.113.352" transform="translate(26.238 44.161)" fill="#c8eefe"/>
            <path id="Trazado_1000595" data-name="Trazado 1000595" d="M58.927,15.412l-2.335,1.551-.3.2L51.73,20.206l-.3.2-4.567,3.032-.3.2L42,26.665l-.282.2-4.567,3.032-.3.2L32.29,33.123l-.281.2-4.582,3.045-.282.183-2.431,1.622h-.65l2.885-1.918.282-.183,4.58-3.045.282-.2L36.661,29.8l.3-.2,4.564-3.032.282-.2,4.567-3.032.3-.2,4.564-3.032.3-.2L56.1,16.865l.3-.2,2.444-1.622c.029.127.056.24.087.367" transform="translate(30.345 46.424)" fill="#c8eefe"/>
            <path id="Trazado_1000596" data-name="Trazado 1000596" d="M55.736,19.39l-.042.031v.011l-.255.156L50.873,22.62l-.3.2-4.551,3.045-.3.2-4.566,3.033-.3.2L36.3,32.323l-.3.2-4.566,3.032-.042.042H30.74l.213-.142.282-.2,4.567-3.03.3-.2,4.566-3.033.3-.2,4.566-3.03.3-.2,4.553-3.046.3-.2,4.566-3.032.3-.2.113-.072c.015.1.015.2.029.285Z" transform="translate(34.44 48.848)" fill="#c8eefe"/>
            <path id="Trazado_1000597" data-name="Trazado 1000597" d="M51.906,23.648v.014L50.026,24.9l-.3.2-4.567,3.032-.3.2-4.551,3.032-.3.2-1.98,1.312c-.213,0-.424.014-.637.014l2.418-1.608.3-.2,4.566-3.046.3-.2L49.545,24.8l.3-.2,2.049-1.368a3.846,3.846,0,0,1,.015.409" transform="translate(38.524 51.416)" fill="#c8eefe"/>
            <path id="Trazado_1000598" data-name="Trazado 1000598" d="M54.059,30.772c.015.212.029.409.042.607l-.3-.452-.2-.3-3.04-4.554-.2-.3-3.04-4.554-.2-.3-3.052-4.541-.184-.3-3.054-4.554-.184-.283L37.6,6.7l-.2-.3-3.04-4.554-.2-.3L33.4.412c.184.042.353.084.508.127l.552.817.2.3L37.7,6.207l.2.3,3.054,4.556.184.282,3.054,4.554.184.3,3.052,4.541.2.3,3.04,4.554.2.3,3.04,4.556.14.211.056.085-.042.027Z" transform="translate(36.074 37.508)" fill="#c8eefe"/>
            <path id="Trazado_1000599" data-name="Trazado 1000599" d="M57.121,41.783c0,.211-.015.409-.015.607L55,39.259l-.184-.3-3.054-4.556-.2-.3-3.04-4.54-.2-.3-3.04-4.556-.2-.3-3.04-4.554-.2-.3L38.8,15.018l-.182-.282-3.04-4.554-.2-.3L32.324,5.33l-.2-.3L29.086.48,28.89.2,28.8.056h.3L29.186,0l.042.056.156.225,3.038,4.556.2.3,3.054,4.554.2.3,3.04,4.554.184.283,3.052,4.554.2.3,3.04,4.554.2.3,3.04,4.556.2.3,3.04,4.54.2.3,3.054,4.556.184.3Z" transform="translate(33.252 37.258)" fill="#c8eefe"/>
            <path id="Trazado_1000600" data-name="Trazado 1000600" d="M55.982,46.593c-.142,0-.282.014-.424.014L52.6,42.194l-.184-.3-3.04-4.541-.2-.3-3.054-4.554-.2-.3-3.04-4.554-.2-.3L39.654,22.8l-.2-.3-3.04-4.554-.2-.282-3.04-4.556-.2-.3L29.927,8.266l-.184-.282L26.691,3.416l-.184-.283L24.782.566c.113-.027.24-.056.366-.084L26.8,2.936l.184.282L30.04,7.786l.184.282,3.054,4.556.2.3,3.04,4.554.2.282,3.04,4.556.2.3,3.04,4.554.2.3,3.04,4.554.2.3,3.054,4.556.2.3,3.04,4.54.184.3Z" transform="translate(30.785 37.552)" fill="#c8eefe"/>
            <path id="Trazado_1000601" data-name="Trazado 1000601" d="M51.156,45.923h-.424l-.849-1.27-.2-.282-3.04-4.554-.2-.3-3.04-4.556-.2-.3-3.052-4.554-.184-.3L36.92,25.265l-.2-.3-3.04-4.556-.2-.282-3.038-4.554-.2-.3-3.04-4.554-.2-.282-3.04-4.569-.2-.282-2.46-3.68c.1-.058.2-.114.311-.171L24.069,5.4l.182.3,3.054,4.554.2.283,3.04,4.554.2.3,3.04,4.554.2.3,3.04,4.556.2.282,3.04,4.554.2.3,3.04,4.556.2.3,3.054,4.554.2.3,3.04,4.554.2.283Z" transform="translate(28.657 38.32)" fill="#c8eefe"/>
            <path id="Trazado_1000602" data-name="Trazado 1000602" d="M45.979,44.725h-.424L43.562,41.75l-.2-.3L40.324,36.9l-.2-.3-3.04-4.556-.2-.3L33.85,27.2l-.2-.282L30.6,22.347l-.184-.283-3.04-4.554-.2-.3L24.123,12.66l-.184-.283L20.885,7.808,20.7,7.526,18.412,4.113c.084-.084.169-.169.253-.24l2.318,3.455.184.3,3.054,4.556.2.3,3.04,4.54.2.3,3.04,4.556.2.3,3.04,4.554.2.3,3.04,4.541v.013l.2.283v.013l3.054,4.541.2.3,3.04,4.554Z" transform="translate(26.879 39.617)" fill="#c8eefe"/>
            <path id="Trazado_1000603" data-name="Trazado 1000603" d="M40.432,42.973a.152.152,0,0,1-.071.014h-.339l-.1-.142-3.04-4.554-.2-.3L33.632,33.44l-.2-.3-3.04-4.554-.2-.282-3.04-4.569-.2-.283L23.92,18.9l-.2-.3-3.04-4.554-.2-.283L17.445,9.2l-.2-.282L16.116,7.225c.071-.113.127-.225.2-.338L17.544,8.72,17.728,9l3.054,4.57.2.282,3.04,4.554.2.3,3.04,4.556.2.3,3.04,4.554.2.3,3.04,4.541.2.3,3.04,4.554.2.3,3.04,4.554.2.3Z" transform="translate(25.47 41.454)" fill="#c8eefe"/>
            <path id="Trazado_1000604" data-name="Trazado 1000604" d="M34.508,40.683H34.1l-1.047-1.566-.2-.3-3.04-4.554-.2-.3L26.562,29.43l-.184-.3-3.052-4.554-.2-.3-3.04-4.554-.2-.3-3.04-4.556-.2-.282-2.22-3.328a3.863,3.863,0,0,1,.142-.438L16.95,14.4l.2.3,3.04,4.541.2.3,3.04,4.554.2.3,3.04,4.556.2.3,3.04,4.554.2.3,3.04,4.554.2.3Z" transform="translate(24.438 43.856)" fill="#c8eefe"/>
            <path id="Trazado_1000605" data-name="Trazado 1000605" d="M28.271,37.878c-.142,0-.269.014-.41.014l-2.205-3.3-.2-.3-3.04-4.54-.2-.3L19.167,24.9l-.184-.3-3.054-4.554-.2-.3-2.446-3.666c.029-.156.056-.325.1-.494l2.643,3.962.2.3,3.054,4.556.184.3,3.054,4.554.2.3,3.04,4.554.2.3Z" transform="translate(23.734 46.76)" fill="#c8eefe"/>
            <path id="Trazado_1000606" data-name="Trazado 1000606" d="M21.823,34.774H21.4l-.113-.167-.2-.3-3.04-4.556-.2-.3L14.812,24.9l-.2-.3-2.134-3.186c.027-.171.056-.34.071-.523l2.36,3.511.2.3,3.04,4.556.2.3,3.04,4.554.2.3Z" transform="translate(23.239 49.99)" fill="#c8eefe"/>
            <g id="Grupo_1191878" data-name="Grupo 1191878" transform="translate(34.926 70.135)" opacity="0.27">
              <g id="Grupo_1190288" data-name="Grupo 1190288">
                <g id="Grupo_1190287" data-name="Grupo 1190287" clip-path="url(#clip-path-3)">
                  <path id="Trazado_997484" data-name="Trazado 997484" d="M67.294,32.93c-.029.55-.042.93-.056,1.114L12,34.509A88.176,88.176,0,0,1,12.879,20.8Z" transform="translate(-11.988 -20.803)" fill="#502750"/>
                </g>
              </g>
            </g>
            <path id="Trazado_1000607" data-name="Trazado 1000607" d="M68.029,30.827V93.353a6.6,6.6,0,0,1-6.616,6.6H18.1a6.608,6.608,0,0,1-6.616-6.6V30.827Z" transform="translate(22.627 56.039)" fill="#a284a3"/>
            <g id="Grupo_1191879" data-name="Grupo 1191879" transform="translate(34.107 86.867)" opacity="0.67">
              <g id="Grupo_1190291" data-name="Grupo 1190291">
                <g id="Grupo_1190290" data-name="Grupo 1190290" clip-path="url(#clip-path-4)">
                  <path id="Trazado_997486" data-name="Trazado 997486" d="M68.029,30.827V93.353a6.6,6.6,0,0,1-6.616,6.6H18.1a6.608,6.608,0,0,1-6.616-6.6V30.827Z" transform="translate(-11.48 -30.827)" fill="#b6cfe3"/>
                </g>
              </g>
            </g>
            <g id="Grupo_1191880" data-name="Grupo 1191880" transform="translate(34.107 86.867)" opacity="0.27">
              <g id="Grupo_1190294" data-name="Grupo 1190294">
                <g id="Grupo_1190293" data-name="Grupo 1190293" clip-path="url(#clip-path-5)">
                  <path id="Trazado_997487" data-name="Trazado 997487" d="M68.03,31v.649L49.863,35.269l-3.535.7L11.48,42.926v-12.1H60.594Z" transform="translate(-11.48 -30.827)" fill="#502750"/>
                </g>
              </g>
            </g>
            <path id="Trazado_1000608" data-name="Trazado 1000608" d="M72.834,33.629h-61.8a2.6,2.6,0,1,1,0-5.2h61.8a2.6,2.6,0,1,1,0,5.2" transform="translate(20.753 54.577)" fill="#12263f"/>
            <rect id="Rectángulo_456117" data-name="Rectángulo 456117" width="56.549" height="0.705" transform="translate(34.107 91.308)" fill="#12263f"/>
            <path id="Trazado_1000609" data-name="Trazado 1000609" d="M36.447,60.191c0,4.623-2.141,8.371-4.782,8.371s-4.784-3.748-4.784-8.371,2.141-8.371,4.784-8.371S36.447,55.568,36.447,60.191Z" transform="translate(32.073 68.829)" fill="none" stroke="#12263f" stroke-miterlimit="10" stroke-width="0.438"/>
            <rect id="Rectángulo_456118" data-name="Rectángulo 456118" width="2.526" height="36.903" transform="translate(62.203 159.895)" fill="#888ea6"/>
            <path id="Trazado_1000610" data-name="Trazado 1000610" d="M55.377,101.934h-37L35.4,98.394h2.767Z" transform="translate(26.859 97.205)" fill="#888ea6"/>
            <path id="Trazado_1000611" data-name="Trazado 1000611" d="M8.312,50.838V81.8A18.566,18.566,0,0,0,26.9,100.344H56.319A18.566,18.566,0,0,0,74.908,81.8V50.478" transform="translate(20.684 68.012)" fill="none" stroke="#888ea6" stroke-miterlimit="10" stroke-width="0.876"/>
            <rect id="Rectángulo_456119" data-name="Rectángulo 456119" width="295.786" height="264.014" transform="translate(15.586 37.258)" fill="none"/>
          </g>
        </g>
      </g>
    </g>
    <g id="Grupo_1099280" data-name="Grupo 1099280" transform="translate(376 1007.404)">
      <path id="Trazado_873137" data-name="Trazado 873137" d="M159.539,42.632a38.193,38.193,0,0,0-20.082,68.935L126.023,133.74,148.566,116.5a38.2,38.2,0,1,0,10.973-73.866" transform="translate(-123.817 -42.55)" fill="#fe93c4"/>
      <rect id="Rectángulo_401286" data-name="Rectángulo 401286" width="1.616" height="31.233" transform="translate(39.141 23.271)" fill="#502750"/>
      <path id="Trazado_873138" data-name="Trazado 873138" d="M152.484,94.427a1.257,1.257,0,0,1-1.258-1.256V58.058a1.258,1.258,0,0,1,2.516,0V93.171a1.257,1.257,0,0,1-1.258,1.256" transform="translate(-112.534 -36.684)" fill="#fff"/>
      <path id="Trazado_873139" data-name="Trazado 873139" d="M157.637,88.8a1.256,1.256,0,0,1-1.258-1.256V61.1a1.258,1.258,0,0,1,2.516,0V87.544a1.256,1.256,0,0,1-1.258,1.256" transform="translate(-110.414 -35.433)" fill="#fff"/>
      <path id="Trazado_873140" data-name="Trazado 873140" d="M146.726,88.8a1.256,1.256,0,0,1-1.258-1.256V61.1a1.258,1.258,0,0,1,2.516,0V87.544a1.256,1.256,0,0,1-1.258,1.256" transform="translate(-114.904 -35.433)" fill="#fff"/>
      <path id="Trazado_873141" data-name="Trazado 873141" d="M162.79,84.707a1.257,1.257,0,0,1-1.259-1.256V63.341a1.258,1.258,0,0,1,2.516,0V83.45a1.256,1.256,0,0,1-1.256,1.256" transform="translate(-108.291 -34.508)" fill="#fff"/>
      <path id="Trazado_873142" data-name="Trazado 873142" d="M141.876,84.707a1.257,1.257,0,0,1-1.258-1.256V63.341a1.258,1.258,0,0,1,2.516,0V83.45a1.257,1.257,0,0,1-1.258,1.256" transform="translate(-116.899 -34.508)" fill="#fff"/>
      <path id="Trazado_873143" data-name="Trazado 873143" d="M167.335,79.509a1.257,1.257,0,0,1-1.258-1.256V66.192a1.258,1.258,0,0,1,2.516,0v12.06a1.257,1.257,0,0,1-1.258,1.256" transform="translate(-106.42 -33.335)" fill="#fff"/>
      <path id="Trazado_873144" data-name="Trazado 873144" d="M136.724,79.509a1.257,1.257,0,0,1-1.258-1.256V66.192a1.258,1.258,0,0,1,2.516,0v12.06a1.257,1.257,0,0,1-1.258,1.256" transform="translate(-119.021 -33.335)" fill="#fff"/>
    </g>
  </g>
</svg>
