<svg xmlns="http://www.w3.org/2000/svg" xmlns:xlink="http://www.w3.org/1999/xlink" width="84" height="84" viewBox="0 0 84 84">
  <defs>
    <clipPath id="clip-path">
      <rect id="Rectángulo_456484" data-name="Rectángulo 456484" width="60.254" height="45.959" fill="#12263f"/>
    </clipPath>
  </defs>
  <g id="Grupo_1191989" data-name="Grupo 1191989" transform="translate(-179.668 -5521)">
    <rect id="Rectángulo_402006" data-name="Rectángulo 402006" width="84" height="84" rx="5" transform="translate(179.668 5521)" fill="#67ccf1"/>
    <g id="Grupo_1192246" data-name="Grupo 1192246" transform="translate(191.541 5540.021)">
      <g id="Grupo_1192245" data-name="Grupo 1192245" clip-path="url(#clip-path)">
        <path id="Trazado_1001507" data-name="Trazado 1001507" d="M115.968,114.413a1.757,1.757,0,1,1-1.757-1.757,1.757,1.757,0,0,1,1.757,1.757" transform="translate(-91.276 -91.44)" fill="#12263f"/>
        <path id="Trazado_1001508" data-name="Trazado 1001508" d="M4.291,28.359C3.121,28.048,0,28.947,0,26.573v-7.16c0-2.342,3.071-1.5,4.256-1.748A24.256,24.256,0,0,1,5.962,13.53L4.235,11.772A1.793,1.793,0,0,1,4.272,9.2L9.165,4.309a1.75,1.75,0,0,1,2.448-.11L13.494,6.02A24.749,24.749,0,0,1,17.626,4.3c.1-.893,0-1.708.044-2.588a1.8,1.8,0,0,1,1.9-1.682l5.106.038,0,10.688a12.365,12.365,0,1,0,0,24.489l0,10.69-5.276.041c-2.461-.385-1.523-2.5-1.771-4.295a20.491,20.491,0,0,1-4.11-1.712c-1.05.739-2.608,3.438-4.261,1.792L4.276,36.793c-1.748-1.741.769-3.2,1.685-4.334a21.714,21.714,0,0,1-1.67-4.1" transform="translate(0 -0.02)" fill="#12263f"/>
        <path id="Trazado_1001509" data-name="Trazado 1001509" d="M85.486,78.9a5.429,5.429,0,0,0-5.933,1.864,5.279,5.279,0,0,0-.076,6.269,5.354,5.354,0,0,0,6.007,1.95,33.31,33.31,0,0,1-.013,3.634,8.826,8.826,0,1,1,0-17.322,32.9,32.9,0,0,1,.016,3.605" transform="translate(-60.832 -60.984)" fill="#12263f"/>
        <path id="Trazado_1001510" data-name="Trazado 1001510" d="M181.939,14.126l.01,29.914a1.883,1.883,0,0,1-2.106,1.918l-29.911-.015V.034L167.813,0l.013,12.409a1.762,1.762,0,0,0,1.887,1.719Zm-19.455,0a1.72,1.72,0,0,0,1.788-1.8,1.741,1.741,0,0,0-1.768-1.7l-7.408.02a1.708,1.708,0,0,0-1.612,1.86,1.766,1.766,0,0,0,1.888,1.635ZM173.3,21.2a1.751,1.751,0,0,0,1.572-1.892,1.7,1.7,0,0,0-1.6-1.6l-18.235.009a1.687,1.687,0,0,0-1.535,1.953,1.8,1.8,0,0,0,1.768,1.559Zm-.118,7.033a1.71,1.71,0,0,0,1.682-1.951,1.784,1.784,0,0,0-1.782-1.555l-17.973.024a1.725,1.725,0,0,0-1.62,1.864,1.759,1.759,0,0,0,1.9,1.639Zm.118,7.091a1.751,1.751,0,0,0,1.572-1.892,1.7,1.7,0,0,0-1.6-1.6l-18.235.009A1.687,1.687,0,0,0,153.5,33.8a1.8,1.8,0,0,0,1.768,1.559Z" transform="translate(-121.695)" fill="#12263f"/>
        <path id="Trazado_1001511" data-name="Trazado 1001511" d="M273.225,15.321l-9.443.036.047-9.5Z" transform="translate(-214.105 -4.758)" fill="#12263f"/>
      </g>
    </g>
  </g>
</svg>
