<svg xmlns="http://www.w3.org/2000/svg" xmlns:xlink="http://www.w3.org/1999/xlink" width="84" height="84" viewBox="0 0 84 84">
  <defs>
    <clipPath id="clip-path">
      <rect id="Rectángulo_456508" data-name="Rectángulo 456508" width="53.763" height="51.077" fill="#12263f"/>
    </clipPath>
  </defs>
  <g id="Grupo_1192070" data-name="Grupo 1192070" transform="translate(-179.668 -5521)">
    <rect id="Rectángulo_402006" data-name="Rectángulo 402006" width="84" height="84" rx="5" transform="translate(179.668 5521)" fill="#fe93c4"/>
    <g id="Grupo_1192289" data-name="Grupo 1192289" transform="translate(194.787 5537.461)">
      <g id="Grupo_1192288" data-name="Grupo 1192288" clip-path="url(#clip-path)">
        <path id="Trazado_1001617" data-name="Trazado 1001617" d="M159.008,2.9c.052,1.551-.753,3.151-2.441,3.153l-24.822.034,0-6.09,24.979.005a2.7,2.7,0,0,1,2.287,2.9" transform="translate(-108.889)" fill="#12263f"/>
        <path id="Trazado_1001618" data-name="Trazado 1001618" d="M99.126,3.968A.784.784,0,0,1,98.7,3.51a.661.661,0,0,1,.265-.722c1.469-.809,2.791-1.694,4.329-2.438l-.017,5.959Z" transform="translate(-81.56 -0.289)" fill="#12263f"/>
        <path id="Trazado_1001619" data-name="Trazado 1001619" d="M52.1,107.155,8.716,107.1A8.92,8.92,0,0,1,.038,97.758,7.477,7.477,0,0,1,8.96,90.7a2.012,2.012,0,0,0,1.661-.3,1.962,1.962,0,0,0,.7-1.708V67.848l40.707.008a1.733,1.733,0,0,1,1.762,1.8v35.694a1.768,1.768,0,0,1-1.682,1.807M21.3,74.374A7.218,7.218,0,1,0,25.02,88.186c-4.547-8.589-3.5-3.6-3.724-13.812m8.077,6.236a7.086,7.086,0,0,0-6.282-6.235l.031,6.269Zm20.321-4.392a.827.827,0,0,0,.764-.934.874.874,0,0,0-.843-.779H34.373a.865.865,0,0,0-.818.933.838.838,0,0,0,.817.79Zm-7.7,3.61a.858.858,0,1,0-.007-1.716L34.532,78.1a.884.884,0,0,0-.982.81.859.859,0,0,0,.838.911ZM29.359,82.407l-5.576.038,2.806,4.842a6.863,6.863,0,0,0,2.769-4.88m20.258,3.457h-2.96V100.7h2.96Zm-6.4,3.543H40.292V100.7h2.929Zm-6.359,11.064-.033-7.766a5.185,5.185,0,0,0-2.887,0v7.812a4.635,4.635,0,0,0,2.922-.042M17.5,95.923a.845.845,0,0,0-.837-.82l-2.612,0a.816.816,0,0,0-.868.821.832.832,0,0,0,.771.874c1.175.09,3.638.372,3.546-.879m12.035.891a.855.855,0,0,0,.829-.882.829.829,0,0,0-.861-.827l-9.9.013a.8.8,0,0,0-.714.962.859.859,0,0,0,.91.751Zm-12.935,3.7a.853.853,0,0,0,.894-.949c-.107-1.081-1.931-.8-3.429-.772a.859.859,0,0,0-.879.933.82.82,0,0,0,.875.787Zm12.955-.007a.824.824,0,0,0,.8-.946.876.876,0,0,0-.864-.774H19.8a.865.865,0,0,0-.914.77.794.794,0,0,0,.741.945Z" transform="translate(-0.025 -56.078)" fill="#12263f"/>
        <path id="Trazado_1001620" data-name="Trazado 1001620" d="M9.4,52.892A9.794,9.794,0,0,0,0,56.51L0,31.345c.518-3.689,4.611-7.136,8.308-6.9.6.038,1.053.29,1.093,1Z" transform="translate(0.001 -20.194)" fill="#12263f"/>
      </g>
    </g>
  </g>
</svg>
