<svg xmlns="http://www.w3.org/2000/svg" xmlns:xlink="http://www.w3.org/1999/xlink" width="292" height="218" viewBox="0 0 292 218">
  <defs>
    <clipPath id="clip-path">
      <rect id="Rectángulo_456300" data-name="Rectángulo 456300" width="222.021" height="217.402" fill="none"/>
    </clipPath>
    <clipPath id="clip-path-2">
      <path id="Trazado_1000686" data-name="Trazado 1000686" d="M155.469,278a19.671,19.671,0,1,1,19.671,19.671A19.671,19.671,0,0,1,155.469,278m19.671-30.663h-5.614l-1.019,5.062a26.28,26.28,0,0,0-6.776,2.811l-4.3-2.861-3.97,3.97-3.97,3.97,2.861,4.3a26.282,26.282,0,0,0-2.811,6.777l-5.062,1.019v11.228l5.062,1.019a26.28,26.28,0,0,0,2.811,6.776l-2.861,4.3,3.97,3.97,3.97,3.969,4.3-2.861a26.276,26.276,0,0,0,6.776,2.811l1.019,5.062h11.228l1.019-5.062a26.28,26.28,0,0,0,6.776-2.811l4.3,2.861,3.97-3.969,3.97-3.97-2.861-4.3a26.275,26.275,0,0,0,2.811-6.776l5.062-1.019V272.389l-5.062-1.019a26.277,26.277,0,0,0-2.811-6.777l2.861-4.3-3.97-3.97-3.97-3.97-4.3,2.861a26.285,26.285,0,0,0-6.776-2.811l-1.019-5.062Z" transform="translate(-144.478 -247.34)" fill="none"/>
    </clipPath>
    <linearGradient id="linear-gradient" x1="-0.293" y1="3.043" x2="-0.291" y2="3.043" gradientUnits="objectBoundingBox">
      <stop offset="0" stop-color="#ff9f55"/>
      <stop offset="1" stop-color="#ffd255"/>
    </linearGradient>
    <clipPath id="clip-path-3">
      <path id="Trazado_1000687" data-name="Trazado 1000687" d="M7.609,120.888a9.018,9.018,0,1,1,9.018,9.018,9.018,9.018,0,0,1-9.018-9.018m9.018-14.057H14.054l-.467,2.321a12.049,12.049,0,0,0-3.107,1.289l-1.973-1.312-1.82,1.82-1.82,1.82,1.312,1.973a12.047,12.047,0,0,0-1.289,3.107l-2.321.467v5.147l2.321.467a12.051,12.051,0,0,0,1.289,3.107l-1.312,1.973,1.82,1.82,1.82,1.82,1.973-1.312a12.044,12.044,0,0,0,3.107,1.289l.467,2.321H19.2l.467-2.321a12.044,12.044,0,0,0,3.107-1.289l1.973,1.312,1.82-1.82,1.82-1.82-1.312-1.973a12.047,12.047,0,0,0,1.289-3.107l2.321-.467v-5.147l-2.321-.467a12.043,12.043,0,0,0-1.289-3.107l1.312-1.973-1.82-1.82-1.82-1.82-1.973,1.312a12.049,12.049,0,0,0-3.107-1.289l-.467-2.321Z" transform="translate(-2.57 -106.831)" fill="none"/>
    </clipPath>
    <linearGradient id="linear-gradient-2" x1="-0.011" y1="7.26" x2="-0.007" y2="7.26" xlink:href="#linear-gradient"/>
    <clipPath id="clip-path-5">
      <path id="Trazado_1000689" data-name="Trazado 1000689" d="M403.465,427.2a6.965,6.965,0,0,0-6.965,6.965v5.99H523.469v-5.99A6.965,6.965,0,0,0,516.5,427.2Z" transform="translate(-396.5 -427.201)" fill="none"/>
    </clipPath>
    <linearGradient id="linear-gradient-3" x1="-0.389" y1="12.677" x2="-0.388" y2="12.677" gradientUnits="objectBoundingBox">
      <stop offset="0" stop-color="#40d5e6"/>
      <stop offset="1" stop-color="#57f"/>
    </linearGradient>
  </defs>
  <g id="Grupo_1192128" data-name="Grupo 1192128" transform="translate(-288.63 -881)">
    <rect id="Rectángulo_454874" data-name="Rectángulo 454874" width="292" height="218" transform="translate(288.63 881)" fill="none"/>
    <g id="Grupo_1192127" data-name="Grupo 1192127" transform="translate(323.63 880.998)">
      <rect id="Rectángulo_456297" data-name="Rectángulo 456297" width="13.9" height="0.258" transform="matrix(0.547, -0.837, 0.837, 0.547, 183.091, 84.601)" fill="#97a43c"/>
      <g id="Grupo_1192116" data-name="Grupo 1192116" transform="translate(0 0.002)">
        <g id="Grupo_1192115" data-name="Grupo 1192115" clip-path="url(#clip-path)">
          <path id="Trazado_1000681" data-name="Trazado 1000681" d="M1283.111,608.423c-3.175,1.9-8.7,4.3-17,4.912a149.685,149.685,0,0,0-19.351,2.448c-6.472,1.343-11.45,3.15-15.219,5.524l.138.219c8.6-5.419,22.929-7.086,34.45-7.932,8.36-.615,13.931-3.035,17.132-4.957a18.909,18.909,0,0,0,5.01-4.082l-.206-.156a18.69,18.69,0,0,1-4.952,4.025" transform="translate(-1078.262 -529.175)" fill="#97a43c"/>
          <path id="Trazado_1000682" data-name="Trazado 1000682" d="M1258.676,588.061a70.772,70.772,0,0,0-20.082-2.21,50.55,50.55,0,0,0-9.206,1.245c-.236.055-.471.112-.705.171a44.411,44.411,0,0,0-4.3,1.307,42.1,42.1,0,0,0-11.375,6.2q-.917.7-1.8,1.455-.558.475-1.1.974c-.853.781-1.65,1.575-2.394,2.37-.174.185-.345.371-.514.555a46.438,46.438,0,0,0-2.966,3.631c-.119.159-.233.317-.347.474-.212.3-.417.589-.614.877-.687,1-1.288,1.96-1.8,2.841q-.23.39-.435.758c-.131.23-.252.453-.37.669a36.723,36.723,0,0,0-2.633,5.95l-.215.7.441-.588c.017-.023,1.618-2.11,6.224-4.21l.132-.06q.6-.27,1.294-.548c.928-.372,1.983-.747,3.176-1.111q1.038-.318,2.219-.617a62.2,62.2,0,0,1,7.207-1.36A91.449,91.449,0,0,1,1230,606.8a44.712,44.712,0,0,0,7.5-.636q1.614-.279,3.13-.686a30.717,30.717,0,0,0,4.631-1.632,24.775,24.775,0,0,0,8.7-6.383,21.519,21.519,0,0,0,4.814-9.259l.019-.118Zm-4.913,9.236a23.645,23.645,0,0,1-5.619,4.724c-.078.048-.156.095-.236.141a29.059,29.059,0,0,1-7.616,3.127q-1.342.354-2.823.616a44.123,44.123,0,0,1-7.473.641,92.6,92.6,0,0,0-11.483.727q-2.207.288-4.248.689-1.529.3-2.96.664-1.126.284-2.189.608-1.753.532-3.326,1.165-.669.268-1.3.554l-.246.113a19.538,19.538,0,0,0-5.752,3.742,40.046,40.046,0,0,1,2.411-5.3q.164-.306.347-.63.248-.443.527-.916c.473-.8,1.013-1.663,1.627-2.564.315-.465.651-.943,1.007-1.426.113-.155.228-.309.348-.467a45.434,45.434,0,0,1,2.972-3.558c.105-.116.213-.231.323-.345.7-.74,1.444-1.477,2.237-2.2.3-.276.611-.551.931-.826q.763-.66,1.6-1.313a41.615,41.615,0,0,1,5.581-3.664,42.471,42.471,0,0,1,5.826-2.637,44.468,44.468,0,0,1,5.349-1.587,50.383,50.383,0,0,1,8.777-1.214q.455-.027.914-.042.158-.007.315-.009.876-.029,1.776-.029a64.725,64.725,0,0,1,7.707.475l.26.031a79.994,79.994,0,0,1,9.1,1.686l.079.019c-.018.086-.048.215-.091.384a21.9,21.9,0,0,1-4.64,8.631" transform="translate(-1048.742 -512.885)" fill="#97a43c"/>
          <path id="Trazado_1000683" data-name="Trazado 1000683" d="M1079.819,237.3s5.762,13.406.664,24.775c-10.817,24.121-2.617,21.012-2.617,21.012s6.943,16.12,18.018-3.6-16.066-42.184-16.066-42.184" transform="translate(-941.109 -207.77)" fill="#bbd070"/>
          <path id="Trazado_1000684" data-name="Trazado 1000684" d="M1216.137,104.87s-5.193-16.449,18.612-49.906S1237.519,0,1237.519,0c-61.4,52.354-21.383,104.868-21.383,104.868" transform="translate(-1053.558 -0.002)" fill="#97a43c"/>
          <path id="Trazado_1000685" data-name="Trazado 1000685" d="M1221.373,233.8c-17.4,11.987-25.544,47.324-13.614,44.037,58.749-16.187,56.622-69.232,56.622-69.232-9.447,11.036-25.608,13.208-43.009,25.195" transform="translate(-1052.503 -182.643)" fill="#48753a"/>
          <rect id="Rectángulo_456298" data-name="Rectángulo 456298" width="9.03" height="0.258" transform="translate(198.205 82.282) rotate(-76.237)" fill="#97a43c"/>
          <rect id="Rectángulo_456299" data-name="Rectángulo 456299" width="0.258" height="8.753" transform="translate(192.541 83.871) rotate(-50.786)" fill="#97a43c"/>
        </g>
      </g>
      <g id="Grupo_1192118" data-name="Grupo 1192118" transform="translate(17.982 30.786)">
        <g id="Grupo_1192117" data-name="Grupo 1192117" clip-path="url(#clip-path-2)">
          <rect id="Rectángulo_456301" data-name="Rectángulo 456301" width="61.325" height="61.325" transform="translate(0 0)" fill="url(#linear-gradient)"/>
        </g>
      </g>
      <g id="Grupo_1192120" data-name="Grupo 1192120" transform="translate(0.32 13.298)">
        <g id="Grupo_1192119" data-name="Grupo 1192119" clip-path="url(#clip-path-3)">
          <rect id="Rectángulo_456302" data-name="Rectángulo 456302" width="28.114" height="28.114" transform="translate(0 0)" fill="url(#linear-gradient-2)"/>
        </g>
      </g>
      <g id="Grupo_1192122" data-name="Grupo 1192122" transform="translate(0 0.002)">
        <g id="Grupo_1192121" data-name="Grupo 1192121" clip-path="url(#clip-path)">
          <path id="Trazado_1000688" data-name="Trazado 1000688" d="M319.013,726.967H453.5a5.417,5.417,0,0,0,5.417-5.417V602.566a5.417,5.417,0,0,0-5.417-5.417H319.013a5.417,5.417,0,0,0-5.417,5.417V721.55a5.417,5.417,0,0,0,5.417,5.417" transform="translate(-274.566 -522.829)" fill="#b5deff"/>
          <rect id="Rectángulo_456303" data-name="Rectángulo 456303" width="126.969" height="126.828" transform="translate(49.348 66.124)" fill="#fff"/>
        </g>
      </g>
      <g id="Grupo_1192124" data-name="Grupo 1192124" transform="translate(49.348 53.171)">
        <g id="Grupo_1192123" data-name="Grupo 1192123" clip-path="url(#clip-path-5)">
          <rect id="Rectángulo_456305" data-name="Rectángulo 456305" width="126.969" height="12.955" transform="translate(0 0)" fill="url(#linear-gradient-3)"/>
        </g>
      </g>
      <g id="Grupo_1192126" data-name="Grupo 1192126" transform="translate(0 0.002)">
        <g id="Grupo_1192125" data-name="Grupo 1192125" clip-path="url(#clip-path)">
          <path id="Trazado_1000690" data-name="Trazado 1000690" d="M873.729,224.939a.627.627,0,0,1-.627-.627v-8.677a.627.627,0,0,1,1.255,0v8.677a.627.627,0,0,1-.627.627" transform="translate(-764.437 -188.248)" fill="#ffdf69"/>
          <path id="Trazado_1000691" data-name="Trazado 1000691" d="M847.547,251.122h-8.677a.627.627,0,0,1,0-1.255h8.677a.627.627,0,0,1,0,1.255" transform="translate(-733.915 -218.769)" fill="#ffdf69"/>
          <rect id="Rectángulo_456306" data-name="Rectángulo 456306" width="2.284" height="126.828" transform="translate(79.378 66.124)" fill="#f2f9ff"/>
          <rect id="Rectángulo_456307" data-name="Rectángulo 456307" width="126.969" height="2.284" transform="translate(49.348 160.638)" fill="#f2f9ff"/>
          <rect id="Rectángulo_456308" data-name="Rectángulo 456308" width="126.969" height="2.284" transform="translate(49.348 128.325)" fill="#f2f9ff"/>
          <rect id="Rectángulo_456309" data-name="Rectángulo 456309" width="126.969" height="2.284" transform="translate(49.348 96.153)" fill="#f2f9ff"/>
          <rect id="Rectángulo_456310" data-name="Rectángulo 456310" width="2.284" height="126.828" transform="translate(111.691 66.124)" fill="#f2f9ff"/>
          <rect id="Rectángulo_456311" data-name="Rectángulo 456311" width="2.284" height="126.828" transform="translate(144.004 66.124)" fill="#f2f9ff"/>
          <path id="Trazado_1000692" data-name="Trazado 1000692" d="M1172.481,1309.043s-.021,13.9-3.28,25.684l-6.945,4.347H1137.77c4.652-12.38,4.681-30.031,4.681-30.031Z" transform="translate(-996.164 -1146.121)" fill="#ffdf69"/>
          <path id="Trazado_1000693" data-name="Trazado 1000693" d="M1334.517,1519.047V1514.6h6.945Z" transform="translate(-1168.424 -1326.094)" fill="#deba35"/>
          <path id="Trazado_1000694" data-name="Trazado 1000694" d="M912.853,1049.4s-.021,13.9-3.279,25.684l-6.945,4.347H878.142c4.652-12.38,4.68-30.031,4.68-30.031Z" transform="translate(-768.849 -918.795)" fill="#ffdf69"/>
          <path id="Trazado_1000695" data-name="Trazado 1000695" d="M1074.888,1259.407v-4.448h6.945Z" transform="translate(-941.108 -1098.768)" fill="#deba35"/>
          <path id="Trazado_1000696" data-name="Trazado 1000696" d="M912.853,531.29s-.021,13.9-3.279,25.684l-6.945,4.347H878.142c4.652-12.38,4.68-30.031,4.68-30.031Z" transform="translate(-768.849 -465.166)" fill="#ffdf69"/>
          <path id="Trazado_1000697" data-name="Trazado 1000697" d="M1074.888,741.294v-4.447h6.945Z" transform="translate(-941.108 -645.14)" fill="#deba35"/>
          <path id="Trazado_1000698" data-name="Trazado 1000698" d="M393.6,1309.043s-.021,13.9-3.279,25.684l-6.945,4.347H358.884c4.652-12.38,4.68-30.031,4.68-30.031Z" transform="translate(-314.218 -1146.121)" fill="#f0f0f0"/>
          <path id="Trazado_1000699" data-name="Trazado 1000699" d="M555.63,1519.047V1514.6h6.945Z" transform="translate(-486.477 -1326.094)" fill="#c9c9c9"/>
          <path id="Trazado_1000700" data-name="Trazado 1000700" d="M504,1396.348a.7.7,0,0,1-.7-.7V1386a.7.7,0,0,1,1.4,0v9.654a.7.7,0,0,1-.7.7" transform="translate(-440.663 -1212.885)" fill="#a3a3a3"/>
          <path id="Trazado_1000701" data-name="Trazado 1000701" d="M474.874,1425.476H465.22a.7.7,0,0,1,0-1.4h9.654a.7.7,0,0,1,0,1.4" transform="translate(-406.708 -1246.841)" fill="#a3a3a3"/>
          <path id="Trazado_1000702" data-name="Trazado 1000702" d="M653.224,790.919s-.021,13.9-3.279,25.684L643,820.95H618.513c4.652-12.38,4.68-30.031,4.68-30.031Z" transform="translate(-541.533 -692.482)" fill="#f0f0f0"/>
          <path id="Trazado_1000703" data-name="Trazado 1000703" d="M815.259,1000.923v-4.447H822.2Z" transform="translate(-713.793 -872.456)" fill="#c9c9c9"/>
          <path id="Trazado_1000704" data-name="Trazado 1000704" d="M763.631,878.224a.7.7,0,0,1-.7-.7v-9.654a.7.7,0,0,1,1.4,0v9.654a.7.7,0,0,1-.7.7" transform="translate(-667.979 -759.247)" fill="#a3a3a3"/>
          <path id="Trazado_1000705" data-name="Trazado 1000705" d="M734.5,907.352h-9.654a.7.7,0,0,1,0-1.4H734.5a.7.7,0,1,1,0,1.4" transform="translate(-634.024 -793.202)" fill="#a3a3a3"/>
          <path id="Trazado_1000706" data-name="Trazado 1000706" d="M1172.481,1049.4s-.021,13.9-3.28,25.684l-6.945,4.347H1137.77c4.652-12.38,4.681-30.031,4.681-30.031Z" transform="translate(-996.164 -918.795)" fill="#f0f0f0"/>
          <path id="Trazado_1000707" data-name="Trazado 1000707" d="M1334.517,1259.407v-4.448h6.945Z" transform="translate(-1168.424 -1098.768)" fill="#c9c9c9"/>
          <path id="Trazado_1000708" data-name="Trazado 1000708" d="M1250.278,1147.113l-4.362-3.8a.859.859,0,1,1,1.129-1.3l3.085,2.689,4.4-4.906a.859.859,0,1,1,1.279,1.147Z" transform="translate(-1090.592 -997.69)" fill="#a3a3a3"/>
          <path id="Trazado_1000709" data-name="Trazado 1000709" d="M146.866,848.711l-3.512-3.061a.692.692,0,0,1,.909-1.043l2.483,2.165,3.541-3.95a.692.692,0,0,1,1.03.923Z" transform="translate(-125.305 -737.724)" fill="#ffdf69"/>
          <path id="Trazado_1000710" data-name="Trazado 1000710" d="M1562.105,1079.437a2.122,2.122,0,0,1-1.267-.382,1.591,1.591,0,0,1-.69-1.159,9.663,9.663,0,0,0-.8-2.42,4.269,4.269,0,1,1,5.109-.307,9.2,9.2,0,0,0-.355,2.4,1.866,1.866,0,0,1-1.837,1.862c-.054,0-.108.007-.162.008m-.46-11.444a3.92,3.92,0,0,0-2.064,7.217l.042.027.021.045a10.07,10.07,0,0,1,.849,2.565l0,.013a1.247,1.247,0,0,0,.546.911,1.8,1.8,0,0,0,1.2.31,1.519,1.519,0,0,0,1.517-1.492v-.014a9.6,9.6,0,0,1,.382-2.552l.015-.053.043-.035a3.919,3.919,0,0,0-2.549-6.942" transform="translate(-1363.594 -934.765)" fill="#ffd255"/>
          <path id="Trazado_1000711" data-name="Trazado 1000711" d="M1580.764,1117.142l-.973-4.584,1.038.712.539-.719.574.577.834-.846-.132,4.69-.349-.01.107-3.8-.459.465-.538-.541-.5.663-.593-.407.792,3.728Z" transform="translate(-1383.171 -973.849)" fill="#ffd255"/>
          <rect id="Rectángulo_456312" data-name="Rectángulo 456312" width="3.028" height="1.22" transform="translate(197.126 144.365) rotate(-4.748)" fill="#ffd255"/>
          <rect id="Rectángulo_456313" data-name="Rectángulo 456313" width="4.002" height="1.964" transform="translate(196.537 143.163) rotate(-4.747)" fill="#ffd255"/>
          <path id="Trazado_1000712" data-name="Trazado 1000712" d="M1156,146.62h4.546l-1.391-2.886h-4.546Z" transform="translate(-1010.905 -125.846)" fill="#ffd179"/>
          <path id="Trazado_1000713" data-name="Trazado 1000713" d="M1138.906,146.62h1.083l-1.391-2.886h-1.083Z" transform="translate(-995.941 -125.846)" fill="#ffd179"/>
          <path id="Trazado_1000714" data-name="Trazado 1000714" d="M1018.2,129.155h18.408l-.611-1.443h-18.408Z" transform="translate(-890.943 -111.818)" fill="#ffd179"/>
          <path id="Trazado_1000715" data-name="Trazado 1000715" d="M55.15,619.589h5.925l-1.814-3.762H53.336Z" transform="translate(-46.698 -539.183)" fill="#ffd179"/>
          <path id="Trazado_1000716" data-name="Trazado 1000716" d="M32.873,619.589h1.412l-1.814-3.762H31.059Z" transform="translate(-27.194 -539.183)" fill="#ffd179"/>
          <path id="Trazado_1000717" data-name="Trazado 1000717" d="M584.7,587.423a9.371,9.371,0,0,0-1.435,1.681c-.679,1.018-2.481,1.072-2.558,2.462s2.45,1.433,3.777.98,1.527-1.81,2.33-2.149,1.219-.614,1.157-1.277a8.075,8.075,0,0,0-.506-1.738,5.474,5.474,0,0,1-.792.192,6.556,6.556,0,0,1-1.974-.15" transform="translate(-508.433 -514.277)" fill="#2a3875"/>
          <path id="Trazado_1000718" data-name="Trazado 1000718" d="M619.859,256.615s-.509,3.024-.918,5.021h0a11.947,11.947,0,0,1-.409,1.653,23.225,23.225,0,0,1-2.24,2.482c-2.05,2.11-4.758,4.767-4.758,4.767l-1.059-2.01s2.406-2.82,4.036-4.7c.755-.871,1.344-1.54,1.451-1.637.341-.3.737-3.31,1.293-5.786a9.974,9.974,0,0,1,1.671-3.844Z" transform="translate(-534.496 -221.127)" fill="#ffd255"/>
          <path id="Trazado_1000719" data-name="Trazado 1000719" d="M616.292,345.035c-2.05,2.11-4.758,4.767-4.758,4.767l-1.059-2.01s2.406-2.82,4.036-4.7a3.421,3.421,0,0,1,1.78,1.944" transform="translate(-534.496 -300.39)" fill="#eea886"/>
          <path id="Trazado_1000720" data-name="Trazado 1000720" d="M740.814,580.573s.7.77,1.108,1.237,1.988,1.3,2,2.686c.009,1.5-1.163,1.371-2.206,1.316a2.882,2.882,0,0,1-2.33-1.626c-.439-.851-1.608-1.074-1.69-1.76a4.772,4.772,0,0,1,.542-1.921Z" transform="translate(-645.873 -508.255)" fill="#2a3875"/>
          <path id="Trazado_1000721" data-name="Trazado 1000721" d="M742.231,570.226l-.135,1.279s2.177.949,2.58.069l-.094-1.139Z" transform="translate(-649.735 -499.257)" fill="#5f8cc9"/>
          <path id="Trazado_1000722" data-name="Trazado 1000722" d="M612.921,580.274l-.119.926a4.563,4.563,0,0,0,2.765-.041l.029-.823Z" transform="translate(-536.533 -508.054)" fill="#5f8cc9"/>
          <path id="Trazado_1000723" data-name="Trazado 1000723" d="M665.786,258.012c.076.269-13.935,0-13.935,0s3.876-2.821,4.127-3.575-.987-5.275-1.148-6.746c-.129-1.177-.453-6.444.323-7.249.811-.841,3.732-1.723,3.732-1.723l4.258.158a6.688,6.688,0,0,1,1.205.38c.5.233,3.375,1.257,3.842,2.692S665.323,248,665.323,248s-.006.207-.016.547c-.013.453-.032,1.142-.049,1.889-.022.968-.042,2.033-.042,2.811a27.787,27.787,0,0,0,.57,4.763" transform="translate(-570.722 -209.009)" fill="#ffd255"/>
          <path id="Trazado_1000724" data-name="Trazado 1000724" d="M596.4,388.627s1.906,2.8,1.933,4.71-.706,7.209-.76,8.259-1.041,9.8-1.041,9.8-.763.709-3.05-.179c0,0-.5-8.3-.559-9.183s-.054-4.979-.565-5.571-3.606-2.449-4.01-2.8-7.436,1.329-8.173,1.52c-1.908.495-1.038,3.815-.616,5.3.706,2.49,1.324,11.483,1.324,11.483a6.479,6.479,0,0,1-3.636.09s-4.47-16.238-4.614-17.853-.214-4.277,10.8-6.3Z" transform="translate(-501.34 -339.624)" fill="#1b4d8f"/>
          <path id="Trazado_1000725" data-name="Trazado 1000725" d="M696.805,163.974s-3.7-.834-2.852,3.818,1.733,5.018,3.964,4.055,2.03-3.943,2.143-5.4-2.075-2.418-3.254-2.468" transform="translate(-607.474 -143.516)" fill="#eea886"/>
          <path id="Trazado_1000726" data-name="Trazado 1000726" d="M709.892,207.084s1.637,1.736,4.224.158a25.057,25.057,0,0,1-.274-5.593c.3-1.832-3.376,2.839-3.376,2.839.048.026.08.2.088.449a5.039,5.039,0,0,1-.039.745c-.076.609-.266,1.252-.624,1.4" transform="translate(-621.54 -176.179)" fill="#eea886"/>
          <path id="Trazado_1000727" data-name="Trazado 1000727" d="M733.44,187.583a.472.472,0,0,1,.925.054c.065.615-.369,1.7-.676,1.589s-.316-1.078-.249-1.643" transform="translate(-642.127 -163.923)" fill="#eea886"/>
          <path id="Trazado_1000728" data-name="Trazado 1000728" d="M698.366,161.129s-.1-1.466-.631-1.511-.618.545-.618.545l-.541.1s.171-1.285-.364-1.509-3.463.707-3.893.33-.227-2.983.549-3.34,2.919-1.156,4.49-.093c0,0,1.224-.14,1.405.848a13.555,13.555,0,0,1-.4,4.628" transform="translate(-605.961 -135.815)" fill="#3a3f47"/>
          <path id="Trazado_1000729" data-name="Trazado 1000729" d="M714.9,219.777c2.669-.823,2.87-2.43,2.873-2.455a4.026,4.026,0,0,1-2.834,1.71,5.032,5.032,0,0,1-.039.745" transform="translate(-625.928 -190.275)" fill="#a77860"/>
          <path id="Trazado_1000730" data-name="Trazado 1000730" d="M705.739,237.516s-1.955,3.891-5.113,3.64-.538-4.162-.395-4.2,3.239-.807,5.507.558" transform="translate(-612.069 -207.246)" fill="#eea886"/>
          <path id="Trazado_1000731" data-name="Trazado 1000731" d="M638.973,383.687s9.676,1.193,15.537.2l-11.2-1.4s-.066.286-4.337,1.2" transform="translate(-559.447 -334.882)" fill="#ffd255"/>
          <path id="Trazado_1000732" data-name="Trazado 1000732" d="M692.049,378.944l-.721.365a3.3,3.3,0,0,0,.559,1.492l.809-.206a3.356,3.356,0,0,0-.647-1.651" transform="translate(-605.286 -331.781)" fill="#eea886"/>
          <path id="Trazado_1000733" data-name="Trazado 1000733" d="M708.314,273.96a36.582,36.582,0,0,1-4.2,1.76h0c-2.936,1.131-6.247,2.2-6.247,2.2l-.754-1.616s3.468-1.884,5.811-3.206c1.107-.624,1.963-1.123,2.084-1.238.377-.359.474-.934.2-1.938s-.915-5.616-.987-6.154.179-1.974,1.525-2.046a4.039,4.039,0,0,1,2.031.308s.338.141.589,3.406.287,8.128-.054,8.523" transform="translate(-610.355 -229.142)" fill="#ffd255"/>
          <path id="Trazado_1000734" data-name="Trazado 1000734" d="M754.19,289.953h0c-.013.453-.032,1.142-.049,1.889a9.437,9.437,0,0,1-.542-5.832,18.962,18.962,0,0,0,.591,3.942" transform="translate(-659.606 -250.415)" fill="#b8973d"/>
          <path id="Trazado_1000735" data-name="Trazado 1000735" d="M674.124,302.291h0a11.952,11.952,0,0,1-.409,1.653,17.081,17.081,0,0,1-.045-4.951,27.962,27.962,0,0,0,.454,3.3" transform="translate(-589.679 -261.782)" fill="#b8973d"/>
          <path id="Trazado_1000736" data-name="Trazado 1000736" d="M704.118,355.808h0c-2.935,1.131-6.354,2.235-6.354,2.235l-.647-1.651s3.468-1.884,5.811-3.206c0,0,.852.415,1.19,2.621" transform="translate(-610.354 -309.23)" fill="#eea886"/>
          <path id="Trazado_1000737" data-name="Trazado 1000737" d="M598.7,391.553l-13.752-.2,6.943,3.526Z" transform="translate(-512.143 -342.643)" fill="#5e5853"/>
          <path id="Trazado_1000738" data-name="Trazado 1000738" d="M636.947,396.3l6.809-2.637v-.686l-7.347,2.65Z" transform="translate(-557.202 -344.067)" fill="#91887f"/>
          <path id="Trazado_1000739" data-name="Trazado 1000739" d="M658.859,379.921s-.859-.134-1.453-.272a2.974,2.974,0,0,0-1.893.335c-.291.295-1.216,2.349-1.392,2.475s.09.415.4.27c0,0,.282.9.979.562s1.169-1.072,1.534-1.2,2.489-.782,2.489-.782-.114-1.606-.661-1.387" transform="translate(-572.662 -332.368)" fill="#eea886"/>
          <path id="Trazado_1000740" data-name="Trazado 1000740" d="M656.161,381.506a6.005,6.005,0,0,0-.7.385c-.144.119-.728.556-.869.659s.213.4,1.257-.057.308-.987.308-.987" transform="translate(-573.099 -334.024)" fill="#eea886"/>
          <path id="Trazado_1000741" data-name="Trazado 1000741" d="M519.188,341.109,515.1,329.941l-13.187.215,3.9,10.292Z" transform="translate(-439.443 -288.877)" fill="#6e6760"/>
          <path id="Trazado_1000742" data-name="Trazado 1000742" d="M558.223,362.32c.4.8.281,1.681-.271,1.957s-1.326-.152-1.729-.957-.281-1.681.271-1.957,1.326.152,1.729.956" transform="translate(-486.788 -316.316)" fill="#807066"/>
          <path id="Trazado_1000743" data-name="Trazado 1000743" d="M504.348,1263.2a2.236,2.236,0,0,1,.29.766,3.68,3.68,0,0,0,.354.905,8.611,8.611,0,0,1,.43,1.509,6.947,6.947,0,0,0-.2,1.01c.034.219.159.652-.037.68s-.419-.326-.419-.326a.288.288,0,0,1-.147.278.486.486,0,0,1-.494.018s-.119.221-.269.251a.608.608,0,0,1-.491-.066.6.6,0,0,1-.373.12.489.489,0,0,1-.414-.257s-.369.075-.476-.1a1.65,1.65,0,0,1-.133-.512,5.958,5.958,0,0,1,.468-2.579,2.285,2.285,0,0,0-.122-2Z" transform="translate(-439.48 -1105.718)" fill="#eea886"/>
          <path id="Trazado_1000744" data-name="Trazado 1000744" d="M504.634,1287.692s.033-1.264-.3-1.533-.37.187-.37.187.045-.451-.318-.512-.379.475-.379.475a.351.351,0,0,0-.441-.276c-.382.071-.291.515-.291.515s-.365-.435-.6-.017a1.922,1.922,0,0,0-.036,1.546s.127.207.49.113a.506.506,0,0,0,.791.142s.572.31.775-.182a.466.466,0,0,0,.681-.459" transform="translate(-439.299 -1125.796)" fill="#db9c7c"/>
          <path id="Trazado_1000745" data-name="Trazado 1000745" d="M509.082,1098.272s-2.164,7.211-2.895,9.871c-.229.834-.784,8.8-.882,9.122s-2.842.76-2.842.76.333-9.967.364-10.51,3.028-11.674,3.9-12.071c.653-.3,1-.052,1.82.559a1.926,1.926,0,0,1,.535,2.268" transform="translate(-439.927 -958.997)" fill="#384c9e"/>
          <rect id="Rectángulo_456314" data-name="Rectángulo 456314" width="5.919" height="0.44" transform="matrix(0.837, -0.547, 0.547, 0.837, 90.256, 129.173)" fill="#4da8f2"/>
          <path id="Trazado_1000746" data-name="Trazado 1000746" d="M745.534,1016.181a1.292,1.292,0,0,1-.128.393s-.162.193-.269.338a1.233,1.233,0,0,0-.078.115,2.361,2.361,0,0,1-.409.636c-.236.239-1.154,1-1.154,1l-.787-.668-.817-.366a15.385,15.385,0,0,1,.652-2.237.833.833,0,0,1,.059-.068,3.02,3.02,0,0,1,.512-.352c.04-.033.461-.336.61-.3a.505.505,0,0,1,.378.315,1.21,1.21,0,0,1,.56.36.752.752,0,0,1,.487.452s.369.146.385.381" transform="translate(-649.557 -888.385)" fill="#efaa88"/>
          <path id="Trazado_1000747" data-name="Trazado 1000747" d="M523.311,1513.42s-.2,1.369-.222,1.575-2.194-.121-2.194-.121l-.176-1.63a12.853,12.853,0,0,1,2.592.176" transform="translate(-455.911 -1324.906)" fill="#424773"/>
          <path id="Trazado_1000748" data-name="Trazado 1000748" d="M520.726,1525.263a5.855,5.855,0,0,0,1.352,1.185c.665.359,1.709.5,2.1.874.284.269,1.034,1.425-1.728,1.4s-4.092.163-4.388-.28.428-3.273.428-3.273a5.847,5.847,0,0,0,2.233.093" transform="translate(-453.525 -1335.349)" fill="#292c47"/>
          <path id="Trazado_1000749" data-name="Trazado 1000749" d="M648.2,1513.42s-.2,1.369-.222,1.575-2.194-.121-2.194-.121l-.176-1.63a12.852,12.852,0,0,1,2.592.176" transform="translate(-565.259 -1324.906)" fill="#424773"/>
          <path id="Trazado_1000750" data-name="Trazado 1000750" d="M645.619,1525.263a5.855,5.855,0,0,0,1.352,1.185c.665.359,3.111.655,3.5,1.027.284.269.756,1.35-3.129,1.249-2.76-.072-4.092.163-4.388-.28s.428-3.273.428-3.273a5.3,5.3,0,0,0,2.233.093" transform="translate(-562.874 -1335.349)" fill="#292c47"/>
          <path id="Trazado_1000751" data-name="Trazado 1000751" d="M522.722,1232.022s-2.038,3.239-1.886,6.166-.739,6.124-1.045,9.182c-.341,3.41-1.738,11.481-1.789,13.3s.217,7.647.217,7.647l2.8.064s2.349-14.11,2.957-15.55,3.625-11.7,3.726-12.856-4.976-7.957-4.976-7.957" transform="translate(-453.526 -1078.686)" fill="#292c47"/>
          <path id="Trazado_1000752" data-name="Trazado 1000752" d="M559.49,1228.537s1.536,8.024,1.739,9.816.338,8.671.439,9.791.947,14.621,1.217,16.318h-3.575s-2.745-9.839-2.745-14.495-2.12-10.12-3.489-13.192-4.5-3.144-5.343-8.843c0,0,10.617-1.2,11.757.6" transform="translate(-479.563 -1074.762)" fill="#292c47"/>
          <path id="Trazado_1000753" data-name="Trazado 1000753" d="M571.259,1011.484s2.736-1.022,4,1.061,1.14,6.252-.239,6.765-3.451.245-4.157-1.058a10.438,10.438,0,0,1-1.313-4.447,2.744,2.744,0,0,1,1.711-2.321" transform="translate(-498.661 -885.377)" fill="#eea886"/>
          <path id="Trazado_1000754" data-name="Trazado 1000754" d="M580.2,1058.624a2.367,2.367,0,0,0,.074,1.1c.188.364-3.545.373-3.545.373a24.586,24.586,0,0,0-.878-3.652c-.575-1.672,4.348,2.176,4.348,2.176" transform="translate(-504.145 -924.595)" fill="#eea886"/>
          <path id="Trazado_1000755" data-name="Trazado 1000755" d="M568.772,1015.012s.258.425,1.309.26,2.335-1.564,2.774-1.718.443-.411.443-.411l.275.4.466.03s-.425-1.252.216-1.762-.666-4.051-4.039-2.872c0,0-2.591.714-2.5,2.187a8.188,8.188,0,0,0,1.051,3.885" transform="translate(-497.061 -883.159)" fill="#fccca2"/>
          <path id="Trazado_1000756" data-name="Trazado 1000756" d="M584,1078.2s-.012-.7-.327-.762a22.515,22.515,0,0,0-3.866-.219v.81s.745.459,4.192.171" transform="translate(-507.647 -943.116)" fill="#e2d2ca"/>
          <path id="Trazado_1000757" data-name="Trazado 1000757" d="M605.076,1036.31c-.059-.247-.687-.953-.928-.2s.364,1.773.7,1.686.377-.863.227-1.489" transform="translate(-528.908 -906.862)" fill="#eea886"/>
          <path id="Trazado_1000758" data-name="Trazado 1000758" d="M547.716,1042.873c-2.169-.286-5.232-1.053-5.232-1.053l-4.192-.171a40.788,40.788,0,0,0-5.363,1.532c-.144.065-.144,3.432-.539,4.316l1.256,2.651s.726,5.25.876,7.585c.069,1.072-1.5,10.052-1.5,10.052a28.913,28.913,0,0,0,4.539.809c2.861.315,10.01-.114,10.056-.452s-1.384-12.584-1.448-13.218c-.1-.973.336-6.146.336-6.146.661-.512,6.461-3.2,8.044-4.608.424-.376,2.211-2.116,2.719-2.717a48.815,48.815,0,0,0,3.454-4.346c.2-.224-2.008-1.415-2.2-1.48-.171-.057-2.55,3.112-3.487,4.126a26.236,26.236,0,0,1-2.153,1.714s-3.808,1.484-5.165,1.406" transform="translate(-466.128 -906.733)" fill="#384c9e"/>
          <path id="Trazado_1000759" data-name="Trazado 1000759" d="M565.91,1015.222s-3.489.273-.107,5.5Z" transform="translate(-494.092 -888.869)" fill="#fccca2"/>
          <path id="Trazado_1000760" data-name="Trazado 1000760" d="M765.219,1011.72l.286-.437-.527.069Z" transform="translate(-669.77 -885.421)" fill="#dfe1e8"/>
          <path id="Trazado_1000761" data-name="Trazado 1000761" d="M452.609,1551.5H476.8l-7.625,23.416.713.232,7.945-24.4h-25.77l-7.869,24.166.713.232Z" transform="translate(-388.911 -1357.746)" fill="#5586ad"/>
          <path id="Trazado_1000762" data-name="Trazado 1000762" d="M517.047,1574.916l-7.625-23.416h24.193l7.7,23.648.713-.232-7.869-24.166H508.39l7.944,24.4Z" transform="translate(-445.116 -1357.746)" fill="#5586ad"/>
          <rect id="Rectángulo_456315" data-name="Rectángulo 456315" width="29.611" height="0.75" transform="translate(61.447 200.378)" fill="#5586ad"/>
          <rect id="Rectángulo_456316" data-name="Rectángulo 456316" width="35.427" height="0.75" transform="translate(58.396 208.52)" fill="#5586ad"/>
          <path id="Trazado_1000763" data-name="Trazado 1000763" d="M216.681,1246.493s.33,5.993-.77,6.871a5.713,5.713,0,0,1-3,.535c-.426,0-.863-.013-1.289-.034h0c-1.7-.085-3.229-.3-3.229-.3s-4.411.224-4.2-2.513a2.593,2.593,0,0,1,1.172-1.017,24.468,24.468,0,0,1,3.869.326c.531.023,4.3.86,4.458.8a6.056,6.056,0,0,0,.621-2.525c.038-1.429.033-2.745.033-2.745Z" transform="translate(-178.774 -1090.827)" fill="#323657"/>
          <path id="Trazado_1000764" data-name="Trazado 1000764" d="M101.278,1708.013a6.122,6.122,0,0,1-.683,1.247c-.312.354-1.508.986-1.514,2.037-.007,1.14,2.015.823,2.807.782s.851-.651,1.184-1.3.669-.536.731-1.056a6.629,6.629,0,0,0-.255-1.686Z" transform="translate(-86.749 -1495.436)" fill="#252840"/>
          <path id="Trazado_1000765" data-name="Trazado 1000765" d="M224.682,1708.218a5.4,5.4,0,0,0,2.22,1.4c1.119.242,1.9.552,1.909,1.216s-3.219,1.1-4.5.432c-1.91-1-2.1-.7-2.317-1.2s.254-1.834.241-1.993a10.3,10.3,0,0,1,2.445.144" transform="translate(-194.318 -1495.436)" fill="#252840"/>
          <path id="Trazado_1000766" data-name="Trazado 1000766" d="M128.476,1424.287s1.157,8.407,1.63,11.249c.553,3.323.74,6.068.894,7.788.194,2.163-1.834,13.8-1.7,14.432s-3.652-.263-3.652-.263,1.19-13.846.613-16.15c-.538-2.145-2.477-11.574-2.968-10.988s-3.571,10.932-3.934,12.624-3.867,14.937-3.867,14.937-2.619.563-3.285.032c0,0,2.285-12.168,2.517-15.34.088-1.209.8-14.411,2.848-19.759,1.08-2.827,10.9,1.438,10.9,1.438" transform="translate(-98.244 -1244.916)" fill="#292c47"/>
          <path id="Trazado_1000767" data-name="Trazado 1000767" d="M0,1224.345l.212-3.158a1.178,1.178,0,0,1,1.254-1.1l6.774.455a1.178,1.178,0,0,1,1.1,1.254l-.212,3.158a1.178,1.178,0,0,1-1.254,1.1L1.1,1225.6a1.178,1.178,0,0,1-1.1-1.254" transform="translate(0 -1068.238)" fill="#c4b4af"/>
          <rect id="Rectángulo_456317" data-name="Rectángulo 456317" width="5.916" height="44.396" transform="translate(4.635 157.798) rotate(-86.155)" fill="#eb4747"/>
          <rect id="Rectángulo_456318" data-name="Rectángulo 456318" width="1.972" height="44.396" transform="translate(4.9 153.862) rotate(-86.154)" fill="#6880eb"/>
          <rect id="Rectángulo_456319" data-name="Rectángulo 456319" width="1.972" height="44.396" transform="translate(4.767 155.831) rotate(-86.157)" fill="#4a64e0"/>
          <rect id="Rectángulo_456320" data-name="Rectángulo 456320" width="1.972" height="44.396" transform="translate(4.635 157.798) rotate(-86.153)" fill="#4860cf"/>
          <path id="Trazado_1000768" data-name="Trazado 1000768" d="M393.147,1250.271l.4-5.9,6.412,2.79,1.649.717-1.73.49Z" transform="translate(-344.216 -1089.496)" fill="#eddad3"/>
          <path id="Trazado_1000769" data-name="Trazado 1000769" d="M389.013,1246.321a.987.987,0,0,1,.132-1.968Z" transform="translate(-339.818 -1089.48)" fill="#deccc6"/>
          <path id="Trazado_1000770" data-name="Trazado 1000770" d="M387.95,1262.132a.987.987,0,0,1,.132-1.968Z" transform="translate(-338.887 -1103.324)" fill="#e3d1ca"/>
          <path id="Trazado_1000771" data-name="Trazado 1000771" d="M386.887,1277.942a.987.987,0,0,1,.132-1.968Z" transform="translate(-337.956 -1117.166)" fill="#eddad3"/>
          <rect id="Rectángulo_456321" data-name="Rectángulo 456321" width="1.972" height="2.728" transform="matrix(0.067, -0.998, 0.998, 0.067, 3.376, 153.76)" fill="#b39696"/>
          <rect id="Rectángulo_456322" data-name="Rectángulo 456322" width="1.972" height="2.728" transform="translate(3.244 155.728) rotate(-86.153)" fill="#dbb8b8"/>
          <rect id="Rectángulo_456323" data-name="Rectángulo 456323" width="1.972" height="2.728" transform="translate(3.112 157.695) rotate(-86.153)" fill="#f2cbcb"/>
          <path id="Trazado_1000772" data-name="Trazado 1000772" d="M395.273,1246.336l8.194,1.539-8.061-3.507Z" transform="translate(-346.077 -1089.496)" fill="#deccc6"/>
          <path id="Trazado_1000773" data-name="Trazado 1000773" d="M394.21,1262.146l8.326-.428-8.193-1.54Z" transform="translate(-345.147 -1103.338)" fill="#e3d1ca"/>
          <path id="Trazado_1000774" data-name="Trazado 1000774" d="M393.279,1272.975l8.326-.428-8.458,2.4Z" transform="translate(-344.216 -1114.167)" fill="#eddad3"/>
          <path id="Trazado_1000775" data-name="Trazado 1000775" d="M447.2,1267.991l.081-1.207,1.649.717Z" transform="translate(-391.546 -1109.122)" fill="#323438"/>
          <path id="Trazado_1000776" data-name="Trazado 1000776" d="M288.709,1232.274s-.23,1.019-.009,1.3.324-.08.324-.08-.109.357.17.477.377-.312.377-.312a.3.3,0,0,0,.306.31c.315.016.314-.362.314-.362s.219.424.475.13a1.566,1.566,0,0,0,.259-1.246s-.059-.177-.362-.171a.418.418,0,0,0-.6-.264s-.393-.356-.633,0a.364.364,0,0,0-.619.213" transform="translate(-252.684 -1078.58)" fill="#efaa88"/>
          <path id="Trazado_1000777" data-name="Trazado 1000777" d="M118.539,1286.269a6.7,6.7,0,0,0,2.038.326c.6-.111.3-7.494.321-9.03a39.2,39.2,0,0,1,.7-4.536.023.023,0,0,0,0,.005.006.006,0,0,1,0,0s0,0,0,.005a31.464,31.464,0,0,1,1.02,5.3c.034,1.7-.222,8.215-.222,8.215l2.536.247,7.289.179,1.521-.179s-.182-2.785-.249-4.108c-.042-.841-.205-2.346-.163-3.812a13.494,13.494,0,0,1,.127-2.211c.016-2.937.194-5.847.194-5.847q.148-2,.206-3.739c-.321-.17-.708-.369-1.017-.516-.957-.455-2.289-1.069-3.145-1.461-.5-.23-.991-.4-.991-.4s-3.419-.328-3.7-.31a8.68,8.68,0,0,0-1.075.368,39.279,39.279,0,0,0-3.921,1.664c-.546.391-1.7,9.676-1.752,10.326-.094,1.171.277,9.507.277,9.507" transform="translate(-103.53 -1107.036)" fill="#cac7d1"/>
          <path id="Trazado_1000778" data-name="Trazado 1000778" d="M174.988,1435.052a60.559,60.559,0,0,1-9.384,0v1.438s6.58.95,9.6-.274Z" transform="translate(-144.993 -1256.447)" fill="#1d2033"/>
          <path id="Trazado_1000779" data-name="Trazado 1000779" d="M206.722,1268.58a27.482,27.482,0,0,1,1.424,6.185c.235,1.641.669,4.4.985,7.224h0c.249,2.223.818,4.5,1,6.205.187,1.763.751,6.956.751,6.956l1.368-.863c.2-.181.469-.415.39-.669a73.474,73.474,0,0,1-1.522-8.732s0,0,0-.007c-.02-.169-.04-.336-.059-.5l0-.026c-.08-.7-.147-1.371-.195-1.985a6.264,6.264,0,0,1,.061-1.381c.191-3.142.285-6.455.285-6.455.1-1.356.349-3.111.388-4.292a7.42,7.42,0,0,1-1.213-.243s-2.7-1.008-3.66-1.414" transform="translate(-180.994 -1110.694)" fill="#323657"/>
          <path id="Trazado_1000780" data-name="Trazado 1000780" d="M178.215,1247.011c.074.383-2.036,1.482-3.4.2a22.694,22.694,0,0,0,.172-2.907c-.088-.632,3.16.716,3.16.716s0,.751.021,1.345c.007.179.014.344.025.47.007.074.014.133.021.176" transform="translate(-153.059 -1089.292)" fill="#eea987"/>
          <path id="Trazado_1000781" data-name="Trazado 1000781" d="M186.6,1268.723a11.173,11.173,0,0,1-.69,1.76s-.994-.871-1.307-1.181,2-.578,2-.578" transform="translate(-161.603 -1110.819)" fill="#eea987"/>
          <path id="Trazado_1000782" data-name="Trazado 1000782" d="M184,1275.039l1.04.974a4.654,4.654,0,0,1-1.459-.286Z" transform="translate(-160.736 -1116.349)" fill="#a09ea6"/>
          <path id="Trazado_1000783" data-name="Trazado 1000783" d="M168.676,1260.629a9.84,9.84,0,0,0,1.38,1.793l-.923,1.532-1.479-2.687Z" transform="translate(-146.787 -1103.733)" fill="#eae6f2"/>
          <path id="Trazado_1000784" data-name="Trazado 1000784" d="M118.411,1278.819c-.106,1.426.5,9.315-.1,9.426a13.9,13.9,0,0,1-2.814-.375s-.277-8.507-.189-9.4c.065-.649,1.1-10.385,1.644-10.777.315-.226,2.65-1.054,3.8-1.505.209-.083.873-.361,1.06-.433a27.43,27.43,0,0,1,2.562,9.114,51.99,51.99,0,0,1-.425,5.705c-.224,2.171-.473,3.865-.655,5.681-.359,3.577-.61,6.423-.61,6.423l-3.56-1.585c-.576-.288-1.374-1.471-1.157-2.077a32.429,32.429,0,0,0,1.86-8.265s-.4-4.953-.712-6.041a30.516,30.516,0,0,0-.7,4.11" transform="translate(-100.938 -1108.22)" fill="#323657"/>
          <path id="Trazado_1000785" data-name="Trazado 1000785" d="M116.092,1450.92a1.445,1.445,0,0,1-.111-.448s.04-.28.056-.48a1.359,1.359,0,0,0,.006-.155,2.65,2.65,0,0,1,.013-.846c.083-.367.506-1.633.506-1.633l1.143.17.993-.135a17.222,17.222,0,0,1,.7,2.512.891.891,0,0,1-.016.1,3.372,3.372,0,0,1-.279.638c-.019.055-.239.591-.4.643a.567.567,0,0,1-.545-.076,1.356,1.356,0,0,1-.745-.011.842.842,0,0,1-.729-.142s-.437.079-.591-.134" transform="translate(-101.546 -1267.22)" fill="#efaa88"/>
          <path id="Trazado_1000786" data-name="Trazado 1000786" d="M119.112,1379.8l-.037,6.27a10.917,10.917,0,0,1-2.976-.692l-.12-8.841Z" transform="translate(-101.545 -1205.212)" fill="#323657"/>
          <rect id="Rectángulo_456324" data-name="Rectángulo 456324" width="2.358" height="1.753" transform="translate(24.077 178.693)" fill="#3a4066"/>
          <path id="Trazado_1000787" data-name="Trazado 1000787" d="M178.674,1201.983s.786,1.457.4,1.683c-.322.187.377,1.617.468,1.85s-.583.4-.726.553-.568,2-1.123,2.056a8.306,8.306,0,0,1-3.739-1.523c-.681-.708-1.241-3.908-.786-5.258s4.122-1.907,5.509.638" transform="translate(-151.468 -1050.827)" fill="#eea886"/>
          <path id="Trazado_1000788" data-name="Trazado 1000788" d="M174.15,1195.238a2.238,2.238,0,0,0-.655-2.74c-1.457-1.167-4.143.881-4.446.959s-2.021.2-1.153,3.213a24.6,24.6,0,0,0,.834,2.7,7.053,7.053,0,0,1,.886-1.729,3.006,3.006,0,0,1,1.571-.272s-.514-1.364.289-1.558,1.862-.874,2.675-.572" transform="translate(-146.787 -1043.766)" fill="#e8734d"/>
          <path id="Trazado_1000789" data-name="Trazado 1000789" d="M180.626,1223.191c-.071-.187-.3-.991-.99-.519s.43,1.989.55,2.008,1.036.086.44-1.489" transform="translate(-157.083 -1070.371)" fill="#eea886"/>
          <path id="Trazado_1000790" data-name="Trazado 1000790" d="M185.16,1254.963l-.046-.01a3.642,3.642,0,0,1-2.342-1.534,10.455,10.455,0,0,0,2.363,1.075c.007.179.014.344.025.47" transform="translate(-160.024 -1097.419)" fill="#a77860"/>
          <path id="Trazado_1000791" data-name="Trazado 1000791" d="M196.256,1265.542l-.947.7a9.852,9.852,0,0,0,.812-2.362Z" transform="translate(-171.001 -1106.579)" fill="#a09ea6"/>
          <path id="Trazado_1000792" data-name="Trazado 1000792" d="M201.836,1263.881l.644.6.678,2.021-1.187-.958Z" transform="translate(-176.716 -1106.579)" fill="#eae6f2"/>
          <path id="Trazado_1000793" data-name="Trazado 1000793" d="M1711.6,1611.935a4.513,4.513,0,0,0,.561-1.16,1.374,1.374,0,0,1,.321-.674,6.155,6.155,0,0,0,2.53-.918c.7-.652,2.19-2.428,2.893-1.9s-.509,2.771-1.226,3.448-1.687,1.862-2.569,1.775-2.082-.507-2.509-.575" transform="translate(-1498.572 -1407.161)" fill="#cfbfb8"/>
          <path id="Trazado_1000794" data-name="Trazado 1000794" d="M1542.436,1588.5l.882-1.722s-4.22-.773-5.454-1.517c-.31-.186-.617-.373-.9-.55a16.206,16.206,0,0,1-1.383-.912c-.609-.518-3.052-2.248-3.712-2.884s-1.439-.248-2.467-.238-4.755,1.043-5.869,1.191-5.14.9-5.14.9c.708,1.936,24.046,5.736,24.046,5.736" transform="translate(-1329.413 -1383.837)" fill="#25354d"/>
          <path id="Trazado_1000795" data-name="Trazado 1000795" d="M1489.724,1597.824s2.271.327,2.854.372,3.979.318,5.61.474,4.834.063,5.469.342,4.308,1.524,5.51,1.912,9.013,1.818,9.013,1.818a2.641,2.641,0,0,1-.558,1.871,30.7,30.7,0,0,0-5.26-.04,14.835,14.835,0,0,1-6.917-1.014c-1.926-.874-4.979-.077-6.686.523a39.759,39.759,0,0,1-9.044.9,8.1,8.1,0,0,1-3.614-2.245c-1.176-1.279,3.621-4.911,3.621-4.911" transform="translate(-1300.981 -1398.961)" fill="#2f4563"/>
          <path id="Trazado_1000796" data-name="Trazado 1000796" d="M1740.672,1609.657a4.51,4.51,0,0,0,.264-1.261,1.134,1.134,0,0,1,.106-.644,6.838,6.838,0,0,0,2.275-1.59c.524-.8,1.538-2.885,2.348-2.539s.176,2.812-.356,3.642-.861,3.038-1.738,3.166-2.469-.811-2.9-.775" transform="translate(-1524.029 -1404.004)" fill="#eddad3"/>
          <path id="Trazado_1000797" data-name="Trazado 1000797" d="M1469.084,1586.144s-2.87,6.513,1.585,8.092c3.553,1.26,10.1.1,10.1.1l-4.031-6.351Z" transform="translate(-1285.447 -1388.734)" fill="#2f4563"/>
          <path id="Trazado_1000798" data-name="Trazado 1000798" d="M1505.165,1383.187c-1.093.243-.441,2.987-1.174,6.823s-3.044,4.436-3.044,4.436a6.873,6.873,0,0,0,.914-3.479c-.088-1.39-1.771-5.181-.107-7.66,1.286-1.915,3.551-.177,3.551-.177Z" transform="translate(-1314.141 -1210.355)" fill="#323657"/>
          <path id="Trazado_1000799" data-name="Trazado 1000799" d="M1521.628,1439.254l2.125,2.187a4.724,4.724,0,0,1,.318-1.3c.074-.2.15-.38.211-.519.081-.183.138-.3.138-.3l-1.9-2Z" transform="translate(-1332.247 -1258.434)" fill="#eea886"/>
          <path id="Trazado_1000800" data-name="Trazado 1000800" d="M1480.41,1451.985a5.263,5.263,0,0,0,.655,2.022c.573.97,1.519,2.581,1.385,3.628a2.569,2.569,0,0,1-.982,1.8,13.343,13.343,0,0,0-1.641,4.145,20.062,20.062,0,0,0,.036,4.822s-7.451.865-8.2-.437c0,0,.925-4.186,1.361-5.235s1.349-7.325,1.741-8.392a11.941,11.941,0,0,1,1.88-2.839c.5-.661,1.423-1.891,1.423-1.891Z" transform="translate(-1288.499 -1269.194)" fill="#ffd255"/>
          <path id="Trazado_1000801" data-name="Trazado 1000801" d="M1524.042,1390.36a3.335,3.335,0,0,1,3.13,3.439,8.134,8.134,0,0,1-.392,1.219c-.233.529.072,2.2-.066,2.27a3.575,3.575,0,0,1-.68.106s-.775,1.7-1.394,1.615a5.18,5.18,0,0,1-3.766-3.171c-.853-2.328-.8-5.743,3.166-5.478" transform="translate(-1331.2 -1217.304)" fill="#eea886"/>
          <path id="Trazado_1000802" data-name="Trazado 1000802" d="M1525.274,1390.641a8.85,8.85,0,0,1-3.313.935c-1.6.037-2.913,2.6-2.913,2.6s-1.938-4.348.281-6.555,6.637.038,5.945,3.017" transform="translate(-1329.302 -1214.147)" fill="#323657"/>
          <path id="Trazado_1000803" data-name="Trazado 1000803" d="M1537.589,1421.477a.488.488,0,0,0-.808-.444c-.548.359-.043,1.887.383,1.792s.4-1.032.425-1.348" transform="translate(-1345.304 -1244.064)" fill="#eea886"/>
          <path id="Trazado_1000804" data-name="Trazado 1000804" d="M1530.744,1446.05a9.574,9.574,0,0,0,1.309,1.735c.074-.2.15-.38.211-.519a6.691,6.691,0,0,1-1.519-1.216" transform="translate(-1340.229 -1266.076)" fill="#a77860"/>
          <rect id="Rectángulo_456325" data-name="Rectángulo 456325" width="0.922" height="10.597" transform="matrix(0.186, -0.983, 0.983, 0.186, 195.972, 199.378)" fill="#c4c4c4"/>
          <rect id="Rectángulo_456326" data-name="Rectángulo 456326" width="10.597" height="0.922" transform="matrix(0.566, -0.825, 0.825, 0.566, 205.628, 200.823)" fill="#c4c4c4"/>
          <path id="Trazado_1000805" data-name="Trazado 1000805" d="M1603.541,1590.934c.052-.232,0-.618-.729-1.008a12.431,12.431,0,0,0-2.856-1.3c-.553-.021-1.644.066-1.867.065s.351,1.317.351,1.317Z" transform="translate(-1399.147 -1390.905)" fill="#eea886"/>
          <path id="Trazado_1000806" data-name="Trazado 1000806" d="M1519.941,1489.982s-3.038-1.2-3.531-1.434-2.794-1.012-3-1.114a52.115,52.115,0,0,1-1.251-7.291c-.085-1.446-.17-4.508-1.8-4.372s-2.024,1.208-1.82,3.317,1.412,9.662,1.922,9.917,6.368,1.565,9.457,2.182c2.956.59.024-1.2.024-1.2" transform="translate(-1320.743 -1292.095)" fill="#eea886"/>
          <path id="Trazado_1000807" data-name="Trazado 1000807" d="M1509.037,1478.364s-2.353.439-3.71.575c0,0-1.688-4.809.61-5.577,2.724-.911,3.333,2.816,3.1,5" transform="translate(-1317.453 -1289.866)" fill="#eddad3"/>
          <path id="Trazado_1000808" data-name="Trazado 1000808" d="M1580.377,869.785l-2.94-1.278a.476.476,0,1,1,.379-.873l2.079.9,1.5-3.327a.476.476,0,0,1,.868.391Z" transform="translate(-1380.86 -757.282)" fill="#ffca55"/>
          <path id="Trazado_1000809" data-name="Trazado 1000809" d="M1563.369,849.635a6.009,6.009,0,1,1,1.462-8.371,6.015,6.015,0,0,1-1.462,8.371m-6.416-9.13a5.15,5.15,0,1,0,7.175,1.253,5.156,5.156,0,0,0-7.175-1.253" transform="translate(-1360.51 -734.327)" fill="#ffca55"/>
          <path id="Trazado_1000810" data-name="Trazado 1000810" d="M943.283,1265.2l-6.308,3.467-6.335-9.969,7.662-2.661Z" transform="translate(-814.813 -1099.71)" fill="#292c47"/>
          <path id="Trazado_1000811" data-name="Trazado 1000811" d="M945.834,1266.97l-5.9,3.243-5.924-9.323,7.165-2.489Z" transform="translate(-817.765 -1101.782)" fill="#e2d2ca"/>
          <path id="Trazado_1000812" data-name="Trazado 1000812" d="M993.749,1298.667s-1.1-.525-1.58-.8-1.722-.651-1.822-.741-3.675-.31-3.892-.5-.427.438.5.641,2.216.7,2.286,1.061-.952.448-1.055.746.029.231.175.3,1.216-.528,1.686-.36,1.189-.065,1.55.059,2.113.713,2.113.713Z" transform="translate(-863.519 -1135.223)" fill="#eea886"/>
          <path id="Trazado_1000813" data-name="Trazado 1000813" d="M945.088,1303s-.922-.83-1.369-1.177-1.284-1.369-1.407-1.428-1.723-3.343-1.984-3.474.247-.574.8.22,1.522,1.816,1.89,1.741.052-1.071.292-1.285.229-.063.347.05-.024,1.351.317,1.729.4,1.146.659,1.437,1.495,1.713,1.495,1.713Z" transform="translate(-823.234 -1135.295)" fill="#eea886"/>
          <path id="Trazado_1000814" data-name="Trazado 1000814" d="M1138.676,1702.732s.2,1.385.224,1.593,2.22-.123,2.22-.123l.178-1.649a13.006,13.006,0,0,0-2.622.178" transform="translate(-996.957 -1490.655)" fill="#424773"/>
          <path id="Trazado_1000815" data-name="Trazado 1000815" d="M1113.5,1714.713a5.927,5.927,0,0,1-1.368,1.2c-.673.364-1.729.508-2.127.885-.287.272-1.046,1.442,1.748,1.418s4.14.165,4.439-.283-.433-3.312-.433-3.312a5.913,5.913,0,0,1-2.259.094" transform="translate(-971.581 -1501.219)" fill="#292c47"/>
          <path id="Trazado_1000816" data-name="Trazado 1000816" d="M1012.33,1702.732s.2,1.385.224,1.593,2.22-.123,2.22-.123l.178-1.649a13.006,13.006,0,0,0-2.622.178" transform="translate(-886.336 -1490.655)" fill="#424773"/>
          <path id="Trazado_1000817" data-name="Trazado 1000817" d="M978.077,1714.713a5.924,5.924,0,0,1-1.368,1.2c-.672.364-3.147.663-3.545,1.039-.287.272-.764,1.366,3.166,1.264,2.792-.073,4.14.165,4.439-.283s-.433-3.312-.433-3.312a5.368,5.368,0,0,1-2.259.094" transform="translate(-851.883 -1501.219)" fill="#292c47"/>
          <path id="Trazado_1000818" data-name="Trazado 1000818" d="M1088.652,1418.06s2.062,3.276,1.908,6.238.748,6.2,1.057,9.289c.345,3.449,1.759,11.614,1.81,13.459s-.219,7.736-.219,7.736l-2.829.065s-2.376-14.275-2.992-15.731-3.667-11.84-3.769-13.005,5.034-8.05,5.034-8.05" transform="translate(-948.751 -1241.57)" fill="#292c47"/>
          <path id="Trazado_1000819" data-name="Trazado 1000819" d="M1012.693,1414.534s-1.554,8.117-1.759,9.93-.342,8.772-.444,9.9-.684,14.825-1.231,16.508h3.617s2.776-9.954,2.776-14.663,2.145-10.238,3.529-13.345,4.554-3.181,5.4-8.946c0,0-10.741-1.217-11.893.611" transform="translate(-883.647 -1237.599)" fill="#292c47"/>
          <path id="Trazado_1000820" data-name="Trazado 1000820" d="M1061.747,1194.955s-2.768-1.034-4.044,1.073-1.153,6.325.242,6.844,3.491.248,4.205-1.071a10.558,10.558,0,0,0,1.328-4.5,2.775,2.775,0,0,0-1.731-2.348" transform="translate(-925.287 -1046.01)" fill="#eea886"/>
          <path id="Trazado_1000821" data-name="Trazado 1000821" d="M1067.712,1242.643a2.392,2.392,0,0,1-.075,1.115c-.19.368,3.586.378,3.586.378a24.9,24.9,0,0,1,.888-3.694c.581-1.692-4.4,2.2-4.4,2.2" transform="translate(-934.754 -1085.685)" fill="#eea886"/>
          <path id="Trazado_1000822" data-name="Trazado 1000822" d="M1063.48,1198.524s-.261.43-1.325.263-2.362-1.582-2.806-1.738-.448-.416-.448-.416l-.278.406-.472.03s.43-1.266-.219-1.782.674-4.1,4.086-2.906c0,0,2.621.722,2.525,2.213a8.283,8.283,0,0,1-1.063,3.93" transform="translate(-926.123 -1043.767)" fill="#3a3f47"/>
          <path id="Trazado_1000823" data-name="Trazado 1000823" d="M1065.885,1262.452s.012-.7.331-.771a22.763,22.763,0,0,1,3.911-.221v.819s-.754.464-4.241.173" transform="translate(-933.226 -1104.422)" fill="#e2d2ca"/>
          <path id="Trazado_1000824" data-name="Trazado 1000824" d="M1066.816,1220.069c.06-.25.7-.964.939-.2s-.368,1.794-.709,1.706-.381-.872-.23-1.506" transform="translate(-933.968 -1067.745)" fill="#eea886"/>
          <path id="Trazado_1000825" data-name="Trazado 1000825" d="M963.741,1336.5h.005c-.022.01-.025.01-.005,0" transform="translate(-843.783 -1170.159)" fill="#323657"/>
          <path id="Trazado_1000826" data-name="Trazado 1000826" d="M986.142,1294.78a29.263,29.263,0,0,1-4.592.819c-2.895.319-10.127-.115-10.173-.457s1.556-12.734,1.465-13.372-.14-2.912-.14-2.912a16.027,16.027,0,0,1-1.437,4.555c-.277.5-1.206,2.072-1.653,1.715-2.167-1.73-5.522-8.249-5.735-8.3.179-.078,1.59-.728,1.788-.793a18.728,18.728,0,0,1,2.683,2.623c.422.457.722.79.722.79.274-.615,1.27-4.492,1.579-5.833.7-3.026.591-3.151.591-3.151,2.118-.641,5.332-1.944,5.332-1.944l4.241-.173a41.234,41.234,0,0,1,5.426,1.549c.146.066.146,3.472.545,4.366l-1.271,2.681s-.734,5.311-.887,7.674c-.07,1.084,1.514,10.169,1.514,10.169" transform="translate(-843.914 -1110.485)" fill="#384c9e"/>
          <path id="Trazado_1000827" data-name="Trazado 1000827" d="M1116.135,1289.579a1.673,1.673,0,0,1-.94.792,1.214,1.214,0,0,1-.679.068l-.166-.031h0l-2.906-.539s-.636-7.324,3.97-9.079c.122.04,1.739,5.51.721,8.789" transform="translate(-973.088 -1121.384)" fill="#384c9e"/>
          <path id="Trazado_1000828" data-name="Trazado 1000828" d="M1135.851,1331.7h0a1.217,1.217,0,0,1-.679.068l-.166-.031h0l.287-3.743Z" transform="translate(-993.744 -1162.715)" fill="#1f2b59"/>
          <path id="Trazado_1000829" data-name="Trazado 1000829" d="M1000.525,1351.989l-.355,1.5a11.894,11.894,0,0,1-.367-2.294c.422.457.722.79.722.79" transform="translate(-875.367 -1183.03)" fill="#1f2b59"/>
          <path id="Trazado_1000830" data-name="Trazado 1000830" d="M1102.76,1198.682s3.628-.454.062,5.6Z" transform="translate(-965.511 -1049.488)" fill="#3a3f47"/>
          <path id="Trazado_1000831" data-name="Trazado 1000831" d="M951.476,1261.615l-.369-.633,2.9-1,.368.63Z" transform="translate(-832.734 -1103.164)" fill="#292c47"/>
        </g>
      </g>
    </g>
  </g>
</svg>
