<svg xmlns="http://www.w3.org/2000/svg" xmlns:xlink="http://www.w3.org/1999/xlink" width="128" height="128" viewBox="0 0 128 128">
  <defs>
    <clipPath id="clip-path">
      <rect id="Rectángulo_454800" data-name="Rectángulo 454800" width="127.998" height="127.488" fill="none"/>
    </clipPath>
    <linearGradient id="linear-gradient" x1="0.5" y1="-0.646" x2="0.5" y2="1.118" gradientUnits="objectBoundingBox">
      <stop offset="0" stop-color="#67ccf1"/>
      <stop offset="0.625" stop-color="#004b84"/>
      <stop offset="1" stop-color="#002d4f"/>
    </linearGradient>
    <clipPath id="clip-path-2">
      <rect id="Rectángulo_456481" data-name="Rectángulo 456481" width="61.293" height="69.961" fill="#fff"/>
    </clipPath>
  </defs>
  <g id="Grupo_1191960" data-name="Grupo 1191960" transform="translate(-1136.727 -7764.48)">
    <path id="Trazado_997475" data-name="Trazado 997475" d="M63.973,0A63.718,63.718,0,1,1,0,63.717,63.845,63.845,0,0,1,63.973,0Z" transform="translate(1136.781 7764.48)" fill="#fff"/>
    <g id="Grupo_1177602" data-name="Grupo 1177602" transform="translate(1136.727 7764.993)">
      <g id="Grupo_1177525" data-name="Grupo 1177525">
        <g id="Grupo_1177524" data-name="Grupo 1177524" clip-path="url(#clip-path)">
          <path id="Trazado_997408" data-name="Trazado 997408" d="M64,127.488a63.744,63.744,0,1,1,64-63.744,63.944,63.944,0,0,1-64,63.744M64,1.663a62.081,62.081,0,1,0,62.33,62.081A62.275,62.275,0,0,0,64,1.663" fill="#002d4f"/>
          <path id="Trazado_997409" data-name="Trazado 997409" d="M60.365,114.865A54.719,54.719,0,1,1,115.3,60.146a54.891,54.891,0,0,1-54.937,54.719m0-107.774a53.056,53.056,0,1,0,53.267,53.055A53.222,53.222,0,0,0,60.365,7.091" transform="translate(3.634 3.598)" fill="#002d4f"/>
          <path id="Trazado_997410" data-name="Trazado 997410" d="M56.731,102.241a45.693,45.693,0,1,1,45.876-45.693,45.837,45.837,0,0,1-45.876,45.693m0-89.723a44.031,44.031,0,1,0,44.207,44.03,44.17,44.17,0,0,0-44.207-44.03" transform="translate(7.268 7.196)" fill="#fff"/>
          <path id="Trazado_997411" data-name="Trazado 997411" d="M53.1,89.617A36.667,36.667,0,1,1,89.911,52.95,36.783,36.783,0,0,1,53.1,89.617m0-71.671a35,35,0,1,0,35.144,35,35.115,35.115,0,0,0-35.144-35" transform="translate(10.902 10.794)" fill="#fff"/>
          <path id="Trazado_997412" data-name="Trazado 997412" d="M49.462,76.992A27.641,27.641,0,1,1,77.214,49.352,27.728,27.728,0,0,1,49.462,76.992m0-53.618A25.978,25.978,0,1,0,75.544,49.352,26.059,26.059,0,0,0,49.462,23.374" transform="translate(14.537 14.392)" fill="#fff"/>
          <path id="Trazado_997413" data-name="Trazado 997413" d="M45.828,64.37A18.615,18.615,0,1,1,64.517,45.753,18.673,18.673,0,0,1,45.828,64.37m0-35.568a16.953,16.953,0,1,0,17.02,16.952A17,17,0,0,0,45.828,28.8" transform="translate(18.171 17.99)" fill="#fff"/>
          <path id="Trazado_997414" data-name="Trazado 997414" d="M42.194,51.744a9.589,9.589,0,1,1,9.628-9.588,9.62,9.62,0,0,1-9.628,9.588m0-17.515a7.926,7.926,0,1,0,7.959,7.927,7.953,7.953,0,0,0-7.959-7.927" transform="translate(21.805 21.588)" fill="#fff"/>
        </g>
      </g>
      <g id="Elipse_13614" data-name="Elipse 13614" transform="translate(10.388 10.387)" stroke="#002d4f" stroke-width="1" fill="url(#linear-gradient)">
        <ellipse cx="53.612" cy="53.356" rx="53.612" ry="53.356" stroke="none"/>
        <ellipse cx="53.612" cy="53.356" rx="53.112" ry="52.856" fill="none"/>
      </g>
    </g>
    <g id="Grupo_1192240" data-name="Grupo 1192240" transform="translate(1170.079 7793.217)">
      <g id="Grupo_1192239" data-name="Grupo 1192239" clip-path="url(#clip-path-2)">
        <path id="Trazado_1001488" data-name="Trazado 1001488" d="M52.505,211.7l-1.7,4.238-6.834.034-1.741-4.231a23.731,23.731,0,0,1-6.306-2.623l-4.216,1.764-4.834-4.808,1.775-4.19a23.369,23.369,0,0,1-2.62-6.358l-4.177-1.655a20.02,20.02,0,0,1,.006-3.44l13.417-.016a12.071,12.071,0,0,0,24.141.025l13.427-.013a28.974,28.974,0,0,1,.044,3.386l-4.217,1.725a23.689,23.689,0,0,1-2.618,6.348l1.776,4.193L63,210.885l-4.206-1.754a22.385,22.385,0,0,1-6.289,2.572" transform="translate(-16.705 -146.014)" fill="#fff"/>
        <path id="Trazado_1001489" data-name="Trazado 1001489" d="M98.6,129.993l-26.07.02a1.234,1.234,0,0,1-.749-.3.864.864,0,0,1-.2-.765,14.176,14.176,0,0,1,27.892,0,.846.846,0,0,1-.871,1.043" transform="translate(-54.872 -89.961)" fill="#fff"/>
        <path id="Trazado_1001490" data-name="Trazado 1001490" d="M115.944,190.476a6.762,6.762,0,0,1-13.524.009Z" transform="translate(-78.537 -146.059)" fill="#fff"/>
        <path id="Trazado_1001491" data-name="Trazado 1001491" d="M194.916,10.341A10.329,10.329,0,1,1,184.587.012a10.329,10.329,0,0,1,10.329,10.329m-12.8,4.12a1.539,1.539,0,0,0,2.252,0l6-6.077A1.544,1.544,0,0,0,190.5,6.3a1.5,1.5,0,0,0-2.167-.163l-5.086,5.053c-1.289-.905-2.942-3.877-4.506-2.185a1.548,1.548,0,0,0,.049,2.131Z" transform="translate(-133.623 -0.009)" fill="#fff"/>
        <path id="Trazado_1001492" data-name="Trazado 1001492" d="M20.661,10.33A10.33,10.33,0,1,1,10.33,0a10.33,10.33,0,0,1,10.33,10.33m-5.267,2.921L12.6,10.31l2.724-2.784a1.567,1.567,0,0,0-.1-2.246,1.536,1.536,0,0,0-2.1.065L10.34,8.069c-1.492-.954-3.308-4.477-5-2.695a1.556,1.556,0,0,0,.031,2.183L8.068,10.3c-.965,1.508-4.633,3.423-2.547,5.147,1.654,1.367,3.347-1.866,4.82-2.871l2.714,2.671a1.53,1.53,0,0,0,2.134.151,1.479,1.479,0,0,0,.205-2.144" fill="#fff"/>
        <path id="Trazado_1001493" data-name="Trazado 1001493" d="M115.043,56.749a7.162,7.162,0,1,1-7.162-7.162,7.162,7.162,0,0,1,7.162,7.162" transform="translate(-77.232 -38.024)" fill="#fff"/>
        <path id="Trazado_1001494" data-name="Trazado 1001494" d="M60.995,101.1a1.2,1.2,0,0,1-.378,1.648,1.167,1.167,0,0,1-1.588-.429l-3.854-6.646a1.234,1.234,0,0,1,.262-1.588,1.2,1.2,0,0,1,1.8.48Z" transform="translate(-42.174 -71.968)" fill="#fff"/>
        <path id="Trazado_1001495" data-name="Trazado 1001495" d="M183.563,102.324a1.2,1.2,0,0,1-1.495.559,1.156,1.156,0,0,1-.569-1.617l3.893-6.756a1.2,1.2,0,0,1,1.423-.495,1.153,1.153,0,0,1,.61,1.565Z" transform="translate(-139.063 -72.045)" fill="#fff"/>
      </g>
    </g>
  </g>
</svg>
