<svg xmlns="http://www.w3.org/2000/svg" xmlns:xlink="http://www.w3.org/1999/xlink" width="128" height="128" viewBox="0 0 128 128">
  <defs>
    <clipPath id="clip-path">
      <rect id="Rectángulo_454800" data-name="Rectángulo 454800" width="127.998" height="127.488" fill="none"/>
    </clipPath>
    <linearGradient id="linear-gradient" x1="0.5" y1="-0.646" x2="0.5" y2="1.118" gradientUnits="objectBoundingBox">
      <stop offset="0" stop-color="#67ccf1"/>
      <stop offset="0.625" stop-color="#004b84"/>
      <stop offset="1" stop-color="#002d4f"/>
    </linearGradient>
    <clipPath id="clip-path-2">
      <rect id="Rectángulo_456498" data-name="Rectángulo 456498" width="63.651" height="56.74" fill="#fff"/>
    </clipPath>
  </defs>
  <g id="Grupo_1192046" data-name="Grupo 1192046" transform="translate(-1136.727 -7764.48)">
    <path id="Trazado_997475" data-name="Trazado 997475" d="M63.973,0A63.718,63.718,0,1,1,0,63.717,63.845,63.845,0,0,1,63.973,0Z" transform="translate(1136.781 7764.48)" fill="#fff"/>
    <g id="Grupo_1177602" data-name="Grupo 1177602" transform="translate(1136.727 7764.993)">
      <g id="Grupo_1177525" data-name="Grupo 1177525">
        <g id="Grupo_1177524" data-name="Grupo 1177524" clip-path="url(#clip-path)">
          <path id="Trazado_997408" data-name="Trazado 997408" d="M64,127.488a63.744,63.744,0,1,1,64-63.744,63.944,63.944,0,0,1-64,63.744M64,1.663a62.081,62.081,0,1,0,62.33,62.081A62.275,62.275,0,0,0,64,1.663" fill="#002d4f"/>
          <path id="Trazado_997409" data-name="Trazado 997409" d="M60.365,114.865A54.719,54.719,0,1,1,115.3,60.146a54.891,54.891,0,0,1-54.937,54.719m0-107.774a53.056,53.056,0,1,0,53.267,53.055A53.222,53.222,0,0,0,60.365,7.091" transform="translate(3.634 3.598)" fill="#002d4f"/>
          <path id="Trazado_997410" data-name="Trazado 997410" d="M56.731,102.241a45.693,45.693,0,1,1,45.876-45.693,45.837,45.837,0,0,1-45.876,45.693m0-89.723a44.031,44.031,0,1,0,44.207,44.03,44.17,44.17,0,0,0-44.207-44.03" transform="translate(7.268 7.196)" fill="#fff"/>
          <path id="Trazado_997411" data-name="Trazado 997411" d="M53.1,89.617A36.667,36.667,0,1,1,89.911,52.95,36.783,36.783,0,0,1,53.1,89.617m0-71.671a35,35,0,1,0,35.144,35,35.115,35.115,0,0,0-35.144-35" transform="translate(10.902 10.794)" fill="#fff"/>
          <path id="Trazado_997412" data-name="Trazado 997412" d="M49.462,76.992A27.641,27.641,0,1,1,77.214,49.352,27.728,27.728,0,0,1,49.462,76.992m0-53.618A25.978,25.978,0,1,0,75.544,49.352,26.059,26.059,0,0,0,49.462,23.374" transform="translate(14.537 14.392)" fill="#fff"/>
          <path id="Trazado_997413" data-name="Trazado 997413" d="M45.828,64.37A18.615,18.615,0,1,1,64.517,45.753,18.673,18.673,0,0,1,45.828,64.37m0-35.568a16.953,16.953,0,1,0,17.02,16.952A17,17,0,0,0,45.828,28.8" transform="translate(18.171 17.99)" fill="#fff"/>
          <path id="Trazado_997414" data-name="Trazado 997414" d="M42.194,51.744a9.589,9.589,0,1,1,9.628-9.588,9.62,9.62,0,0,1-9.628,9.588m0-17.515a7.926,7.926,0,1,0,7.959,7.927,7.953,7.953,0,0,0-7.959-7.927" transform="translate(21.805 21.588)" fill="#fff"/>
        </g>
      </g>
      <g id="Elipse_13614" data-name="Elipse 13614" transform="translate(10.388 10.387)" stroke="#002d4f" stroke-width="1" fill="url(#linear-gradient)">
        <ellipse cx="53.612" cy="53.356" rx="53.612" ry="53.356" stroke="none"/>
        <ellipse cx="53.612" cy="53.356" rx="53.112" ry="52.856" fill="none"/>
      </g>
    </g>
    <g id="Grupo_1192273" data-name="Grupo 1192273" transform="translate(1168.411 7799.828)">
      <path id="Trazado_1001567" data-name="Trazado 1001567" d="M175.514,224.581l-.053,3.72-3.621.043-.124-3.787L157.5,220.022l0,12.971,32.3.012.014-12.985Z" transform="translate(-126.18 -176.264)" fill="#fff"/>
      <g id="Grupo_1192272" data-name="Grupo 1192272">
        <g id="Grupo_1192271" data-name="Grupo 1192271" clip-path="url(#clip-path-2)">
          <path id="Trazado_1001568" data-name="Trazado 1001568" d="M173.525,154.262,157.311,149.1a36.411,36.411,0,0,1,.034-3.889l7.613-.036.022-6.377a16.126,16.126,0,0,1,16.927-.026l.028,6.409,7.671.034a34.457,34.457,0,0,1-.022,3.885Zm4.651-9.081v-4.1a11.909,11.909,0,0,0-9.455.018l.032,4.089Z" transform="translate(-125.999 -109.264)" fill="#fff"/>
          <path id="Trazado_1001569" data-name="Trazado 1001569" d="M27.459,96.413a29.279,29.279,0,0,1,.045,5.009A24.027,24.027,0,0,1,2.511,66.974l3.755,3.733A19.089,19.089,0,0,0,27.459,96.413" transform="translate(0 -53.655)" fill="#fff"/>
          <path id="Trazado_1001570" data-name="Trazado 1001570" d="M94.494,23.859A19.093,19.093,0,0,0,67.88,6.5l-3.7-3.71a24.019,24.019,0,0,1,35.246,20.5,40.677,40.677,0,0,0-4.93.573" transform="translate(-51.415 0.001)" fill="#fff"/>
          <path id="Trazado_1001571" data-name="Trazado 1001571" d="M95.96,67.037A10.363,10.363,0,0,0,83.3,50.632a14.63,14.63,0,0,1-1.676-1.662l1.494-3.943a15.3,15.3,0,0,1,21.552,15.091l-3.959,2-.089,5.047a26.263,26.263,0,0,1-4.666-.124" transform="translate(-65.395 -34.982)" fill="#fff"/>
          <path id="Trazado_1001572" data-name="Trazado 1001572" d="M62.507,100.855a36.735,36.735,0,0,1,.047,5.119A15.324,15.324,0,0,1,44.942,85.087l3.633-1.39a17,17,0,0,1,1.75,1.764,10.388,10.388,0,0,0,12.182,15.395" transform="translate(-35.035 -67.052)" fill="#fff"/>
          <path id="Trazado_1001573" data-name="Trazado 1001573" d="M92.421,95.469a31.692,31.692,0,0,0,2.666-2.55l-4.5-4.58a6.631,6.631,0,1,1-2.533,2.8Z" transform="translate(-69.998 -69.987)" fill="#fff"/>
          <path id="Trazado_1001574" data-name="Trazado 1001574" d="M22.5,29.672l-5.6-5.589c4.905-2.333,2.737.06,5.019-5.061l5.605,5.615c-2.1,4.888-.183,2.919-5.022,5.035" transform="translate(-13.535 -15.239)" fill="#fff"/>
        </g>
      </g>
    </g>
  </g>
</svg>
