<svg xmlns="http://www.w3.org/2000/svg" xmlns:xlink="http://www.w3.org/1999/xlink" width="128" height="128" viewBox="0 0 128 128">
  <defs>
    <clipPath id="clip-path">
      <rect id="Rectángulo_454800" data-name="Rectángulo 454800" width="127.998" height="127.488" fill="none"/>
    </clipPath>
    <linearGradient id="linear-gradient" x1="0.5" y1="-0.646" x2="0.5" y2="1.118" gradientUnits="objectBoundingBox">
      <stop offset="0" stop-color="#67ccf1"/>
      <stop offset="0.625" stop-color="#004b84"/>
      <stop offset="1" stop-color="#002d4f"/>
    </linearGradient>
    <clipPath id="clip-path-2">
      <rect id="Rectángulo_456516" data-name="Rectángulo 456516" width="55.754" height="52.708" fill="#fff"/>
    </clipPath>
  </defs>
  <g id="Grupo_1192106" data-name="Grupo 1192106" transform="translate(-1136.727 -7764.48)">
    <path id="Trazado_997475" data-name="Trazado 997475" d="M63.973,0A63.718,63.718,0,1,1,0,63.717,63.845,63.845,0,0,1,63.973,0Z" transform="translate(1136.781 7764.48)" fill="#fff"/>
    <g id="Grupo_1177602" data-name="Grupo 1177602" transform="translate(1136.727 7764.993)">
      <g id="Grupo_1177525" data-name="Grupo 1177525">
        <g id="Grupo_1177524" data-name="Grupo 1177524" clip-path="url(#clip-path)">
          <path id="Trazado_997408" data-name="Trazado 997408" d="M64,127.488a63.744,63.744,0,1,1,64-63.744,63.944,63.944,0,0,1-64,63.744M64,1.663a62.081,62.081,0,1,0,62.33,62.081A62.275,62.275,0,0,0,64,1.663" fill="#002d4f"/>
          <path id="Trazado_997409" data-name="Trazado 997409" d="M60.365,114.865A54.719,54.719,0,1,1,115.3,60.146a54.891,54.891,0,0,1-54.937,54.719m0-107.774a53.056,53.056,0,1,0,53.267,53.055A53.222,53.222,0,0,0,60.365,7.091" transform="translate(3.634 3.598)" fill="#002d4f"/>
          <path id="Trazado_997410" data-name="Trazado 997410" d="M56.731,102.241a45.693,45.693,0,1,1,45.876-45.693,45.837,45.837,0,0,1-45.876,45.693m0-89.723a44.031,44.031,0,1,0,44.207,44.03,44.17,44.17,0,0,0-44.207-44.03" transform="translate(7.268 7.196)" fill="#fff"/>
          <path id="Trazado_997411" data-name="Trazado 997411" d="M53.1,89.617A36.667,36.667,0,1,1,89.911,52.95,36.783,36.783,0,0,1,53.1,89.617m0-71.671a35,35,0,1,0,35.144,35,35.115,35.115,0,0,0-35.144-35" transform="translate(10.902 10.794)" fill="#fff"/>
          <path id="Trazado_997412" data-name="Trazado 997412" d="M49.462,76.992A27.641,27.641,0,1,1,77.214,49.352,27.728,27.728,0,0,1,49.462,76.992m0-53.618A25.978,25.978,0,1,0,75.544,49.352,26.059,26.059,0,0,0,49.462,23.374" transform="translate(14.537 14.392)" fill="#fff"/>
          <path id="Trazado_997413" data-name="Trazado 997413" d="M45.828,64.37A18.615,18.615,0,1,1,64.517,45.753,18.673,18.673,0,0,1,45.828,64.37m0-35.568a16.953,16.953,0,1,0,17.02,16.952A17,17,0,0,0,45.828,28.8" transform="translate(18.171 17.99)" fill="#fff"/>
          <path id="Trazado_997414" data-name="Trazado 997414" d="M42.194,51.744a9.589,9.589,0,1,1,9.628-9.588,9.62,9.62,0,0,1-9.628,9.588m0-17.515a7.926,7.926,0,1,0,7.959,7.927,7.953,7.953,0,0,0-7.959-7.927" transform="translate(21.805 21.588)" fill="#fff"/>
        </g>
      </g>
      <g id="Elipse_13614" data-name="Elipse 13614" transform="translate(10.388 10.387)" stroke="#002d4f" stroke-width="1" fill="url(#linear-gradient)">
        <ellipse cx="53.612" cy="53.356" rx="53.612" ry="53.356" stroke="none"/>
        <ellipse cx="53.612" cy="53.356" rx="53.112" ry="52.856" fill="none"/>
      </g>
    </g>
    <g id="Grupo_1192297" data-name="Grupo 1192297" transform="translate(1172.877 7801.843)">
      <g id="Grupo_1192296" data-name="Grupo 1192296" clip-path="url(#clip-path-2)">
        <path id="Trazado_1001648" data-name="Trazado 1001648" d="M30.744,52.665l-8.783.035-.081-4.422a22.566,22.566,0,0,1-7.953-3.284L10.77,48.07,4.607,41.9l3.085-3.154A22.709,22.709,0,0,1,4.38,30.762L0,30.718V21.986l4.38-.045a22.666,22.666,0,0,1,3.313-7.979L4.61,10.807l6.162-6.172,3.161,3.083A23.181,23.181,0,0,1,21.918,4.4l.07-4.4L30.7.009l.068,4.4A22.52,22.52,0,0,1,38.7,7.706l3.143-3.077L48.053,10.8l-3.092,3.157a22.788,22.788,0,0,1,3.317,7.973l4.376.057,0,8.721-4.022.034-.735.371a13.054,13.054,0,0,0-5.855.448,16.622,16.622,0,1,0-7.957,9.265,14.031,14.031,0,0,0,.679,6.23,21.931,21.931,0,0,1-4,1.238Z" transform="translate(0 -0.001)" fill="#fff"/>
        <path id="Trazado_1001649" data-name="Trazado 1001649" d="M100.013,86.032A12.757,12.757,0,1,1,87.256,73.275a12.757,12.757,0,0,1,12.757,12.757m-13.74,2.016a1.12,1.12,0,0,0,1.431.478c.989-.434.161-1.556,1.021-1.931a1.075,1.075,0,0,0,.675-1.2c-.123-.5-.5-.736-1.09-.843l-.022-7.572a1.029,1.029,0,1,0-2.053.015l-.009,8.693L81.035,88.7a1.018,1.018,0,1,0,1.034,1.753Z" transform="translate(-60.928 -59.927)" fill="#fff"/>
        <path id="Trazado_1001650" data-name="Trazado 1001650" d="M217.634,191.066a9.849,9.849,0,1,1-9.849-9.849,9.849,9.849,0,0,1,9.849,9.849m-13.164,4.38a1.374,1.374,0,0,0,2,.18l7.009-6.978a1.429,1.429,0,1,0-2.014-2.024l-5.761,5.749-2.087-2.533a1.372,1.372,0,0,0-1.961-.129,1.394,1.394,0,0,0-.21,1.935Z" transform="translate(-161.88 -148.207)" fill="#fff"/>
      </g>
    </g>
  </g>
</svg>
