<svg xmlns="http://www.w3.org/2000/svg" xmlns:xlink="http://www.w3.org/1999/xlink" width="128" height="128" viewBox="0 0 128 128">
  <defs>
    <clipPath id="clip-path">
      <rect id="Rectángulo_454800" data-name="Rectángulo 454800" width="127.998" height="127.488" fill="none"/>
    </clipPath>
    <linearGradient id="linear-gradient" x1="0.5" y1="-0.646" x2="0.5" y2="1.118" gradientUnits="objectBoundingBox">
      <stop offset="0" stop-color="#67ccf1"/>
      <stop offset="0.625" stop-color="#004b84"/>
      <stop offset="1" stop-color="#002d4f"/>
    </linearGradient>
    <clipPath id="clip-path-2">
      <rect id="Rectángulo_456437" data-name="Rectángulo 456437" width="62.075" height="56.119" fill="#fff"/>
    </clipPath>
  </defs>
  <g id="Grupo_1191904" data-name="Grupo 1191904" transform="translate(-1136.727 -7764.48)">
    <path id="Trazado_997475" data-name="Trazado 997475" d="M63.973,0A63.718,63.718,0,1,1,0,63.717,63.845,63.845,0,0,1,63.973,0Z" transform="translate(1136.781 7764.48)" fill="#fff"/>
    <g id="Grupo_1177602" data-name="Grupo 1177602" transform="translate(1136.727 7764.993)">
      <g id="Grupo_1177525" data-name="Grupo 1177525">
        <g id="Grupo_1177524" data-name="Grupo 1177524" clip-path="url(#clip-path)">
          <path id="Trazado_997408" data-name="Trazado 997408" d="M64,127.488a63.744,63.744,0,1,1,64-63.744,63.944,63.944,0,0,1-64,63.744M64,1.663a62.081,62.081,0,1,0,62.33,62.081A62.275,62.275,0,0,0,64,1.663" fill="#002d4f"/>
          <path id="Trazado_997409" data-name="Trazado 997409" d="M60.365,114.865A54.719,54.719,0,1,1,115.3,60.146a54.891,54.891,0,0,1-54.937,54.719m0-107.774a53.056,53.056,0,1,0,53.267,53.055A53.222,53.222,0,0,0,60.365,7.091" transform="translate(3.634 3.598)" fill="#002d4f"/>
          <path id="Trazado_997410" data-name="Trazado 997410" d="M56.731,102.241a45.693,45.693,0,1,1,45.876-45.693,45.837,45.837,0,0,1-45.876,45.693m0-89.723a44.031,44.031,0,1,0,44.207,44.03,44.17,44.17,0,0,0-44.207-44.03" transform="translate(7.268 7.196)" fill="#fff"/>
          <path id="Trazado_997411" data-name="Trazado 997411" d="M53.1,89.617A36.667,36.667,0,1,1,89.911,52.95,36.783,36.783,0,0,1,53.1,89.617m0-71.671a35,35,0,1,0,35.144,35,35.115,35.115,0,0,0-35.144-35" transform="translate(10.902 10.794)" fill="#fff"/>
          <path id="Trazado_997412" data-name="Trazado 997412" d="M49.462,76.992A27.641,27.641,0,1,1,77.214,49.352,27.728,27.728,0,0,1,49.462,76.992m0-53.618A25.978,25.978,0,1,0,75.544,49.352,26.059,26.059,0,0,0,49.462,23.374" transform="translate(14.537 14.392)" fill="#fff"/>
          <path id="Trazado_997413" data-name="Trazado 997413" d="M45.828,64.37A18.615,18.615,0,1,1,64.517,45.753,18.673,18.673,0,0,1,45.828,64.37m0-35.568a16.953,16.953,0,1,0,17.02,16.952A17,17,0,0,0,45.828,28.8" transform="translate(18.171 17.99)" fill="#fff"/>
          <path id="Trazado_997414" data-name="Trazado 997414" d="M42.194,51.744a9.589,9.589,0,1,1,9.628-9.588,9.62,9.62,0,0,1-9.628,9.588m0-17.515a7.926,7.926,0,1,0,7.959,7.927,7.953,7.953,0,0,0-7.959-7.927" transform="translate(21.805 21.588)" fill="#fff"/>
        </g>
      </g>
      <g id="Elipse_13614" data-name="Elipse 13614" transform="translate(10.388 10.387)" stroke="#002d4f" stroke-width="1" fill="url(#linear-gradient)">
        <ellipse cx="53.612" cy="53.356" rx="53.612" ry="53.356" stroke="none"/>
        <ellipse cx="53.612" cy="53.356" rx="53.112" ry="52.856" fill="none"/>
      </g>
    </g>
    <g id="Grupo_1192211" data-name="Grupo 1192211" transform="translate(1169.717 7800.138)">
      <g id="Grupo_1192210" data-name="Grupo 1192210" clip-path="url(#clip-path-2)">
        <path id="Trazado_1001387" data-name="Trazado 1001387" d="M62.163,40.276H.137V3.856A3.862,3.862,0,0,1,4.033,0L58.259,0a3.856,3.856,0,0,1,3.9,3.859Zm-2.409-1.623a1,1,0,0,0,.8-.983L60.536,3.9a2.2,2.2,0,0,0-2.272-2.26l-54.235,0a2.169,2.169,0,0,0-2.259,2.1L1.744,37.671a.975.975,0,0,0,1,.981Z" transform="translate(-0.11)" fill="#fff"/>
        <path id="Trazado_1001388" data-name="Trazado 1001388" d="M73.109,94.728H18.034V71.864H73.109Zm-46.442-19.9a.891.891,0,0,0,.875-1.107.938.938,0,0,0-.963-.733L19.8,73a.917.917,0,0,0-.908.921.9.9,0,0,0,.887.914Zm11.064-.017c.649,0,.85-.721.776-1.069a.936.936,0,0,0-.894-.745H30.836a.9.9,0,0,0-.973.9.915.915,0,0,0,.976.947Zm10.848.017a.9.9,0,0,0,.869-1.106.913.913,0,0,0-.964-.73l-6.59-.006a.946.946,0,1,0-.011,1.873Zm11.035,3.608a3.194,3.194,0,1,0-3.194,3.194,3.194,3.194,0,0,0,3.194-3.194m-4.888,13.05L69.438,76.763a.935.935,0,0,0-1.412-1.223l-14.5,14.52a.94.94,0,0,0-.117,1.247.919.919,0,0,0,1.319.177M26.653,78a.958.958,0,0,0,.917-1,.979.979,0,0,0-1-.868l-6.594-.012a.993.993,0,0,0-1.08.9.952.952,0,0,0,.922.986Zm11.022-.009a.929.929,0,0,0-.049-1.854l-6.779-.008a.925.925,0,0,0-.983,1.032.958.958,0,0,0,.981.852ZM48.561,78a.933.933,0,0,0,.9-.987.942.942,0,0,0-.987-.883l-6.592-.009a.985.985,0,0,0-1.077.9.951.951,0,0,0,.918.987Zm-21.9,3.128a.919.919,0,0,0,.91-1.012.948.948,0,0,0-1-.833l-6.756.005a.919.919,0,0,0-.023,1.839Zm10.971,0a.935.935,0,0,0,.9-1.005.944.944,0,0,0-.923-.837l-6.89.014a.878.878,0,0,0-.847.988.911.911,0,0,0,.98.848Zm10.852.007a.924.924,0,0,0,.979-1.035.913.913,0,0,0-.977-.82l-6.758.007a.919.919,0,0,0-.024,1.838ZM26.656,84.265a.881.881,0,0,0,.905-.891.856.856,0,0,0-.8-.907l-6.785-.01c-.637,0-1.095.314-1.078.9a.924.924,0,0,0,.89.919Zm11.052-.011a.892.892,0,0,0,.806-1.025.862.862,0,0,0-.877-.766l-6.988.014a.836.836,0,0,0-.766,1.069.893.893,0,0,0,.947.731Zm10.775.03a.91.91,0,0,0,.979-.906.887.887,0,0,0-.979-.923l-6.6,0c-.641,0-1.089.3-1.074.9a.917.917,0,0,0,.884.918Zm21.173,4.2a3.192,3.192,0,1,0-3.192,3.192,3.192,3.192,0,0,0,3.192-3.192M26.666,87.424a.922.922,0,1,0-.082-1.842L19.8,85.6a.885.885,0,0,0-.9.89.9.9,0,0,0,.885.941Zm11.073-.014c.637,0,.83-.734.767-1.071a.92.92,0,0,0-.891-.747l-6.789-.006a.892.892,0,0,0-.963.913.914.914,0,0,0,.975.942Zm10.836.014a.922.922,0,1,0-.085-1.843h-6.6c-.63,0-1.076.323-1.079.934a.9.9,0,0,0,.88.914ZM26.762,90.553a.911.911,0,0,0,.782-1.131.941.941,0,0,0-.967-.707l-6.784.012a.919.919,0,0,0-.893,1.027.962.962,0,0,0,.915.832Zm10.908.018a.949.949,0,0,0,.858-.952.935.935,0,0,0-.916-.895l-6.781-.01a.9.9,0,0,0-.967.891.913.913,0,0,0,.856.969Zm11-.019c.638,0,.861-.732.77-1.122a.9.9,0,0,0-.94-.713l-6.615-.009a.947.947,0,1,0-.166,1.883ZM26.657,93.728a.933.933,0,1,0-.086-1.863l-6.755.008a.92.92,0,1,0,0,1.84Zm11.016,0a.987.987,0,0,0,.852-1.012.955.955,0,0,0-.927-.848l-6.753,0a.927.927,0,1,0,0,1.851Zm10.8-.012a.929.929,0,1,0,0-1.854l-6.755.006a.921.921,0,0,0,0,1.842Z" transform="translate(-14.538 -57.931)" fill="#fff"/>
        <path id="Trazado_1001389" data-name="Trazado 1001389" d="M73.11,43.991H18.035V39.6H73.11ZM24.915,42.7a.874.874,0,0,0,.869-1.012.934.934,0,0,0-.958-.845l-5.008.01a.947.947,0,0,0-.922.983.981.981,0,0,0,1.08.891Zm9.31,0a.886.886,0,0,0,.874-1.016.951.951,0,0,0-.967-.837l-5.008,0a.947.947,0,0,0-.928.988.987.987,0,0,0,1.086.9Zm9.306,0a.9.9,0,0,0,.854-1.013.956.956,0,0,0-.947-.838h-5a.943.943,0,0,0-.958,1,.927.927,0,0,0,.926.866Zm9.3,0a.905.905,0,0,0,.833-1.011.956.956,0,0,0-.946-.842l-5.007,0a.948.948,0,0,0-.951,1.006.932.932,0,0,0,.947.853c1.694.022,3.332.057,5.124-.011m9.136.024a.939.939,0,1,0,.059-1.876H57.02a.95.95,0,0,0-.972,1.008.918.918,0,0,0,.968.856Zm9.3-.006a.936.936,0,0,0,.979-1.017.953.953,0,0,0-.917-.848l-5.009-.007a.936.936,0,0,0-.963,1.012.9.9,0,0,0,.963.861Z" transform="translate(-14.538 -31.925)" fill="#fff"/>
        <rect id="Rectángulo_456436" data-name="Rectángulo 456436" width="55.075" height="2.327" transform="translate(3.497 3.485)" fill="#fff"/>
        <path id="Trazado_1001390" data-name="Trazado 1001390" d="M263.65,152.064a1.322,1.322,0,1,1-1.322-1.322,1.322,1.322,0,0,1,1.322,1.322" transform="translate(-210.401 -121.516)" fill="#fff"/>
        <path id="Trazado_1001391" data-name="Trazado 1001391" d="M211.832,100.252a1.323,1.323,0,1,1-1.323-1.323,1.323,1.323,0,0,1,1.323,1.323" transform="translate(-168.628 -79.748)" fill="#fff"/>
        <path id="Trazado_1001392" data-name="Trazado 1001392" d="M58.378,223.58l-54.6.01a3.864,3.864,0,0,1-3.75-3.762,13.526,13.526,0,0,1,.038-2.2H62.01a13.321,13.321,0,0,1,.037,2.217,3.841,3.841,0,0,1-3.669,3.739m-26.4-2.986a.926.926,0,1,0-.926.926.926.926,0,0,0,.926-.926" transform="translate(0 -175.43)" fill="#fff"/>
        <path id="Trazado_1001393" data-name="Trazado 1001393" d="M136.919,264.249l-14.672-.013a10.337,10.337,0,0,0,2.188-2.767l1.609-3.28,7.087,0,1.687,3.424a11.725,11.725,0,0,0,2.1,2.634" transform="translate(-98.545 -208.13)" fill="#fff"/>
      </g>
    </g>
  </g>
</svg>
