<svg xmlns="http://www.w3.org/2000/svg" xmlns:xlink="http://www.w3.org/1999/xlink" width="128" height="128" viewBox="0 0 128 128">
  <defs>
    <clipPath id="clip-path">
      <rect id="Rectángulo_454800" data-name="Rectángulo 454800" width="127.998" height="127.488" fill="none"/>
    </clipPath>
    <linearGradient id="linear-gradient" x1="0.5" y1="-0.646" x2="0.5" y2="1.118" gradientUnits="objectBoundingBox">
      <stop offset="0" stop-color="#67ccf1"/>
      <stop offset="0.625" stop-color="#004b84"/>
      <stop offset="1" stop-color="#002d4f"/>
    </linearGradient>
    <clipPath id="clip-path-2">
      <rect id="Rectángulo_456499" data-name="Rectángulo 456499" width="49.689" height="64.685" fill="#fff"/>
    </clipPath>
  </defs>
  <g id="Grupo_1192045" data-name="Grupo 1192045" transform="translate(-1136.727 -7764.48)">
    <path id="Trazado_997475" data-name="Trazado 997475" d="M63.973,0A63.718,63.718,0,1,1,0,63.717,63.845,63.845,0,0,1,63.973,0Z" transform="translate(1136.781 7764.48)" fill="#fff"/>
    <g id="Grupo_1177602" data-name="Grupo 1177602" transform="translate(1136.727 7764.993)">
      <g id="Grupo_1177525" data-name="Grupo 1177525">
        <g id="Grupo_1177524" data-name="Grupo 1177524" clip-path="url(#clip-path)">
          <path id="Trazado_997408" data-name="Trazado 997408" d="M64,127.488a63.744,63.744,0,1,1,64-63.744,63.944,63.944,0,0,1-64,63.744M64,1.663a62.081,62.081,0,1,0,62.33,62.081A62.275,62.275,0,0,0,64,1.663" fill="#002d4f"/>
          <path id="Trazado_997409" data-name="Trazado 997409" d="M60.365,114.865A54.719,54.719,0,1,1,115.3,60.146a54.891,54.891,0,0,1-54.937,54.719m0-107.774a53.056,53.056,0,1,0,53.267,53.055A53.222,53.222,0,0,0,60.365,7.091" transform="translate(3.634 3.598)" fill="#002d4f"/>
          <path id="Trazado_997410" data-name="Trazado 997410" d="M56.731,102.241a45.693,45.693,0,1,1,45.876-45.693,45.837,45.837,0,0,1-45.876,45.693m0-89.723a44.031,44.031,0,1,0,44.207,44.03,44.17,44.17,0,0,0-44.207-44.03" transform="translate(7.268 7.196)" fill="#fff"/>
          <path id="Trazado_997411" data-name="Trazado 997411" d="M53.1,89.617A36.667,36.667,0,1,1,89.911,52.95,36.783,36.783,0,0,1,53.1,89.617m0-71.671a35,35,0,1,0,35.144,35,35.115,35.115,0,0,0-35.144-35" transform="translate(10.902 10.794)" fill="#fff"/>
          <path id="Trazado_997412" data-name="Trazado 997412" d="M49.462,76.992A27.641,27.641,0,1,1,77.214,49.352,27.728,27.728,0,0,1,49.462,76.992m0-53.618A25.978,25.978,0,1,0,75.544,49.352,26.059,26.059,0,0,0,49.462,23.374" transform="translate(14.537 14.392)" fill="#fff"/>
          <path id="Trazado_997413" data-name="Trazado 997413" d="M45.828,64.37A18.615,18.615,0,1,1,64.517,45.753,18.673,18.673,0,0,1,45.828,64.37m0-35.568a16.953,16.953,0,1,0,17.02,16.952A17,17,0,0,0,45.828,28.8" transform="translate(18.171 17.99)" fill="#fff"/>
          <path id="Trazado_997414" data-name="Trazado 997414" d="M42.194,51.744a9.589,9.589,0,1,1,9.628-9.588,9.62,9.62,0,0,1-9.628,9.588m0-17.515a7.926,7.926,0,1,0,7.959,7.927,7.953,7.953,0,0,0-7.959-7.927" transform="translate(21.805 21.588)" fill="#fff"/>
        </g>
      </g>
      <g id="Elipse_13614" data-name="Elipse 13614" transform="translate(10.388 10.387)" stroke="#002d4f" stroke-width="1" fill="url(#linear-gradient)">
        <ellipse cx="53.612" cy="53.356" rx="53.612" ry="53.356" stroke="none"/>
        <ellipse cx="53.612" cy="53.356" rx="53.112" ry="52.856" fill="none"/>
      </g>
    </g>
    <g id="Grupo_1192275" data-name="Grupo 1192275" transform="translate(1175.91 7795.855)">
      <g id="Grupo_1192274" data-name="Grupo 1192274" clip-path="url(#clip-path-2)">
        <path id="Trazado_1001575" data-name="Trazado 1001575" d="M41.467,64.665l-33.107.02A8.25,8.25,0,0,1,0,56.457V8.107C0,3.91,3.36,0,7.655,0l34.6.031c4.2,0,7.431,4.008,7.431,8.072l0,48.356a8.178,8.178,0,0,1-8.22,8.207M11.4,18.95a2.3,2.3,0,0,0,3.188-.3l5.769-5.787a2.319,2.319,0,0,0,.11-3.206,2.291,2.291,0,0,0-3.182-.107L12.809,13.97a12.566,12.566,0,0,1-1.356-1.293,2.3,2.3,0,0,0-3.245-.085,2.231,2.231,0,0,0-.14,3.045C9.12,16.76,10.182,17.857,11.4,18.95m27.126-2.509a2.189,2.189,0,0,0,2.125-2.336,2.216,2.216,0,0,0-2.234-2.144L28,11.944a2.272,2.272,0,0,0-2.384,2.343A2.3,2.3,0,0,0,28,16.478ZM18.961,33.768a17.79,17.79,0,0,1-1.387-1.477c1.026-1.153,3-2.678,1.435-4.491a2.289,2.289,0,0,0-3.162-.231A19.438,19.438,0,0,1,14.3,29.017l-1.613-1.5a2.228,2.228,0,0,0-3.169.362c-1.439,1.846.446,3.226,1.556,4.412A18.648,18.648,0,0,1,9.721,33.67a2.261,2.261,0,1,0,3.2,3.2,13.985,13.985,0,0,1,1.376-1.31A12.641,12.641,0,0,1,15.723,36.9a2.254,2.254,0,0,0,3.238-3.135m19.561.756a2.189,2.189,0,0,0,2.125-2.336,2.216,2.216,0,0,0-2.234-2.144L28,30.026a2.27,2.27,0,1,0,0,4.533ZM11.4,55.114a2.3,2.3,0,0,0,3.187-.3l5.77-5.787a2.319,2.319,0,0,0,.11-3.205,2.29,2.29,0,0,0-3.181-.107l-4.473,4.42a12.469,12.469,0,0,1-1.355-1.293,2.3,2.3,0,0,0-3.245-.085,2.23,2.23,0,0,0-.14,3.046c1.052,1.122,2.114,2.219,3.328,3.312m27.126-2.509a2.189,2.189,0,0,0,2.125-2.336,2.216,2.216,0,0,0-2.234-2.144L28,48.108a2.272,2.272,0,0,0-2.384,2.343A2.3,2.3,0,0,0,28,52.642Z" transform="translate(0 0)" fill="#fff"/>
      </g>
    </g>
  </g>
</svg>
