<svg xmlns="http://www.w3.org/2000/svg" xmlns:xlink="http://www.w3.org/1999/xlink" width="128" height="128" viewBox="0 0 128 128">
  <defs>
    <clipPath id="clip-path">
      <rect id="Rectángulo_454800" data-name="Rectángulo 454800" width="127.998" height="127.488" fill="none"/>
    </clipPath>
    <linearGradient id="linear-gradient" x1="0.5" y1="-0.646" x2="0.5" y2="1.118" gradientUnits="objectBoundingBox">
      <stop offset="0" stop-color="#67ccf1"/>
      <stop offset="0.625" stop-color="#004b84"/>
      <stop offset="1" stop-color="#002d4f"/>
    </linearGradient>
    <clipPath id="clip-path-2">
      <rect id="Rectángulo_456501" data-name="Rectángulo 456501" width="70.988" height="70.852" fill="#fff"/>
    </clipPath>
  </defs>
  <g id="Grupo_1192044" data-name="Grupo 1192044" transform="translate(-1136.727 -7764.48)">
    <path id="Trazado_997475" data-name="Trazado 997475" d="M63.973,0A63.718,63.718,0,1,1,0,63.717,63.845,63.845,0,0,1,63.973,0Z" transform="translate(1136.781 7764.48)" fill="#fff"/>
    <g id="Grupo_1177602" data-name="Grupo 1177602" transform="translate(1136.727 7764.993)">
      <g id="Grupo_1177525" data-name="Grupo 1177525">
        <g id="Grupo_1177524" data-name="Grupo 1177524" clip-path="url(#clip-path)">
          <path id="Trazado_997408" data-name="Trazado 997408" d="M64,127.488a63.744,63.744,0,1,1,64-63.744,63.944,63.944,0,0,1-64,63.744M64,1.663a62.081,62.081,0,1,0,62.33,62.081A62.275,62.275,0,0,0,64,1.663" fill="#002d4f"/>
          <path id="Trazado_997409" data-name="Trazado 997409" d="M60.365,114.865A54.719,54.719,0,1,1,115.3,60.146a54.891,54.891,0,0,1-54.937,54.719m0-107.774a53.056,53.056,0,1,0,53.267,53.055A53.222,53.222,0,0,0,60.365,7.091" transform="translate(3.634 3.598)" fill="#002d4f"/>
          <path id="Trazado_997410" data-name="Trazado 997410" d="M56.731,102.241a45.693,45.693,0,1,1,45.876-45.693,45.837,45.837,0,0,1-45.876,45.693m0-89.723a44.031,44.031,0,1,0,44.207,44.03,44.17,44.17,0,0,0-44.207-44.03" transform="translate(7.268 7.196)" fill="#fff"/>
          <path id="Trazado_997411" data-name="Trazado 997411" d="M53.1,89.617A36.667,36.667,0,1,1,89.911,52.95,36.783,36.783,0,0,1,53.1,89.617m0-71.671a35,35,0,1,0,35.144,35,35.115,35.115,0,0,0-35.144-35" transform="translate(10.902 10.794)" fill="#fff"/>
          <path id="Trazado_997412" data-name="Trazado 997412" d="M49.462,76.992A27.641,27.641,0,1,1,77.214,49.352,27.728,27.728,0,0,1,49.462,76.992m0-53.618A25.978,25.978,0,1,0,75.544,49.352,26.059,26.059,0,0,0,49.462,23.374" transform="translate(14.537 14.392)" fill="#fff"/>
          <path id="Trazado_997413" data-name="Trazado 997413" d="M45.828,64.37A18.615,18.615,0,1,1,64.517,45.753,18.673,18.673,0,0,1,45.828,64.37m0-35.568a16.953,16.953,0,1,0,17.02,16.952A17,17,0,0,0,45.828,28.8" transform="translate(18.171 17.99)" fill="#fff"/>
          <path id="Trazado_997414" data-name="Trazado 997414" d="M42.194,51.744a9.589,9.589,0,1,1,9.628-9.588,9.62,9.62,0,0,1-9.628,9.588m0-17.515a7.926,7.926,0,1,0,7.959,7.927,7.953,7.953,0,0,0-7.959-7.927" transform="translate(21.805 21.588)" fill="#fff"/>
        </g>
      </g>
      <g id="Elipse_13614" data-name="Elipse 13614" transform="translate(10.388 10.387)" stroke="#002d4f" stroke-width="1" fill="url(#linear-gradient)">
        <ellipse cx="53.612" cy="53.356" rx="53.612" ry="53.356" stroke="none"/>
        <ellipse cx="53.612" cy="53.356" rx="53.112" ry="52.856" fill="none"/>
      </g>
    </g>
    <g id="Grupo_1192279" data-name="Grupo 1192279" transform="translate(1165.231 7796.311)">
      <g id="Grupo_1192278" data-name="Grupo 1192278" clip-path="url(#clip-path-2)">
        <path id="Trazado_1001580" data-name="Trazado 1001580" d="M17.506,31.639a40.71,40.71,0,0,0,.214,5.175l-12,.044a1.174,1.174,0,0,0,.2,2.339l12.432.013a19.842,19.842,0,0,0,2.919,5.629L0,44.874,0,7.763l6.622-.05a1.11,1.11,0,0,0,1.1-.966L7.79.005,30.116,0l.027,16.57a18.855,18.855,0,0,0-8.079,5.192l-16.355,0a1.173,1.173,0,0,0-.026,2.323l14.54.086a22.06,22.06,0,0,0-2.172,5.1l-12.126,0a1.2,1.2,0,0,0-1.234,1.064,1.106,1.106,0,0,0,.987,1.275ZM24.265,9.014a1.163,1.163,0,0,0,1.178-1.331,1.188,1.188,0,0,0-1.305-1.018L11.6,6.673a1.147,1.147,0,0,0-1.215,1.168A1.167,1.167,0,0,0,11.6,9.013Zm.186,7.552a1.239,1.239,0,0,0,1-1.357,1.174,1.174,0,0,0-1.171-1L5.965,14.2a1.191,1.191,0,0,0-1.277,1.23,1.163,1.163,0,0,0,1.239,1.129Z" fill="#fff"/>
        <path id="Trazado_1001581" data-name="Trazado 1001581" d="M104.271,127.784c.024,2.051-2.993,1.563-5.833,1.576a1.38,1.38,0,0,1-1.424-1.342l-.2-11.582c-.023-1.333.519-1.74,1.786-1.924l-.032-6.594a15.645,15.645,0,1,1,4-.258l.031,6.731c.861.343,1.526.734,1.538,1.817Zm6.411-35.473a11.09,11.09,0,1,0-11.09,11.09,11.09,11.09,0,0,0,11.09-11.09" transform="translate(-64.099 -58.549)" fill="#fff"/>
        <path id="Trazado_1001582" data-name="Trazado 1001582" d="M9.735,9.668a31.674,31.674,0,0,1-4-.045l3.93-3.947a27.376,27.376,0,0,1,.074,3.992" transform="translate(-4.375 -4.333)" fill="#fff"/>
        <path id="Trazado_1001583" data-name="Trazado 1001583" d="M185.094,36.832a33.218,33.218,0,0,0,.083-5.143l11.9-.079a1.09,1.09,0,0,0,.995-1.265,1.2,1.2,0,0,0-1.234-1.061l-12.127-.007a22.251,22.251,0,0,0-2.171-5.1l14.311-.057a1.179,1.179,0,0,0,1.22-1.329c-.07-.727-.651-1.029-1.464-1.03l-15.981-.019a18.5,18.5,0,0,0-8-5.192L172.647,0l22.326,0,.054,6.535a1.1,1.1,0,0,0,1.11,1.17l6.622.053,0,37.111-21.27-.035a19.784,19.784,0,0,0,2.92-5.626l12.431-.022a1.133,1.133,0,0,0,1.23-1.071,1.18,1.18,0,0,0-1.238-1.284Zm5.944-30.164-12.411,0a1.2,1.2,0,0,0-1.319,1.177,1.215,1.215,0,0,0,1.317,1.181l12.537-.013a1.163,1.163,0,0,0,1.215-1.167,1.181,1.181,0,0,0-1.338-1.176m5.8,9.895a1.171,1.171,0,0,0,1.227-1.353A1.206,1.206,0,0,0,196.8,14.2l-18.319.013a1.162,1.162,0,0,0-1.173,1.174,1.175,1.175,0,0,0,1.108,1.164Z" transform="translate(-131.775 -0.002)" fill="#fff"/>
        <path id="Trazado_1001584" data-name="Trazado 1001584" d="M281.159,9.574c-1.224.339-2.425.052-3.89.155a22.667,22.667,0,0,1,.015-4.02Z" transform="translate(-211.599 -4.358)" fill="#fff"/>
      </g>
    </g>
  </g>
</svg>
