<svg xmlns="http://www.w3.org/2000/svg" xmlns:xlink="http://www.w3.org/1999/xlink" width="128" height="128" viewBox="0 0 128 128">
  <defs>
    <clipPath id="clip-path">
      <rect id="Rectángulo_454800" data-name="Rectángulo 454800" width="127.998" height="127.488" fill="none"/>
    </clipPath>
    <linearGradient id="linear-gradient" x1="0.5" y1="-0.646" x2="0.5" y2="1.118" gradientUnits="objectBoundingBox">
      <stop offset="0" stop-color="#67ccf1"/>
      <stop offset="0.625" stop-color="#004b84"/>
      <stop offset="1" stop-color="#002d4f"/>
    </linearGradient>
    <clipPath id="clip-path-2">
      <rect id="Rectángulo_456500" data-name="Rectángulo 456500" width="61.432" height="63.657" fill="#fff"/>
    </clipPath>
  </defs>
  <g id="Grupo_1192055" data-name="Grupo 1192055" transform="translate(-1136.727 -7764.48)">
    <path id="Trazado_997475" data-name="Trazado 997475" d="M63.973,0A63.718,63.718,0,1,1,0,63.717,63.845,63.845,0,0,1,63.973,0Z" transform="translate(1136.781 7764.48)" fill="#fff"/>
    <g id="Grupo_1177602" data-name="Grupo 1177602" transform="translate(1136.727 7764.993)">
      <g id="Grupo_1177525" data-name="Grupo 1177525">
        <g id="Grupo_1177524" data-name="Grupo 1177524" clip-path="url(#clip-path)">
          <path id="Trazado_997408" data-name="Trazado 997408" d="M64,127.488a63.744,63.744,0,1,1,64-63.744,63.944,63.944,0,0,1-64,63.744M64,1.663a62.081,62.081,0,1,0,62.33,62.081A62.275,62.275,0,0,0,64,1.663" fill="#002d4f"/>
          <path id="Trazado_997409" data-name="Trazado 997409" d="M60.365,114.865A54.719,54.719,0,1,1,115.3,60.146a54.891,54.891,0,0,1-54.937,54.719m0-107.774a53.056,53.056,0,1,0,53.267,53.055A53.222,53.222,0,0,0,60.365,7.091" transform="translate(3.634 3.598)" fill="#002d4f"/>
          <path id="Trazado_997410" data-name="Trazado 997410" d="M56.731,102.241a45.693,45.693,0,1,1,45.876-45.693,45.837,45.837,0,0,1-45.876,45.693m0-89.723a44.031,44.031,0,1,0,44.207,44.03,44.17,44.17,0,0,0-44.207-44.03" transform="translate(7.268 7.196)" fill="#fff"/>
          <path id="Trazado_997411" data-name="Trazado 997411" d="M53.1,89.617A36.667,36.667,0,1,1,89.911,52.95,36.783,36.783,0,0,1,53.1,89.617m0-71.671a35,35,0,1,0,35.144,35,35.115,35.115,0,0,0-35.144-35" transform="translate(10.902 10.794)" fill="#fff"/>
          <path id="Trazado_997412" data-name="Trazado 997412" d="M49.462,76.992A27.641,27.641,0,1,1,77.214,49.352,27.728,27.728,0,0,1,49.462,76.992m0-53.618A25.978,25.978,0,1,0,75.544,49.352,26.059,26.059,0,0,0,49.462,23.374" transform="translate(14.537 14.392)" fill="#fff"/>
          <path id="Trazado_997413" data-name="Trazado 997413" d="M45.828,64.37A18.615,18.615,0,1,1,64.517,45.753,18.673,18.673,0,0,1,45.828,64.37m0-35.568a16.953,16.953,0,1,0,17.02,16.952A17,17,0,0,0,45.828,28.8" transform="translate(18.171 17.99)" fill="#fff"/>
          <path id="Trazado_997414" data-name="Trazado 997414" d="M42.194,51.744a9.589,9.589,0,1,1,9.628-9.588,9.62,9.62,0,0,1-9.628,9.588m0-17.515a7.926,7.926,0,1,0,7.959,7.927,7.953,7.953,0,0,0-7.959-7.927" transform="translate(21.805 21.588)" fill="#fff"/>
        </g>
      </g>
      <g id="Elipse_13614" data-name="Elipse 13614" transform="translate(10.388 10.387)" stroke="#002d4f" stroke-width="1" fill="url(#linear-gradient)">
        <ellipse cx="53.612" cy="53.356" rx="53.612" ry="53.356" stroke="none"/>
        <ellipse cx="53.612" cy="53.356" rx="53.112" ry="52.856" fill="none"/>
      </g>
    </g>
    <g id="Grupo_1192277" data-name="Grupo 1192277" transform="translate(1167.01 7796.908)">
      <g id="Grupo_1192276" data-name="Grupo 1192276" clip-path="url(#clip-path-2)">
        <path id="Trazado_1001576" data-name="Trazado 1001576" d="M100.019,56.7a6.836,6.836,0,0,1-7.033,6.954l-36.073,0a6.889,6.889,0,0,1-6.934-7.074l.039-15.978A19.334,19.334,0,1,0,51.8,2.3,6.1,6.1,0,0,1,56.663.025L79.562,0l.022,14.314a6.855,6.855,0,0,0,7.075,6.144l13.391.01Zm-9.1-4.546-.007-15.77a2.274,2.274,0,0,0-2.123-2.273c-.912-.069-2.338.605-2.338,1.817l0,16.787c0,1.276,1.548,1.96,2.536,1.792a2.294,2.294,0,0,0,1.929-2.353m-18.213.214L72.694,43a2.234,2.234,0,0,0-2.49-2.067,2.306,2.306,0,0,0-2.03,2.476v8.642a2.3,2.3,0,0,0,2.235,2.483,2.247,2.247,0,0,0,2.3-2.167m9.119-.2-.035-6.9A2.229,2.229,0,0,0,79.3,43.208a2.31,2.31,0,0,0-2.028,2.474l0,6.371a2.285,2.285,0,1,0,4.559.114m-18.191.006,0-2.161a2.272,2.272,0,0,0-2.106-2.261,2.175,2.175,0,0,0-2.355,1.8,11.628,11.628,0,0,0,0,3.175A2.185,2.185,0,0,0,61.727,54.5a2.3,2.3,0,0,0,1.906-2.329" transform="translate(-38.617)" fill="#fff"/>
        <path id="Trazado_1001577" data-name="Trazado 1001577" d="M12.517,42.939a4.556,4.556,0,0,0,4.83,4.652l12.019.02A14.775,14.775,0,1,1,12.468,30.7Z" transform="translate(0 -23.724)" fill="#fff"/>
        <path id="Trazado_1001578" data-name="Trazado 1001578" d="M215.631,16.184l-13.308.015c-1.6,0-2.379-1.256-2.373-2.742L200.008.373A6.464,6.464,0,0,1,204.322,2.6l9.516,10.452a6.745,6.745,0,0,1,1.793,3.13" transform="translate(-154.496 -0.288)" fill="#fff"/>
        <path id="Trazado_1001579" data-name="Trazado 1001579" d="M87.369,43.208,75.092,43.2l0-12.282A14.6,14.6,0,0,1,87.369,43.208" transform="translate(-58.02 -23.888)" fill="#fff"/>
      </g>
    </g>
  </g>
</svg>
