<svg xmlns="http://www.w3.org/2000/svg" xmlns:xlink="http://www.w3.org/1999/xlink" width="128" height="128" viewBox="0 0 128 128">
  <defs>
    <clipPath id="clip-path">
      <rect id="Rectángulo_454800" data-name="Rectángulo 454800" width="127.998" height="127.488" fill="none"/>
    </clipPath>
    <linearGradient id="linear-gradient" x1="0.5" y1="-0.646" x2="0.5" y2="1.118" gradientUnits="objectBoundingBox">
      <stop offset="0" stop-color="#67ccf1"/>
      <stop offset="0.625" stop-color="#004b84"/>
      <stop offset="1" stop-color="#002d4f"/>
    </linearGradient>
    <clipPath id="clip-path-2">
      <rect id="Rectángulo_456502" data-name="Rectángulo 456502" width="63.833" height="69.945" fill="#fff"/>
    </clipPath>
  </defs>
  <g id="Grupo_1192053" data-name="Grupo 1192053" transform="translate(-1136.727 -7764.48)">
    <path id="Trazado_997475" data-name="Trazado 997475" d="M63.973,0A63.718,63.718,0,1,1,0,63.717,63.845,63.845,0,0,1,63.973,0Z" transform="translate(1136.781 7764.48)" fill="#fff"/>
    <g id="Grupo_1177602" data-name="Grupo 1177602" transform="translate(1136.727 7764.993)">
      <g id="Grupo_1177525" data-name="Grupo 1177525">
        <g id="Grupo_1177524" data-name="Grupo 1177524" clip-path="url(#clip-path)">
          <path id="Trazado_997408" data-name="Trazado 997408" d="M64,127.488a63.744,63.744,0,1,1,64-63.744,63.944,63.944,0,0,1-64,63.744M64,1.663a62.081,62.081,0,1,0,62.33,62.081A62.275,62.275,0,0,0,64,1.663" fill="#002d4f"/>
          <path id="Trazado_997409" data-name="Trazado 997409" d="M60.365,114.865A54.719,54.719,0,1,1,115.3,60.146a54.891,54.891,0,0,1-54.937,54.719m0-107.774a53.056,53.056,0,1,0,53.267,53.055A53.222,53.222,0,0,0,60.365,7.091" transform="translate(3.634 3.598)" fill="#002d4f"/>
          <path id="Trazado_997410" data-name="Trazado 997410" d="M56.731,102.241a45.693,45.693,0,1,1,45.876-45.693,45.837,45.837,0,0,1-45.876,45.693m0-89.723a44.031,44.031,0,1,0,44.207,44.03,44.17,44.17,0,0,0-44.207-44.03" transform="translate(7.268 7.196)" fill="#fff"/>
          <path id="Trazado_997411" data-name="Trazado 997411" d="M53.1,89.617A36.667,36.667,0,1,1,89.911,52.95,36.783,36.783,0,0,1,53.1,89.617m0-71.671a35,35,0,1,0,35.144,35,35.115,35.115,0,0,0-35.144-35" transform="translate(10.902 10.794)" fill="#fff"/>
          <path id="Trazado_997412" data-name="Trazado 997412" d="M49.462,76.992A27.641,27.641,0,1,1,77.214,49.352,27.728,27.728,0,0,1,49.462,76.992m0-53.618A25.978,25.978,0,1,0,75.544,49.352,26.059,26.059,0,0,0,49.462,23.374" transform="translate(14.537 14.392)" fill="#fff"/>
          <path id="Trazado_997413" data-name="Trazado 997413" d="M45.828,64.37A18.615,18.615,0,1,1,64.517,45.753,18.673,18.673,0,0,1,45.828,64.37m0-35.568a16.953,16.953,0,1,0,17.02,16.952A17,17,0,0,0,45.828,28.8" transform="translate(18.171 17.99)" fill="#fff"/>
          <path id="Trazado_997414" data-name="Trazado 997414" d="M42.194,51.744a9.589,9.589,0,1,1,9.628-9.588,9.62,9.62,0,0,1-9.628,9.588m0-17.515a7.926,7.926,0,1,0,7.959,7.927,7.953,7.953,0,0,0-7.959-7.927" transform="translate(21.805 21.588)" fill="#fff"/>
        </g>
      </g>
      <g id="Elipse_13614" data-name="Elipse 13614" transform="translate(10.388 10.387)" stroke="#002d4f" stroke-width="1" fill="url(#linear-gradient)">
        <ellipse cx="53.612" cy="53.356" rx="53.612" ry="53.356" stroke="none"/>
        <ellipse cx="53.612" cy="53.356" rx="53.112" ry="52.856" fill="none"/>
      </g>
    </g>
    <g id="Grupo_1192281" data-name="Grupo 1192281" transform="translate(1176.473 7788.882)">
      <g id="Grupo_1192280" data-name="Grupo 1192280" clip-path="url(#clip-path-2)">
        <path id="Trazado_1001585" data-name="Trazado 1001585" d="M152.515,180.469l-2.628,2.7a1.2,1.2,0,0,1-1.706-.056l-7.288-7.145c-.475-.465.1-1.2.173-1.658l-3.872-3.829a13.155,13.155,0,1,1,2.237-2.511l4,3.914c.525-.167,1.247-.64,1.729-.175l7.241,6.983a1.2,1.2,0,0,1,.109,1.777m-14.609-19.938a9.227,9.227,0,1,0-9.227,9.227,9.227,9.227,0,0,0,9.227-9.227" transform="translate(-89.026 -113.557)" fill="#fff"/>
        <path id="Trazado_1001586" data-name="Trazado 1001586" d="M29.185,82.671c-2.666-.211-5.218-.03-7.81-.081a1.092,1.092,0,0,0-1.028,1.176,1.164,1.164,0,0,0,1.234,1.118l7.816.006a15.528,15.528,0,0,0-4.3,6.44l-3.515.07a1.119,1.119,0,0,0-1.232,1.1c-.046,1.873,2.8.995,3.962,1.291,1.107,2.5-4.121-.268-3.958,2.387a1.111,1.111,0,0,0,1.238,1.047l2.673-.01a17.091,17.091,0,0,0,1.811,6.431c-1.88.457-5.489-.678-5.711,1.054a1.12,1.12,0,0,0,1.212,1.336l5.971.057c.528.005.834.817,1.112,1.143l-7.076.073a1.151,1.151,0,1,0,.006,2.295l6.9.018a1.49,1.49,0,0,0,1.557-1.235,15.3,15.3,0,0,0,10.5,3.312l.039,5.069L0,116.761l0-52.51c.541-.072,1.33-.269,1.683.042a5.125,5.125,0,0,0,2.048,1.423A1.738,1.738,0,0,1,4.395,67.5a2.549,2.549,0,0,0,.268,3.2l2.4,2.383c.846.84,1.937.661,2.975.162a1.725,1.725,0,0,1,1.975.789,2.584,2.584,0,0,0,2.689,2.05c2.758-.1,4.511.589,5.389-2.055a1.727,1.727,0,0,1,2-.777,2.441,2.441,0,0,0,3.079-.29l2.295-2.294a2.442,2.442,0,0,0,.278-3.079,1.752,1.752,0,0,1,.643-1.9c2.993-1.385,1-1.725,3.318-1.437l.016,6.287a2.436,2.436,0,0,0,2.514,2.514l6.357.014.022,7.9a15.72,15.72,0,0,0-10.634,3.395c-.124-.516-.016-1.636-.789-1.7M15.233,86.281A1.016,1.016,0,0,0,16,85.258l0-6.669a.888.888,0,0,0-.87-.942L8.25,77.642a.912.912,0,0,0-.92.955l-.006,6.658a.963.963,0,0,0,.927,1Zm17.38-4.944a1.153,1.153,0,0,0,1.2-1.029,1.048,1.048,0,0,0-.966-1.245l-11.483,0a1.064,1.064,0,0,0-1.011,1.262,1.147,1.147,0,0,0,1.063,1.009ZM15.042,98.647a.959.959,0,0,0,.957-1L16,91a.978.978,0,0,0-.938-1.028l-6.737-.008A1,1,0,0,0,7.319,91l0,6.664a1.041,1.041,0,0,0,.936,1Zm.96,3.691H7.321v8.667H16Z" transform="translate(0 -49.379)" fill="#fff"/>
        <path id="Trazado_1001587" data-name="Trazado 1001587" d="M30.4,24.343a28.71,28.71,0,0,1-3.2.022,17.2,17.2,0,0,1-.871-1.915,17.335,17.335,0,0,1-2.934-1.285l-2.15.741-2.237-2.26.819-1.959a16.715,16.715,0,0,1-1.276-3.047L16.6,13.79a16.167,16.167,0,0,1,0-3.2l1.942-.846A16.657,16.657,0,0,1,19.827,6.7l-.819-1.959a31.912,31.912,0,0,1,2.261-2.3l2.015.8a16.2,16.2,0,0,1,3.044-1.267A18.336,18.336,0,0,1,27.177.014L30.369,0l.854,1.965a16.852,16.852,0,0,1,3.056,1.276L36.2,2.446a19.812,19.812,0,0,1,2.26,2.171,8.946,8.946,0,0,1-.734,2.08A14.425,14.425,0,0,1,38.94,9.64l2.01.975a29.16,29.16,0,0,1,0,3.151,11.281,11.281,0,0,1-1.967.859,32.425,32.425,0,0,1-1.2,3.078l.7,1.9a16.07,16.07,0,0,1-2.146,2.271c-.847-.055-1.387-.573-2.186-.724-.882.67-2.01.78-2.891,1.339-.49.372-.411,1.262-.858,1.85m4.13-12.156a5.76,5.76,0,1,0-5.76,5.76,5.76,5.76,0,0,0,5.76-5.76" transform="translate(-12.721)" fill="#fff"/>
        <path id="Trazado_1001588" data-name="Trazado 1001588" d="M154.509,70.927a42.45,42.45,0,0,1-6.421.1l.023-6.485Z" transform="translate(-114.036 -49.704)" fill="#fff"/>
        <path id="Trazado_1001589" data-name="Trazado 1001589" d="M41.126,243.708a7.25,7.25,0,0,1-1.548-1.494,1.124,1.124,0,0,1,.134-1.554c.52-.467,1.1-.265,1.723.15.583.387,1.029-1.818,2.356-1.313a1.141,1.141,0,0,1,.558,1.739c-.523.778-1.139,1.443-1.74,2.189a1.113,1.113,0,0,1-1.482.283" transform="translate(-30.283 -184.367)" fill="#fff"/>
        <path id="Trazado_1001590" data-name="Trazado 1001590" d="M41,189.956a10.893,10.893,0,0,1-1.484-1.5,1.141,1.141,0,0,1,.229-1.557,1.319,1.319,0,0,1,1.751.3c.719-.242,1.159-2.045,2.542-1.282,1.485.82-.651,2.773-1.421,3.774a1.166,1.166,0,0,1-1.617.27" transform="translate(-30.265 -143.018)" fill="#fff"/>
        <path id="Trazado_1001591" data-name="Trazado 1001591" d="M40.7,135.911l-.974-.984a1.2,1.2,0,0,1-.162-1.58c.519-.67,1.224-.467,1.877-.058s.94-1.8,2.466-1.238a1.151,1.151,0,0,1,.476,1.669c-.5.783-1.147,1.417-1.706,2.164a1.263,1.263,0,0,1-1.977.026" transform="translate(-30.292 -101.616)" fill="#fff"/>
      </g>
    </g>
  </g>
</svg>
