<svg xmlns="http://www.w3.org/2000/svg" xmlns:xlink="http://www.w3.org/1999/xlink" width="128" height="128" viewBox="0 0 128 128">
  <defs>
    <clipPath id="clip-path">
      <rect id="Rectángulo_454800" data-name="Rectángulo 454800" width="127.998" height="127.488" fill="none"/>
    </clipPath>
    <linearGradient id="linear-gradient" x1="0.5" y1="-0.646" x2="0.5" y2="1.118" gradientUnits="objectBoundingBox">
      <stop offset="0" stop-color="#67ccf1"/>
      <stop offset="0.625" stop-color="#004b84"/>
      <stop offset="1" stop-color="#002d4f"/>
    </linearGradient>
    <clipPath id="clip-path-2">
      <rect id="Rectángulo_456519" data-name="Rectángulo 456519" width="59.394" height="60.961" transform="translate(0 0)" fill="#fff"/>
    </clipPath>
  </defs>
  <g id="Grupo_1192112" data-name="Grupo 1192112" transform="translate(-1136.727 -7764.48)">
    <path id="Trazado_997475" data-name="Trazado 997475" d="M63.973,0A63.718,63.718,0,1,1,0,63.717,63.845,63.845,0,0,1,63.973,0Z" transform="translate(1136.781 7764.48)" fill="#fff"/>
    <g id="Grupo_1177602" data-name="Grupo 1177602" transform="translate(1136.727 7764.993)">
      <g id="Grupo_1177525" data-name="Grupo 1177525">
        <g id="Grupo_1177524" data-name="Grupo 1177524" clip-path="url(#clip-path)">
          <path id="Trazado_997408" data-name="Trazado 997408" d="M64,127.488a63.744,63.744,0,1,1,64-63.744,63.944,63.944,0,0,1-64,63.744M64,1.663a62.081,62.081,0,1,0,62.33,62.081A62.275,62.275,0,0,0,64,1.663" fill="#002d4f"/>
          <path id="Trazado_997409" data-name="Trazado 997409" d="M60.365,114.865A54.719,54.719,0,1,1,115.3,60.146a54.891,54.891,0,0,1-54.937,54.719m0-107.774a53.056,53.056,0,1,0,53.267,53.055A53.222,53.222,0,0,0,60.365,7.091" transform="translate(3.634 3.598)" fill="#002d4f"/>
          <path id="Trazado_997410" data-name="Trazado 997410" d="M56.731,102.241a45.693,45.693,0,1,1,45.876-45.693,45.837,45.837,0,0,1-45.876,45.693m0-89.723a44.031,44.031,0,1,0,44.207,44.03,44.17,44.17,0,0,0-44.207-44.03" transform="translate(7.268 7.196)" fill="#fff"/>
          <path id="Trazado_997411" data-name="Trazado 997411" d="M53.1,89.617A36.667,36.667,0,1,1,89.911,52.95,36.783,36.783,0,0,1,53.1,89.617m0-71.671a35,35,0,1,0,35.144,35,35.115,35.115,0,0,0-35.144-35" transform="translate(10.902 10.794)" fill="#fff"/>
          <path id="Trazado_997412" data-name="Trazado 997412" d="M49.462,76.992A27.641,27.641,0,1,1,77.214,49.352,27.728,27.728,0,0,1,49.462,76.992m0-53.618A25.978,25.978,0,1,0,75.544,49.352,26.059,26.059,0,0,0,49.462,23.374" transform="translate(14.537 14.392)" fill="#fff"/>
          <path id="Trazado_997413" data-name="Trazado 997413" d="M45.828,64.37A18.615,18.615,0,1,1,64.517,45.753,18.673,18.673,0,0,1,45.828,64.37m0-35.568a16.953,16.953,0,1,0,17.02,16.952A17,17,0,0,0,45.828,28.8" transform="translate(18.171 17.99)" fill="#fff"/>
          <path id="Trazado_997414" data-name="Trazado 997414" d="M42.194,51.744a9.589,9.589,0,1,1,9.628-9.588,9.62,9.62,0,0,1-9.628,9.588m0-17.515a7.926,7.926,0,1,0,7.959,7.927,7.953,7.953,0,0,0-7.959-7.927" transform="translate(21.805 21.588)" fill="#fff"/>
        </g>
      </g>
      <g id="Elipse_13614" data-name="Elipse 13614" transform="translate(10.388 10.387)" stroke="#002d4f" stroke-width="1" fill="url(#linear-gradient)">
        <ellipse cx="53.612" cy="53.356" rx="53.612" ry="53.356" stroke="none"/>
        <ellipse cx="53.612" cy="53.356" rx="53.112" ry="52.856" fill="none"/>
      </g>
    </g>
    <g id="Grupo_1192303" data-name="Grupo 1192303" transform="translate(1175.727 7797.716)">
      <g id="Grupo_1192302" data-name="Grupo 1192302" transform="translate(0 0.001)" clip-path="url(#clip-path-2)">
        <path id="Trazado_1001658" data-name="Trazado 1001658" d="M40.886,3.581c-1.144,0-2.3.1-3.593,0V0h3.593Z" transform="translate(-30.19 -0.001)" fill="#fff"/>
        <path id="Trazado_1001659" data-name="Trazado 1001659" d="M115.887,3.58l-3.593,0V0h3.593Z" transform="translate(-90.906 -0.001)" fill="#fff"/>
        <path id="Trazado_1001660" data-name="Trazado 1001660" d="M190.887,3.58l-3.593,0V0h3.593Z" transform="translate(-151.622 -0.001)" fill="#fff"/>
        <path id="Trazado_1001661" data-name="Trazado 1001661" d="M7.1,18.8v7.117H10.7V18.8l10.691,0v7.117H24.98V18.8l10.691,0v7.117h3.593V18.8l7.127.045.071,13.326a33.123,33.123,0,0,0,9.183,22.252l3.748,3.863-47.621.026A37.51,37.51,0,0,1,.024,31.613L0,18.829ZM16.03,31.4H8.922v3.61H16.03Zm10.724,0H19.646v3.61h7.108Zm10.736,0H30.314v3.61H37.49ZM17.833,38.554H10.7v3.551h7.137Zm10.741.046H21.387v3.5h7.186Zm3.553,3.5h7.138V38.554H32.126Zm-12.48,3.584H12.47V49.3h7.176Zm10.668,0H23.206V49.3h7.108Zm10.724,0H33.93V49.3h7.108Z" transform="translate(0 -15.216)" fill="#fff"/>
        <path id="Trazado_1001662" data-name="Trazado 1001662" d="M51.206,184.706a50.69,50.69,0,0,0,4.832,5.317l-47.714.033A25.953,25.953,0,0,1,.215,170.518a43.8,43.8,0,0,0,10.278,14.2Z" transform="translate(-0.161 -138.042)" fill="#fff"/>
        <path id="Trazado_1001663" data-name="Trazado 1001663" d="M46.377,257.035l.028,5.339L0,262.382l.068-13.574a32.564,32.564,0,0,0,6.768,8.234Z" transform="translate(-0.001 -201.421)" fill="#fff"/>
      </g>
    </g>
  </g>
</svg>
