<svg xmlns="http://www.w3.org/2000/svg" xmlns:xlink="http://www.w3.org/1999/xlink" width="128" height="128" viewBox="0 0 128 128">
  <defs>
    <clipPath id="clip-path">
      <rect id="Rectángulo_454800" data-name="Rectángulo 454800" width="127.998" height="127.488" fill="none"/>
    </clipPath>
    <linearGradient id="linear-gradient" x1="0.5" y1="-0.646" x2="0.5" y2="1.118" gradientUnits="objectBoundingBox">
      <stop offset="0" stop-color="#67ccf1"/>
      <stop offset="0.625" stop-color="#004b84"/>
      <stop offset="1" stop-color="#002d4f"/>
    </linearGradient>
    <clipPath id="clip-path-2">
      <rect id="Rectángulo_456505" data-name="Rectángulo 456505" width="64.121" height="64.676" fill="#fff"/>
    </clipPath>
  </defs>
  <g id="Grupo_1192052" data-name="Grupo 1192052" transform="translate(-1136.727 -7764.48)">
    <path id="Trazado_997475" data-name="Trazado 997475" d="M63.973,0A63.718,63.718,0,1,1,0,63.717,63.845,63.845,0,0,1,63.973,0Z" transform="translate(1136.781 7764.48)" fill="#fff"/>
    <g id="Grupo_1177602" data-name="Grupo 1177602" transform="translate(1136.727 7764.993)">
      <g id="Grupo_1177525" data-name="Grupo 1177525">
        <g id="Grupo_1177524" data-name="Grupo 1177524" clip-path="url(#clip-path)">
          <path id="Trazado_997408" data-name="Trazado 997408" d="M64,127.488a63.744,63.744,0,1,1,64-63.744,63.944,63.944,0,0,1-64,63.744M64,1.663a62.081,62.081,0,1,0,62.33,62.081A62.275,62.275,0,0,0,64,1.663" fill="#002d4f"/>
          <path id="Trazado_997409" data-name="Trazado 997409" d="M60.365,114.865A54.719,54.719,0,1,1,115.3,60.146a54.891,54.891,0,0,1-54.937,54.719m0-107.774a53.056,53.056,0,1,0,53.267,53.055A53.222,53.222,0,0,0,60.365,7.091" transform="translate(3.634 3.598)" fill="#002d4f"/>
          <path id="Trazado_997410" data-name="Trazado 997410" d="M56.731,102.241a45.693,45.693,0,1,1,45.876-45.693,45.837,45.837,0,0,1-45.876,45.693m0-89.723a44.031,44.031,0,1,0,44.207,44.03,44.17,44.17,0,0,0-44.207-44.03" transform="translate(7.268 7.196)" fill="#fff"/>
          <path id="Trazado_997411" data-name="Trazado 997411" d="M53.1,89.617A36.667,36.667,0,1,1,89.911,52.95,36.783,36.783,0,0,1,53.1,89.617m0-71.671a35,35,0,1,0,35.144,35,35.115,35.115,0,0,0-35.144-35" transform="translate(10.902 10.794)" fill="#fff"/>
          <path id="Trazado_997412" data-name="Trazado 997412" d="M49.462,76.992A27.641,27.641,0,1,1,77.214,49.352,27.728,27.728,0,0,1,49.462,76.992m0-53.618A25.978,25.978,0,1,0,75.544,49.352,26.059,26.059,0,0,0,49.462,23.374" transform="translate(14.537 14.392)" fill="#fff"/>
          <path id="Trazado_997413" data-name="Trazado 997413" d="M45.828,64.37A18.615,18.615,0,1,1,64.517,45.753,18.673,18.673,0,0,1,45.828,64.37m0-35.568a16.953,16.953,0,1,0,17.02,16.952A17,17,0,0,0,45.828,28.8" transform="translate(18.171 17.99)" fill="#fff"/>
          <path id="Trazado_997414" data-name="Trazado 997414" d="M42.194,51.744a9.589,9.589,0,1,1,9.628-9.588,9.62,9.62,0,0,1-9.628,9.588m0-17.515a7.926,7.926,0,1,0,7.959,7.927,7.953,7.953,0,0,0-7.959-7.927" transform="translate(21.805 21.588)" fill="#fff"/>
        </g>
      </g>
      <g id="Elipse_13614" data-name="Elipse 13614" transform="translate(10.388 10.387)" stroke="#002d4f" stroke-width="1" fill="url(#linear-gradient)">
        <ellipse cx="53.612" cy="53.356" rx="53.612" ry="53.356" stroke="none"/>
        <ellipse cx="53.612" cy="53.356" rx="53.112" ry="52.856" fill="none"/>
      </g>
    </g>
    <g id="Grupo_1192283" data-name="Grupo 1192283" transform="translate(1168.693 7795.859)">
      <g id="Grupo_1192282" data-name="Grupo 1192282" clip-path="url(#clip-path-2)">
        <path id="Trazado_1001592" data-name="Trazado 1001592" d="M19.826,52.846a.9.9,0,0,0-.092,1.8l13.838.057a27.362,27.362,0,0,0,2.049,2.864l-15.966.074c-.612,0-.754.557-.726.986a.876.876,0,0,0,.958.787l18.076.018a14.017,14.017,0,0,0,6.483,2.251l0,4.163a.891.891,0,0,1-.911.889l-42.48,0c-.8,0-1.06-.436-1.06-1.166l.007-47.09c2.245-.411,7.081,1.088,7.137-2.794.027-1.916-.076-3.757.058-5.711l35.935.014L34.979,24.178a4.489,4.489,0,0,0,3.835,6.748l5.63.061-.015,3.59a13.778,13.778,0,0,0-9.553,5.039l-15.4.036c-.476,0-.6.714-.554.991a.917.917,0,0,0,.961.775l13.679.006c-.382,1.021-.833,1.819-1.141,2.895l-12.54.012a.918.918,0,1,0-.021,1.834L32,46.212a14.23,14.23,0,0,0,.684,6.595Zm9.973-19.7a1.77,1.77,0,0,0,1.5-1.6V16.539a1.622,1.622,0,0,0-1.665-1.511l-14.852,0a1.607,1.607,0,0,0-1.63,1.591l-.009,14.63a1.744,1.744,0,0,0,1.731,1.881ZM15.65,47.1l.05-6.065c0-.607,1.6-1.263,1.527-2.146-.127-1.506-1.193-.18-2.265-1.287l-8.835,0a.975.975,0,0,0-1.051.995l.006,8.579a.946.946,0,0,0,1.024.975l8.65-.017A.916.916,0,0,0,15.65,47.1m0,13.3.03-6.243c.6-.853,2.015-1.458,1.439-2.487-.108-.193-.527-.486-.735-.361-.65.39-.89-.335-1.3-.371-2.976-.261-5.927-.006-8.949-.119a1.009,1.009,0,0,0-1.058,1.048l.012,8.611a.942.942,0,0,0,1.03.92l8.656-.008a.9.9,0,0,0,.874-.989" transform="translate(0 -7.761)" fill="#fff"/>
        <path id="Trazado_1001593" data-name="Trazado 1001593" d="M25.878,250.485c-1.544,0-1.061-1.807-1.029-3.035l38.217-.027a2.567,2.567,0,0,0,2.461-2.639l.027-4.143a19.775,19.775,0,0,0,3.645-.768l.061,9.544a1.036,1.036,0,0,1-1.156,1.064Z" transform="translate(-19.265 -186.692)" fill="#fff"/>
        <path id="Trazado_1001594" data-name="Trazado 1001594" d="M175.494,140.785a11.753,11.753,0,1,1-11.753-11.753,11.753,11.753,0,0,1,11.753,11.753m-1.986,0a9.768,9.768,0,1,0-9.768,9.768,9.768,9.768,0,0,0,9.768-9.768" transform="translate(-118.291 -100.425)" fill="#fff"/>
        <path id="Trazado_1001595" data-name="Trazado 1001595" d="M254.677,251.6c-1.167,1-2.653,2.449-3.7,1.072l-5.258-6.923a1.34,1.34,0,0,1,.163-1.811l1.763-1.357a1.332,1.332,0,0,1,1.912.216l5.34,7.036a1.3,1.3,0,0,1-.222,1.768" transform="translate(-191.028 -188.558)" fill="#fff"/>
        <path id="Trazado_1001596" data-name="Trazado 1001596" d="M31.635,205.843l2.785,2.235a.929.929,0,0,0,1.2.009l2.333-2.163A18.827,18.827,0,0,1,38,209.4l-6.882-.01.013-6.887,6.793.043c.2.089.093.728-.083.9l-2.826,2.687-2.3-1.668a.934.934,0,0,0-1.117.16.837.837,0,0,0,.04,1.22" transform="translate(-24.217 -157.609)" fill="#fff"/>
        <path id="Trazado_1001597" data-name="Trazado 1001597" d="M184.378,21.328l-18.493.016a2.662,2.662,0,0,1-2.263-1.108,2.6,2.6,0,0,1-.273-2.659l9.364-16.252a2.662,2.662,0,0,1,4.631.049l9.171,15.888a2.659,2.659,0,0,1-2.137,4.067m-8.48-7.5-.012-6.519a.859.859,0,0,0-1.007-.878.934.934,0,0,0-.774.9l0,6.585a.892.892,0,0,0,.951.907.91.91,0,0,0,.837-.993m0,2.963a.889.889,0,1,0-.889.889.889.889,0,0,0,.889-.889" transform="translate(-126.933 0)" fill="#fff"/>
        <path id="Trazado_1001598" data-name="Trazado 1001598" d="M212.39,108.844a19.505,19.505,0,0,0-3.63-.717l-.016-3.542a27.481,27.481,0,0,1,3.62-.057,21.863,21.863,0,0,1,.026,4.316" transform="translate(-162.464 -81.33)" fill="#fff"/>
        <path id="Trazado_1001599" data-name="Trazado 1001599" d="M9.133,21.023c.01,1.408-3.093.758-4.2.8l4.121-5.063a34.806,34.806,0,0,1,.084,4.26" transform="translate(-3.835 -13.047)" fill="#fff"/>
        <path id="Trazado_1001600" data-name="Trazado 1001600" d="M31.717,146.391l2.47,1.964c1.419,1.128,2.336-1.193,3.722-2.027a22.7,22.7,0,0,1,.037,3.457l-6.9-.007-.011-6.833,6.805.026c.245,0,.113.68-.046.833l-2.849,2.74c-1.048-.436-2.438-2.511-3.387-1.526a.876.876,0,0,0,.151,1.374" transform="translate(-24.16 -111.253)" fill="#fff"/>
        <path id="Trazado_1001601" data-name="Trazado 1001601" d="M185.034,154.136a7.952,7.952,0,1,1-7.952-7.952,7.952,7.952,0,0,1,7.952,7.952" transform="translate(-131.633 -113.774)" fill="#fff"/>
        <rect id="Rectángulo_456503" data-name="Rectángulo 456503" width="2.065" height="2.308" transform="translate(52.451 51.998) rotate(-36.5)" fill="#fff"/>
        <path id="Trazado_1001602" data-name="Trazado 1001602" d="M77.512,45.429l.057-4.525,4.4-.013,0,14.482-14.521-.008,0-14.466,4.379-.012.058,4.435a.9.9,0,0,0,.913.9l3.773.011a.87.87,0,0,0,.939-.8m-5.091,7.8c.458-.161.472-.765.363-1.06-.3-.8-3.554-1.036-3.515.363.035,1.254,2.513.923,3.153.7" transform="translate(-52.494 -31.823)" fill="#fff"/>
        <rect id="Rectángulo_456504" data-name="Rectángulo 456504" width="2.043" height="3.586" transform="translate(21.201 9.034)" fill="#fff"/>
      </g>
    </g>
  </g>
</svg>
