<svg xmlns="http://www.w3.org/2000/svg" xmlns:xlink="http://www.w3.org/1999/xlink" width="128" height="128" viewBox="0 0 128 128">
  <defs>
    <clipPath id="clip-path">
      <rect id="Rectángulo_454800" data-name="Rectángulo 454800" width="127.998" height="127.488" fill="none"/>
    </clipPath>
    <linearGradient id="linear-gradient" x1="0.5" y1="-0.646" x2="0.5" y2="1.118" gradientUnits="objectBoundingBox">
      <stop offset="0" stop-color="#67ccf1"/>
      <stop offset="0.625" stop-color="#004b84"/>
      <stop offset="1" stop-color="#002d4f"/>
    </linearGradient>
    <clipPath id="clip-path-2">
      <rect id="Rectángulo_456506" data-name="Rectángulo 456506" width="67.078" height="67.071" fill="#fff"/>
    </clipPath>
  </defs>
  <g id="Grupo_1192059" data-name="Grupo 1192059" transform="translate(-1136.727 -7764.48)">
    <path id="Trazado_997475" data-name="Trazado 997475" d="M63.973,0A63.718,63.718,0,1,1,0,63.717,63.845,63.845,0,0,1,63.973,0Z" transform="translate(1136.781 7764.48)" fill="#fff"/>
    <g id="Grupo_1177602" data-name="Grupo 1177602" transform="translate(1136.727 7764.993)">
      <g id="Grupo_1177525" data-name="Grupo 1177525">
        <g id="Grupo_1177524" data-name="Grupo 1177524" clip-path="url(#clip-path)">
          <path id="Trazado_997408" data-name="Trazado 997408" d="M64,127.488a63.744,63.744,0,1,1,64-63.744,63.944,63.944,0,0,1-64,63.744M64,1.663a62.081,62.081,0,1,0,62.33,62.081A62.275,62.275,0,0,0,64,1.663" fill="#002d4f"/>
          <path id="Trazado_997409" data-name="Trazado 997409" d="M60.365,114.865A54.719,54.719,0,1,1,115.3,60.146a54.891,54.891,0,0,1-54.937,54.719m0-107.774a53.056,53.056,0,1,0,53.267,53.055A53.222,53.222,0,0,0,60.365,7.091" transform="translate(3.634 3.598)" fill="#002d4f"/>
          <path id="Trazado_997410" data-name="Trazado 997410" d="M56.731,102.241a45.693,45.693,0,1,1,45.876-45.693,45.837,45.837,0,0,1-45.876,45.693m0-89.723a44.031,44.031,0,1,0,44.207,44.03,44.17,44.17,0,0,0-44.207-44.03" transform="translate(7.268 7.196)" fill="#fff"/>
          <path id="Trazado_997411" data-name="Trazado 997411" d="M53.1,89.617A36.667,36.667,0,1,1,89.911,52.95,36.783,36.783,0,0,1,53.1,89.617m0-71.671a35,35,0,1,0,35.144,35,35.115,35.115,0,0,0-35.144-35" transform="translate(10.902 10.794)" fill="#fff"/>
          <path id="Trazado_997412" data-name="Trazado 997412" d="M49.462,76.992A27.641,27.641,0,1,1,77.214,49.352,27.728,27.728,0,0,1,49.462,76.992m0-53.618A25.978,25.978,0,1,0,75.544,49.352,26.059,26.059,0,0,0,49.462,23.374" transform="translate(14.537 14.392)" fill="#fff"/>
          <path id="Trazado_997413" data-name="Trazado 997413" d="M45.828,64.37A18.615,18.615,0,1,1,64.517,45.753,18.673,18.673,0,0,1,45.828,64.37m0-35.568a16.953,16.953,0,1,0,17.02,16.952A17,17,0,0,0,45.828,28.8" transform="translate(18.171 17.99)" fill="#fff"/>
          <path id="Trazado_997414" data-name="Trazado 997414" d="M42.194,51.744a9.589,9.589,0,1,1,9.628-9.588,9.62,9.62,0,0,1-9.628,9.588m0-17.515a7.926,7.926,0,1,0,7.959,7.927,7.953,7.953,0,0,0-7.959-7.927" transform="translate(21.805 21.588)" fill="#fff"/>
        </g>
      </g>
      <g id="Elipse_13614" data-name="Elipse 13614" transform="translate(10.388 10.387)" stroke="#002d4f" stroke-width="1" fill="url(#linear-gradient)">
        <ellipse cx="53.612" cy="53.356" rx="53.612" ry="53.356" stroke="none"/>
        <ellipse cx="53.612" cy="53.356" rx="53.112" ry="52.856" fill="none"/>
      </g>
    </g>
    <g id="Grupo_1192285" data-name="Grupo 1192285" transform="translate(1168.215 7793.201)">
      <g id="Grupo_1192284" data-name="Grupo 1192284" clip-path="url(#clip-path-2)">
        <path id="Trazado_1001603" data-name="Trazado 1001603" d="M35.725,81.518l-8.5-.006-2.038-5.188a28.743,28.743,0,0,1-7.86-3.265L12.253,75.3l-6.024-5.99L8.468,64.2A29.285,29.285,0,0,1,5.2,56.344L.011,54.312,0,45.834l5.185-2.023a28.931,28.931,0,0,1,3.279-7.858L6.23,30.841l5.992-6.014,5.1,2.242a28.259,28.259,0,0,1,7.849-3.251l2.033-5.206,8.5-.026L37.671,23.6c.087.223.627.414.541.748a19.007,19.007,0,0,0-.388,5.631A21.058,21.058,0,1,0,51.552,43.721c1.751-.068,3.442.2,5.037-.323.724-.236.865.145,1.37.416,1.563.841,3.282,1.227,4.957,2.015l.031,8.43-5.234,2.105A28.581,28.581,0,0,1,54.459,64.2l2.249,5.052-6.028,6.055-5.094-2.232a29.161,29.161,0,0,1-7.854,3.263Z" transform="translate(0 -14.447)" fill="#fff"/>
        <path id="Trazado_1001604" data-name="Trazado 1001604" d="M206.744,13.528A13.528,13.528,0,1,1,193.216,0a13.528,13.528,0,0,1,13.528,13.528m-21.027,1.16,4.278,4.273a2.02,2.02,0,0,0,2.922-.037l8.046-8.167a1.971,1.971,0,0,0-.255-2.807,2,2,0,0,0-2.762.21l-6.478,6.522c-1.675-1.184-3.808-5.129-5.9-2.963a2.05,2.05,0,0,0,.146,2.969" transform="translate(-139.666)" fill="#fff"/>
        <path id="Trazado_1001605" data-name="Trazado 1001605" d="M133.473,107.391a2.213,2.213,0,0,1-2.267,2.046,2.258,2.258,0,0,1-2.236-2.226l-.6-15.487a2.7,2.7,0,0,1,.688-2.148,3.849,3.849,0,0,1,4.308-.054,2.549,2.549,0,0,1,.723,2.066Z" transform="translate(-99.771 -69.092)" fill="#fff"/>
        <path id="Trazado_1001606" data-name="Trazado 1001606" d="M134.009,207.481a2.916,2.916,0,1,1-2.916-2.916,2.916,2.916,0,0,1,2.916,2.916" transform="translate(-99.627 -159.002)" fill="#fff"/>
      </g>
    </g>
  </g>
</svg>
