<svg xmlns="http://www.w3.org/2000/svg" xmlns:xlink="http://www.w3.org/1999/xlink" width="84" height="84" viewBox="0 0 84 84">
  <defs>
    <clipPath id="clip-path">
      <rect id="Rectángulo_456540" data-name="Rectángulo 456540" width="55.083" height="55.259" fill="#fff"/>
    </clipPath>
  </defs>
  <g id="Grupo_1192335" data-name="Grupo 1192335" transform="translate(-179.668 -5521)">
    <rect id="Rectángulo_402006" data-name="Rectángulo 402006" width="84" height="84" rx="5" transform="translate(179.668 5521)" fill="#004b84"/>
    <g id="Grupo_1192337" data-name="Grupo 1192337" transform="translate(194.127 5535.371)">
      <g id="Grupo_1192336" data-name="Grupo 1192336" clip-path="url(#clip-path)">
        <path id="Trazado_1001754" data-name="Trazado 1001754" d="M30.5,24.5a14.477,14.477,0,1,0,9.756,9.647l4.337-.071a6.24,6.24,0,0,0,4.271-1.758L51.4,29.841a26.4,26.4,0,1,1-16.73-16.549c-1.885,2.263-4.1,3.426-4.131,6.957Z" transform="translate(0 -9.557)" fill="#fff"/>
        <path id="Trazado_1001755" data-name="Trazado 1001755" d="M114.8,19.978l-5.57,5.687a7.1,7.1,0,1,1-3.286-3.251l5.627-5.706.027-6.021a2.137,2.137,0,0,1,.623-1.457L120.877.6A2.26,2.26,0,0,1,123.383.21a2.335,2.335,0,0,1,1.332,2.031l.317,4.232,4,.317a2.484,2.484,0,0,1,2.258,1.285,2.32,2.32,0,0,1-.453,2.682L122.284,19.3a2.478,2.478,0,0,1-1.76.644Z" transform="translate(-76.448 0)" fill="#fff"/>
      </g>
    </g>
  </g>
</svg>
