<svg xmlns="http://www.w3.org/2000/svg" xmlns:xlink="http://www.w3.org/1999/xlink" width="84" height="84" viewBox="0 0 84 84">
  <defs>
    <clipPath id="clip-path">
      <rect id="Rectángulo_456418" data-name="Rectángulo 456418" width="52.479" height="56.623" fill="#fff"/>
    </clipPath>
  </defs>
  <g id="Grupo_1177692" data-name="Grupo 1177692" transform="translate(-710 -1680.92)">
    <g id="Grupo_1119665" data-name="Grupo 1119665" transform="translate(710 1680.92)">
      <rect id="Rectángulo_402006" data-name="Rectángulo 402006" width="84" height="84" rx="5" fill="#004b84"/>
    </g>
    <g id="Grupo_1192195" data-name="Grupo 1192195" transform="translate(725.76 1694.608)">
      <g id="Grupo_1192194" data-name="Grupo 1192194" clip-path="url(#clip-path)">
        <path id="Trazado_1001333" data-name="Trazado 1001333" d="M63.6,31.7c1.226.825,1.368-.131,2.071.922l4.675,0,.035-4.921-3.087-.1-.343-2.981L59.9,12.316,59.887,1.343A1.3,1.3,0,0,1,61.233,0l39,0A1.3,1.3,0,0,1,101.6,1.378l-.052,49.891a3.827,3.827,0,0,1-4.584,3.652c-3.583-.629-2.862-4.468-2.81-7.2L59.884,47.7l.008-18.5ZM92.6,4.91H68.883v5.784H92.6ZM96,18.045a.889.889,0,0,0,.936-.965.86.86,0,0,0-.93-.828l-21.353.007a.884.884,0,0,0-.9.98.967.967,0,0,0,1.07.812Zm-25.6-1.305H65.45v4.929h4.944Zm25.672,5.438a.892.892,0,0,0,.869-.958.817.817,0,0,0-.752-.824l-21.535,0a.867.867,0,0,0-.9.988.932.932,0,0,0,.892.8Zm.109,6.8c.651,0,.813-.767.747-1.081a.849.849,0,0,0-.912-.7H74.816c-.633,0-1.048.281-1.072.865a.936.936,0,0,0,.922.93Zm-.145,4.152a.925.925,0,0,0,.894-1.1c-.107-.54-.5-.691-1.1-.69l-21.365.027c-.554,0-.762.606-.7.982a.975.975,0,0,0,.918.786ZM96,39.905a.869.869,0,0,0,.936-.886.886.886,0,0,0-.872-.9L74.561,38.11a.932.932,0,0,0-.815.929.857.857,0,0,0,.878.86ZM70.394,38.625H65.45v4.933h4.944ZM96,44.047a.886.886,0,0,0,.934-.89.865.865,0,0,0-.813-.9l-21.414,0a.9.9,0,1,0-.079,1.787Z" transform="translate(-49.115)" fill="#fff"/>
        <path id="Trazado_1001334" data-name="Trazado 1001334" d="M52.648,282.449l-40.829-.119c-3.564-.01-5.136-3.89-4.613-6.992l41.756,0a10.725,10.725,0,0,0,.553,4.16c.432,1.55,1.678,2.243,3.133,2.947" transform="translate(-5.829 -225.826)" fill="#fff"/>
        <rect id="Rectángulo_456417" data-name="Rectángulo 456417" width="4.999" height="19.074" transform="matrix(0.866, -0.5, 0.5, 0.866, 1.85, 10.422)" fill="#fff"/>
        <path id="Trazado_1001335" data-name="Trazado 1001335" d="M1.038,28.838c-.615-.769-1.7-2.21-.484-2.924.811-.474,1.568-.955,2.407-1.375,1.206-.6,1.808.917,2.257,1.878Z" transform="translate(0 -20.014)" fill="#fff"/>
        <path id="Trazado_1001336" data-name="Trazado 1001336" d="M74.156,145.958c.088,1.086.684,3.666.009,3.983-.714.335-2.672-1.461-3.449-2.012Z" transform="translate(-58 -119.711)" fill="#fff"/>
      </g>
    </g>
  </g>
</svg>
