<svg xmlns="http://www.w3.org/2000/svg" xmlns:xlink="http://www.w3.org/1999/xlink" width="84" height="84" viewBox="0 0 84 84">
  <defs>
    <clipPath id="clip-path">
      <rect id="Rectángulo_456488" data-name="Rectángulo 456488" width="46.02" height="61.401" fill="#fff"/>
    </clipPath>
  </defs>
  <g id="Grupo_1192013" data-name="Grupo 1192013" transform="translate(-179.668 -5521)">
    <rect id="Rectángulo_402006" data-name="Rectángulo 402006" width="84" height="84" rx="5" transform="translate(179.668 5521)" fill="#004b84"/>
    <g id="Grupo_1192254" data-name="Grupo 1192254" transform="translate(198.658 5532.299)">
      <g id="Grupo_1192253" data-name="Grupo 1192253" clip-path="url(#clip-path)">
        <path id="Trazado_1001521" data-name="Trazado 1001521" d="M32.948,63.723c-1.021-.961-2.2-.483-3.256-.011a2.125,2.125,0,0,1-1.979-.779c-.451-1.018-.781-2.249-2.121-2.311-1.689-.078-3.478-.069-5.162,0-1.361.054-1.675,1.3-2.132,2.311a2.1,2.1,0,0,1-1.964.79c-1.063-.495-2.228-.936-3.189-.053-1.2,1.1-2.378,2.3-3.482,3.5-.891.962-.429,2.089.052,3.165a2.14,2.14,0,0,1-.749,1.963c-.918.477-2.008.606-2.279,1.77A16.374,16.374,0,0,0,6.57,77c-1.129.021-2.17.052-3.3.006A3.287,3.287,0,0,1,0,73.688V23.335a3.239,3.239,0,0,1,3.267-3.3l7.682-.018.012,4.4a4.341,4.341,0,0,0,4.382,4.36H30.676a4.339,4.339,0,0,0,4.382-4.362l.012-4.4,7.683.017a3.243,3.243,0,0,1,3.266,3.3V73.687a3.249,3.249,0,0,1-3.049,3.3c-1.195.1-2.267.02-3.49.024a14.022,14.022,0,0,1-.022-1.959c.092-1.527-.912-2.318-2.277-2.686a2.024,2.024,0,0,1-.882-2.038c.482-1.06.952-2.2.063-3.156-1.064-1.148-2.211-2.311-3.414-3.444M11.206,39.364a1.189,1.189,0,0,0,1.736-.034l4.249-4.271a1.094,1.094,0,0,0-1.549-1.546l-3.559,3.5c-.82-.457-1.964-2.548-3.047-1.277A1.121,1.121,0,0,0,9.1,37.248Zm24.836-1.811a1.088,1.088,0,0,0,1.165-1.191,1.051,1.051,0,0,0-1.055-.986l-13.133,0a1.06,1.06,0,0,0-1.071,1.179,1.14,1.14,0,0,0,1.287,1.01ZM11.21,48.135a1.151,1.151,0,0,0,1.612.062l4.369-4.37a1.13,1.13,0,0,0-.059-1.6,1.117,1.117,0,0,0-1.491.049l-3.559,3.5c-.82-.458-1.963-2.547-3.047-1.277A1.122,1.122,0,0,0,9.1,46.015ZM36.042,46.32a1.088,1.088,0,0,0,1.165-1.191,1.051,1.051,0,0,0-1.055-.986l-13.133,0a1.06,1.06,0,0,0-1.071,1.179,1.14,1.14,0,0,0,1.287,1.01ZM11.21,56.9a1.147,1.147,0,0,0,1.612.063l4.37-4.37a1.13,1.13,0,0,0-.059-1.6,1.117,1.117,0,0,0-1.491.05l-3.559,3.5c-.914-.506-1.765-2.388-2.942-1.374-1.209,1.041.851,2.452,2.069,3.725m24.832-1.814A1.088,1.088,0,0,0,37.206,53.9a1.051,1.051,0,0,0-1.055-.986l-13.133,0a1.06,1.06,0,0,0-1.071,1.179,1.14,1.14,0,0,0,1.287,1.01Z" transform="translate(0 -15.63)" fill="#fff"/>
        <path id="Trazado_1001522" data-name="Trazado 1001522" d="M77.646,10.946l-15.22.043a2.245,2.245,0,0,1-2.4-2.213V2.2a2.211,2.211,0,0,1,2.4-2.2L77.554.019a2.148,2.148,0,0,1,2.18,2.168v6.6a2.117,2.117,0,0,1-2.087,2.16" transform="translate(-46.872 0)" fill="#fff"/>
        <path id="Trazado_1001523" data-name="Trazado 1001523" d="M62.98,229.368a8.745,8.745,0,0,0-17.489-.02l-5.472,0a12.644,12.644,0,0,1,.038-2.366,2.974,2.974,0,0,0,2.649-2.156c.543-1.3.871-2.646-.133-3.925l3.277-3.271c1.178,1.066,2.343.789,3.569.326a3.2,3.2,0,0,0,2.46-2.837l4.7.027c.085,1.55,1.068,2.228,2.3,2.742a3.681,3.681,0,0,0,3.845-.185l3.214,3.271c-1.048,1.164-.806,2.343-.331,3.57.506,1.305,1.209,2.313,2.827,2.447a19.617,19.617,0,0,1,.022,2.352Z" transform="translate(-31.214 -167.968)" fill="#fff"/>
        <path id="Trazado_1001524" data-name="Trazado 1001524" d="M88.344,256.586l-13.091.05a6.456,6.456,0,0,1,6.2-6.578,6.569,6.569,0,0,1,6.889,6.528" transform="translate(-58.755 -195.246)" fill="#fff"/>
      </g>
    </g>
  </g>
</svg>
