<svg xmlns="http://www.w3.org/2000/svg" xmlns:xlink="http://www.w3.org/1999/xlink" width="80" height="80" viewBox="0 0 80 80">
  <defs>
    <clipPath id="clip-path">
      <rect id="Rectángulo_456511" data-name="Rectángulo 456511" width="57.372" height="57.177" fill="#fff"/>
    </clipPath>
  </defs>
  <g id="Grupo_1192072" data-name="Grupo 1192072" transform="translate(-710 -1680.92)">
    <g id="Grupo_1119665" data-name="Grupo 1119665" transform="translate(534.111 -3840.08)">
      <rect id="Rectángulo_402006" data-name="Rectángulo 402006" width="80" height="80" rx="5" transform="translate(175.889 5521)" fill="#004b84"/>
    </g>
    <g id="Grupo_1192291" data-name="Grupo 1192291" transform="translate(721.314 1692.332)">
      <g id="Grupo_1192290" data-name="Grupo 1192290" clip-path="url(#clip-path)">
        <path id="Trazado_1001621" data-name="Trazado 1001621" d="M159.229,244.159l-7.738.093a1.563,1.563,0,0,1-1.564-1.563l-.006-7.554a1.56,1.56,0,0,1,1.561-1.617l7.745-.039a1.472,1.472,0,0,1,1.426,1.459v7.756a1.483,1.483,0,0,1-1.422,1.464" transform="translate(-120.124 -187.075)" fill="#fff"/>
        <path id="Trazado_1001622" data-name="Trazado 1001622" d="M159.1,10.739l-7.572.04A1.509,1.509,0,0,1,149.992,9.3V1.562A1.548,1.548,0,0,1,151.618.069L159.093,0a1.539,1.539,0,0,1,1.613,1.558l0,7.555a1.555,1.555,0,0,1-1.611,1.625" transform="translate(-120.181 0)" fill="#fff"/>
        <path id="Trazado_1001623" data-name="Trazado 1001623" d="M79.179,28.016l-.057,2.836a17.169,17.169,0,0,0-1.931.1,22.781,22.781,0,0,1,.041-3.384,6.311,6.311,0,0,1,6.383-5.5l6.924.055a5.486,5.486,0,0,1,.013,1.944H83.431a4.157,4.157,0,0,0-4.252,3.958" transform="translate(-61.814 -17.675)" fill="#fff"/>
        <path id="Trazado_1001624" data-name="Trazado 1001624" d="M90.5,228.345a4.608,4.608,0,0,1,.044,1.966l-6.732.057a6.424,6.424,0,0,1-6.567-5.392,17.134,17.134,0,0,1-.048-3.407,12.483,12.483,0,0,1,1.89,0,24.272,24.272,0,0,1,.057,2.494,4.313,4.313,0,0,0,4.272,4.289Z" transform="translate(-61.804 -177.501)" fill="#fff"/>
        <path id="Trazado_1001625" data-name="Trazado 1001625" d="M139.753,95.93a12.273,12.273,0,1,1-12.273-12.273A12.273,12.273,0,0,1,139.753,95.93m-13.972,3.875a.969.969,0,0,0,.977.962c1.447.013.48-1.737,1.947-2.881l1.812-1.413a4.768,4.768,0,0,0,1.136-6.289,5.228,5.228,0,0,0-7.539-.914,3.909,3.909,0,0,0-1.489,2.956,1.006,1.006,0,0,0,1.085,1.127c.535-.046.841-.525.911-1.143a2.732,2.732,0,0,1,3.208-2.123,2.833,2.833,0,0,1,2.3,1.382,2.777,2.777,0,0,1-.217,2.63c-1.139,1.9-4.347,2.485-4.134,5.706m2.2,2.75a1.229,1.229,0,1,0-1.229,1.229,1.229,1.229,0,0,0,1.229-1.229" transform="translate(-92.309 -67.03)" fill="#fff"/>
        <path id="Trazado_1001626" data-name="Trazado 1001626" d="M30.38,100.195l-28.334-.017a2.192,2.192,0,0,1-1.76-1.152,2.065,2.065,0,0,1,.067-2.2l14.08-24.388a2.174,2.174,0,0,1,3.8-.026l4.186,7.236a14.3,14.3,0,0,0,9,20.163,1.153,1.153,0,0,1-1.032.383m-12.262-8.75c.6-3.171,1.259-6.14,1.544-9.274a3.4,3.4,0,0,0-3.5-3.818,3.443,3.443,0,0,0-3.136,4.019,87.9,87.9,0,0,0,1.653,9.494,1.693,1.693,0,0,0,1.855,1.219,1.833,1.833,0,0,0,1.583-1.639m.519,4.154a2.3,2.3,0,1,0-2.3,2.3,2.3,2.3,0,0,0,2.3-2.3" transform="translate(-0.001 -57.139)" fill="#fff"/>
        <rect id="Rectángulo_456509" data-name="Rectángulo 456509" width="6.06" height="11.418" transform="translate(45.01 43.023) rotate(-45.045)" fill="#fff"/>
        <rect id="Rectángulo_456510" data-name="Rectángulo 456510" width="3.416" height="2.754" transform="translate(43.296 39.439) rotate(-45)" fill="#fff"/>
        <path id="Trazado_1001627" data-name="Trazado 1001627" d="M73.5,123.893a.773.773,0,0,1-1.473.04,90.772,90.772,0,0,1-1.6-9.4,2.43,2.43,0,0,1,2.157-2.821,2.367,2.367,0,0,1,2.5,2.616,83.631,83.631,0,0,1-1.587,9.568" transform="translate(-56.42 -89.5)" fill="#fff"/>
        <path id="Trazado_1001628" data-name="Trazado 1001628" d="M78.266,188.271a1.3,1.3,0,1,1-1.3-1.3,1.3,1.3,0,0,1,1.3,1.3" transform="translate(-60.627 -149.811)" fill="#fff"/>
      </g>
    </g>
  </g>
</svg>
