<svg xmlns="http://www.w3.org/2000/svg" xmlns:xlink="http://www.w3.org/1999/xlink" width="128" height="128" viewBox="0 0 128 128">
  <defs>
    <clipPath id="clip-path">
      <rect id="Rectángulo_454800" data-name="Rectángulo 454800" width="127.998" height="127.488" fill="none"/>
    </clipPath>
    <linearGradient id="linear-gradient" x1="0.5" y1="-0.646" x2="0.5" y2="1.118" gradientUnits="objectBoundingBox">
      <stop offset="0" stop-color="#67ccf1"/>
      <stop offset="0.625" stop-color="#004b84"/>
      <stop offset="1" stop-color="#002d4f"/>
    </linearGradient>
    <clipPath id="clip-path-2">
      <rect id="Rectángulo_456525" data-name="Rectángulo 456525" width="61.124" height="61.12" fill="#fff"/>
    </clipPath>
  </defs>
  <g id="Grupo_1192083" data-name="Grupo 1192083" transform="translate(-1136.727 -7764.48)">
    <path id="Trazado_997475" data-name="Trazado 997475" d="M63.973,0A63.718,63.718,0,1,1,0,63.717,63.845,63.845,0,0,1,63.973,0Z" transform="translate(1136.781 7764.48)" fill="#fff"/>
    <g id="Grupo_1177602" data-name="Grupo 1177602" transform="translate(1136.727 7764.993)">
      <g id="Grupo_1177525" data-name="Grupo 1177525">
        <g id="Grupo_1177524" data-name="Grupo 1177524" clip-path="url(#clip-path)">
          <path id="Trazado_997408" data-name="Trazado 997408" d="M64,127.488a63.744,63.744,0,1,1,64-63.744,63.944,63.944,0,0,1-64,63.744M64,1.663a62.081,62.081,0,1,0,62.33,62.081A62.275,62.275,0,0,0,64,1.663" fill="#002d4f"/>
          <path id="Trazado_997409" data-name="Trazado 997409" d="M60.365,114.865A54.719,54.719,0,1,1,115.3,60.146a54.891,54.891,0,0,1-54.937,54.719m0-107.774a53.056,53.056,0,1,0,53.267,53.055A53.222,53.222,0,0,0,60.365,7.091" transform="translate(3.634 3.598)" fill="#002d4f"/>
          <path id="Trazado_997410" data-name="Trazado 997410" d="M56.731,102.241a45.693,45.693,0,1,1,45.876-45.693,45.837,45.837,0,0,1-45.876,45.693m0-89.723a44.031,44.031,0,1,0,44.207,44.03,44.17,44.17,0,0,0-44.207-44.03" transform="translate(7.268 7.196)" fill="#fff"/>
          <path id="Trazado_997411" data-name="Trazado 997411" d="M53.1,89.617A36.667,36.667,0,1,1,89.911,52.95,36.783,36.783,0,0,1,53.1,89.617m0-71.671a35,35,0,1,0,35.144,35,35.115,35.115,0,0,0-35.144-35" transform="translate(10.902 10.794)" fill="#fff"/>
          <path id="Trazado_997412" data-name="Trazado 997412" d="M49.462,76.992A27.641,27.641,0,1,1,77.214,49.352,27.728,27.728,0,0,1,49.462,76.992m0-53.618A25.978,25.978,0,1,0,75.544,49.352,26.059,26.059,0,0,0,49.462,23.374" transform="translate(14.537 14.392)" fill="#fff"/>
          <path id="Trazado_997413" data-name="Trazado 997413" d="M45.828,64.37A18.615,18.615,0,1,1,64.517,45.753,18.673,18.673,0,0,1,45.828,64.37m0-35.568a16.953,16.953,0,1,0,17.02,16.952A17,17,0,0,0,45.828,28.8" transform="translate(18.171 17.99)" fill="#fff"/>
          <path id="Trazado_997414" data-name="Trazado 997414" d="M42.194,51.744a9.589,9.589,0,1,1,9.628-9.588,9.62,9.62,0,0,1-9.628,9.588m0-17.515a7.926,7.926,0,1,0,7.959,7.927,7.953,7.953,0,0,0-7.959-7.927" transform="translate(21.805 21.588)" fill="#fff"/>
        </g>
      </g>
      <g id="Elipse_13614" data-name="Elipse 13614" transform="translate(10.388 10.387)" stroke="#002d4f" stroke-width="1" fill="url(#linear-gradient)">
        <ellipse cx="53.612" cy="53.356" rx="53.612" ry="53.356" stroke="none"/>
        <ellipse cx="53.612" cy="53.356" rx="53.112" ry="52.856" fill="none"/>
      </g>
    </g>
    <g id="Grupo_1192311" data-name="Grupo 1192311" transform="translate(1169.938 7797.261)">
      <g id="Grupo_1192310" data-name="Grupo 1192310" clip-path="url(#clip-path-2)">
        <path id="Trazado_1001684" data-name="Trazado 1001684" d="M3.668,42.949.407,39.623a1.407,1.407,0,0,1,.06-2.036l8.521-8.293c.7-.682,1.565-.333,2.31.052l4.857-4.658a15.712,15.712,0,1,1,2.7,2.961L14.1,32.3c.367.622.757,1.493.161,2.072L5.445,42.939a1.3,1.3,0,0,1-1.777.01M41.053,15.69A12.031,12.031,0,1,0,29.022,27.721,12.031,12.031,0,0,0,41.053,15.69" transform="translate(0 0)" fill="#fff"/>
        <path id="Trazado_1001685" data-name="Trazado 1001685" d="M109.453,166.669a2.185,2.185,0,0,1-1.873-1.048,2.293,2.293,0,0,1-.142-2.289l11.789-20.395a17.981,17.981,0,0,0,7.959-4.738l14.48,25.071a2.308,2.308,0,0,1-2.142,3.4Zm16.567-11.638.37-10.055a1.674,1.674,0,0,0-.516-1.459,2.155,2.155,0,0,0-1.368-.339,1.514,1.514,0,0,0-1.771,1.4l.357,10.337a1.481,1.481,0,0,0,1.349,1.5,1.427,1.427,0,0,0,1.579-1.385m.422,5.561a1.874,1.874,0,1,0-1.874,1.874,1.874,1.874,0,0,0,1.874-1.874" transform="translate(-85.445 -110.152)" fill="#fff"/>
        <path id="Trazado_1001686" data-name="Trazado 1001686" d="M98.213,127.919,87.532,146.447A4.335,4.335,0,0,0,91.083,153l30.4,0a4.33,4.33,0,0,0,3.726-6.382l-14.828-25.707,1.567-2.406,15.327,26.507a6.914,6.914,0,0,1-5.793,10.562l-30.372,0a6.792,6.792,0,0,1-5.694-3.206,6.664,6.664,0,0,1-.246-6.935l10.065-17.491a12.167,12.167,0,0,1,2.982-.021" transform="translate(-67.198 -94.456)" fill="#fff"/>
      </g>
    </g>
  </g>
</svg>
