<svg xmlns="http://www.w3.org/2000/svg" xmlns:xlink="http://www.w3.org/1999/xlink" width="84" height="84" viewBox="0 0 84 84">
  <defs>
    <clipPath id="clip-path">
      <rect id="Rectángulo_456482" data-name="Rectángulo 456482" width="45.902" height="62.584" fill="#fff"/>
    </clipPath>
  </defs>
  <g id="Grupo_1191979" data-name="Grupo 1191979" transform="translate(-179.668 -5521)">
    <rect id="Rectángulo_402006" data-name="Rectángulo 402006" width="84" height="84" rx="5" transform="translate(179.668 5521)" fill="#004b84"/>
    <g id="Grupo_1192242" data-name="Grupo 1192242" transform="translate(198.717 5531.708)">
      <g id="Grupo_1192241" data-name="Grupo 1192241" clip-path="url(#clip-path)">
        <path id="Trazado_1001496" data-name="Trazado 1001496" d="M45.9,45.906l-41.076.026A7.653,7.653,0,0,0,0,48.027L.009,5.248A5.2,5.2,0,0,1,5.442,0l37.1.015A3.124,3.124,0,0,1,45.9,3.16ZM29.652,19.756,26.3,27.706c-1.2,2.859,1.825,5.62,4.793,5.706,3.02.088,6.412-2.612,5.2-5.577l-3.344-8.157A6.715,6.715,0,0,0,35.129,18.5a1.09,1.09,0,0,0-.024-1.539c-1.243-1.153-2.154,2.1-6.343.172A13.535,13.535,0,0,0,24.018,15.7l-.073-2.324a.979.979,0,0,0-1.265-.814c-1.22.236-.593,2-.811,3.145a12.437,12.437,0,0,0-4.626,1.372c-4.462,2.093-5.323-1.507-6.562-.016a1.1,1.1,0,0,0,.182,1.542,7.669,7.669,0,0,0,2.091,1.078L9.617,27.695C8.4,30.614,11.576,33.4,14.6,33.408c3.044.011,6.211-2.775,4.979-5.707l-3.339-7.945,2.767-1.135c4.5-1.848,6.62-.465,10.644,1.135m-1.407,17.8a1,1,0,0,0,.972-1.139,1.02,1.02,0,0,0-1.059-.929l-4.174-.041L23.968,19.88a10.356,10.356,0,0,0-2.065-.03l0,15.608-4.174.022a1.019,1.019,0,0,0-1.064,1.139,1.006,1.006,0,0,0,1.075.943Z" fill="#fff"/>
        <path id="Trazado_1001497" data-name="Trazado 1001497" d="M62.874,108.313a42.8,42.8,0,0,1-5.065.059l2.542-5.68Z" transform="translate(-45.747 -81.265)" fill="#fff"/>
        <path id="Trazado_1001498" data-name="Trazado 1001498" d="M142.846,108.441a47.308,47.308,0,0,1-5.054.05l2.523-5.662Z" transform="translate(-109.042 -81.374)" fill="#fff"/>
        <path id="Trazado_1001499" data-name="Trazado 1001499" d="M40.385,236.262c.771,0,1.219-.237,1.338-.8.092-.435-.082-1.278-.833-1.278L5.5,234.163c-.778,0-1.214.325-1.256.95a1.055,1.055,0,0,0,1.24,1.139,2.777,2.777,0,0,1,.819.027l.026,4.07a5.292,5.292,0,0,1-6.2-4.291c-.466-2.787,1.545-6,4.741-6.006l41.077-.071-.007,7.315a3.136,3.136,0,0,1-3.131,3.132H20.931l-.015-4.178Z" transform="translate(-0.046 -181.996)" fill="#fff"/>
        <path id="Trazado_1001500" data-name="Trazado 1001500" d="M48.79,268.175,45.2,264.687l-3.531,3.447a1.032,1.032,0,0,1-1.072.134,1.011,1.011,0,0,1-.606-.947l-.011-7.3H50.414L50.4,267.32a1.015,1.015,0,0,1-.475.867c-.275.134-.809.3-1.135-.011" transform="translate(-31.637 -205.771)" fill="#fff"/>
      </g>
    </g>
  </g>
</svg>
