<svg xmlns="http://www.w3.org/2000/svg" xmlns:xlink="http://www.w3.org/1999/xlink" width="128" height="128" viewBox="0 0 128 128">
  <defs>
    <clipPath id="clip-path">
      <rect id="Rectángulo_454800" data-name="Rectángulo 454800" width="127.998" height="127.488" fill="none"/>
    </clipPath>
    <linearGradient id="linear-gradient" x1="0.5" y1="-0.646" x2="0.5" y2="1.118" gradientUnits="objectBoundingBox">
      <stop offset="0" stop-color="#67ccf1"/>
      <stop offset="0.625" stop-color="#004b84"/>
      <stop offset="1" stop-color="#002d4f"/>
    </linearGradient>
    <clipPath id="clip-path-2">
      <rect id="Rectángulo_456526" data-name="Rectángulo 456526" width="65.558" height="61.783" fill="#fff"/>
    </clipPath>
  </defs>
  <g id="Grupo_1192082" data-name="Grupo 1192082" transform="translate(-1136.727 -7764.48)">
    <path id="Trazado_997475" data-name="Trazado 997475" d="M63.973,0A63.718,63.718,0,1,1,0,63.717,63.845,63.845,0,0,1,63.973,0Z" transform="translate(1136.781 7764.48)" fill="#fff"/>
    <g id="Grupo_1177602" data-name="Grupo 1177602" transform="translate(1136.727 7764.993)">
      <g id="Grupo_1177525" data-name="Grupo 1177525">
        <g id="Grupo_1177524" data-name="Grupo 1177524" clip-path="url(#clip-path)">
          <path id="Trazado_997408" data-name="Trazado 997408" d="M64,127.488a63.744,63.744,0,1,1,64-63.744,63.944,63.944,0,0,1-64,63.744M64,1.663a62.081,62.081,0,1,0,62.33,62.081A62.275,62.275,0,0,0,64,1.663" fill="#002d4f"/>
          <path id="Trazado_997409" data-name="Trazado 997409" d="M60.365,114.865A54.719,54.719,0,1,1,115.3,60.146a54.891,54.891,0,0,1-54.937,54.719m0-107.774a53.056,53.056,0,1,0,53.267,53.055A53.222,53.222,0,0,0,60.365,7.091" transform="translate(3.634 3.598)" fill="#002d4f"/>
          <path id="Trazado_997410" data-name="Trazado 997410" d="M56.731,102.241a45.693,45.693,0,1,1,45.876-45.693,45.837,45.837,0,0,1-45.876,45.693m0-89.723a44.031,44.031,0,1,0,44.207,44.03,44.17,44.17,0,0,0-44.207-44.03" transform="translate(7.268 7.196)" fill="#fff"/>
          <path id="Trazado_997411" data-name="Trazado 997411" d="M53.1,89.617A36.667,36.667,0,1,1,89.911,52.95,36.783,36.783,0,0,1,53.1,89.617m0-71.671a35,35,0,1,0,35.144,35,35.115,35.115,0,0,0-35.144-35" transform="translate(10.902 10.794)" fill="#fff"/>
          <path id="Trazado_997412" data-name="Trazado 997412" d="M49.462,76.992A27.641,27.641,0,1,1,77.214,49.352,27.728,27.728,0,0,1,49.462,76.992m0-53.618A25.978,25.978,0,1,0,75.544,49.352,26.059,26.059,0,0,0,49.462,23.374" transform="translate(14.537 14.392)" fill="#fff"/>
          <path id="Trazado_997413" data-name="Trazado 997413" d="M45.828,64.37A18.615,18.615,0,1,1,64.517,45.753,18.673,18.673,0,0,1,45.828,64.37m0-35.568a16.953,16.953,0,1,0,17.02,16.952A17,17,0,0,0,45.828,28.8" transform="translate(18.171 17.99)" fill="#fff"/>
          <path id="Trazado_997414" data-name="Trazado 997414" d="M42.194,51.744a9.589,9.589,0,1,1,9.628-9.588,9.62,9.62,0,0,1-9.628,9.588m0-17.515a7.926,7.926,0,1,0,7.959,7.927,7.953,7.953,0,0,0-7.959-7.927" transform="translate(21.805 21.588)" fill="#fff"/>
        </g>
      </g>
      <g id="Elipse_13614" data-name="Elipse 13614" transform="translate(10.388 10.387)" stroke="#002d4f" stroke-width="1" fill="url(#linear-gradient)">
        <ellipse cx="53.612" cy="53.356" rx="53.612" ry="53.356" stroke="none"/>
        <ellipse cx="53.612" cy="53.356" rx="53.112" ry="52.856" fill="none"/>
      </g>
    </g>
    <g id="Grupo_1192313" data-name="Grupo 1192313" transform="translate(1167.947 7797.306)">
      <g id="Grupo_1192312" data-name="Grupo 1192312" clip-path="url(#clip-path-2)">
        <path id="Trazado_1001687" data-name="Trazado 1001687" d="M139.424,52.828c-.1-.671.975-1.27.648-2.175a1.3,1.3,0,0,0-.608-.594l-3.494-1.995a14.9,14.9,0,0,0-.22-4.885c1.356-1.017,2.982-1.474,4.2-2.575.616-.56-.274-1.393-.6-2.289l32.267-.032.007,14.512Zm24.688-10.013-24.24,0v1.841l24.24,0Zm-.876,5.488a.91.91,0,0,0,.871-.97.875.875,0,0,0-.918-.894l-22.459.007a.884.884,0,0,0-.858.9.942.942,0,0,0,.869.951Z" transform="translate(-107.925 -29.997)" fill="#fff"/>
        <path id="Trazado_1001688" data-name="Trazado 1001688" d="M264.371,133.224l-2.348-2.287a1.047,1.047,0,0,1-.045-1.42c1.182-1.151,2.858-3.377,3.692-2.321.649.821-.265,1.378-.637,1.968a8.785,8.785,0,0,0,2.711.019l.022-15.285a2.9,2.9,0,0,1,1.757-.082l.008,16.309c0,1.7-3.143.8-4.368,1.045-.2.146.167.483.327.625a.99.99,0,0,1,.124,1.461.878.878,0,0,1-1.243-.031" transform="translate(-208.075 -89.106)" fill="#fff"/>
        <path id="Trazado_1001689" data-name="Trazado 1001689" d="M17.448,31.075l-4.777.014c-.345-1.542.546-3.939-.822-4.334-4.5-1.3-4.969-3.914-6.274-3.194l-3.2,1.766L0,21.371l3.31-1.889c1.407-.8-.44-2.3.817-6.337a1.119,1.119,0,0,0-.593-1.408L0,9.719,2.36,5.743l4.1,2.291a.971.971,0,0,0,1.074-.107C10.779,5.2,12.61,6.2,12.619,4.446c.008-1.513-.059-2.942.038-4.439L17.419,0c.128,1.567.013,3.054.058,4.641.041,1.448,2.143.775,4.9,3.163a1.168,1.168,0,0,0,1.454.141l3.879-2.191L30.066,9.7c-1.207.8-2.433,1.4-3.669,2.133a1.047,1.047,0,0,0-.444,1.3c1.192,3.972-.449,5.606.648,6.24l3.47,2L27.7,25.318l-3.074-1.707a1.075,1.075,0,0,0-1.276.09c-3.472,3.508-5.866,2.405-5.877,4.151ZM20.7,22.569a3.007,3.007,0,0,0,2.427-1.638,2.991,2.991,0,0,0,.1-2.976L17.166,7.7a2.345,2.345,0,0,0-2.13-1.12,2.317,2.317,0,0,0-1.987,1.086L6.828,18.01a3.014,3.014,0,0,0,.2,3.057,3.076,3.076,0,0,0,2.426,1.51Z" transform="translate(0 0.001)" fill="#fff"/>
        <path id="Trazado_1001690" data-name="Trazado 1001690" d="M52.735,51.152l-10.964.006a1.36,1.36,0,0,1-1.055-.583,1.385,1.385,0,0,1-.071-1.485L46.564,39.3a.823.823,0,0,1,.642-.452.783.783,0,0,1,.721.382l5.817,9.82a1.293,1.293,0,0,1,.089,1.28,1.333,1.333,0,0,1-1.1.821m-4.664-5.543-.007-2.929a.847.847,0,0,0-.865-.921.891.891,0,0,0-.874.925c-.055,1.577-.376,4.23,1.055,3.942a.922.922,0,0,0,.691-1.017m0,3.472A.872.872,0,1,0,47.2,50a.9.9,0,0,0,.87-.919" transform="translate(-32.169 -30.44)" fill="#fff"/>
        <path id="Trazado_1001691" data-name="Trazado 1001691" d="M167.86,232.75H128.678V218.2H167.86Zm-31.721-8.171H160.4V222.7H136.139Zm23.377,3.625a.947.947,0,0,0,.864-1.08.958.958,0,0,0-.945-.791h-22.3a.906.906,0,0,0-.992.929.933.933,0,0,0,.994.958Z" transform="translate(-102.302 -170.966)" fill="#fff"/>
        <path id="Trazado_1001692" data-name="Trazado 1001692" d="M59.894,175.057c-.574,0-1.067.224-1.076.694l-.08,4.266H42.974l.01-14.524H82.142l.035,9.528ZM74.7,167.849l-24.237,0V169.7l24.237,0Zm-.951,5.452a.882.882,0,0,0,.936-.963.858.858,0,0,0-.881-.892l-22.361,0a.89.89,0,0,0-.97.875.9.9,0,0,0,.907.982Z" transform="translate(-34.165 -129.668)" fill="#fff"/>
        <path id="Trazado_1001693" data-name="Trazado 1001693" d="M24.276,209.552a1.078,1.078,0,0,1,.08,1.612l-2.475,2.366a.872.872,0,0,1-1.111-.092c-.739-.651.319-1.552.611-2.091L9.47,211.309a.874.874,0,0,1-.864-.944l.007-14.715a.825.825,0,0,1,.853-.809l4.374.029a4.965,4.965,0,0,1,0,1.764l-3.476.1,0,12.727,11.076-.022c-.181-.455-.562-.573-.762-.944a1.072,1.072,0,0,1,.051-1.091.815.815,0,0,1,1.153-.141Z" transform="translate(-6.842 -152.664)" fill="#fff"/>
      </g>
    </g>
  </g>
</svg>
