<svg xmlns="http://www.w3.org/2000/svg" xmlns:xlink="http://www.w3.org/1999/xlink" width="96" height="96" viewBox="0 0 96 96">
  <defs>
    <clipPath id="clip-path">
      <rect id="Rectángulo_454800" data-name="Rectángulo 454800" width="95.999" height="95.612" fill="none"/>
    </clipPath>
    <linearGradient id="linear-gradient" x1="0.5" y1="-0.646" x2="0.5" y2="1.118" gradientUnits="objectBoundingBox">
      <stop offset="0" stop-color="#67ccf1"/>
      <stop offset="0.625" stop-color="#004b84"/>
      <stop offset="1" stop-color="#002d4f"/>
    </linearGradient>
    <clipPath id="clip-path-2">
      <rect id="Rectángulo_456490" data-name="Rectángulo 456490" width="45.876" height="45.919" fill="#fff"/>
    </clipPath>
  </defs>
  <g id="Grupo_1192018" data-name="Grupo 1192018" transform="translate(-1136.727 -7764.48)">
    <path id="Trazado_997475" data-name="Trazado 997475" d="M47.979,0A47.786,47.786,0,1,1,0,47.786,47.883,47.883,0,0,1,47.979,0Z" transform="translate(1136.768 7764.48)" fill="#fff"/>
    <g id="Grupo_1177602" data-name="Grupo 1177602" transform="translate(1136.727 7764.868)">
      <g id="Grupo_1177525" data-name="Grupo 1177525">
        <g id="Grupo_1177524" data-name="Grupo 1177524" clip-path="url(#clip-path)">
          <path id="Trazado_997408" data-name="Trazado 997408" d="M48,95.612A47.807,47.807,0,1,1,96,47.806,47.957,47.957,0,0,1,48,95.612M48,1.247A46.559,46.559,0,1,0,94.747,47.806,46.705,46.705,0,0,0,48,1.247" fill="#002d4f"/>
          <path id="Trazado_997409" data-name="Trazado 997409" d="M46.631,87.5a41.038,41.038,0,1,1,41.2-41.038A41.167,41.167,0,0,1,46.631,87.5m0-80.828a39.791,39.791,0,1,0,39.95,39.79,39.915,39.915,0,0,0-39.95-39.79" transform="translate(1.369 1.341)" fill="#002d4f"/>
          <path id="Trazado_997410" data-name="Trazado 997410" d="M45.262,79.392A34.269,34.269,0,1,1,79.669,45.124,34.377,34.377,0,0,1,45.262,79.392m0-67.29A33.022,33.022,0,1,0,78.417,45.124,33.127,33.127,0,0,0,45.262,12.1" transform="translate(2.737 2.683)" fill="#fff"/>
          <path id="Trazado_997411" data-name="Trazado 997411" d="M43.893,71.281a27.5,27.5,0,1,1,27.61-27.5,27.587,27.587,0,0,1-27.61,27.5m0-53.751A26.252,26.252,0,1,0,70.252,43.782,26.336,26.336,0,0,0,43.893,17.53" transform="translate(4.106 4.024)" fill="#fff"/>
          <path id="Trazado_997412" data-name="Trazado 997412" d="M42.525,63.171a20.73,20.73,0,1,1,20.814-20.73,20.8,20.8,0,0,1-20.814,20.73m0-40.212A19.483,19.483,0,1,0,62.086,42.441,19.544,19.544,0,0,0,42.525,22.958" transform="translate(5.475 5.365)" fill="#fff"/>
          <path id="Trazado_997413" data-name="Trazado 997413" d="M41.156,55.061A13.961,13.961,0,1,1,55.173,41.1,14,14,0,0,1,41.156,55.061m0-26.675A12.714,12.714,0,1,0,53.92,41.1,12.753,12.753,0,0,0,41.156,28.386" transform="translate(6.844 6.707)" fill="#fff"/>
          <path id="Trazado_997414" data-name="Trazado 997414" d="M39.787,46.949a7.192,7.192,0,1,1,7.221-7.191,7.215,7.215,0,0,1-7.221,7.191m0-13.136a5.944,5.944,0,1,0,5.969,5.945,5.965,5.965,0,0,0-5.969-5.945" transform="translate(8.212 8.048)" fill="#fff"/>
        </g>
      </g>
      <g id="Elipse_13614" data-name="Elipse 13614" transform="translate(7.859 7.858)" stroke="#002d4f" stroke-width="1" fill="url(#linear-gradient)">
        <ellipse cx="40.141" cy="39.948" rx="40.141" ry="39.948" stroke="none"/>
        <ellipse cx="40.141" cy="39.948" rx="39.641" ry="39.448" fill="none"/>
      </g>
    </g>
    <g id="Grupo_1192258" data-name="Grupo 1192258" transform="translate(1163.81 7787.305)">
      <g id="Grupo_1192257" data-name="Grupo 1192257" clip-path="url(#clip-path-2)">
        <path id="Trazado_1001530" data-name="Trazado 1001530" d="M91.8,41.466l.044,3.027a1.329,1.329,0,0,1-1.3,1.414l-9.464.008,0-35.121-3.88-.027a1.411,1.411,0,0,1-1.338-.761,1.336,1.336,0,0,1,.308-1.594L85.58.345a1.367,1.367,0,0,1,1.865.047l9.323,8a1.322,1.322,0,0,1,.354,1.547,1.423,1.423,0,0,1-1.4.824l-3.859.013-.03,4.407A14.768,14.768,0,0,0,91.8,41.466" transform="translate(-64.864 0)" fill="#fff"/>
        <path id="Trazado_1001531" data-name="Trazado 1001531" d="M62.369,158.98,57.011,159l0-25.657a1.228,1.228,0,0,1,1.147-1.291l4.2-.018Z" transform="translate(-48.831 -113.092)" fill="#fff"/>
        <path id="Trazado_1001532" data-name="Trazado 1001532" d="M1.493,223.252a1.368,1.368,0,0,1-1.481-1.317L0,208.329a1.309,1.309,0,0,1,1.287-1.289l4.1.023,0,16.167Z" transform="translate(0 -177.333)" fill="#fff"/>
        <path id="Trazado_1001533" data-name="Trazado 1001533" d="M175.013,125.121A12.121,12.121,0,1,1,162.891,113a12.121,12.121,0,0,1,12.122,12.121M164.251,131.6a4.044,4.044,0,0,0-1.4-7.835,1.337,1.337,0,0,1-1.294-1.643,1.352,1.352,0,0,1,1.644-1c.925.228,1.885,1.822,3.025.614a1.359,1.359,0,0,0-.107-1.955,6.111,6.111,0,0,0-1.878-1.133,12.211,12.211,0,0,1-.05-1.643,1.314,1.314,0,0,0-1.4-1.284,1.339,1.339,0,0,0-1.27,1.429l0,1.452a4.043,4.043,0,0,0,1.21,7.851,1.353,1.353,0,1,1-.338,2.624,3.263,3.263,0,0,1-1.3-.966,1.351,1.351,0,0,0-1.919-.085,1.327,1.327,0,0,0-.106,1.843,5.826,5.826,0,0,0,2.416,1.727,8.647,8.647,0,0,1,.036,1.484,1.343,1.343,0,0,0,1.412,1.432c1.678-.078,1.141-2,1.324-2.914" transform="translate(-129.137 -96.786)" fill="#fff"/>
      </g>
    </g>
  </g>
</svg>
