<svg xmlns="http://www.w3.org/2000/svg" xmlns:xlink="http://www.w3.org/1999/xlink" width="85" height="85" viewBox="0 0 85 85">
  <defs>
    <clipPath id="clip-path">
      <rect id="Rectángulo_456423" data-name="Rectángulo 456423" width="62.741" height="62.756" fill="#12263f"/>
    </clipPath>
  </defs>
  <g id="Grupo_1177768" data-name="Grupo 1177768" transform="translate(-179.668 -5521)">
    <rect id="Rectángulo_402006" data-name="Rectángulo 402006" width="85" height="85" rx="5" transform="translate(179.668 5521)" fill="#67ccf1"/>
    <g id="Grupo_1192199" data-name="Grupo 1192199" transform="translate(190.797 5532.122)">
      <g id="Grupo_1192198" data-name="Grupo 1192198" clip-path="url(#clip-path)">
        <path id="Trazado_1001339" data-name="Trazado 1001339" d="M21.441,104.044a10.72,10.72,0,1,1-10.72-10.72,10.72,10.72,0,0,1,10.72,10.72m-8.825,5.979a3.328,3.328,0,0,0,.8-6.2c-1.821-1.094-3.788-.647-4.554-1.807a1.213,1.213,0,0,1-.03-1.205,2.276,2.276,0,0,1,2.391-.949c1.8.219,1.631,2.472,3.013,1.895a1,1,0,0,0,.613-1.262c-.374-1.493-1.83-2.164-3.012-2.771-.2-.48-.112-1.4-.81-1.442-.581-.032-1.271.076-1.289.86a.915.915,0,0,1-.748.957,3.511,3.511,0,0,0-2.409,3.3,3.314,3.314,0,0,0,2.5,3.251l2.788.719a1.408,1.408,0,0,1,1.047,2.033,2.655,2.655,0,0,1-2.385.845c-2.79-.076-1.947-3.086-3.677-2.248a1.09,1.09,0,0,0-.54,1.37c.409,1.652,1.928,2.445,3.338,3.008.086.632.151,1.373.825,1.465,1.76.24.561-1.357,2.136-1.812" transform="translate(0 -73.882)" fill="#12263f"/>
        <path id="Trazado_1001340" data-name="Trazado 1001340" d="M120.539,10.722A10.721,10.721,0,1,1,109.818,0a10.721,10.721,0,0,1,10.721,10.721m-9.582,6.425c.906-.7,2.149-.789,2.8-1.848a3.449,3.449,0,0,0-1.658-5.028c-1.728-.788-4.279-.59-4.305-2.135A1.5,1.5,0,0,1,108.834,6.7c3.218-1.156,2.778,2.384,4.586,1.7a1.021,1.021,0,0,0,.5-1.326,4.133,4.133,0,0,0-2.712-2.454c-.606-.192-.092-1.791-1.468-1.7-1.463.1-.266,1.364-1.695,1.869a3.471,3.471,0,0,0-2.349,3.52c.26,4.472,7.042,2.5,6.453,5.433a1.626,1.626,0,0,1-1.374,1.088c-3.8.846-2.85-2.542-4.613-2.215-.676.125-.9.757-.729,1.458.381,1.59,1.874,2.442,3.278,2.924.115.5.126,1.16.469,1.355a1.512,1.512,0,0,0,1.255.021c.454-.1.168-.952.517-1.224" transform="translate(-78.452 -0.001)" fill="#12263f"/>
        <path id="Trazado_1001341" data-name="Trazado 1001341" d="M163.56,194.092,156.1,186.92a1.618,1.618,0,0,1-.21-2.144l-4.058-4.088a13.728,13.728,0,0,1-18.534-.646,28.7,28.7,0,0,1,2.927-2.751,9.706,9.706,0,0,0,16.381-7.307l3.386-3.733a13.656,13.656,0,0,1-1.809,11.843l4.18,4.077c.771-.333,1.477-.608,2.184.083l7.362,7.2a1.187,1.187,0,0,1,.033,1.671l-2.772,2.854a1.157,1.157,0,0,1-1.608.109" transform="translate(-105.528 -131.616)" fill="#12263f"/>
        <path id="Trazado_1001342" data-name="Trazado 1001342" d="M134.345,126.644a9.818,9.818,0,0,0-11.193-2.018,9.685,9.685,0,0,0-5.477,9.773l-3.37,3.227a13.691,13.691,0,0,1,22.659-13.982Z" transform="translate(-89.929 -94.733)" fill="#12263f"/>
        <path id="Trazado_1001343" data-name="Trazado 1001343" d="M109.547,127.561,95.942,140.573a1.036,1.036,0,0,1-1.58-1.339l14.517-13.978a1.115,1.115,0,0,1,1.617.084l3.395,4.405L127.158,114.8c-.444-.322-.913-.233-1.35-.394a1.021,1.021,0,0,1-.678-1.191.961.961,0,0,1,1.185-.78l3.116.457a1.053,1.053,0,0,1,.925.88l.486,3.071a1.043,1.043,0,1,1-2.044.376,1.089,1.089,0,0,0-.3-.764l-13.827,15.568a1.13,1.13,0,0,1-.959.4,1.057,1.057,0,0,1-.818-.519Z" transform="translate(-74.521 -89.002)" fill="#12263f"/>
        <path id="Trazado_1001344" data-name="Trazado 1001344" d="M68.633,9.872c-.022.64.025,1.153-.437,1.478a1.03,1.03,0,0,1-1.14.068c-.489-.3-.543-.83-.557-1.435-.017-.74.275-1.4.975-1.462s1.191.427,1.159,1.351" transform="translate(-52.645 -6.742)" fill="#12263f"/>
        <path id="Trazado_1001345" data-name="Trazado 1001345" d="M13.241,61.685a1,1,0,0,1,.646,1.2c-.126.657-.733.825-1.4.809-.575-.013-1.159.01-1.456-.519a1.037,1.037,0,0,1,.389-1.421,2.718,2.718,0,0,1,1.823-.066" transform="translate(-8.627 -48.736)" fill="#12263f"/>
        <path id="Trazado_1001346" data-name="Trazado 1001346" d="M39.163,61.721a1,1,0,0,1,.536,1.316c-.368.923-2.52.914-2.9,0a1.016,1.016,0,0,1,.607-1.347,2.731,2.731,0,0,1,1.758.033" transform="translate(-29.074 -48.735)" fill="#12263f"/>
        <path id="Trazado_1001347" data-name="Trazado 1001347" d="M53.938,23.711a.983.983,0,0,1,.54,1.256c-.429,1.062-2.486.816-2.823.222a1.037,1.037,0,0,1,.3-1.413,2.473,2.473,0,0,1,1.986-.065" transform="translate(-40.773 -18.632)" fill="#12263f"/>
        <path id="Trazado_1001348" data-name="Trazado 1001348" d="M68.635,35.859c-.024.62.006,1.127-.448,1.458a1.041,1.041,0,0,1-1.115.048c-.5-.279-.559-.811-.569-1.4-.013-.766.253-1.421.955-1.476.742-.059,1.215.414,1.178,1.369" transform="translate(-52.648 -27.301)" fill="#12263f"/>
        <path id="Trazado_1001349" data-name="Trazado 1001349" d="M27.675,46.735a2.088,2.088,0,0,1-.05,2.674,1,1,0,0,1-1.189-.028,2.231,2.231,0,0,1-.047-2.628,1.082,1.082,0,0,1,1.286-.018" transform="translate(-20.571 -36.839)" fill="#12263f"/>
        <path id="Trazado_1001350" data-name="Trazado 1001350" d="M79.906,23.719a1.026,1.026,0,0,1,.467,1.326c-.3.876-2.4.8-2.76.16a1.044,1.044,0,0,1,.269-1.416,2.459,2.459,0,0,1,2.024-.07" transform="translate(-61.319 -18.633)" fill="#12263f"/>
        <path id="Trazado_1001351" data-name="Trazado 1001351" d="M27.555,72.659c.787.329.654,2.165.27,2.564a1.145,1.145,0,0,1-1.342.171c-.649-.35-.638-2.182-.1-2.634a1.15,1.15,0,0,1,1.169-.1" transform="translate(-20.574 -57.435)" fill="#12263f"/>
      </g>
    </g>
  </g>
</svg>
