<svg xmlns="http://www.w3.org/2000/svg" xmlns:xlink="http://www.w3.org/1999/xlink" width="84" height="84" viewBox="0 0 84 84">
  <defs>
    <clipPath id="clip-path">
      <rect id="Rectángulo_456469" data-name="Rectángulo 456469" width="64.913" height="64.903" fill="#12263f"/>
    </clipPath>
  </defs>
  <g id="Grupo_1191942" data-name="Grupo 1191942" transform="translate(-179.668 -5521)">
    <rect id="Rectángulo_402006" data-name="Rectángulo 402006" width="84" height="84" rx="5" transform="translate(179.668 5521)" fill="#fe93c4"/>
    <g id="Grupo_1192222" data-name="Grupo 1192222" transform="translate(189.211 5530.549)">
      <g id="Grupo_1192221" data-name="Grupo 1192221" clip-path="url(#clip-path)">
        <path id="Trazado_1001430" data-name="Trazado 1001430" d="M16.561,18.816,9.592,24.891a5.113,5.113,0,1,1-8.258-.984,5.253,5.253,0,0,1,6.884-.678l6.9-6.022a5.179,5.179,0,0,1,.937-6.146,5.111,5.111,0,0,1,8.523,4.89l5.5,2.743a5.228,5.228,0,0,1,6.6-1.272L50.024,2.39c-.8-.234-1.2-.424-1.33-.918A.994.994,0,0,1,49.459.2C50.523.051,51.553.05,52.626,0c1.47-.066,1.2,2.045,1.27,3.813a1.1,1.1,0,0,1-.972,1.246c-.6.06-1-.293-1.281-1.213L38.257,18.832a5.162,5.162,0,0,1-.24,6.34A5.11,5.11,0,0,1,29.15,20.68l-5.544-2.773a5.1,5.1,0,0,1-7.045.909m6.021-4.1a2.972,2.972,0,1,0-2.972,2.972,2.972,2.972,0,0,0,2.972-2.972M37.094,21.87a2.975,2.975,0,1,0-2.975,2.975,2.975,2.975,0,0,0,2.975-2.975M8.078,27.354A2.974,2.974,0,1,0,5.1,30.328a2.975,2.975,0,0,0,2.974-2.974" transform="translate(0 0)" fill="#12263f"/>
        <rect id="Rectángulo_456467" data-name="Rectángulo 456467" width="7.797" height="24.059" transform="translate(18.385 27.952)" fill="#12263f"/>
        <path id="Trazado_1001431" data-name="Trazado 1001431" d="M46.3,258.74l-36.526.019a1.076,1.076,0,0,1-.9-.328c-.336-.424-.464-2.632.191-3.228l33.3-.025A17.725,17.725,0,0,0,46.3,258.74" transform="translate(-6.776 -201.046)" fill="#12263f"/>
        <rect id="Rectángulo_456468" data-name="Rectángulo 456468" width="7.824" height="10.882" transform="translate(3.86 41.129)" fill="#12263f"/>
        <path id="Trazado_1001432" data-name="Trazado 1001432" d="M216.969,81.633a13.174,13.174,0,0,0-7.717-4.122l-.1-12.458c-1.307-.244-2.439.22-3.764-.318l7.764-9.7,7.381,9.13a.516.516,0,0,1-.029.788l-3.435.125Z" transform="translate(-161.822 -43.36)" fill="#12263f"/>
        <path id="Trazado_1001433" data-name="Trazado 1001433" d="M162.833,158.825a12.584,12.584,0,0,0-6.448,16.675c-.09.371-1.263.394-1.263.024l-.02-18.461h7.572c.363.344.28,1.1.159,1.761" transform="translate(-122.2 -123.746)" fill="#12263f"/>
        <path id="Trazado_1001434" data-name="Trazado 1001434" d="M195.494,196.805l-2.019,2.112a1,1,0,0,1-1.349.127l-5.632-5.405c-.587-.564-.339-1.122-.213-1.722a34.028,34.028,0,0,0-3.081-3.012,10.427,10.427,0,1,1,1.821-2l3.052,3.029,1.324-.257,6.034,5.814a1.008,1.008,0,0,1,.062,1.317m-12.382-15.862a6.665,6.665,0,1,0-6.665,6.665,6.665,6.665,0,0,0,6.665-6.665" transform="translate(-130.798 -134.352)" fill="#12263f"/>
        <path id="Trazado_1001435" data-name="Trazado 1001435" d="M197.447,210.932l-1.669-1.686a1.117,1.117,0,0,1-.121-1.407,1.039,1.039,0,0,1,1.481-.2l1.239,1.156,3.672-3.288a1.087,1.087,0,0,1,1.512.049,1.068,1.068,0,0,1-.1,1.534l-4.214,3.845a1.23,1.23,0,0,1-1.8-.008" transform="translate(-154 -161.694)" fill="#12263f"/>
      </g>
    </g>
  </g>
</svg>
