<svg xmlns="http://www.w3.org/2000/svg" xmlns:xlink="http://www.w3.org/1999/xlink" width="128" height="128" viewBox="0 0 128 128">
  <defs>
    <clipPath id="clip-path">
      <rect id="Rectángulo_454800" data-name="Rectángulo 454800" width="127.998" height="127.488" fill="none"/>
    </clipPath>
    <linearGradient id="linear-gradient" x1="0.5" y1="-0.646" x2="0.5" y2="1.118" gradientUnits="objectBoundingBox">
      <stop offset="0" stop-color="#67ccf1"/>
      <stop offset="0.625" stop-color="#004b84"/>
      <stop offset="1" stop-color="#002d4f"/>
    </linearGradient>
    <clipPath id="clip-path-2">
      <rect id="Rectángulo_456531" data-name="Rectángulo 456531" width="62.666" height="62.682" fill="#fff"/>
    </clipPath>
  </defs>
  <g id="Grupo_1192081" data-name="Grupo 1192081" transform="translate(-1136.727 -7764.48)">
    <path id="Trazado_997475" data-name="Trazado 997475" d="M63.973,0A63.718,63.718,0,1,1,0,63.717,63.845,63.845,0,0,1,63.973,0Z" transform="translate(1136.781 7764.48)" fill="#fff"/>
    <g id="Grupo_1177602" data-name="Grupo 1177602" transform="translate(1136.727 7764.993)">
      <g id="Grupo_1177525" data-name="Grupo 1177525">
        <g id="Grupo_1177524" data-name="Grupo 1177524" clip-path="url(#clip-path)">
          <path id="Trazado_997408" data-name="Trazado 997408" d="M64,127.488a63.744,63.744,0,1,1,64-63.744,63.944,63.944,0,0,1-64,63.744M64,1.663a62.081,62.081,0,1,0,62.33,62.081A62.275,62.275,0,0,0,64,1.663" fill="#002d4f"/>
          <path id="Trazado_997409" data-name="Trazado 997409" d="M60.365,114.865A54.719,54.719,0,1,1,115.3,60.146a54.891,54.891,0,0,1-54.937,54.719m0-107.774a53.056,53.056,0,1,0,53.267,53.055A53.222,53.222,0,0,0,60.365,7.091" transform="translate(3.634 3.598)" fill="#002d4f"/>
          <path id="Trazado_997410" data-name="Trazado 997410" d="M56.731,102.241a45.693,45.693,0,1,1,45.876-45.693,45.837,45.837,0,0,1-45.876,45.693m0-89.723a44.031,44.031,0,1,0,44.207,44.03,44.17,44.17,0,0,0-44.207-44.03" transform="translate(7.268 7.196)" fill="#fff"/>
          <path id="Trazado_997411" data-name="Trazado 997411" d="M53.1,89.617A36.667,36.667,0,1,1,89.911,52.95,36.783,36.783,0,0,1,53.1,89.617m0-71.671a35,35,0,1,0,35.144,35,35.115,35.115,0,0,0-35.144-35" transform="translate(10.902 10.794)" fill="#fff"/>
          <path id="Trazado_997412" data-name="Trazado 997412" d="M49.462,76.992A27.641,27.641,0,1,1,77.214,49.352,27.728,27.728,0,0,1,49.462,76.992m0-53.618A25.978,25.978,0,1,0,75.544,49.352,26.059,26.059,0,0,0,49.462,23.374" transform="translate(14.537 14.392)" fill="#fff"/>
          <path id="Trazado_997413" data-name="Trazado 997413" d="M45.828,64.37A18.615,18.615,0,1,1,64.517,45.753,18.673,18.673,0,0,1,45.828,64.37m0-35.568a16.953,16.953,0,1,0,17.02,16.952A17,17,0,0,0,45.828,28.8" transform="translate(18.171 17.99)" fill="#fff"/>
          <path id="Trazado_997414" data-name="Trazado 997414" d="M42.194,51.744a9.589,9.589,0,1,1,9.628-9.588,9.62,9.62,0,0,1-9.628,9.588m0-17.515a7.926,7.926,0,1,0,7.959,7.927,7.953,7.953,0,0,0-7.959-7.927" transform="translate(21.805 21.588)" fill="#fff"/>
        </g>
      </g>
      <g id="Elipse_13614" data-name="Elipse 13614" transform="translate(10.388 10.387)" stroke="#002d4f" stroke-width="1" fill="url(#linear-gradient)">
        <ellipse cx="53.612" cy="53.356" rx="53.612" ry="53.356" stroke="none"/>
        <ellipse cx="53.612" cy="53.356" rx="53.112" ry="52.856" fill="none"/>
      </g>
    </g>
    <g id="Grupo_1192316" data-name="Grupo 1192316" transform="translate(1169.226 7793.729)">
      <rect id="Rectángulo_456527" data-name="Rectángulo 456527" width="13.394" height="16.053" transform="translate(14.944 46.626)" fill="#fff"/>
      <rect id="Rectángulo_456528" data-name="Rectángulo 456528" width="13.384" height="9.427" transform="translate(0 53.254)" fill="#fff"/>
      <g id="Grupo_1192315" data-name="Grupo 1192315">
        <g id="Grupo_1192314" data-name="Grupo 1192314" clip-path="url(#clip-path-2)">
          <path id="Trazado_1001694" data-name="Trazado 1001694" d="M20.432,112.656a1.9,1.9,0,0,1-1.276-1.832l-.009-7.452a.9.9,0,0,0-.284-.733c-.965-.564-2.541,1.288-2.57,1.344-1.217,2.372-1.039,5.767-2.842,5.3a1.116,1.116,0,0,1-.742-1.41c.726-1.591.7-3.715,1.731-5.115,1.278-1.741,3.406-2.7,4.832-4.3a1.962,1.962,0,0,1,2.186-.55,1.926,1.926,0,0,1,1.2,1.681l.072,9.769,5.962,2.566a1.338,1.338,0,0,1,.791,1.264l-.012,5.972a1.7,1.7,0,0,1-1.56,1.649,1.67,1.67,0,0,1-1.923-1.472l-.142-4.81c-1.767-.808-3.614-1.189-5.413-1.866" transform="translate(-9.937 -76.924)" fill="#fff"/>
          <path id="Trazado_1001695" data-name="Trazado 1001695" d="M33.021,186.58a1.782,1.782,0,0,1-2.22,1.3,1.751,1.751,0,0,1-1.2-2.25l2.784-9.607.117-2.432a34.97,34.97,0,0,1,3.332,1.142,3.534,3.534,0,0,1,.007,2.223Z" transform="translate(-23.224 -136.566)" fill="#fff"/>
          <path id="Trazado_1001696" data-name="Trazado 1001696" d="M52.41,64.036a2.655,2.655,0,1,1-2.655-2.655,2.655,2.655,0,0,1,2.655,2.655" transform="translate(-37.054 -48.289)" fill="#fff"/>
          <path id="Trazado_1001697" data-name="Trazado 1001697" d="M71.852,124.264c-.448,1.61-3.448-.156-4.727-.476a6.282,6.282,0,0,1,.045-2.231l3.967,1.3a1.085,1.085,0,0,1,.715,1.406" transform="translate(-52.747 -95.629)" fill="#fff"/>
          <rect id="Rectángulo_456529" data-name="Rectángulo 456529" width="13.359" height="29.43" transform="translate(44.856 33.252)" fill="#fff"/>
          <rect id="Rectángulo_456530" data-name="Rectángulo 456530" width="13.374" height="22.429" transform="translate(29.902 40.249)" fill="#fff"/>
          <path id="Trazado_1001698" data-name="Trazado 1001698" d="M156.381,7.569c-1.894-1.911-2.114-.822-3.928-.4-1.51-.674-2.859-1.613-4.332-2.415a.853.853,0,0,1-.4-.8c.019-.893,1.526-.842,1.968-1.391.3-.233-.492-1.856.1-2.341a.861.861,0,0,1,.881-.16l4.324,2.509c.8,2.309-.49,2.121,2.3,3.4a11.835,11.835,0,1,1-.905,1.6m3.888,2.012a27.515,27.515,0,0,0-2.449-1.312,10.3,10.3,0,1,0,.878-1.49,10.84,10.84,0,0,0,2.445,1.376,7.4,7.4,0,1,1,2.4,10.949,7.5,7.5,0,0,1-3.273-9.524m3.848,2.215-2.441-1.323a5.792,5.792,0,1,0,8.639-2.664,5.665,5.665,0,0,0-7.747,1.231l2.417,1.409a3.035,3.035,0,0,1,4.05-.076,2.979,2.979,0,0,1-3.083,5,3.157,3.157,0,0,1-1.835-3.572m1.814,1.242c-.079.809,1.072,1.079,1.576.865a1.375,1.375,0,0,0,.889-1.648,1.265,1.265,0,0,0-1.671-.921c.2.406.666.42.917.751a.825.825,0,0,1-.245,1.233c-.37.235-.9-.246-1.465-.28" transform="translate(-116.21 0)" fill="#fff"/>
        </g>
      </g>
    </g>
  </g>
</svg>
