<svg xmlns="http://www.w3.org/2000/svg" xmlns:xlink="http://www.w3.org/1999/xlink" width="96" height="96" viewBox="0 0 96 96">
  <defs>
    <clipPath id="clip-path">
      <rect id="Rectángulo_454800" data-name="Rectángulo 454800" width="95.999" height="95.612" fill="none"/>
    </clipPath>
    <linearGradient id="linear-gradient" x1="0.5" y1="-0.646" x2="0.5" y2="1.118" gradientUnits="objectBoundingBox">
      <stop offset="0" stop-color="#67ccf1"/>
      <stop offset="0.625" stop-color="#004b84"/>
      <stop offset="1" stop-color="#002d4f"/>
    </linearGradient>
    <clipPath id="clip-path-2">
      <rect id="Rectángulo_456491" data-name="Rectángulo 456491" width="45.144" height="47.289" fill="#fff"/>
    </clipPath>
  </defs>
  <g id="Grupo_1192019" data-name="Grupo 1192019" transform="translate(-1136.727 -7764.48)">
    <path id="Trazado_997475" data-name="Trazado 997475" d="M47.979,0A47.786,47.786,0,1,1,0,47.786,47.883,47.883,0,0,1,47.979,0Z" transform="translate(1136.768 7764.48)" fill="#fff"/>
    <g id="Grupo_1177602" data-name="Grupo 1177602" transform="translate(1136.727 7764.868)">
      <g id="Grupo_1177525" data-name="Grupo 1177525">
        <g id="Grupo_1177524" data-name="Grupo 1177524" clip-path="url(#clip-path)">
          <path id="Trazado_997408" data-name="Trazado 997408" d="M48,95.612A47.807,47.807,0,1,1,96,47.806,47.957,47.957,0,0,1,48,95.612M48,1.247A46.559,46.559,0,1,0,94.747,47.806,46.705,46.705,0,0,0,48,1.247" fill="#002d4f"/>
          <path id="Trazado_997409" data-name="Trazado 997409" d="M46.631,87.5a41.038,41.038,0,1,1,41.2-41.038A41.167,41.167,0,0,1,46.631,87.5m0-80.828a39.791,39.791,0,1,0,39.95,39.79,39.915,39.915,0,0,0-39.95-39.79" transform="translate(1.369 1.341)" fill="#002d4f"/>
          <path id="Trazado_997410" data-name="Trazado 997410" d="M45.262,79.392A34.269,34.269,0,1,1,79.669,45.124,34.377,34.377,0,0,1,45.262,79.392m0-67.29A33.022,33.022,0,1,0,78.417,45.124,33.127,33.127,0,0,0,45.262,12.1" transform="translate(2.737 2.683)" fill="#fff"/>
          <path id="Trazado_997411" data-name="Trazado 997411" d="M43.893,71.281a27.5,27.5,0,1,1,27.61-27.5,27.587,27.587,0,0,1-27.61,27.5m0-53.751A26.252,26.252,0,1,0,70.252,43.782,26.336,26.336,0,0,0,43.893,17.53" transform="translate(4.106 4.024)" fill="#fff"/>
          <path id="Trazado_997412" data-name="Trazado 997412" d="M42.525,63.171a20.73,20.73,0,1,1,20.814-20.73,20.8,20.8,0,0,1-20.814,20.73m0-40.212A19.483,19.483,0,1,0,62.086,42.441,19.544,19.544,0,0,0,42.525,22.958" transform="translate(5.475 5.365)" fill="#fff"/>
          <path id="Trazado_997413" data-name="Trazado 997413" d="M41.156,55.061A13.961,13.961,0,1,1,55.173,41.1,14,14,0,0,1,41.156,55.061m0-26.675A12.714,12.714,0,1,0,53.92,41.1,12.753,12.753,0,0,0,41.156,28.386" transform="translate(6.844 6.707)" fill="#fff"/>
          <path id="Trazado_997414" data-name="Trazado 997414" d="M39.787,46.949a7.192,7.192,0,1,1,7.221-7.191,7.215,7.215,0,0,1-7.221,7.191m0-13.136a5.944,5.944,0,1,0,5.969,5.945,5.965,5.965,0,0,0-5.969-5.945" transform="translate(8.212 8.048)" fill="#fff"/>
        </g>
      </g>
      <g id="Elipse_13614" data-name="Elipse 13614" transform="translate(7.859 7.858)" stroke="#002d4f" stroke-width="1" fill="url(#linear-gradient)">
        <ellipse cx="40.141" cy="39.948" rx="40.141" ry="39.948" stroke="none"/>
        <ellipse cx="40.141" cy="39.948" rx="39.641" ry="39.448" fill="none"/>
      </g>
    </g>
    <g id="Grupo_1192260" data-name="Grupo 1192260" transform="translate(1164.175 7789.622)">
      <g id="Grupo_1192259" data-name="Grupo 1192259" clip-path="url(#clip-path-2)">
        <path id="Trazado_1001534" data-name="Trazado 1001534" d="M27.219,122.485,5.2,122.442A5.3,5.3,0,0,1,0,117.024V93.463H40.836l0,13.746a10.782,10.782,0,0,0-13.614,15.275m-16-17.224a1.6,1.6,0,0,0,1.666-1.608v-3.236a1.637,1.637,0,0,0-1.756-1.61l-3.083.012a1.58,1.58,0,0,0-1.6,1.6v3.24a1.591,1.591,0,0,0,1.6,1.6Zm10.812-.007a1.572,1.572,0,0,0,1.59-1.509c.043-1.152.046-2.271,0-3.421a1.618,1.618,0,0,0-1.687-1.517l-3.079.007a1.591,1.591,0,0,0-1.652,1.606v3.23a1.6,1.6,0,0,0,1.661,1.612Zm10.771,0a1.571,1.571,0,0,0,1.578-1.6V100.42a1.592,1.592,0,0,0-1.651-1.606l-3.08,0a1.612,1.612,0,0,0-1.689,1.515c-.053,1.1-.018,2.18-.014,3.287a1.639,1.639,0,0,0,1.7,1.652ZM11.375,117.081a1.622,1.622,0,0,0,1.517-1.662l-.01-3.231a1.585,1.585,0,0,0-1.5-1.548H7.957a1.583,1.583,0,0,0-1.5,1.547l-.01,3.234a1.6,1.6,0,0,0,1.605,1.657Zm10.659-.008a1.563,1.563,0,0,0,1.593-1.521c.045-1.126.029-2.2.008-3.332a1.582,1.582,0,0,0-1.573-1.573l-3.333.007a1.589,1.589,0,0,0-1.53,1.687l0,3.083a1.612,1.612,0,0,0,1.655,1.655Z" transform="translate(0 -78.392)" fill="#fff"/>
        <path id="Trazado_1001535" data-name="Trazado 1001535" d="M190.513,195.223a8.6,8.6,0,1,1-8.6-8.6,8.6,8.6,0,0,1,8.6,8.6m-12.55.789,1.98,2a1.2,1.2,0,0,0,1.8,0l4.179-4.214a1.061,1.061,0,0,0-1.508-1.492l-3.56,3.537-1.4-1.367a1.07,1.07,0,1,0-1.484,1.541" transform="translate(-145.369 -156.531)" fill="#fff"/>
        <path id="Trazado_1001536" data-name="Trazado 1001536" d="M25.8,22.1a4.294,4.294,0,0,0,8.587,0l.013-2.149a5.444,5.444,0,0,1,6.448,5.685L40.8,29.564H.025L0,25.311a5.432,5.432,0,0,1,6.446-5.356l0,2.146a4.294,4.294,0,0,0,8.586,0c.018-.762-.034-1.442.043-2.206l10.672-.009c.09.753.025,1.447.045,2.211" transform="translate(-0.004 -16.671)" fill="#fff"/>
        <path id="Trazado_1001537" data-name="Trazado 1001537" d="M57.587,5.2a2.16,2.16,0,1,1-4.312.066l0-3.055a2.152,2.152,0,1,1,4.3-.02Z" transform="translate(-44.685 0)" fill="#fff"/>
        <path id="Trazado_1001538" data-name="Trazado 1001538" d="M177.587,5.2a2.159,2.159,0,1,1-4.312.066l0-3.055a2.152,2.152,0,1,1,4.3-.02Z" transform="translate(-145.335 0)" fill="#fff"/>
      </g>
    </g>
  </g>
</svg>
